<?xml version="1.0" standalone="no"?>
<!DOCTYPE svg PUBLIC "-//W3C//DTD SVG 1.1//EN" "http://www.w3.org/Graphics/SVG/1.1/DTD/svg11.dtd">
<svg version="1.1" width="1200" height="358" onload="init(evt)" viewBox="0 0 1200 358" xmlns="http://www.w3.org/2000/svg" xmlns:xlink="http://www.w3.org/1999/xlink">
<!-- Flame graph stack visualization. See https://github.com/brendangregg/FlameGraph for latest version, and http://www.brendangregg.com/flamegraphs.html for examples. -->
<!-- NOTES:  -->
<defs>
	<linearGradient id="background" y1="0" y2="1" x1="0" x2="0" >
		<stop stop-color="#eeeeee" offset="5%" />
		<stop stop-color="#eeeeb0" offset="95%" />
	</linearGradient>
</defs>
<style type="text/css">
	text { font-family:Verdana; font-size:12px; fill:rgb(0,0,0); }
	#search, #ignorecase { opacity:0.1; cursor:pointer; }
	#search:hover, #search.show, #ignorecase:hover, #ignorecase.show { opacity:1; }
	#subtitle { text-anchor:middle; font-color:rgb(160,160,160); }
	#title { text-anchor:middle; font-size:17px}
	#unzoom { cursor:pointer; }
	#frames > *:hover { stroke:black; stroke-width:0.5; cursor:pointer; }
	.hide { display:none; }
	.parent { opacity:0.5; }
</style>
<script type="text/ecmascript">
<![CDATA[
	"use strict";
	var details, searchbtn, unzoombtn, matchedtxt, svg, searching, currentSearchTerm, ignorecase, ignorecaseBtn;
	function init(evt) {
		details = document.getElementById("details").firstChild;
		searchbtn = document.getElementById("search");
		ignorecaseBtn = document.getElementById("ignorecase");
		unzoombtn = document.getElementById("unzoom");
		matchedtxt = document.getElementById("matched");
		svg = document.getElementsByTagName("svg")[0];
		searching = 0;
		currentSearchTerm = null;

		// use GET parameters to restore a flamegraphs state.
		var params = get_params();
		if (params.x && params.y)
			zoom(find_group(document.querySelector('[x="' + params.x + '"][y="' + params.y + '"]')));
                if (params.s) search(params.s);
	}

	// event listeners
	window.addEventListener("click", function(e) {
		var target = find_group(e.target);
		if (target) {
			if (target.nodeName == "a") {
				if (e.ctrlKey === false) return;
				e.preventDefault();
			}
			if (target.classList.contains("parent")) unzoom(true);
			zoom(target);
			if (!document.querySelector('.parent')) {
				// we have basically done a clearzoom so clear the url
				var params = get_params();
				if (params.x) delete params.x;
				if (params.y) delete params.y;
				history.replaceState(null, null, parse_params(params));
				unzoombtn.classList.add("hide");
				return;
			}

			// set parameters for zoom state
			var el = target.querySelector("rect");
			if (el && el.attributes && el.attributes.y && el.attributes._orig_x) {
				var params = get_params()
				params.x = el.attributes._orig_x.value;
				params.y = el.attributes.y.value;
				history.replaceState(null, null, parse_params(params));
			}
		}
		else if (e.target.id == "unzoom") clearzoom();
		else if (e.target.id == "search") search_prompt();
		else if (e.target.id == "ignorecase") toggle_ignorecase();
	}, false)

	// mouse-over for info
	// show
	window.addEventListener("mouseover", function(e) {
		var target = find_group(e.target);
		if (target) details.nodeValue = "Function: " + g_to_text(target);
	}, false)

	// clear
	window.addEventListener("mouseout", function(e) {
		var target = find_group(e.target);
		if (target) details.nodeValue = ' ';
	}, false)

	// ctrl-F for search
	// ctrl-I to toggle case-sensitive search
	window.addEventListener("keydown",function (e) {
		if (e.keyCode === 114 || (e.ctrlKey && e.keyCode === 70)) {
			e.preventDefault();
			search_prompt();
		}
		else if (e.ctrlKey && e.keyCode === 73) {
			e.preventDefault();
			toggle_ignorecase();
		}
	}, false)

	// functions
	function get_params() {
		var params = {};
		var paramsarr = window.location.search.substr(1).split('&');
		for (var i = 0; i < paramsarr.length; ++i) {
			var tmp = paramsarr[i].split("=");
			if (!tmp[0] || !tmp[1]) continue;
			params[tmp[0]]  = decodeURIComponent(tmp[1]);
		}
		return params;
	}
	function parse_params(params) {
		var uri = "?";
		for (var key in params) {
			uri += key + '=' + encodeURIComponent(params[key]) + '&';
		}
		if (uri.slice(-1) == "&")
			uri = uri.substring(0, uri.length - 1);
		if (uri == '?')
			uri = window.location.href.split('?')[0];
		return uri;
	}
	function find_child(node, selector) {
		var children = node.querySelectorAll(selector);
		if (children.length) return children[0];
	}
	function find_group(node) {
		var parent = node.parentElement;
		if (!parent) return;
		if (parent.id == "frames") return node;
		return find_group(parent);
	}
	function orig_save(e, attr, val) {
		if (e.attributes["_orig_" + attr] != undefined) return;
		if (e.attributes[attr] == undefined) return;
		if (val == undefined) val = e.attributes[attr].value;
		e.setAttribute("_orig_" + attr, val);
	}
	function orig_load(e, attr) {
		if (e.attributes["_orig_"+attr] == undefined) return;
		e.attributes[attr].value = e.attributes["_orig_" + attr].value;
		e.removeAttribute("_orig_"+attr);
	}
	function g_to_text(e) {
		var text = find_child(e, "title").firstChild.nodeValue;
		return (text)
	}
	function g_to_func(e) {
		var func = g_to_text(e);
		// if there's any manipulation we want to do to the function
		// name before it's searched, do it here before returning.
		return (func);
	}
	function update_text(e) {
		var r = find_child(e, "rect");
		var t = find_child(e, "text");
		var w = parseFloat(r.attributes.width.value) -3;
		var txt = find_child(e, "title").textContent.replace(/\([^(]*\)$/,"");
		t.attributes.x.value = parseFloat(r.attributes.x.value) + 3;

		// Smaller than this size won't fit anything
		if (w < 2 * 12 * 0.59) {
			t.textContent = "";
			return;
		}

		t.textContent = txt;
		var sl = t.getSubStringLength(0, txt.length);
		// check if only whitespace or if we can fit the entire string into width w
		if (/^ *$/.test(txt) || sl < w)
			return;

		// this isn't perfect, but gives a good starting point
		// and avoids calling getSubStringLength too often
		var start = Math.floor((w/sl) * txt.length);
		for (var x = start; x > 0; x = x-2) {
			if (t.getSubStringLength(0, x + 2) <= w) {
				t.textContent = txt.substring(0, x) + "..";
				return;
			}
		}
		t.textContent = "";
	}

	// zoom
	function zoom_reset(e) {
		if (e.attributes != undefined) {
			orig_load(e, "x");
			orig_load(e, "width");
		}
		if (e.childNodes == undefined) return;
		for (var i = 0, c = e.childNodes; i < c.length; i++) {
			zoom_reset(c[i]);
		}
	}
	function zoom_child(e, x, ratio) {
		if (e.attributes != undefined) {
			if (e.attributes.x != undefined) {
				orig_save(e, "x");
				e.attributes.x.value = (parseFloat(e.attributes.x.value) - x - 10) * ratio + 10;
				if (e.tagName == "text")
					e.attributes.x.value = find_child(e.parentNode, "rect[x]").attributes.x.value + 3;
			}
			if (e.attributes.width != undefined) {
				orig_save(e, "width");
				e.attributes.width.value = parseFloat(e.attributes.width.value) * ratio;
			}
		}

		if (e.childNodes == undefined) return;
		for (var i = 0, c = e.childNodes; i < c.length; i++) {
			zoom_child(c[i], x - 10, ratio);
		}
	}
	function zoom_parent(e) {
		if (e.attributes) {
			if (e.attributes.x != undefined) {
				orig_save(e, "x");
				e.attributes.x.value = 10;
			}
			if (e.attributes.width != undefined) {
				orig_save(e, "width");
				e.attributes.width.value = parseInt(svg.width.baseVal.value) - (10 * 2);
			}
		}
		if (e.childNodes == undefined) return;
		for (var i = 0, c = e.childNodes; i < c.length; i++) {
			zoom_parent(c[i]);
		}
	}
	function zoom(node) {
		var attr = find_child(node, "rect").attributes;
		var width = parseFloat(attr.width.value);
		var xmin = parseFloat(attr.x.value);
		var xmax = parseFloat(xmin + width);
		var ymin = parseFloat(attr.y.value);
		var ratio = (svg.width.baseVal.value - 2 * 10) / width;

		// XXX: Workaround for JavaScript float issues (fix me)
		var fudge = 0.0001;

		unzoombtn.classList.remove("hide");

		var el = document.getElementById("frames").children;
		for (var i = 0; i < el.length; i++) {
			var e = el[i];
			var a = find_child(e, "rect").attributes;
			var ex = parseFloat(a.x.value);
			var ew = parseFloat(a.width.value);
			var upstack;
			// Is it an ancestor
			if (0 == 0) {
				upstack = parseFloat(a.y.value) > ymin;
			} else {
				upstack = parseFloat(a.y.value) < ymin;
			}
			if (upstack) {
				// Direct ancestor
				if (ex <= xmin && (ex+ew+fudge) >= xmax) {
					e.classList.add("parent");
					zoom_parent(e);
					update_text(e);
				}
				// not in current path
				else
					e.classList.add("hide");
			}
			// Children maybe
			else {
				// no common path
				if (ex < xmin || ex + fudge >= xmax) {
					e.classList.add("hide");
				}
				else {
					zoom_child(e, xmin, ratio);
					update_text(e);
				}
			}
		}
		search();
	}
	function unzoom(dont_update_text) {
		unzoombtn.classList.add("hide");
		var el = document.getElementById("frames").children;
		for(var i = 0; i < el.length; i++) {
			el[i].classList.remove("parent");
			el[i].classList.remove("hide");
			zoom_reset(el[i]);
			if(!dont_update_text) update_text(el[i]);
		}
		search();
	}
	function clearzoom() {
		unzoom();

		// remove zoom state
		var params = get_params();
		if (params.x) delete params.x;
		if (params.y) delete params.y;
		history.replaceState(null, null, parse_params(params));
	}

	// search
	function toggle_ignorecase() {
		ignorecase = !ignorecase;
		if (ignorecase) {
			ignorecaseBtn.classList.add("show");
		} else {
			ignorecaseBtn.classList.remove("show");
		}
		reset_search();
		search();
	}
	function reset_search() {
		var el = document.querySelectorAll("#frames rect");
		for (var i = 0; i < el.length; i++) {
			orig_load(el[i], "fill")
		}
		var params = get_params();
		delete params.s;
		history.replaceState(null, null, parse_params(params));
	}
	function search_prompt() {
		if (!searching) {
			var term = prompt("Enter a search term (regexp " +
			    "allowed, eg: ^ext4_)"
			    + (ignorecase ? ", ignoring case" : "")
			    + "\nPress Ctrl-i to toggle case sensitivity", "");
			if (term != null) search(term);
		} else {
			reset_search();
			searching = 0;
			currentSearchTerm = null;
			searchbtn.classList.remove("show");
			searchbtn.firstChild.nodeValue = "Search"
			matchedtxt.classList.add("hide");
			matchedtxt.firstChild.nodeValue = ""
		}
	}
	function search(term) {
		if (term) currentSearchTerm = term;
		if (currentSearchTerm === null) return;

		var re = new RegExp(currentSearchTerm, ignorecase ? 'i' : '');
		var el = document.getElementById("frames").children;
		var matches = new Object();
		var maxwidth = 0;
		for (var i = 0; i < el.length; i++) {
			var e = el[i];
			var func = g_to_func(e);
			var rect = find_child(e, "rect");
			if (func == null || rect == null)
				continue;

			// Save max width. Only works as we have a root frame
			var w = parseFloat(rect.attributes.width.value);
			if (w > maxwidth)
				maxwidth = w;

			if (func.match(re)) {
				// highlight
				var x = parseFloat(rect.attributes.x.value);
				orig_save(rect, "fill");
				rect.attributes.fill.value = "rgb(230,0,230)";

				// remember matches
				if (matches[x] == undefined) {
					matches[x] = w;
				} else {
					if (w > matches[x]) {
						// overwrite with parent
						matches[x] = w;
					}
				}
				searching = 1;
			}
		}
		if (!searching)
			return;
		var params = get_params();
		params.s = currentSearchTerm;
		history.replaceState(null, null, parse_params(params));

		searchbtn.classList.add("show");
		searchbtn.firstChild.nodeValue = "Reset Search";

		// calculate percent matched, excluding vertical overlap
		var count = 0;
		var lastx = -1;
		var lastw = 0;
		var keys = Array();
		for (k in matches) {
			if (matches.hasOwnProperty(k))
				keys.push(k);
		}
		// sort the matched frames by their x location
		// ascending, then width descending
		keys.sort(function(a, b){
			return a - b;
		});
		// Step through frames saving only the biggest bottom-up frames
		// thanks to the sort order. This relies on the tree property
		// where children are always smaller than their parents.
		var fudge = 0.0001;	// JavaScript floating point
		for (var k in keys) {
			var x = parseFloat(keys[k]);
			var w = matches[keys[k]];
			if (x >= lastx + lastw - fudge) {
				count += w;
				lastx = x;
				lastw = w;
			}
		}
		// display matched percent
		matchedtxt.classList.remove("hide");
		var pct = 100 * count / maxwidth;
		if (pct != 100) pct = pct.toFixed(1)
		matchedtxt.firstChild.nodeValue = "Matched: " + pct + "%";
	}
]]>
</script>
<rect x="0.0" y="0" width="1200.0" height="358.0" fill="url(#background)"  />
<text id="title" x="600.00" y="24" >Flame Graph</text>
<text id="details" x="10.00" y="341" > </text>
<text id="unzoom" x="10.00" y="24" class="hide">Reset Zoom</text>
<text id="search" x="1090.00" y="24" >Search</text>
<text id="ignorecase" x="1174.00" y="24" >ic</text>
<text id="matched" x="1090.00" y="341" > </text>
<g id="frames">
<g >
<title>entry_SYSCALL_64_after_hwframe+0x78 (7 samples, 2.83%)</title><rect x="1156.6" y="277" width="33.4" height="15.0" fill="rgb(238,155,37)" rx="2" ry="2" />
<text  x="1159.56" y="287.5" >en..</text>
</g>
<g >
<title>[unknown] (22 samples, 8.91%)</title><rect x="492.5" y="229" width="105.1" height="15.0" fill="rgb(210,24,5)" rx="2" ry="2" />
<text  x="495.51" y="239.5" >[unknown]</text>
</g>
<g >
<title>walk_component+0x2c (19 samples, 7.69%)</title><rect x="631.1" y="117" width="90.7" height="15.0" fill="rgb(215,49,11)" rx="2" ry="2" />
<text  x="634.05" y="127.5" >walk_compo..</text>
</g>
<g >
<title>__pv_queued_spin_lock_slowpath+0x2be (4 samples, 1.62%)</title><rect x="760.0" y="53" width="19.1" height="15.0" fill="rgb(233,130,31)" rx="2" ry="2" />
<text  x="763.04" y="63.5" ></text>
</g>
<g >
<title>do_faccessat+0x10a (2 samples, 0.81%)</title><rect x="979.8" y="197" width="9.6" height="15.0" fill="rgb(241,169,40)" rx="2" ry="2" />
<text  x="982.80" y="207.5" ></text>
</g>
<g >
<title>ksys_read+0x73 (26 samples, 10.53%)</title><rect x="989.4" y="197" width="124.2" height="15.0" fill="rgb(231,124,29)" rx="2" ry="2" />
<text  x="992.35" y="207.5" >ksys_read+0x73</text>
</g>
<g >
<title>__pv_queued_spin_lock_slowpath+0x2b9 (8 samples, 3.24%)</title><rect x="721.8" y="53" width="38.2" height="15.0" fill="rgb(217,57,13)" rx="2" ry="2" />
<text  x="724.82" y="63.5" >__p..</text>
</g>
<g >
<title>path_openat+0x87 (7 samples, 2.83%)</title><rect x="1156.6" y="181" width="33.4" height="15.0" fill="rgb(218,64,15)" rx="2" ry="2" />
<text  x="1159.56" y="191.5" >pa..</text>
</g>
<g >
<title>__x64_sys_mmap+0x33 (1 samples, 0.40%)</title><rect x="975.0" y="197" width="4.8" height="15.0" fill="rgb(251,212,50)" rx="2" ry="2" />
<text  x="978.02" y="207.5" ></text>
</g>
<g >
<title>vfs_read+0x25c (1 samples, 0.40%)</title><rect x="602.4" y="165" width="4.8" height="15.0" fill="rgb(206,6,1)" rx="2" ry="2" />
<text  x="605.39" y="175.5" ></text>
</g>
<g >
<title>[unknown] (110 samples, 44.53%)</title><rect x="454.3" y="261" width="525.5" height="15.0" fill="rgb(210,24,5)" rx="2" ry="2" />
<text  x="457.29" y="271.5" >[unknown]</text>
</g>
<g >
<title>kernfs_iop_permission+0x40 (1 samples, 0.40%)</title><rect x="1156.6" y="133" width="4.7" height="15.0" fill="rgb(229,111,26)" rx="2" ry="2" />
<text  x="1159.56" y="143.5" ></text>
</g>
<g >
<title>__x64_sys_read+0x19 (1 samples, 0.40%)</title><rect x="602.4" y="197" width="4.8" height="15.0" fill="rgb(222,79,18)" rx="2" ry="2" />
<text  x="605.39" y="207.5" ></text>
</g>
<g >
<title>walk_component+0xd4 (39 samples, 15.79%)</title><rect x="788.7" y="117" width="186.3" height="15.0" fill="rgb(246,190,45)" rx="2" ry="2" />
<text  x="791.70" y="127.5" >walk_component+0xd4</text>
</g>
<g >
<title>lockref_get_not_zero+0x6a (17 samples, 6.88%)</title><rect x="788.7" y="69" width="81.2" height="15.0" fill="rgb(252,218,52)" rx="2" ry="2" />
<text  x="791.70" y="79.5" >lockref_g..</text>
</g>
<g >
<title>step_into+0x2a9 (21 samples, 8.50%)</title><rect x="874.7" y="85" width="100.3" height="15.0" fill="rgb(245,186,44)" rx="2" ry="2" />
<text  x="877.70" y="95.5" >step_into+0x..</text>
</g>
<g >
<title>do_user_addr_fault+0x157 (2 samples, 0.81%)</title><rect x="1147.0" y="245" width="9.6" height="15.0" fill="rgb(251,212,50)" rx="2" ry="2" />
<text  x="1150.00" y="255.5" ></text>
</g>
<g >
<title>__check_object_size+0x23 (1 samples, 0.40%)</title><rect x="602.4" y="117" width="4.8" height="15.0" fill="rgb(210,26,6)" rx="2" ry="2" />
<text  x="605.39" y="127.5" ></text>
</g>
<g >
<title>__pv_queued_spin_lock_slowpath+0x2b9 (1 samples, 0.40%)</title><rect x="979.8" y="53" width="4.8" height="15.0" fill="rgb(217,57,13)" rx="2" ry="2" />
<text  x="982.80" y="63.5" ></text>
</g>
<g >
<title>dput+0x136 (1 samples, 0.40%)</title><rect x="984.6" y="85" width="4.8" height="15.0" fill="rgb(231,119,28)" rx="2" ry="2" />
<text  x="987.57" y="95.5" ></text>
</g>
<g >
<title>__pv_queued_spin_lock_slowpath+0x9b (1 samples, 0.40%)</title><rect x="1161.3" y="85" width="4.8" height="15.0" fill="rgb(240,163,39)" rx="2" ry="2" />
<text  x="1164.34" y="95.5" ></text>
</g>
<g >
<title>handle_dots+0xcb (21 samples, 8.50%)</title><rect x="874.7" y="101" width="100.3" height="15.0" fill="rgb(253,224,53)" rx="2" ry="2" />
<text  x="877.70" y="111.5" >handle_dots+..</text>
</g>
<g >
<title>_raw_spin_lock+0x38 (18 samples, 7.29%)</title><rect x="631.1" y="69" width="85.9" height="15.0" fill="rgb(235,141,33)" rx="2" ry="2" />
<text  x="634.05" y="79.5" >_raw_spin_..</text>
</g>
<g >
<title>_raw_spin_lock+0x38 (17 samples, 6.88%)</title><rect x="788.7" y="53" width="81.2" height="15.0" fill="rgb(235,141,33)" rx="2" ry="2" />
<text  x="791.70" y="63.5" >_raw_spin..</text>
</g>
<g >
<title>link_path_walk.part.0.constprop.0+0x2a9 (72 samples, 29.15%)</title><rect x="631.1" y="133" width="343.9" height="15.0" fill="rgb(217,57,13)" rx="2" ry="2" />
<text  x="634.05" y="143.5" >link_path_walk.part.0.constprop.0+0x2a9</text>
</g>
<g >
<title>do_filp_open+0xaf (77 samples, 31.17%)</title><rect x="607.2" y="165" width="367.8" height="15.0" fill="rgb(212,35,8)" rx="2" ry="2" />
<text  x="610.17" y="175.5" >do_filp_open+0xaf</text>
</g>
<g >
<title>kernfs_fop_read_iter+0x25 (1 samples, 0.40%)</title><rect x="602.4" y="149" width="4.8" height="15.0" fill="rgb(224,88,21)" rx="2" ry="2" />
<text  x="605.39" y="159.5" ></text>
</g>
<g >
<title>step_into+0x2a9 (3 samples, 1.21%)</title><rect x="1166.1" y="133" width="14.3" height="15.0" fill="rgb(245,186,44)" rx="2" ry="2" />
<text  x="1169.11" y="143.5" ></text>
</g>
<g >
<title>__pv_queued_spin_lock_slowpath+0x2b9 (2 samples, 0.81%)</title><rect x="1118.3" y="53" width="9.6" height="15.0" fill="rgb(217,57,13)" rx="2" ry="2" />
<text  x="1121.34" y="63.5" ></text>
</g>
<g >
<title>__pv_queued_spin_lock_slowpath+0x9d (1 samples, 0.40%)</title><rect x="712.3" y="53" width="4.7" height="15.0" fill="rgb(227,103,24)" rx="2" ry="2" />
<text  x="715.27" y="63.5" ></text>
</g>
<g >
<title>__x64_sys_openat+0x55 (77 samples, 31.17%)</title><rect x="607.2" y="197" width="367.8" height="15.0" fill="rgb(254,225,54)" rx="2" ry="2" />
<text  x="610.17" y="207.5" >__x64_sys_openat+0x55</text>
</g>
<g >
<title>__pv_queued_spin_lock_slowpath+0x2c3 (3 samples, 1.21%)</title><rect x="855.6" y="37" width="14.3" height="15.0" fill="rgb(249,206,49)" rx="2" ry="2" />
<text  x="858.59" y="47.5" ></text>
</g>
<g >
<title>x64_sys_call+0x1fce (1 samples, 0.40%)</title><rect x="975.0" y="213" width="4.8" height="15.0" fill="rgb(216,54,13)" rx="2" ry="2" />
<text  x="978.02" y="223.5" ></text>
</g>
<g >
<title>step_into+0x2a9 (14 samples, 5.67%)</title><rect x="721.8" y="101" width="66.9" height="15.0" fill="rgb(245,186,44)" rx="2" ry="2" />
<text  x="724.82" y="111.5" >step_in..</text>
</g>
<g >
<title>vfs_read+0x25c (26 samples, 10.53%)</title><rect x="989.4" y="181" width="124.2" height="15.0" fill="rgb(206,6,1)" rx="2" ry="2" />
<text  x="992.35" y="191.5" >vfs_read+0x25c</text>
</g>
<g >
<title>kernfs_file_read_iter+0xd6 (1 samples, 0.40%)</title><rect x="602.4" y="133" width="4.8" height="15.0" fill="rgb(206,8,2)" rx="2" ry="2" />
<text  x="605.39" y="143.5" ></text>
</g>
<g >
<title>__pv_queued_spin_lock_slowpath+0x2be (2 samples, 0.81%)</title><rect x="946.4" y="37" width="9.5" height="15.0" fill="rgb(233,130,31)" rx="2" ry="2" />
<text  x="949.36" y="47.5" ></text>
</g>
<g >
<title>__mem_cgroup_charge+0x58 (2 samples, 0.81%)</title><rect x="1147.0" y="165" width="9.6" height="15.0" fill="rgb(251,211,50)" rx="2" ry="2" />
<text  x="1150.00" y="175.5" ></text>
</g>
<g >
<title>_raw_spin_lock+0x38 (3 samples, 1.21%)</title><rect x="1166.1" y="101" width="14.3" height="15.0" fill="rgb(235,141,33)" rx="2" ry="2" />
<text  x="1169.11" y="111.5" ></text>
</g>
<g >
<title>_raw_spin_lock+0x38 (1 samples, 0.40%)</title><rect x="984.6" y="69" width="4.8" height="15.0" fill="rgb(235,141,33)" rx="2" ry="2" />
<text  x="987.57" y="79.5" ></text>
</g>
<g >
<title>dget_parent+0x27 (18 samples, 7.29%)</title><rect x="788.7" y="85" width="86.0" height="15.0" fill="rgb(246,190,45)" rx="2" ry="2" />
<text  x="791.70" y="95.5" >dget_paren..</text>
</g>
<g >
<title>all (247 samples, 100%)</title><rect x="10.0" y="309" width="1180.0" height="15.0" fill="rgb(213,39,9)" rx="2" ry="2" />
<text  x="13.00" y="319.5" ></text>
</g>
<g >
<title>__raw_spin_unlock_irq.constprop.0+0x17 (26 samples, 10.53%)</title><rect x="989.4" y="85" width="124.2" height="15.0" fill="rgb(252,218,52)" rx="2" ry="2" />
<text  x="992.35" y="95.5" >__raw_spin_unlo..</text>
</g>
<g >
<title>asm_exc_page_fault+0x27 (1 samples, 0.40%)</title><rect x="597.6" y="245" width="4.8" height="15.0" fill="rgb(234,133,32)" rx="2" ry="2" />
<text  x="600.61" y="255.5" ></text>
</g>
<g >
<title>__d_lookup+0x6b (1 samples, 0.40%)</title><rect x="1161.3" y="117" width="4.8" height="15.0" fill="rgb(229,111,26)" rx="2" ry="2" />
<text  x="1164.34" y="127.5" ></text>
</g>
<g >
<title>path_openat+0x87 (77 samples, 31.17%)</title><rect x="607.2" y="149" width="367.8" height="15.0" fill="rgb(218,64,15)" rx="2" ry="2" />
<text  x="610.17" y="159.5" >path_openat+0x87</text>
</g>
<g >
<title>lockref_get_not_zero+0x8 (1 samples, 0.40%)</title><rect x="869.9" y="69" width="4.8" height="15.0" fill="rgb(216,51,12)" rx="2" ry="2" />
<text  x="872.92" y="79.5" ></text>
</g>
<g >
<title>walk_component+0x2c (1 samples, 0.40%)</title><rect x="1161.3" y="149" width="4.8" height="15.0" fill="rgb(215,49,11)" rx="2" ry="2" />
<text  x="1164.34" y="159.5" ></text>
</g>
<g >
<title>link_path_walk.part.0.constprop.0+0x130 (1 samples, 0.40%)</title><rect x="1156.6" y="165" width="4.7" height="15.0" fill="rgb(229,111,26)" rx="2" ry="2" />
<text  x="1159.56" y="175.5" ></text>
</g>
<g >
<title>inode_permission+0xfc (4 samples, 1.62%)</title><rect x="611.9" y="117" width="19.2" height="15.0" fill="rgb(247,195,46)" rx="2" ry="2" />
<text  x="614.94" y="127.5" ></text>
</g>
<g >
<title>__x64_sys_faccessat2+0x1b (2 samples, 0.81%)</title><rect x="979.8" y="213" width="9.6" height="15.0" fill="rgb(217,55,13)" rx="2" ry="2" />
<text  x="982.80" y="223.5" ></text>
</g>
<g >
<title>down_read+0x1c (1 samples, 0.40%)</title><rect x="611.9" y="85" width="4.8" height="15.0" fill="rgb(226,100,24)" rx="2" ry="2" />
<text  x="614.94" y="95.5" ></text>
</g>
<g >
<title>do_syscall_64+0x7f (79 samples, 31.98%)</title><rect x="602.4" y="229" width="377.4" height="15.0" fill="rgb(232,125,29)" rx="2" ry="2" />
<text  x="605.39" y="239.5" >do_syscall_64+0x7f</text>
</g>
<g >
<title>step_into+0x2a9 (1 samples, 0.40%)</title><rect x="984.6" y="101" width="4.8" height="15.0" fill="rgb(245,186,44)" rx="2" ry="2" />
<text  x="987.57" y="111.5" ></text>
</g>
<g >
<title>lookup_fast+0x65 (18 samples, 7.29%)</title><rect x="631.1" y="101" width="85.9" height="15.0" fill="rgb(215,48,11)" rx="2" ry="2" />
<text  x="634.05" y="111.5" >lookup_fas..</text>
</g>
<g >
<title>__pv_queued_spin_lock_slowpath+0x2b9 (15 samples, 6.07%)</title><rect x="631.1" y="53" width="71.6" height="15.0" fill="rgb(217,57,13)" rx="2" ry="2" />
<text  x="634.05" y="63.5" >__pv_que..</text>
</g>
<g >
<title>_raw_spin_lock+0x38 (3 samples, 1.21%)</title><rect x="1132.7" y="69" width="14.3" height="15.0" fill="rgb(235,141,33)" rx="2" ry="2" />
<text  x="1135.67" y="79.5" ></text>
</g>
<g >
<title>walk_component+0xd4 (2 samples, 0.81%)</title><rect x="1180.4" y="149" width="9.6" height="15.0" fill="rgb(246,190,45)" rx="2" ry="2" />
<text  x="1183.45" y="159.5" ></text>
</g>
<g >
<title>down_write+0x4c (1 samples, 0.40%)</title><rect x="975.0" y="117" width="4.8" height="15.0" fill="rgb(233,132,31)" rx="2" ry="2" />
<text  x="978.02" y="127.5" ></text>
</g>
<g >
<title>kernfs_iop_permission+0x5d (1 samples, 0.40%)</title><rect x="616.7" y="101" width="4.8" height="15.0" fill="rgb(236,147,35)" rx="2" ry="2" />
<text  x="619.72" y="111.5" ></text>
</g>
<g >
<title>asm_exc_page_fault+0x27 (2 samples, 0.81%)</title><rect x="1147.0" y="277" width="9.6" height="15.0" fill="rgb(234,133,32)" rx="2" ry="2" />
<text  x="1150.00" y="287.5" ></text>
</g>
<g >
<title>kernfs_file_read_iter+0xa1 (26 samples, 10.53%)</title><rect x="989.4" y="149" width="124.2" height="15.0" fill="rgb(208,16,3)" rx="2" ry="2" />
<text  x="992.35" y="159.5" >kernfs_file_rea..</text>
</g>
<g >
<title>__pv_queued_spin_lock_slowpath+0x2b9 (15 samples, 6.07%)</title><rect x="874.7" y="37" width="71.7" height="15.0" fill="rgb(217,57,13)" rx="2" ry="2" />
<text  x="877.70" y="47.5" >__pv_que..</text>
</g>
<g >
<title>link_path_walk.part.0.constprop.0+0x2a9 (7 samples, 2.83%)</title><rect x="1113.6" y="149" width="33.4" height="15.0" fill="rgb(217,57,13)" rx="2" ry="2" />
<text  x="1116.56" y="159.5" >li..</text>
</g>
<g >
<title>__handle_mm_fault+0x653 (2 samples, 0.81%)</title><rect x="1147.0" y="213" width="9.6" height="15.0" fill="rgb(223,84,20)" rx="2" ry="2" />
<text  x="1150.00" y="223.5" ></text>
</g>
<g >
<title>link_path_walk.part.0.constprop.0+0x2a9 (6 samples, 2.43%)</title><rect x="1161.3" y="165" width="28.7" height="15.0" fill="rgb(217,57,13)" rx="2" ry="2" />
<text  x="1164.34" y="175.5" >li..</text>
</g>
<g >
<title>_raw_spin_lock+0x38 (1 samples, 0.40%)</title><rect x="1161.3" y="101" width="4.8" height="15.0" fill="rgb(235,141,33)" rx="2" ry="2" />
<text  x="1164.34" y="111.5" ></text>
</g>
<g >
<title>__pv_queued_spin_lock_slowpath+0x2b9 (14 samples, 5.67%)</title><rect x="788.7" y="37" width="66.9" height="15.0" fill="rgb(217,57,13)" rx="2" ry="2" />
<text  x="791.70" y="47.5" >__pv_qu..</text>
</g>
<g >
<title>sysfs_kf_bin_read+0x63 (26 samples, 10.53%)</title><rect x="989.4" y="133" width="124.2" height="15.0" fill="rgb(228,107,25)" rx="2" ry="2" />
<text  x="992.35" y="143.5" >sysfs_kf_bin_re..</text>
</g>
<g >
<title>lockref_get_not_zero+0x6a (2 samples, 0.81%)</title><rect x="1180.4" y="101" width="9.6" height="15.0" fill="rgb(252,218,52)" rx="2" ry="2" />
<text  x="1183.45" y="111.5" ></text>
</g>
<g >
<title>x64_sys_call+0x1bf0 (26 samples, 10.53%)</title><rect x="989.4" y="229" width="124.2" height="15.0" fill="rgb(215,49,11)" rx="2" ry="2" />
<text  x="992.35" y="239.5" >x64_sys_call+0x..</text>
</g>
<g >
<title>do_sys_openat2+0xb3 (77 samples, 31.17%)</title><rect x="607.2" y="181" width="367.8" height="15.0" fill="rgb(227,104,24)" rx="2" ry="2" />
<text  x="610.17" y="191.5" >do_sys_openat2+0xb3</text>
</g>
<g >
<title>do_filp_open+0xaf (7 samples, 2.83%)</title><rect x="1156.6" y="197" width="33.4" height="15.0" fill="rgb(212,35,8)" rx="2" ry="2" />
<text  x="1159.56" y="207.5" >do..</text>
</g>
<g >
<title>__pv_queued_spin_lock_slowpath+0x2c3 (1 samples, 0.40%)</title><rect x="1113.6" y="69" width="4.7" height="15.0" fill="rgb(249,206,49)" rx="2" ry="2" />
<text  x="1116.56" y="79.5" ></text>
</g>
<g >
<title>__pv_queued_spin_lock_slowpath+0x2c3 (1 samples, 0.40%)</title><rect x="779.1" y="53" width="4.8" height="15.0" fill="rgb(249,206,49)" rx="2" ry="2" />
<text  x="782.15" y="63.5" ></text>
</g>
<g >
<title>__pv_queued_spin_lock_slowpath+0x2c3 (4 samples, 1.62%)</title><rect x="955.9" y="37" width="19.1" height="15.0" fill="rgb(249,206,49)" rx="2" ry="2" />
<text  x="958.91" y="47.5" ></text>
</g>
<g >
<title>x64_sys_call+0x1bf0 (1 samples, 0.40%)</title><rect x="602.4" y="213" width="4.8" height="15.0" fill="rgb(215,49,11)" rx="2" ry="2" />
<text  x="605.39" y="223.5" ></text>
</g>
<g >
<title>x64_sys_call+0x1eb1 (7 samples, 2.83%)</title><rect x="1156.6" y="245" width="33.4" height="15.0" fill="rgb(215,49,11)" rx="2" ry="2" />
<text  x="1159.56" y="255.5" >x6..</text>
</g>
<g >
<title>_raw_spin_lock+0x38 (1 samples, 0.40%)</title><rect x="1113.6" y="85" width="4.7" height="15.0" fill="rgb(235,141,33)" rx="2" ry="2" />
<text  x="1116.56" y="95.5" ></text>
</g>
<g >
<title>lockref_get_not_zero+0x6a (3 samples, 1.21%)</title><rect x="1118.3" y="85" width="14.4" height="15.0" fill="rgb(252,218,52)" rx="2" ry="2" />
<text  x="1121.34" y="95.5" ></text>
</g>
<g >
<title>rwsem_optimistic_spin+0x29 (1 samples, 0.40%)</title><rect x="975.0" y="85" width="4.8" height="15.0" fill="rgb(211,29,7)" rx="2" ry="2" />
<text  x="978.02" y="95.5" ></text>
</g>
<g >
<title>dget_parent+0x27 (2 samples, 0.81%)</title><rect x="1180.4" y="117" width="9.6" height="15.0" fill="rgb(246,190,45)" rx="2" ry="2" />
<text  x="1183.45" y="127.5" ></text>
</g>
<g >
<title>path_openat+0x87 (7 samples, 2.83%)</title><rect x="1113.6" y="165" width="33.4" height="15.0" fill="rgb(218,64,15)" rx="2" ry="2" />
<text  x="1116.56" y="175.5" >pa..</text>
</g>
<g >
<title>dput+0x136 (3 samples, 1.21%)</title><rect x="1166.1" y="117" width="14.3" height="15.0" fill="rgb(231,119,28)" rx="2" ry="2" />
<text  x="1169.11" y="127.5" ></text>
</g>
<g >
<title>handle_pte_fault+0x1ba (2 samples, 0.81%)</title><rect x="1147.0" y="197" width="9.6" height="15.0" fill="rgb(228,106,25)" rx="2" ry="2" />
<text  x="1150.00" y="207.5" ></text>
</g>
<g >
<title>__pv_queued_spin_lock_slowpath+0x2be (1 samples, 0.40%)</title><rect x="1127.9" y="53" width="4.8" height="15.0" fill="rgb(233,130,31)" rx="2" ry="2" />
<text  x="1130.89" y="63.5" ></text>
</g>
<g >
<title>do_filp_open+0xaf (7 samples, 2.83%)</title><rect x="1113.6" y="181" width="33.4" height="15.0" fill="rgb(212,35,8)" rx="2" ry="2" />
<text  x="1116.56" y="191.5" >do..</text>
</g>
<g >
<title>_raw_spin_lock+0x38 (3 samples, 1.21%)</title><rect x="1118.3" y="69" width="14.4" height="15.0" fill="rgb(235,141,33)" rx="2" ry="2" />
<text  x="1121.34" y="79.5" ></text>
</g>
<g >
<title>x64_sys_call+0x1611 (2 samples, 0.81%)</title><rect x="979.8" y="229" width="9.6" height="15.0" fill="rgb(235,141,33)" rx="2" ry="2" />
<text  x="982.80" y="239.5" ></text>
</g>
<g >
<title>exc_page_fault+0x83 (2 samples, 0.81%)</title><rect x="1147.0" y="261" width="9.6" height="15.0" fill="rgb(208,16,3)" rx="2" ry="2" />
<text  x="1150.00" y="271.5" ></text>
</g>
<g >
<title>_raw_spin_lock+0x38 (1 samples, 0.40%)</title><rect x="979.8" y="69" width="4.8" height="15.0" fill="rgb(235,141,33)" rx="2" ry="2" />
<text  x="982.80" y="79.5" ></text>
</g>
<g >
<title>ovl_permission+0x70 (1 samples, 0.40%)</title><rect x="621.5" y="101" width="4.8" height="15.0" fill="rgb(207,13,3)" rx="2" ry="2" />
<text  x="624.50" y="111.5" ></text>
</g>
<g >
<title>do_mmap+0x402 (1 samples, 0.40%)</title><rect x="975.0" y="149" width="4.8" height="15.0" fill="rgb(246,190,45)" rx="2" ry="2" />
<text  x="978.02" y="159.5" ></text>
</g>
<g >
<title>__virt_addr_valid+0x58 (1 samples, 0.40%)</title><rect x="602.4" y="69" width="4.8" height="15.0" fill="rgb(249,204,48)" rx="2" ry="2" />
<text  x="605.39" y="79.5" ></text>
</g>
<g >
<title>kernfs_iop_permission+0x40 (1 samples, 0.40%)</title><rect x="611.9" y="101" width="4.8" height="15.0" fill="rgb(229,111,26)" rx="2" ry="2" />
<text  x="614.94" y="111.5" ></text>
</g>
<g >
<title>do_syscall_64+0x7f (35 samples, 14.17%)</title><rect x="979.8" y="245" width="167.2" height="15.0" fill="rgb(232,125,29)" rx="2" ry="2" />
<text  x="982.80" y="255.5" >do_syscall_64+0x7f</text>
</g>
<g >
<title>ksys_read+0x73 (1 samples, 0.40%)</title><rect x="602.4" y="181" width="4.8" height="15.0" fill="rgb(231,124,29)" rx="2" ry="2" />
<text  x="605.39" y="191.5" ></text>
</g>
<g >
<title>handle_dots+0x12e (18 samples, 7.29%)</title><rect x="788.7" y="101" width="86.0" height="15.0" fill="rgb(234,135,32)" rx="2" ry="2" />
<text  x="791.70" y="111.5" >handle_dot..</text>
</g>
<g >
<title>link_path_walk.part.0.constprop.0+0x130 (5 samples, 2.02%)</title><rect x="607.2" y="133" width="23.9" height="15.0" fill="rgb(229,111,26)" rx="2" ry="2" />
<text  x="610.17" y="143.5" >l..</text>
</g>
<g >
<title>__x64_sys_openat+0x55 (7 samples, 2.83%)</title><rect x="1113.6" y="213" width="33.4" height="15.0" fill="rgb(254,225,54)" rx="2" ry="2" />
<text  x="1116.56" y="223.5" >__..</text>
</g>
<g >
<title>__pv_queued_spin_lock_slowpath+0x2be (1 samples, 0.40%)</title><rect x="1185.2" y="69" width="4.8" height="15.0" fill="rgb(233,130,31)" rx="2" ry="2" />
<text  x="1188.22" y="79.5" ></text>
</g>
<g >
<title>x64_sys_call+0x1eb1 (77 samples, 31.17%)</title><rect x="607.2" y="213" width="367.8" height="15.0" fill="rgb(215,49,11)" rx="2" ry="2" />
<text  x="610.17" y="223.5" >x64_sys_call+0x1eb1</text>
</g>
<g >
<title>pci_user_read_config_dword+0x7e (26 samples, 10.53%)</title><rect x="989.4" y="101" width="124.2" height="15.0" fill="rgb(213,40,9)" rx="2" ry="2" />
<text  x="992.35" y="111.5" >pci_user_read_c..</text>
</g>
<g >
<title>__pv_queued_spin_lock_slowpath+0x9d (1 samples, 0.40%)</title><rect x="783.9" y="53" width="4.8" height="15.0" fill="rgb(227,103,24)" rx="2" ry="2" />
<text  x="786.93" y="63.5" ></text>
</g>
<g >
<title>__pv_queued_spin_lock_slowpath+0x2c3 (1 samples, 0.40%)</title><rect x="707.5" y="53" width="4.8" height="15.0" fill="rgb(249,206,49)" rx="2" ry="2" />
<text  x="710.49" y="63.5" ></text>
</g>
<g >
<title>path_lookupat+0x3e (2 samples, 0.81%)</title><rect x="979.8" y="149" width="9.6" height="15.0" fill="rgb(205,1,0)" rx="2" ry="2" />
<text  x="982.80" y="159.5" ></text>
</g>
<g >
<title>_raw_spin_lock+0x38 (21 samples, 8.50%)</title><rect x="874.7" y="53" width="100.3" height="15.0" fill="rgb(235,141,33)" rx="2" ry="2" />
<text  x="877.70" y="63.5" >_raw_spin_lo..</text>
</g>
<g >
<title>[unknown] (21 samples, 8.50%)</title><rect x="497.3" y="213" width="100.3" height="15.0" fill="rgb(210,24,5)" rx="2" ry="2" />
<text  x="500.29" y="223.5" >[unknown]</text>
</g>
<g >
<title>lookup_fast+0x65 (1 samples, 0.40%)</title><rect x="1113.6" y="117" width="4.7" height="15.0" fill="rgb(215,48,11)" rx="2" ry="2" />
<text  x="1116.56" y="127.5" ></text>
</g>
<g >
<title>__x64_sys_read+0x19 (26 samples, 10.53%)</title><rect x="989.4" y="213" width="124.2" height="15.0" fill="rgb(222,79,18)" rx="2" ry="2" />
<text  x="992.35" y="223.5" >__x64_sys_read+..</text>
</g>
<g >
<title>dput+0x136 (3 samples, 1.21%)</title><rect x="1132.7" y="85" width="14.3" height="15.0" fill="rgb(231,119,28)" rx="2" ry="2" />
<text  x="1135.67" y="95.5" ></text>
</g>
<g >
<title>up_read+0x11 (1 samples, 0.40%)</title><rect x="626.3" y="101" width="4.8" height="15.0" fill="rgb(212,36,8)" rx="2" ry="2" />
<text  x="629.28" y="111.5" ></text>
</g>
<g >
<title>walk_component+0x51 (1 samples, 0.40%)</title><rect x="984.6" y="117" width="4.8" height="15.0" fill="rgb(219,66,15)" rx="2" ry="2" />
<text  x="987.57" y="127.5" ></text>
</g>
<g >
<title>walk_component+0xd4 (6 samples, 2.43%)</title><rect x="1118.3" y="133" width="28.7" height="15.0" fill="rgb(246,190,45)" rx="2" ry="2" />
<text  x="1121.34" y="143.5" >wa..</text>
</g>
<g >
<title>walk_component+0x51 (14 samples, 5.67%)</title><rect x="721.8" y="117" width="66.9" height="15.0" fill="rgb(219,66,15)" rx="2" ry="2" />
<text  x="724.82" y="127.5" >walk_co..</text>
</g>
<g >
<title>pci_read_config+0x105 (26 samples, 10.53%)</title><rect x="989.4" y="117" width="124.2" height="15.0" fill="rgb(231,122,29)" rx="2" ry="2" />
<text  x="992.35" y="127.5" >pci_read_config..</text>
</g>
<g >
<title>do_sys_openat2+0xb3 (7 samples, 2.83%)</title><rect x="1156.6" y="213" width="33.4" height="15.0" fill="rgb(227,104,24)" rx="2" ry="2" />
<text  x="1159.56" y="223.5" >do..</text>
</g>
<g >
<title>__pv_queued_spin_lock_slowpath+0x2b9 (3 samples, 1.21%)</title><rect x="1166.1" y="85" width="14.3" height="15.0" fill="rgb(217,57,13)" rx="2" ry="2" />
<text  x="1169.11" y="95.5" ></text>
</g>
<g >
<title>walk_component+0x2c (1 samples, 0.40%)</title><rect x="979.8" y="117" width="4.8" height="15.0" fill="rgb(215,49,11)" rx="2" ry="2" />
<text  x="982.80" y="127.5" ></text>
</g>
<g >
<title>dput+0x136 (14 samples, 5.67%)</title><rect x="721.8" y="85" width="66.9" height="15.0" fill="rgb(231,119,28)" rx="2" ry="2" />
<text  x="724.82" y="95.5" >dput+0x..</text>
</g>
<g >
<title>__pv_queued_spin_lock_slowpath+0x2b9 (1 samples, 0.40%)</title><rect x="984.6" y="53" width="4.8" height="15.0" fill="rgb(217,57,13)" rx="2" ry="2" />
<text  x="987.57" y="63.5" ></text>
</g>
<g >
<title>check_heap_object+0x3c (1 samples, 0.40%)</title><rect x="602.4" y="85" width="4.8" height="15.0" fill="rgb(209,18,4)" rx="2" ry="2" />
<text  x="605.39" y="95.5" ></text>
</g>
<g >
<title>kernfs_fop_read_iter+0x25 (26 samples, 10.53%)</title><rect x="989.4" y="165" width="124.2" height="15.0" fill="rgb(224,88,21)" rx="2" ry="2" />
<text  x="992.35" y="175.5" >kernfs_fop_read..</text>
</g>
<g >
<title>__pv_queued_spin_lock_slowpath+0x2be (1 samples, 0.40%)</title><rect x="702.7" y="53" width="4.8" height="15.0" fill="rgb(233,130,31)" rx="2" ry="2" />
<text  x="705.71" y="63.5" ></text>
</g>
<g >
<title>[unknown] (22 samples, 8.91%)</title><rect x="492.5" y="245" width="105.1" height="15.0" fill="rgb(210,24,5)" rx="2" ry="2" />
<text  x="495.51" y="255.5" >[unknown]</text>
</g>
<g >
<title>__d_lookup+0x6b (1 samples, 0.40%)</title><rect x="979.8" y="85" width="4.8" height="15.0" fill="rgb(229,111,26)" rx="2" ry="2" />
<text  x="982.80" y="95.5" ></text>
</g>
<g >
<title>step_into+0x2a9 (3 samples, 1.21%)</title><rect x="1132.7" y="101" width="14.3" height="15.0" fill="rgb(245,186,44)" rx="2" ry="2" />
<text  x="1135.67" y="111.5" ></text>
</g>
<g >
<title>__pv_queued_spin_lock_slowpath+0x2c3 (1 samples, 0.40%)</title><rect x="1142.2" y="53" width="4.8" height="15.0" fill="rgb(249,206,49)" rx="2" ry="2" />
<text  x="1145.23" y="63.5" ></text>
</g>
<g >
<title>__d_lookup+0x6b (1 samples, 0.40%)</title><rect x="1113.6" y="101" width="4.7" height="15.0" fill="rgb(229,111,26)" rx="2" ry="2" />
<text  x="1116.56" y="111.5" ></text>
</g>
<g >
<title>link_path_walk.part.0.constprop.0+0x2a9 (2 samples, 0.81%)</title><rect x="979.8" y="133" width="9.6" height="15.0" fill="rgb(217,57,13)" rx="2" ry="2" />
<text  x="982.80" y="143.5" ></text>
</g>
<g >
<title>do_anonymous_page+0xb2 (2 samples, 0.81%)</title><rect x="1147.0" y="181" width="9.6" height="15.0" fill="rgb(219,67,16)" rx="2" ry="2" />
<text  x="1150.00" y="191.5" ></text>
</g>
<g >
<title>__pv_queued_spin_lock_slowpath+0x2be (1 samples, 0.40%)</title><rect x="1137.4" y="53" width="4.8" height="15.0" fill="rgb(233,130,31)" rx="2" ry="2" />
<text  x="1140.45" y="63.5" ></text>
</g>
<g >
<title>handle_mm_fault+0x12a (2 samples, 0.81%)</title><rect x="1147.0" y="229" width="9.6" height="15.0" fill="rgb(205,1,0)" rx="2" ry="2" />
<text  x="1150.00" y="239.5" ></text>
</g>
<g >
<title>inode_permission+0x22 (1 samples, 0.40%)</title><rect x="607.2" y="117" width="4.7" height="15.0" fill="rgb(249,206,49)" rx="2" ry="2" />
<text  x="610.17" y="127.5" ></text>
</g>
<g >
<title>do_user_addr_fault+0xbf (1 samples, 0.40%)</title><rect x="597.6" y="213" width="4.8" height="15.0" fill="rgb(223,85,20)" rx="2" ry="2" />
<text  x="600.61" y="223.5" ></text>
</g>
<g >
<title>[unknown] (238 samples, 96.36%)</title><rect x="10.0" y="277" width="1137.0" height="15.0" fill="rgb(210,24,5)" rx="2" ry="2" />
<text  x="13.00" y="287.5" >[unknown]</text>
</g>
<g >
<title>do_sys_openat2+0xb3 (7 samples, 2.83%)</title><rect x="1113.6" y="197" width="33.4" height="15.0" fill="rgb(227,104,24)" rx="2" ry="2" />
<text  x="1116.56" y="207.5" >do..</text>
</g>
<g >
<title>lmp-73388 (247 samples, 100.00%)</title><rect x="10.0" y="293" width="1180.0" height="15.0" fill="rgb(209,22,5)" rx="2" ry="2" />
<text  x="13.00" y="303.5" >lmp-73388</text>
</g>
<g >
<title>rwsem_down_write_slowpath+0x2f7 (1 samples, 0.40%)</title><rect x="975.0" y="101" width="4.8" height="15.0" fill="rgb(242,172,41)" rx="2" ry="2" />
<text  x="978.02" y="111.5" ></text>
</g>
<g >
<title>__check_object_size.part.0+0x72 (1 samples, 0.40%)</title><rect x="602.4" y="101" width="4.8" height="15.0" fill="rgb(244,182,43)" rx="2" ry="2" />
<text  x="605.39" y="111.5" ></text>
</g>
<g >
<title>user_path_at_empty+0x3e (2 samples, 0.81%)</title><rect x="979.8" y="181" width="9.6" height="15.0" fill="rgb(231,122,29)" rx="2" ry="2" />
<text  x="982.80" y="191.5" ></text>
</g>
<g >
<title>vm_mmap_pgoff+0xf3 (1 samples, 0.40%)</title><rect x="975.0" y="165" width="4.8" height="15.0" fill="rgb(236,143,34)" rx="2" ry="2" />
<text  x="978.02" y="175.5" ></text>
</g>
<g >
<title>walk_component+0x51 (3 samples, 1.21%)</title><rect x="1166.1" y="149" width="14.3" height="15.0" fill="rgb(219,66,15)" rx="2" ry="2" />
<text  x="1169.11" y="159.5" ></text>
</g>
<g >
<title>__pv_queued_spin_lock_slowpath+0x2b9 (1 samples, 0.40%)</title><rect x="1180.4" y="69" width="4.8" height="15.0" fill="rgb(217,57,13)" rx="2" ry="2" />
<text  x="1183.45" y="79.5" ></text>
</g>
<g >
<title>lookup_fast+0x65 (1 samples, 0.40%)</title><rect x="1161.3" y="133" width="4.8" height="15.0" fill="rgb(215,48,11)" rx="2" ry="2" />
<text  x="1164.34" y="143.5" ></text>
</g>
<g >
<title>entry_SYSCALL_64_after_hwframe+0x78 (79 samples, 31.98%)</title><rect x="602.4" y="245" width="377.4" height="15.0" fill="rgb(238,155,37)" rx="2" ry="2" />
<text  x="605.39" y="255.5" >entry_SYSCALL_64_after_hwframe+0x78</text>
</g>
<g >
<title>down_read+0x1c (1 samples, 0.40%)</title><rect x="717.0" y="69" width="4.8" height="15.0" fill="rgb(226,100,24)" rx="2" ry="2" />
<text  x="720.04" y="79.5" ></text>
</g>
<g >
<title>_raw_spin_lock+0x38 (14 samples, 5.67%)</title><rect x="721.8" y="69" width="66.9" height="15.0" fill="rgb(235,141,33)" rx="2" ry="2" />
<text  x="724.82" y="79.5" >_raw_sp..</text>
</g>
<g >
<title>down_read+0x1c (1 samples, 0.40%)</title><rect x="1156.6" y="117" width="4.7" height="15.0" fill="rgb(226,100,24)" rx="2" ry="2" />
<text  x="1159.56" y="127.5" ></text>
</g>
<g >
<title>filename_lookup+0xe4 (2 samples, 0.81%)</title><rect x="979.8" y="165" width="9.6" height="15.0" fill="rgb(215,46,11)" rx="2" ry="2" />
<text  x="982.80" y="175.5" ></text>
</g>
<g >
<title>exc_page_fault+0x83 (1 samples, 0.40%)</title><rect x="597.6" y="229" width="4.8" height="15.0" fill="rgb(208,16,3)" rx="2" ry="2" />
<text  x="600.61" y="239.5" ></text>
</g>
<g >
<title>generic_permission+0x23 (1 samples, 0.40%)</title><rect x="616.7" y="85" width="4.8" height="15.0" fill="rgb(212,35,8)" rx="2" ry="2" />
<text  x="619.72" y="95.5" ></text>
</g>
<g >
<title>do_syscall_64+0x7f (7 samples, 2.83%)</title><rect x="1156.6" y="261" width="33.4" height="15.0" fill="rgb(232,125,29)" rx="2" ry="2" />
<text  x="1159.56" y="271.5" >do..</text>
</g>
<g >
<title>x64_sys_call+0x1eb1 (7 samples, 2.83%)</title><rect x="1113.6" y="229" width="33.4" height="15.0" fill="rgb(215,49,11)" rx="2" ry="2" />
<text  x="1116.56" y="239.5" >x6..</text>
</g>
<g >
<title>entry_SYSCALL_64_after_hwframe+0x78 (35 samples, 14.17%)</title><rect x="979.8" y="261" width="167.2" height="15.0" fill="rgb(238,155,37)" rx="2" ry="2" />
<text  x="982.80" y="271.5" >entry_SYSCALL_64_afte..</text>
</g>
<g >
<title>_raw_spin_lock+0x38 (2 samples, 0.81%)</title><rect x="1180.4" y="85" width="9.6" height="15.0" fill="rgb(235,141,33)" rx="2" ry="2" />
<text  x="1183.45" y="95.5" ></text>
</g>
<g >
<title>handle_dots+0x12e (2 samples, 0.81%)</title><rect x="1180.4" y="133" width="9.6" height="15.0" fill="rgb(234,135,32)" rx="2" ry="2" />
<text  x="1183.45" y="143.5" ></text>
</g>
<g >
<title>__pv_queued_spin_lock_slowpath+0x2b9 (1 samples, 0.40%)</title><rect x="1132.7" y="53" width="4.7" height="15.0" fill="rgb(217,57,13)" rx="2" ry="2" />
<text  x="1135.67" y="63.5" ></text>
</g>
<g >
<title>ksys_mmap_pgoff+0x1cc (1 samples, 0.40%)</title><rect x="975.0" y="181" width="4.8" height="15.0" fill="rgb(236,146,34)" rx="2" ry="2" />
<text  x="978.02" y="191.5" ></text>
</g>
<g >
<title>__d_lookup+0x6b (18 samples, 7.29%)</title><rect x="631.1" y="85" width="85.9" height="15.0" fill="rgb(229,111,26)" rx="2" ry="2" />
<text  x="634.05" y="95.5" >__d_lookup..</text>
</g>
<g >
<title>kernfs_dop_revalidate+0x4c (1 samples, 0.40%)</title><rect x="717.0" y="85" width="4.8" height="15.0" fill="rgb(240,163,39)" rx="2" ry="2" />
<text  x="720.04" y="95.5" ></text>
</g>
<g >
<title>walk_component+0x2c (1 samples, 0.40%)</title><rect x="1113.6" y="133" width="4.7" height="15.0" fill="rgb(215,49,11)" rx="2" ry="2" />
<text  x="1116.56" y="143.5" ></text>
</g>
<g >
<title>lookup_fast+0x65 (1 samples, 0.40%)</title><rect x="979.8" y="101" width="4.8" height="15.0" fill="rgb(215,48,11)" rx="2" ry="2" />
<text  x="982.80" y="111.5" ></text>
</g>
<g >
<title>mmap_region+0x3bf (1 samples, 0.40%)</title><rect x="975.0" y="133" width="4.8" height="15.0" fill="rgb(246,192,46)" rx="2" ry="2" />
<text  x="978.02" y="143.5" ></text>
</g>
<g >
<title>dput+0x136 (21 samples, 8.50%)</title><rect x="874.7" y="69" width="100.3" height="15.0" fill="rgb(231,119,28)" rx="2" ry="2" />
<text  x="877.70" y="79.5" >dput+0x136</text>
</g>
<g >
<title>mem_cgroup_commit_charge+0x78 (2 samples, 0.81%)</title><rect x="1147.0" y="149" width="9.6" height="15.0" fill="rgb(209,19,4)" rx="2" ry="2" />
<text  x="1150.00" y="159.5" ></text>
</g>
<g >
<title>handle_dots+0x12e (3 samples, 1.21%)</title><rect x="1118.3" y="117" width="14.4" height="15.0" fill="rgb(234,135,32)" rx="2" ry="2" />
<text  x="1121.34" y="127.5" ></text>
</g>
<g >
<title>lookup_fast+0x84 (1 samples, 0.40%)</title><rect x="717.0" y="101" width="4.8" height="15.0" fill="rgb(209,18,4)" rx="2" ry="2" />
<text  x="720.04" y="111.5" ></text>
</g>
<g >
<title>handle_dots+0xcb (3 samples, 1.21%)</title><rect x="1132.7" y="117" width="14.3" height="15.0" fill="rgb(253,224,53)" rx="2" ry="2" />
<text  x="1135.67" y="127.5" ></text>
</g>
<g >
<title>inode_permission+0xfc (1 samples, 0.40%)</title><rect x="1156.6" y="149" width="4.7" height="15.0" fill="rgb(247,195,46)" rx="2" ry="2" />
<text  x="1159.56" y="159.5" ></text>
</g>
<g >
<title>dget_parent+0x27 (3 samples, 1.21%)</title><rect x="1118.3" y="101" width="14.4" height="15.0" fill="rgb(246,190,45)" rx="2" ry="2" />
<text  x="1121.34" y="111.5" ></text>
</g>
<g >
<title>osq_lock+0x87 (1 samples, 0.40%)</title><rect x="975.0" y="69" width="4.8" height="15.0" fill="rgb(234,135,32)" rx="2" ry="2" />
<text  x="978.02" y="79.5" ></text>
</g>
<g >
<title>__x64_sys_openat+0x55 (7 samples, 2.83%)</title><rect x="1156.6" y="229" width="33.4" height="15.0" fill="rgb(254,225,54)" rx="2" ry="2" />
<text  x="1159.56" y="239.5" >__..</text>
</g>
</g>
</svg>
