<?xml version="1.0" standalone="no"?>
<!DOCTYPE svg PUBLIC "-//W3C//DTD SVG 1.1//EN" "http://www.w3.org/Graphics/SVG/1.1/DTD/svg11.dtd">
<svg version="1.1" width="1200" height="406" onload="init(evt)" viewBox="0 0 1200 406" xmlns="http://www.w3.org/2000/svg" xmlns:xlink="http://www.w3.org/1999/xlink">
<!-- Flame graph stack visualization. See https://github.com/brendangregg/FlameGraph for latest version, and http://www.brendangregg.com/flamegraphs.html for examples. -->
<!-- NOTES:  -->
<defs>
	<linearGradient id="background" y1="0" y2="1" x1="0" x2="0" >
		<stop stop-color="#eeeeee" offset="5%" />
		<stop stop-color="#eeeeb0" offset="95%" />
	</linearGradient>
</defs>
<style type="text/css">
	text { font-family:Verdana; font-size:12px; fill:rgb(0,0,0); }
	#search, #ignorecase { opacity:0.1; cursor:pointer; }
	#search:hover, #search.show, #ignorecase:hover, #ignorecase.show { opacity:1; }
	#subtitle { text-anchor:middle; font-color:rgb(160,160,160); }
	#title { text-anchor:middle; font-size:17px}
	#unzoom { cursor:pointer; }
	#frames > *:hover { stroke:black; stroke-width:0.5; cursor:pointer; }
	.hide { display:none; }
	.parent { opacity:0.5; }
</style>
<script type="text/ecmascript">
<![CDATA[
	"use strict";
	var details, searchbtn, unzoombtn, matchedtxt, svg, searching, currentSearchTerm, ignorecase, ignorecaseBtn;
	function init(evt) {
		details = document.getElementById("details").firstChild;
		searchbtn = document.getElementById("search");
		ignorecaseBtn = document.getElementById("ignorecase");
		unzoombtn = document.getElementById("unzoom");
		matchedtxt = document.getElementById("matched");
		svg = document.getElementsByTagName("svg")[0];
		searching = 0;
		currentSearchTerm = null;

		// use GET parameters to restore a flamegraphs state.
		var params = get_params();
		if (params.x && params.y)
			zoom(find_group(document.querySelector('[x="' + params.x + '"][y="' + params.y + '"]')));
                if (params.s) search(params.s);
	}

	// event listeners
	window.addEventListener("click", function(e) {
		var target = find_group(e.target);
		if (target) {
			if (target.nodeName == "a") {
				if (e.ctrlKey === false) return;
				e.preventDefault();
			}
			if (target.classList.contains("parent")) unzoom(true);
			zoom(target);
			if (!document.querySelector('.parent')) {
				// we have basically done a clearzoom so clear the url
				var params = get_params();
				if (params.x) delete params.x;
				if (params.y) delete params.y;
				history.replaceState(null, null, parse_params(params));
				unzoombtn.classList.add("hide");
				return;
			}

			// set parameters for zoom state
			var el = target.querySelector("rect");
			if (el && el.attributes && el.attributes.y && el.attributes._orig_x) {
				var params = get_params()
				params.x = el.attributes._orig_x.value;
				params.y = el.attributes.y.value;
				history.replaceState(null, null, parse_params(params));
			}
		}
		else if (e.target.id == "unzoom") clearzoom();
		else if (e.target.id == "search") search_prompt();
		else if (e.target.id == "ignorecase") toggle_ignorecase();
	}, false)

	// mouse-over for info
	// show
	window.addEventListener("mouseover", function(e) {
		var target = find_group(e.target);
		if (target) details.nodeValue = "Function: " + g_to_text(target);
	}, false)

	// clear
	window.addEventListener("mouseout", function(e) {
		var target = find_group(e.target);
		if (target) details.nodeValue = ' ';
	}, false)

	// ctrl-F for search
	// ctrl-I to toggle case-sensitive search
	window.addEventListener("keydown",function (e) {
		if (e.keyCode === 114 || (e.ctrlKey && e.keyCode === 70)) {
			e.preventDefault();
			search_prompt();
		}
		else if (e.ctrlKey && e.keyCode === 73) {
			e.preventDefault();
			toggle_ignorecase();
		}
	}, false)

	// functions
	function get_params() {
		var params = {};
		var paramsarr = window.location.search.substr(1).split('&');
		for (var i = 0; i < paramsarr.length; ++i) {
			var tmp = paramsarr[i].split("=");
			if (!tmp[0] || !tmp[1]) continue;
			params[tmp[0]]  = decodeURIComponent(tmp[1]);
		}
		return params;
	}
	function parse_params(params) {
		var uri = "?";
		for (var key in params) {
			uri += key + '=' + encodeURIComponent(params[key]) + '&';
		}
		if (uri.slice(-1) == "&")
			uri = uri.substring(0, uri.length - 1);
		if (uri == '?')
			uri = window.location.href.split('?')[0];
		return uri;
	}
	function find_child(node, selector) {
		var children = node.querySelectorAll(selector);
		if (children.length) return children[0];
	}
	function find_group(node) {
		var parent = node.parentElement;
		if (!parent) return;
		if (parent.id == "frames") return node;
		return find_group(parent);
	}
	function orig_save(e, attr, val) {
		if (e.attributes["_orig_" + attr] != undefined) return;
		if (e.attributes[attr] == undefined) return;
		if (val == undefined) val = e.attributes[attr].value;
		e.setAttribute("_orig_" + attr, val);
	}
	function orig_load(e, attr) {
		if (e.attributes["_orig_"+attr] == undefined) return;
		e.attributes[attr].value = e.attributes["_orig_" + attr].value;
		e.removeAttribute("_orig_"+attr);
	}
	function g_to_text(e) {
		var text = find_child(e, "title").firstChild.nodeValue;
		return (text)
	}
	function g_to_func(e) {
		var func = g_to_text(e);
		// if there's any manipulation we want to do to the function
		// name before it's searched, do it here before returning.
		return (func);
	}
	function update_text(e) {
		var r = find_child(e, "rect");
		var t = find_child(e, "text");
		var w = parseFloat(r.attributes.width.value) -3;
		var txt = find_child(e, "title").textContent.replace(/\([^(]*\)$/,"");
		t.attributes.x.value = parseFloat(r.attributes.x.value) + 3;

		// Smaller than this size won't fit anything
		if (w < 2 * 12 * 0.59) {
			t.textContent = "";
			return;
		}

		t.textContent = txt;
		var sl = t.getSubStringLength(0, txt.length);
		// check if only whitespace or if we can fit the entire string into width w
		if (/^ *$/.test(txt) || sl < w)
			return;

		// this isn't perfect, but gives a good starting point
		// and avoids calling getSubStringLength too often
		var start = Math.floor((w/sl) * txt.length);
		for (var x = start; x > 0; x = x-2) {
			if (t.getSubStringLength(0, x + 2) <= w) {
				t.textContent = txt.substring(0, x) + "..";
				return;
			}
		}
		t.textContent = "";
	}

	// zoom
	function zoom_reset(e) {
		if (e.attributes != undefined) {
			orig_load(e, "x");
			orig_load(e, "width");
		}
		if (e.childNodes == undefined) return;
		for (var i = 0, c = e.childNodes; i < c.length; i++) {
			zoom_reset(c[i]);
		}
	}
	function zoom_child(e, x, ratio) {
		if (e.attributes != undefined) {
			if (e.attributes.x != undefined) {
				orig_save(e, "x");
				e.attributes.x.value = (parseFloat(e.attributes.x.value) - x - 10) * ratio + 10;
				if (e.tagName == "text")
					e.attributes.x.value = find_child(e.parentNode, "rect[x]").attributes.x.value + 3;
			}
			if (e.attributes.width != undefined) {
				orig_save(e, "width");
				e.attributes.width.value = parseFloat(e.attributes.width.value) * ratio;
			}
		}

		if (e.childNodes == undefined) return;
		for (var i = 0, c = e.childNodes; i < c.length; i++) {
			zoom_child(c[i], x - 10, ratio);
		}
	}
	function zoom_parent(e) {
		if (e.attributes) {
			if (e.attributes.x != undefined) {
				orig_save(e, "x");
				e.attributes.x.value = 10;
			}
			if (e.attributes.width != undefined) {
				orig_save(e, "width");
				e.attributes.width.value = parseInt(svg.width.baseVal.value) - (10 * 2);
			}
		}
		if (e.childNodes == undefined) return;
		for (var i = 0, c = e.childNodes; i < c.length; i++) {
			zoom_parent(c[i]);
		}
	}
	function zoom(node) {
		var attr = find_child(node, "rect").attributes;
		var width = parseFloat(attr.width.value);
		var xmin = parseFloat(attr.x.value);
		var xmax = parseFloat(xmin + width);
		var ymin = parseFloat(attr.y.value);
		var ratio = (svg.width.baseVal.value - 2 * 10) / width;

		// XXX: Workaround for JavaScript float issues (fix me)
		var fudge = 0.0001;

		unzoombtn.classList.remove("hide");

		var el = document.getElementById("frames").children;
		for (var i = 0; i < el.length; i++) {
			var e = el[i];
			var a = find_child(e, "rect").attributes;
			var ex = parseFloat(a.x.value);
			var ew = parseFloat(a.width.value);
			var upstack;
			// Is it an ancestor
			if (0 == 0) {
				upstack = parseFloat(a.y.value) > ymin;
			} else {
				upstack = parseFloat(a.y.value) < ymin;
			}
			if (upstack) {
				// Direct ancestor
				if (ex <= xmin && (ex+ew+fudge) >= xmax) {
					e.classList.add("parent");
					zoom_parent(e);
					update_text(e);
				}
				// not in current path
				else
					e.classList.add("hide");
			}
			// Children maybe
			else {
				// no common path
				if (ex < xmin || ex + fudge >= xmax) {
					e.classList.add("hide");
				}
				else {
					zoom_child(e, xmin, ratio);
					update_text(e);
				}
			}
		}
		search();
	}
	function unzoom(dont_update_text) {
		unzoombtn.classList.add("hide");
		var el = document.getElementById("frames").children;
		for(var i = 0; i < el.length; i++) {
			el[i].classList.remove("parent");
			el[i].classList.remove("hide");
			zoom_reset(el[i]);
			if(!dont_update_text) update_text(el[i]);
		}
		search();
	}
	function clearzoom() {
		unzoom();

		// remove zoom state
		var params = get_params();
		if (params.x) delete params.x;
		if (params.y) delete params.y;
		history.replaceState(null, null, parse_params(params));
	}

	// search
	function toggle_ignorecase() {
		ignorecase = !ignorecase;
		if (ignorecase) {
			ignorecaseBtn.classList.add("show");
		} else {
			ignorecaseBtn.classList.remove("show");
		}
		reset_search();
		search();
	}
	function reset_search() {
		var el = document.querySelectorAll("#frames rect");
		for (var i = 0; i < el.length; i++) {
			orig_load(el[i], "fill")
		}
		var params = get_params();
		delete params.s;
		history.replaceState(null, null, parse_params(params));
	}
	function search_prompt() {
		if (!searching) {
			var term = prompt("Enter a search term (regexp " +
			    "allowed, eg: ^ext4_)"
			    + (ignorecase ? ", ignoring case" : "")
			    + "\nPress Ctrl-i to toggle case sensitivity", "");
			if (term != null) search(term);
		} else {
			reset_search();
			searching = 0;
			currentSearchTerm = null;
			searchbtn.classList.remove("show");
			searchbtn.firstChild.nodeValue = "Search"
			matchedtxt.classList.add("hide");
			matchedtxt.firstChild.nodeValue = ""
		}
	}
	function search(term) {
		if (term) currentSearchTerm = term;
		if (currentSearchTerm === null) return;

		var re = new RegExp(currentSearchTerm, ignorecase ? 'i' : '');
		var el = document.getElementById("frames").children;
		var matches = new Object();
		var maxwidth = 0;
		for (var i = 0; i < el.length; i++) {
			var e = el[i];
			var func = g_to_func(e);
			var rect = find_child(e, "rect");
			if (func == null || rect == null)
				continue;

			// Save max width. Only works as we have a root frame
			var w = parseFloat(rect.attributes.width.value);
			if (w > maxwidth)
				maxwidth = w;

			if (func.match(re)) {
				// highlight
				var x = parseFloat(rect.attributes.x.value);
				orig_save(rect, "fill");
				rect.attributes.fill.value = "rgb(230,0,230)";

				// remember matches
				if (matches[x] == undefined) {
					matches[x] = w;
				} else {
					if (w > matches[x]) {
						// overwrite with parent
						matches[x] = w;
					}
				}
				searching = 1;
			}
		}
		if (!searching)
			return;
		var params = get_params();
		params.s = currentSearchTerm;
		history.replaceState(null, null, parse_params(params));

		searchbtn.classList.add("show");
		searchbtn.firstChild.nodeValue = "Reset Search";

		// calculate percent matched, excluding vertical overlap
		var count = 0;
		var lastx = -1;
		var lastw = 0;
		var keys = Array();
		for (k in matches) {
			if (matches.hasOwnProperty(k))
				keys.push(k);
		}
		// sort the matched frames by their x location
		// ascending, then width descending
		keys.sort(function(a, b){
			return a - b;
		});
		// Step through frames saving only the biggest bottom-up frames
		// thanks to the sort order. This relies on the tree property
		// where children are always smaller than their parents.
		var fudge = 0.0001;	// JavaScript floating point
		for (var k in keys) {
			var x = parseFloat(keys[k]);
			var w = matches[keys[k]];
			if (x >= lastx + lastw - fudge) {
				count += w;
				lastx = x;
				lastw = w;
			}
		}
		// display matched percent
		matchedtxt.classList.remove("hide");
		var pct = 100 * count / maxwidth;
		if (pct != 100) pct = pct.toFixed(1)
		matchedtxt.firstChild.nodeValue = "Matched: " + pct + "%";
	}
]]>
</script>
<rect x="0.0" y="0" width="1200.0" height="406.0" fill="url(#background)"  />
<text id="title" x="600.00" y="24" >Flame Graph</text>
<text id="details" x="10.00" y="389" > </text>
<text id="unzoom" x="10.00" y="24" class="hide">Reset Zoom</text>
<text id="search" x="1090.00" y="24" >Search</text>
<text id="ignorecase" x="1174.00" y="24" >ic</text>
<text id="matched" x="1090.00" y="389" > </text>
<g id="frames">
<g >
<title>__pv_queued_spin_lock_slowpath+0x2b9 (2 samples, 0.91%)</title><rect x="1163.2" y="117" width="10.7" height="15.0" fill="rgb(217,57,13)" rx="2" ry="2" />
<text  x="1166.18" y="127.5" ></text>
</g>
<g >
<title>x64_sys_call+0x1d3a (6 samples, 2.73%)</title><rect x="1125.6" y="293" width="32.2" height="15.0" fill="rgb(215,49,11)" rx="2" ry="2" />
<text  x="1128.64" y="303.5" >x6..</text>
</g>
<g >
<title>__pv_queued_spin_lock_slowpath+0x2c3 (1 samples, 0.45%)</title><rect x="798.5" y="101" width="5.3" height="15.0" fill="rgb(249,206,49)" rx="2" ry="2" />
<text  x="801.45" y="111.5" ></text>
</g>
<g >
<title>__x64_sys_openat+0x55 (6 samples, 2.73%)</title><rect x="1157.8" y="277" width="32.2" height="15.0" fill="rgb(254,225,54)" rx="2" ry="2" />
<text  x="1160.82" y="287.5" >__..</text>
</g>
<g >
<title>lockref_get_not_zero+0x6a (2 samples, 0.91%)</title><rect x="1163.2" y="149" width="10.7" height="15.0" fill="rgb(252,218,52)" rx="2" ry="2" />
<text  x="1166.18" y="159.5" ></text>
</g>
<g >
<title>sock_recvmsg+0xde (1 samples, 0.45%)</title><rect x="1072.0" y="197" width="5.4" height="15.0" fill="rgb(244,182,43)" rx="2" ry="2" />
<text  x="1075.00" y="207.5" ></text>
</g>
<g >
<title>do_syscall_64+0x7f (12 samples, 5.45%)</title><rect x="1125.6" y="309" width="64.4" height="15.0" fill="rgb(232,125,29)" rx="2" ry="2" />
<text  x="1128.64" y="319.5" >do_sysc..</text>
</g>
<g >
<title>ksys_read+0xc9 (1 samples, 0.45%)</title><rect x="1072.0" y="245" width="5.4" height="15.0" fill="rgb(208,18,4)" rx="2" ry="2" />
<text  x="1075.00" y="255.5" ></text>
</g>
<g >
<title>do_sys_openat2+0xb3 (77 samples, 35.00%)</title><rect x="546.4" y="229" width="413.0" height="15.0" fill="rgb(227,104,24)" rx="2" ry="2" />
<text  x="549.36" y="239.5" >do_sys_openat2+0xb3</text>
</g>
<g >
<title>_raw_spin_lock+0x38 (14 samples, 6.36%)</title><rect x="578.5" y="117" width="75.1" height="15.0" fill="rgb(235,141,33)" rx="2" ry="2" />
<text  x="581.55" y="127.5" >_raw_spi..</text>
</g>
<g >
<title>__pv_queued_spin_lock_slowpath+0x2be (2 samples, 0.91%)</title><rect x="787.7" y="101" width="10.8" height="15.0" fill="rgb(233,130,31)" rx="2" ry="2" />
<text  x="790.73" y="111.5" ></text>
</g>
<g >
<title>link_path_walk.part.0.constprop.0+0x2a9 (8 samples, 3.64%)</title><rect x="1077.4" y="197" width="42.9" height="15.0" fill="rgb(217,57,13)" rx="2" ry="2" />
<text  x="1080.36" y="207.5" >link..</text>
</g>
<g >
<title>folio_batch_move_lru+0xd7 (1 samples, 0.45%)</title><rect x="535.6" y="133" width="5.4" height="15.0" fill="rgb(243,174,41)" rx="2" ry="2" />
<text  x="538.64" y="143.5" ></text>
</g>
<g >
<title>x64_sys_call+0x1eb1 (6 samples, 2.73%)</title><rect x="1157.8" y="293" width="32.2" height="15.0" fill="rgb(215,49,11)" rx="2" ry="2" />
<text  x="1160.82" y="303.5" >x6..</text>
</g>
<g >
<title>down_write+0x4c (1 samples, 0.45%)</title><rect x="959.4" y="85" width="5.3" height="15.0" fill="rgb(233,132,31)" rx="2" ry="2" />
<text  x="962.36" y="95.5" ></text>
</g>
<g >
<title>unmap_region+0x13d (1 samples, 0.45%)</title><rect x="959.4" y="133" width="5.3" height="15.0" fill="rgb(214,41,9)" rx="2" ry="2" />
<text  x="962.36" y="143.5" ></text>
</g>
<g >
<title>exc_page_fault+0x83 (1 samples, 0.45%)</title><rect x="535.6" y="245" width="5.4" height="15.0" fill="rgb(208,16,3)" rx="2" ry="2" />
<text  x="538.64" y="255.5" ></text>
</g>
<g >
<title>__pv_queued_spin_lock_slowpath+0x2b9 (1 samples, 0.45%)</title><rect x="1114.9" y="101" width="5.4" height="15.0" fill="rgb(217,57,13)" rx="2" ry="2" />
<text  x="1117.91" y="111.5" ></text>
</g>
<g >
<title>x64_sys_call+0x1bf0 (21 samples, 9.55%)</title><rect x="964.7" y="277" width="112.7" height="15.0" fill="rgb(215,49,11)" rx="2" ry="2" />
<text  x="967.73" y="287.5" >x64_sys_call+..</text>
</g>
<g >
<title>ksys_read+0x73 (20 samples, 9.09%)</title><rect x="964.7" y="245" width="107.3" height="15.0" fill="rgb(231,124,29)" rx="2" ry="2" />
<text  x="967.73" y="255.5" >ksys_read+0x73</text>
</g>
<g >
<title>handle_dots+0xcb (10 samples, 4.55%)</title><rect x="905.7" y="149" width="53.7" height="15.0" fill="rgb(253,224,53)" rx="2" ry="2" />
<text  x="908.73" y="159.5" >handl..</text>
</g>
<g >
<title>_raw_spin_lock+0x38 (2 samples, 0.91%)</title><rect x="1109.5" y="117" width="10.8" height="15.0" fill="rgb(235,141,33)" rx="2" ry="2" />
<text  x="1112.55" y="127.5" ></text>
</g>
<g >
<title>__handle_mm_fault+0x653 (1 samples, 0.45%)</title><rect x="1120.3" y="261" width="5.3" height="15.0" fill="rgb(223,84,20)" rx="2" ry="2" />
<text  x="1123.27" y="271.5" ></text>
</g>
<g >
<title>_raw_spin_lock+0x38 (3 samples, 1.36%)</title><rect x="1173.9" y="133" width="16.1" height="15.0" fill="rgb(235,141,33)" rx="2" ry="2" />
<text  x="1176.91" y="143.5" ></text>
</g>
<g >
<title>__pv_queued_spin_lock_slowpath+0x2b9 (8 samples, 3.64%)</title><rect x="825.3" y="85" width="42.9" height="15.0" fill="rgb(217,57,13)" rx="2" ry="2" />
<text  x="828.27" y="95.5" >__pv..</text>
</g>
<g >
<title>rwsem_down_write_slowpath+0x2f7 (1 samples, 0.45%)</title><rect x="959.4" y="69" width="5.3" height="15.0" fill="rgb(242,172,41)" rx="2" ry="2" />
<text  x="962.36" y="79.5" ></text>
</g>
<g >
<title>aa_may_ptrace+0x88 (1 samples, 0.45%)</title><rect x="541.0" y="117" width="5.4" height="15.0" fill="rgb(206,5,1)" rx="2" ry="2" />
<text  x="544.00" y="127.5" ></text>
</g>
<g >
<title>do_user_addr_fault+0x157 (1 samples, 0.45%)</title><rect x="535.6" y="229" width="5.4" height="15.0" fill="rgb(251,212,50)" rx="2" ry="2" />
<text  x="538.64" y="239.5" ></text>
</g>
<g >
<title>asm_exc_page_fault+0x27 (1 samples, 0.45%)</title><rect x="535.6" y="261" width="5.4" height="15.0" fill="rgb(234,133,32)" rx="2" ry="2" />
<text  x="538.64" y="271.5" ></text>
</g>
<g >
<title>inode_permission+0xfc (4 samples, 1.82%)</title><rect x="557.1" y="165" width="21.4" height="15.0" fill="rgb(247,195,46)" rx="2" ry="2" />
<text  x="560.09" y="175.5" >i..</text>
</g>
<g >
<title>nd_jump_root+0xcc (1 samples, 0.45%)</title><rect x="546.4" y="165" width="5.3" height="15.0" fill="rgb(249,204,48)" rx="2" ry="2" />
<text  x="549.36" y="175.5" ></text>
</g>
<g >
<title>ksys_mmap_pgoff+0x1cc (1 samples, 0.45%)</title><rect x="959.4" y="229" width="5.3" height="15.0" fill="rgb(236,146,34)" rx="2" ry="2" />
<text  x="962.36" y="239.5" ></text>
</g>
<g >
<title>do_user_addr_fault+0x157 (1 samples, 0.45%)</title><rect x="1120.3" y="293" width="5.3" height="15.0" fill="rgb(251,212,50)" rx="2" ry="2" />
<text  x="1123.27" y="303.5" ></text>
</g>
<g >
<title>lookup_fast+0x84 (1 samples, 0.45%)</title><rect x="1157.8" y="181" width="5.4" height="15.0" fill="rgb(209,18,4)" rx="2" ry="2" />
<text  x="1160.82" y="191.5" ></text>
</g>
<g >
<title>folio_add_lru_vma+0x75 (1 samples, 0.45%)</title><rect x="535.6" y="149" width="5.4" height="15.0" fill="rgb(241,167,39)" rx="2" ry="2" />
<text  x="538.64" y="159.5" ></text>
</g>
<g >
<title>path_init+0x296 (1 samples, 0.45%)</title><rect x="546.4" y="181" width="5.3" height="15.0" fill="rgb(208,18,4)" rx="2" ry="2" />
<text  x="549.36" y="191.5" ></text>
</g>
<g >
<title>security_ptrace_access_check+0x36 (1 samples, 0.45%)</title><rect x="541.0" y="149" width="5.4" height="15.0" fill="rgb(228,107,25)" rx="2" ry="2" />
<text  x="544.00" y="159.5" ></text>
</g>
<g >
<title>process_vm_rw_core.constprop.0+0x110 (1 samples, 0.45%)</title><rect x="541.0" y="213" width="5.4" height="15.0" fill="rgb(230,116,27)" rx="2" ry="2" />
<text  x="544.00" y="223.5" ></text>
</g>
<g >
<title>do_mmap+0x402 (1 samples, 0.45%)</title><rect x="959.4" y="197" width="5.3" height="15.0" fill="rgb(246,190,45)" rx="2" ry="2" />
<text  x="962.36" y="207.5" ></text>
</g>
<g >
<title>process_vm_rw+0x10d (1 samples, 0.45%)</title><rect x="541.0" y="229" width="5.4" height="15.0" fill="rgb(224,88,21)" rx="2" ry="2" />
<text  x="544.00" y="239.5" ></text>
</g>
<g >
<title>vfs_read+0x34e (1 samples, 0.45%)</title><rect x="1072.0" y="229" width="5.4" height="15.0" fill="rgb(243,176,42)" rx="2" ry="2" />
<text  x="1075.00" y="239.5" ></text>
</g>
<g >
<title>sysfs_kf_bin_read+0x63 (19 samples, 8.64%)</title><rect x="964.7" y="181" width="101.9" height="15.0" fill="rgb(228,107,25)" rx="2" ry="2" />
<text  x="967.73" y="191.5" >sysfs_kf_bin..</text>
</g>
<g >
<title>do_vmi_align_munmap+0x3e8 (1 samples, 0.45%)</title><rect x="959.4" y="149" width="5.3" height="15.0" fill="rgb(254,228,54)" rx="2" ry="2" />
<text  x="962.36" y="159.5" ></text>
</g>
<g >
<title>link_path_walk.part.0.constprop.0+0x2a9 (71 samples, 32.27%)</title><rect x="578.5" y="181" width="380.9" height="15.0" fill="rgb(217,57,13)" rx="2" ry="2" />
<text  x="581.55" y="191.5" >link_path_walk.part.0.constprop.0+0x2a9</text>
</g>
<g >
<title>__pv_queued_spin_lock_slowpath+0x2be (3 samples, 1.36%)</title><rect x="868.2" y="85" width="16.1" height="15.0" fill="rgb(233,130,31)" rx="2" ry="2" />
<text  x="871.18" y="95.5" ></text>
</g>
<g >
<title>handle_dots+0x12e (16 samples, 7.27%)</title><rect x="819.9" y="149" width="85.8" height="15.0" fill="rgb(234,135,32)" rx="2" ry="2" />
<text  x="822.91" y="159.5" >handle_dot..</text>
</g>
<g >
<title>do_filp_open+0xaf (8 samples, 3.64%)</title><rect x="1077.4" y="229" width="42.9" height="15.0" fill="rgb(212,35,8)" rx="2" ry="2" />
<text  x="1080.36" y="239.5" >do_f..</text>
</g>
<g >
<title>process_vm_rw_core.constprop.0+0x187 (6 samples, 2.73%)</title><rect x="1125.6" y="245" width="32.2" height="15.0" fill="rgb(239,160,38)" rx="2" ry="2" />
<text  x="1128.64" y="255.5" >pr..</text>
</g>
<g >
<title>dput+0x136 (1 samples, 0.45%)</title><rect x="1098.8" y="149" width="5.4" height="15.0" fill="rgb(231,119,28)" rx="2" ry="2" />
<text  x="1101.82" y="159.5" ></text>
</g>
<g >
<title>lockref_put_return+0x3 (1 samples, 0.45%)</title><rect x="1104.2" y="149" width="5.3" height="15.0" fill="rgb(230,118,28)" rx="2" ry="2" />
<text  x="1107.18" y="159.5" ></text>
</g>
<g >
<title>seq_read_iter+0x12f (1 samples, 0.45%)</title><rect x="1066.6" y="197" width="5.4" height="15.0" fill="rgb(221,75,18)" rx="2" ry="2" />
<text  x="1069.64" y="207.5" ></text>
</g>
<g >
<title>osq_lock+0x99 (1 samples, 0.45%)</title><rect x="959.4" y="37" width="5.3" height="15.0" fill="rgb(215,46,11)" rx="2" ry="2" />
<text  x="962.36" y="47.5" ></text>
</g>
<g >
<title>lookup_fast+0x65 (14 samples, 6.36%)</title><rect x="578.5" y="149" width="75.1" height="15.0" fill="rgb(215,48,11)" rx="2" ry="2" />
<text  x="581.55" y="159.5" >lookup_f..</text>
</g>
<g >
<title>__mem_cgroup_charge+0x20 (1 samples, 0.45%)</title><rect x="1120.3" y="213" width="5.3" height="15.0" fill="rgb(222,78,18)" rx="2" ry="2" />
<text  x="1123.27" y="223.5" ></text>
</g>
<g >
<title>__pv_queued_spin_lock_slowpath+0x2c3 (1 samples, 0.45%)</title><rect x="954.0" y="85" width="5.4" height="15.0" fill="rgb(249,206,49)" rx="2" ry="2" />
<text  x="957.00" y="95.5" ></text>
</g>
<g >
<title>do_filp_open+0xaf (6 samples, 2.73%)</title><rect x="1157.8" y="245" width="32.2" height="15.0" fill="rgb(212,35,8)" rx="2" ry="2" />
<text  x="1160.82" y="255.5" >do..</text>
</g>
<g >
<title>do_vmi_munmap+0xdf (1 samples, 0.45%)</title><rect x="959.4" y="165" width="5.3" height="15.0" fill="rgb(235,141,33)" rx="2" ry="2" />
<text  x="962.36" y="175.5" ></text>
</g>
<g >
<title>_raw_spin_lock+0x38 (2 samples, 0.91%)</title><rect x="1163.2" y="133" width="10.7" height="15.0" fill="rgb(235,141,33)" rx="2" ry="2" />
<text  x="1166.18" y="143.5" ></text>
</g>
<g >
<title>x64_sys_call+0x1eb1 (8 samples, 3.64%)</title><rect x="1077.4" y="277" width="42.9" height="15.0" fill="rgb(215,49,11)" rx="2" ry="2" />
<text  x="1080.36" y="287.5" >x64_..</text>
</g>
<g >
<title>__pv_queued_spin_lock_slowpath+0x2be (1 samples, 0.45%)</title><rect x="642.9" y="101" width="5.4" height="15.0" fill="rgb(233,130,31)" rx="2" ry="2" />
<text  x="645.91" y="111.5" ></text>
</g>
<g >
<title>down_read+0x1c (1 samples, 0.45%)</title><rect x="653.6" y="117" width="5.4" height="15.0" fill="rgb(226,100,24)" rx="2" ry="2" />
<text  x="656.64" y="127.5" ></text>
</g>
<g >
<title>do_syscall_64+0x7f (29 samples, 13.18%)</title><rect x="964.7" y="293" width="155.6" height="15.0" fill="rgb(232,125,29)" rx="2" ry="2" />
<text  x="967.73" y="303.5" >do_syscall_64+0x7f</text>
</g>
<g >
<title>up_read+0x11 (1 samples, 0.45%)</title><rect x="1157.8" y="165" width="5.4" height="15.0" fill="rgb(212,36,8)" rx="2" ry="2" />
<text  x="1160.82" y="175.5" ></text>
</g>
<g >
<title>entry_SYSCALL_64_after_hwframe+0x78 (79 samples, 35.91%)</title><rect x="541.0" y="293" width="423.7" height="15.0" fill="rgb(238,155,37)" rx="2" ry="2" />
<text  x="544.00" y="303.5" >entry_SYSCALL_64_after_hwframe+0x78</text>
</g>
<g >
<title>dget_parent+0x27 (16 samples, 7.27%)</title><rect x="819.9" y="133" width="85.8" height="15.0" fill="rgb(246,190,45)" rx="2" ry="2" />
<text  x="822.91" y="143.5" >dget_paren..</text>
</g>
<g >
<title>path_openat+0x87 (76 samples, 34.55%)</title><rect x="551.7" y="197" width="407.7" height="15.0" fill="rgb(218,64,15)" rx="2" ry="2" />
<text  x="554.73" y="207.5" >path_openat+0x87</text>
</g>
<g >
<title>walk_component+0xd4 (5 samples, 2.27%)</title><rect x="1163.2" y="197" width="26.8" height="15.0" fill="rgb(246,190,45)" rx="2" ry="2" />
<text  x="1166.18" y="207.5" >w..</text>
</g>
<g >
<title>lmp-73333 (220 samples, 100.00%)</title><rect x="10.0" y="341" width="1180.0" height="15.0" fill="rgb(224,89,21)" rx="2" ry="2" />
<text  x="13.00" y="351.5" >lmp-73333</text>
</g>
<g >
<title>handle_dots+0xcb (2 samples, 0.91%)</title><rect x="1109.5" y="165" width="10.8" height="15.0" fill="rgb(253,224,53)" rx="2" ry="2" />
<text  x="1112.55" y="175.5" ></text>
</g>
<g >
<title>step_into+0x2a9 (2 samples, 0.91%)</title><rect x="1098.8" y="165" width="10.7" height="15.0" fill="rgb(245,186,44)" rx="2" ry="2" />
<text  x="1101.82" y="175.5" ></text>
</g>
<g >
<title>do_anonymous_page+0x36c (1 samples, 0.45%)</title><rect x="535.6" y="165" width="5.4" height="15.0" fill="rgb(207,13,3)" rx="2" ry="2" />
<text  x="538.64" y="175.5" ></text>
</g>
<g >
<title>process_vm_rw_single_vec.isra.0+0x172 (6 samples, 2.73%)</title><rect x="1125.6" y="229" width="32.2" height="15.0" fill="rgb(234,136,32)" rx="2" ry="2" />
<text  x="1128.64" y="239.5" >pr..</text>
</g>
<g >
<title>__x64_sys_mmap+0x33 (1 samples, 0.45%)</title><rect x="959.4" y="245" width="5.3" height="15.0" fill="rgb(251,212,50)" rx="2" ry="2" />
<text  x="962.36" y="255.5" ></text>
</g>
<g >
<title>dget_parent+0x27 (2 samples, 0.91%)</title><rect x="1163.2" y="165" width="10.7" height="15.0" fill="rgb(246,190,45)" rx="2" ry="2" />
<text  x="1166.18" y="175.5" ></text>
</g>
<g >
<title>rwsem_optimistic_spin+0x29 (1 samples, 0.45%)</title><rect x="959.4" y="53" width="5.3" height="15.0" fill="rgb(211,29,7)" rx="2" ry="2" />
<text  x="962.36" y="63.5" ></text>
</g>
<g >
<title>do_sys_openat2+0xb3 (8 samples, 3.64%)</title><rect x="1077.4" y="245" width="42.9" height="15.0" fill="rgb(227,104,24)" rx="2" ry="2" />
<text  x="1080.36" y="255.5" >do_s..</text>
</g>
<g >
<title>step_into+0x2a9 (10 samples, 4.55%)</title><rect x="905.7" y="133" width="53.7" height="15.0" fill="rgb(245,186,44)" rx="2" ry="2" />
<text  x="908.73" y="143.5" >step_..</text>
</g>
<g >
<title>asm_exc_page_fault+0x27 (1 samples, 0.45%)</title><rect x="1120.3" y="325" width="5.3" height="15.0" fill="rgb(234,133,32)" rx="2" ry="2" />
<text  x="1123.27" y="335.5" ></text>
</g>
<g >
<title>sock_read_iter+0x8f (1 samples, 0.45%)</title><rect x="1072.0" y="213" width="5.4" height="15.0" fill="rgb(233,132,31)" rx="2" ry="2" />
<text  x="1075.00" y="223.5" ></text>
</g>
<g >
<title>handle_mm_fault+0x12a (1 samples, 0.45%)</title><rect x="535.6" y="213" width="5.4" height="15.0" fill="rgb(205,1,0)" rx="2" ry="2" />
<text  x="538.64" y="223.5" ></text>
</g>
<g >
<title>__x64_sys_openat+0x55 (77 samples, 35.00%)</title><rect x="546.4" y="245" width="413.0" height="15.0" fill="rgb(254,225,54)" rx="2" ry="2" />
<text  x="549.36" y="255.5" >__x64_sys_openat+0x55</text>
</g>
<g >
<title>up_read+0x11 (2 samples, 0.91%)</title><rect x="567.8" y="149" width="10.7" height="15.0" fill="rgb(212,36,8)" rx="2" ry="2" />
<text  x="570.82" y="159.5" ></text>
</g>
<g >
<title>exc_page_fault+0x83 (1 samples, 0.45%)</title><rect x="1120.3" y="309" width="5.3" height="15.0" fill="rgb(208,16,3)" rx="2" ry="2" />
<text  x="1123.27" y="319.5" ></text>
</g>
<g >
<title>__pv_queued_spin_lock_slowpath+0x2b9 (23 samples, 10.45%)</title><rect x="664.4" y="101" width="123.3" height="15.0" fill="rgb(217,57,13)" rx="2" ry="2" />
<text  x="667.36" y="111.5" >__pv_queued_spi..</text>
</g>
<g >
<title>dput+0x136 (10 samples, 4.55%)</title><rect x="905.7" y="117" width="53.7" height="15.0" fill="rgb(231,119,28)" rx="2" ry="2" />
<text  x="908.73" y="127.5" >dput+..</text>
</g>
<g >
<title>__handle_mm_fault+0x653 (1 samples, 0.45%)</title><rect x="535.6" y="197" width="5.4" height="15.0" fill="rgb(223,84,20)" rx="2" ry="2" />
<text  x="538.64" y="207.5" ></text>
</g>
<g >
<title>__pv_queued_spin_lock_slowpath+0x2b9 (1 samples, 0.45%)</title><rect x="1098.8" y="117" width="5.4" height="15.0" fill="rgb(217,57,13)" rx="2" ry="2" />
<text  x="1101.82" y="127.5" ></text>
</g>
<g >
<title>unix_stream_recvmsg+0x8d (1 samples, 0.45%)</title><rect x="1072.0" y="181" width="5.4" height="15.0" fill="rgb(230,117,28)" rx="2" ry="2" />
<text  x="1075.00" y="191.5" ></text>
</g>
<g >
<title>kernfs_file_read_iter+0xa1 (19 samples, 8.64%)</title><rect x="964.7" y="197" width="101.9" height="15.0" fill="rgb(208,16,3)" rx="2" ry="2" />
<text  x="967.73" y="207.5" >kernfs_file_..</text>
</g>
<g >
<title>entry_SYSCALL_64_after_hwframe+0x78 (29 samples, 13.18%)</title><rect x="964.7" y="309" width="155.6" height="15.0" fill="rgb(238,155,37)" rx="2" ry="2" />
<text  x="967.73" y="319.5" >entry_SYSCALL_64_af..</text>
</g>
<g >
<title>inode_permission+0x22 (1 samples, 0.45%)</title><rect x="551.7" y="165" width="5.4" height="15.0" fill="rgb(249,206,49)" rx="2" ry="2" />
<text  x="554.73" y="175.5" ></text>
</g>
<g >
<title>__x64_sys_process_vm_readv+0x27 (6 samples, 2.73%)</title><rect x="1125.6" y="277" width="32.2" height="15.0" fill="rgb(217,59,14)" rx="2" ry="2" />
<text  x="1128.64" y="287.5" >__..</text>
</g>
<g >
<title>__pv_queued_spin_lock_slowpath+0x2b9 (3 samples, 1.36%)</title><rect x="1077.4" y="117" width="16.1" height="15.0" fill="rgb(217,57,13)" rx="2" ry="2" />
<text  x="1080.36" y="127.5" ></text>
</g>
<g >
<title>__d_lookup+0x6b (4 samples, 1.82%)</title><rect x="1077.4" y="149" width="21.4" height="15.0" fill="rgb(229,111,26)" rx="2" ry="2" />
<text  x="1080.36" y="159.5" >_..</text>
</g>
<g >
<title>path_openat+0x7a (1 samples, 0.45%)</title><rect x="546.4" y="197" width="5.3" height="15.0" fill="rgb(254,225,53)" rx="2" ry="2" />
<text  x="549.36" y="207.5" ></text>
</g>
<g >
<title>lockref_get_not_zero+0x8 (1 samples, 0.45%)</title><rect x="900.4" y="117" width="5.3" height="15.0" fill="rgb(216,51,12)" rx="2" ry="2" />
<text  x="903.36" y="127.5" ></text>
</g>
<g >
<title>_raw_spin_lock+0x38 (15 samples, 6.82%)</title><rect x="819.9" y="101" width="80.5" height="15.0" fill="rgb(235,141,33)" rx="2" ry="2" />
<text  x="822.91" y="111.5" >_raw_spin..</text>
</g>
<g >
<title>__x64_sys_read+0x19 (21 samples, 9.55%)</title><rect x="964.7" y="261" width="112.7" height="15.0" fill="rgb(222,79,18)" rx="2" ry="2" />
<text  x="967.73" y="271.5" >__x64_sys_rea..</text>
</g>
<g >
<title>copy_page_to_iter+0x9f (6 samples, 2.73%)</title><rect x="1125.6" y="213" width="32.2" height="15.0" fill="rgb(219,67,16)" rx="2" ry="2" />
<text  x="1128.64" y="223.5" >co..</text>
</g>
<g >
<title>__ptrace_may_access+0xd4 (1 samples, 0.45%)</title><rect x="541.0" y="165" width="5.4" height="15.0" fill="rgb(229,113,27)" rx="2" ry="2" />
<text  x="544.00" y="175.5" ></text>
</g>
<g >
<title>[unknown] (207 samples, 94.09%)</title><rect x="10.0" y="325" width="1110.3" height="15.0" fill="rgb(210,24,5)" rx="2" ry="2" />
<text  x="13.00" y="335.5" >[unknown]</text>
</g>
<g >
<title>show_cpuinfo+0x195 (1 samples, 0.45%)</title><rect x="1066.6" y="181" width="5.4" height="15.0" fill="rgb(225,94,22)" rx="2" ry="2" />
<text  x="1069.64" y="191.5" ></text>
</g>
<g >
<title>kernfs_iop_get_link+0x9f (3 samples, 1.36%)</title><rect x="803.8" y="117" width="16.1" height="15.0" fill="rgb(226,97,23)" rx="2" ry="2" />
<text  x="806.82" y="127.5" ></text>
</g>
<g >
<title>handle_mm_fault+0x12a (1 samples, 0.45%)</title><rect x="1120.3" y="277" width="5.3" height="15.0" fill="rgb(205,1,0)" rx="2" ry="2" />
<text  x="1123.27" y="287.5" ></text>
</g>
<g >
<title>handle_pte_fault+0x1ba (1 samples, 0.45%)</title><rect x="1120.3" y="245" width="5.3" height="15.0" fill="rgb(228,106,25)" rx="2" ry="2" />
<text  x="1123.27" y="255.5" ></text>
</g>
<g >
<title>mmap_region+0xd4 (1 samples, 0.45%)</title><rect x="959.4" y="181" width="5.3" height="15.0" fill="rgb(236,144,34)" rx="2" ry="2" />
<text  x="962.36" y="191.5" ></text>
</g>
<g >
<title>kernfs_iop_permission+0x40 (2 samples, 0.91%)</title><rect x="557.1" y="149" width="10.7" height="15.0" fill="rgb(229,111,26)" rx="2" ry="2" />
<text  x="560.09" y="159.5" ></text>
</g>
<g >
<title>__x64_sys_openat+0x55 (8 samples, 3.64%)</title><rect x="1077.4" y="261" width="42.9" height="15.0" fill="rgb(254,225,54)" rx="2" ry="2" />
<text  x="1080.36" y="271.5" >__x6..</text>
</g>
<g >
<title>dput+0x136 (26 samples, 11.82%)</title><rect x="664.4" y="133" width="139.4" height="15.0" fill="rgb(231,119,28)" rx="2" ry="2" />
<text  x="667.36" y="143.5" >dput+0x136</text>
</g>
<g >
<title>__pv_queued_spin_lock_slowpath+0x9d (1 samples, 0.45%)</title><rect x="1184.6" y="117" width="5.4" height="15.0" fill="rgb(227,103,24)" rx="2" ry="2" />
<text  x="1187.64" y="127.5" ></text>
</g>
<g >
<title>walk_component+0x51 (2 samples, 0.91%)</title><rect x="1098.8" y="181" width="10.7" height="15.0" fill="rgb(219,66,15)" rx="2" ry="2" />
<text  x="1101.82" y="191.5" ></text>
</g>
<g >
<title>step_into+0x2a9 (26 samples, 11.82%)</title><rect x="664.4" y="149" width="139.4" height="15.0" fill="rgb(245,186,44)" rx="2" ry="2" />
<text  x="667.36" y="159.5" >step_into+0x2a9</text>
</g>
<g >
<title>[unknown] (15 samples, 6.82%)</title><rect x="460.5" y="277" width="80.5" height="15.0" fill="rgb(210,24,5)" rx="2" ry="2" />
<text  x="463.55" y="287.5" >[unknown]</text>
</g>
<g >
<title>unlink_file_vma+0x31 (1 samples, 0.45%)</title><rect x="959.4" y="101" width="5.3" height="15.0" fill="rgb(252,219,52)" rx="2" ry="2" />
<text  x="962.36" y="111.5" ></text>
</g>
<g >
<title>unix_stream_read_generic+0x6ed (1 samples, 0.45%)</title><rect x="1072.0" y="165" width="5.4" height="15.0" fill="rgb(233,132,31)" rx="2" ry="2" />
<text  x="1075.00" y="175.5" ></text>
</g>
<g >
<title>__pv_queued_spin_lock_slowpath+0x165 (1 samples, 0.45%)</title><rect x="1109.5" y="101" width="5.4" height="15.0" fill="rgb(234,133,31)" rx="2" ry="2" />
<text  x="1112.55" y="111.5" ></text>
</g>
<g >
<title>path_openat+0x87 (6 samples, 2.73%)</title><rect x="1157.8" y="229" width="32.2" height="15.0" fill="rgb(218,64,15)" rx="2" ry="2" />
<text  x="1160.82" y="239.5" >pa..</text>
</g>
<g >
<title>set_root+0x3c (1 samples, 0.45%)</title><rect x="546.4" y="149" width="5.3" height="15.0" fill="rgb(253,222,53)" rx="2" ry="2" />
<text  x="549.36" y="159.5" ></text>
</g>
<g >
<title>__x64_sys_process_vm_readv+0x27 (1 samples, 0.45%)</title><rect x="541.0" y="245" width="5.4" height="15.0" fill="rgb(217,59,14)" rx="2" ry="2" />
<text  x="544.00" y="255.5" ></text>
</g>
<g >
<title>[unknown] (15 samples, 6.82%)</title><rect x="460.5" y="293" width="80.5" height="15.0" fill="rgb(210,24,5)" rx="2" ry="2" />
<text  x="463.55" y="303.5" >[unknown]</text>
</g>
<g >
<title>__pv_queued_spin_lock_slowpath+0x2c3 (1 samples, 0.45%)</title><rect x="648.3" y="101" width="5.3" height="15.0" fill="rgb(249,206,49)" rx="2" ry="2" />
<text  x="651.27" y="111.5" ></text>
</g>
<g >
<title>__raw_spin_unlock_irq.constprop.0+0x17 (19 samples, 8.64%)</title><rect x="964.7" y="133" width="101.9" height="15.0" fill="rgb(252,218,52)" rx="2" ry="2" />
<text  x="967.73" y="143.5" >__raw_spin_u..</text>
</g>
<g >
<title>do_sys_openat2+0xb3 (6 samples, 2.73%)</title><rect x="1157.8" y="261" width="32.2" height="15.0" fill="rgb(227,104,24)" rx="2" ry="2" />
<text  x="1160.82" y="271.5" >do..</text>
</g>
<g >
<title>_raw_spin_lock+0x10 (1 samples, 0.45%)</title><rect x="1072.0" y="149" width="5.4" height="15.0" fill="rgb(250,208,49)" rx="2" ry="2" />
<text  x="1075.00" y="159.5" ></text>
</g>
<g >
<title>walk_component+0x51 (29 samples, 13.18%)</title><rect x="664.4" y="165" width="155.5" height="15.0" fill="rgb(219,66,15)" rx="2" ry="2" />
<text  x="667.36" y="175.5" >walk_component+0x51</text>
</g>
<g >
<title>_raw_spin_lock+0x38 (4 samples, 1.82%)</title><rect x="1077.4" y="133" width="21.4" height="15.0" fill="rgb(235,141,33)" rx="2" ry="2" />
<text  x="1080.36" y="143.5" >_..</text>
</g>
<g >
<title>process_vm_rw+0x10d (6 samples, 2.73%)</title><rect x="1125.6" y="261" width="32.2" height="15.0" fill="rgb(224,88,21)" rx="2" ry="2" />
<text  x="1128.64" y="271.5" >pr..</text>
</g>
<g >
<title>down_read+0x1c (3 samples, 1.36%)</title><rect x="803.8" y="101" width="16.1" height="15.0" fill="rgb(226,100,24)" rx="2" ry="2" />
<text  x="806.82" y="111.5" ></text>
</g>
<g >
<title>handle_dots+0xcb (3 samples, 1.36%)</title><rect x="1173.9" y="181" width="16.1" height="15.0" fill="rgb(253,224,53)" rx="2" ry="2" />
<text  x="1176.91" y="191.5" ></text>
</g>
<g >
<title>entry_SYSCALL_64_after_hwframe+0x78 (12 samples, 5.45%)</title><rect x="1125.6" y="325" width="64.4" height="15.0" fill="rgb(238,155,37)" rx="2" ry="2" />
<text  x="1128.64" y="335.5" >entry_S..</text>
</g>
<g >
<title>walk_component+0xd4 (2 samples, 0.91%)</title><rect x="1109.5" y="181" width="10.8" height="15.0" fill="rgb(246,190,45)" rx="2" ry="2" />
<text  x="1112.55" y="191.5" ></text>
</g>
<g >
<title>__pv_queued_spin_lock_slowpath+0x2b9 (9 samples, 4.09%)</title><rect x="905.7" y="85" width="48.3" height="15.0" fill="rgb(217,57,13)" rx="2" ry="2" />
<text  x="908.73" y="95.5" >__pv..</text>
</g>
<g >
<title>step_into+0xc2 (3 samples, 1.36%)</title><rect x="803.8" y="149" width="16.1" height="15.0" fill="rgb(250,210,50)" rx="2" ry="2" />
<text  x="806.82" y="159.5" ></text>
</g>
<g >
<title>do_anonymous_page+0xb2 (1 samples, 0.45%)</title><rect x="1120.3" y="229" width="5.3" height="15.0" fill="rgb(219,67,16)" rx="2" ry="2" />
<text  x="1123.27" y="239.5" ></text>
</g>
<g >
<title>up_read+0x11 (1 samples, 0.45%)</title><rect x="659.0" y="133" width="5.4" height="15.0" fill="rgb(212,36,8)" rx="2" ry="2" />
<text  x="662.00" y="143.5" ></text>
</g>
<g >
<title>_raw_spin_lock+0x38 (26 samples, 11.82%)</title><rect x="664.4" y="117" width="139.4" height="15.0" fill="rgb(235,141,33)" rx="2" ry="2" />
<text  x="667.36" y="127.5" >_raw_spin_lock+0x38</text>
</g>
<g >
<title>walk_component+0x2c (16 samples, 7.27%)</title><rect x="578.5" y="165" width="85.9" height="15.0" fill="rgb(215,49,11)" rx="2" ry="2" />
<text  x="581.55" y="175.5" >walk_compo..</text>
</g>
<g >
<title>__d_lookup+0x6b (14 samples, 6.36%)</title><rect x="578.5" y="133" width="75.1" height="15.0" fill="rgb(229,111,26)" rx="2" ry="2" />
<text  x="581.55" y="143.5" >__d_look..</text>
</g>
<g >
<title>apparmor_ptrace_access_check+0x8b (1 samples, 0.45%)</title><rect x="541.0" y="133" width="5.4" height="15.0" fill="rgb(254,225,53)" rx="2" ry="2" />
<text  x="544.00" y="143.5" ></text>
</g>
<g >
<title>link_path_walk.part.0.constprop.0+0x2a9 (6 samples, 2.73%)</title><rect x="1157.8" y="213" width="32.2" height="15.0" fill="rgb(217,57,13)" rx="2" ry="2" />
<text  x="1160.82" y="223.5" >li..</text>
</g>
<g >
<title>dput+0x136 (2 samples, 0.91%)</title><rect x="1109.5" y="133" width="10.8" height="15.0" fill="rgb(231,119,28)" rx="2" ry="2" />
<text  x="1112.55" y="143.5" ></text>
</g>
<g >
<title>__pv_queued_spin_lock_slowpath+0x2aa (1 samples, 0.45%)</title><rect x="819.9" y="85" width="5.4" height="15.0" fill="rgb(215,48,11)" rx="2" ry="2" />
<text  x="822.91" y="95.5" ></text>
</g>
<g >
<title>proc_reg_read_iter+0x2f (1 samples, 0.45%)</title><rect x="1066.6" y="213" width="5.4" height="15.0" fill="rgb(228,109,26)" rx="2" ry="2" />
<text  x="1069.64" y="223.5" ></text>
</g>
<g >
<title>[unknown] (100 samples, 45.45%)</title><rect x="428.4" y="309" width="536.3" height="15.0" fill="rgb(210,24,5)" rx="2" ry="2" />
<text  x="431.36" y="319.5" >[unknown]</text>
</g>
<g >
<title>step_into+0x2a9 (3 samples, 1.36%)</title><rect x="1173.9" y="165" width="16.1" height="15.0" fill="rgb(245,186,44)" rx="2" ry="2" />
<text  x="1176.91" y="175.5" ></text>
</g>
<g >
<title>kernfs_fop_read_iter+0x25 (19 samples, 8.64%)</title><rect x="964.7" y="213" width="101.9" height="15.0" fill="rgb(224,88,21)" rx="2" ry="2" />
<text  x="967.73" y="223.5" >kernfs_fop_r..</text>
</g>
<g >
<title>__pv_queued_spin_lock_slowpath+0x2c3 (3 samples, 1.36%)</title><rect x="884.3" y="85" width="16.1" height="15.0" fill="rgb(249,206,49)" rx="2" ry="2" />
<text  x="887.27" y="95.5" ></text>
</g>
<g >
<title>_raw_spin_unlock_irqrestore+0x21 (1 samples, 0.45%)</title><rect x="535.6" y="117" width="5.4" height="15.0" fill="rgb(225,94,22)" rx="2" ry="2" />
<text  x="538.64" y="127.5" ></text>
</g>
<g >
<title>free_pgtables+0x68 (1 samples, 0.45%)</title><rect x="959.4" y="117" width="5.3" height="15.0" fill="rgb(235,138,33)" rx="2" ry="2" />
<text  x="962.36" y="127.5" ></text>
</g>
<g >
<title>all (220 samples, 100%)</title><rect x="10.0" y="357" width="1180.0" height="15.0" fill="rgb(213,39,9)" rx="2" ry="2" />
<text  x="13.00" y="367.5" ></text>
</g>
<g >
<title>__pv_queued_spin_lock_slowpath+0x2b9 (2 samples, 0.91%)</title><rect x="1173.9" y="117" width="10.7" height="15.0" fill="rgb(217,57,13)" rx="2" ry="2" />
<text  x="1176.91" y="127.5" ></text>
</g>
<g >
<title>do_syscall_64+0x7f (79 samples, 35.91%)</title><rect x="541.0" y="277" width="423.7" height="15.0" fill="rgb(232,125,29)" rx="2" ry="2" />
<text  x="544.00" y="287.5" >do_syscall_64+0x7f</text>
</g>
<g >
<title>__pv_queued_spin_lock_slowpath+0x2be (1 samples, 0.45%)</title><rect x="1093.5" y="117" width="5.3" height="15.0" fill="rgb(233,130,31)" rx="2" ry="2" />
<text  x="1096.45" y="127.5" ></text>
</g>
<g >
<title>vfs_read+0x25c (20 samples, 9.09%)</title><rect x="964.7" y="229" width="107.3" height="15.0" fill="rgb(206,6,1)" rx="2" ry="2" />
<text  x="967.73" y="239.5" >vfs_read+0x25c</text>
</g>
<g >
<title>do_filp_open+0xaf (77 samples, 35.00%)</title><rect x="546.4" y="213" width="413.0" height="15.0" fill="rgb(212,35,8)" rx="2" ry="2" />
<text  x="549.36" y="223.5" >do_filp_open+0xaf</text>
</g>
<g >
<title>ptrace_may_access+0x2e (1 samples, 0.45%)</title><rect x="541.0" y="181" width="5.4" height="15.0" fill="rgb(213,39,9)" rx="2" ry="2" />
<text  x="544.00" y="191.5" ></text>
</g>
<g >
<title>handle_dots+0x12e (2 samples, 0.91%)</title><rect x="1163.2" y="181" width="10.7" height="15.0" fill="rgb(234,135,32)" rx="2" ry="2" />
<text  x="1166.18" y="191.5" ></text>
</g>
<g >
<title>walk_component+0x2c (4 samples, 1.82%)</title><rect x="1077.4" y="181" width="21.4" height="15.0" fill="rgb(215,49,11)" rx="2" ry="2" />
<text  x="1080.36" y="191.5" >w..</text>
</g>
<g >
<title>dput+0x136 (3 samples, 1.36%)</title><rect x="1173.9" y="149" width="16.1" height="15.0" fill="rgb(231,119,28)" rx="2" ry="2" />
<text  x="1176.91" y="159.5" ></text>
</g>
<g >
<title>_raw_spin_lock+0x38 (10 samples, 4.55%)</title><rect x="905.7" y="101" width="53.7" height="15.0" fill="rgb(235,141,33)" rx="2" ry="2" />
<text  x="908.73" y="111.5" >_raw_..</text>
</g>
<g >
<title>link_path_walk.part.0.constprop.0+0x130 (5 samples, 2.27%)</title><rect x="551.7" y="181" width="26.8" height="15.0" fill="rgb(229,111,26)" rx="2" ry="2" />
<text  x="554.73" y="191.5" >l..</text>
</g>
<g >
<title>lookup_fast+0x65 (4 samples, 1.82%)</title><rect x="1077.4" y="165" width="21.4" height="15.0" fill="rgb(215,48,11)" rx="2" ry="2" />
<text  x="1080.36" y="175.5" >l..</text>
</g>
<g >
<title>_copy_to_iter+0x98 (6 samples, 2.73%)</title><rect x="1125.6" y="197" width="32.2" height="15.0" fill="rgb(234,137,32)" rx="2" ry="2" />
<text  x="1128.64" y="207.5" >_c..</text>
</g>
<g >
<title>x64_sys_call+0x1fce (1 samples, 0.45%)</title><rect x="959.4" y="261" width="5.3" height="15.0" fill="rgb(216,54,13)" rx="2" ry="2" />
<text  x="962.36" y="271.5" ></text>
</g>
<g >
<title>x64_sys_call+0x1eb1 (77 samples, 35.00%)</title><rect x="546.4" y="261" width="413.0" height="15.0" fill="rgb(215,49,11)" rx="2" ry="2" />
<text  x="549.36" y="271.5" >x64_sys_call+0x1eb1</text>
</g>
<g >
<title>vm_mmap_pgoff+0xf3 (1 samples, 0.45%)</title><rect x="959.4" y="213" width="5.3" height="15.0" fill="rgb(236,143,34)" rx="2" ry="2" />
<text  x="962.36" y="223.5" ></text>
</g>
<g >
<title>pci_user_read_config_dword+0x7e (19 samples, 8.64%)</title><rect x="964.7" y="149" width="101.9" height="15.0" fill="rgb(213,40,9)" rx="2" ry="2" />
<text  x="967.73" y="159.5" >pci_user_rea..</text>
</g>
<g >
<title>mm_access+0x6d (1 samples, 0.45%)</title><rect x="541.0" y="197" width="5.4" height="15.0" fill="rgb(239,160,38)" rx="2" ry="2" />
<text  x="544.00" y="207.5" ></text>
</g>
<g >
<title>walk_component+0xd4 (26 samples, 11.82%)</title><rect x="819.9" y="165" width="139.5" height="15.0" fill="rgb(246,190,45)" rx="2" ry="2" />
<text  x="822.91" y="175.5" >walk_component+0xd4</text>
</g>
<g >
<title>pci_read_config+0x105 (19 samples, 8.64%)</title><rect x="964.7" y="165" width="101.9" height="15.0" fill="rgb(231,122,29)" rx="2" ry="2" />
<text  x="967.73" y="175.5" >pci_read_con..</text>
</g>
<g >
<title>__pv_queued_spin_lock_slowpath+0x2b9 (12 samples, 5.45%)</title><rect x="578.5" y="101" width="64.4" height="15.0" fill="rgb(217,57,13)" rx="2" ry="2" />
<text  x="581.55" y="111.5" >__pv_qu..</text>
</g>
<g >
<title>walk_component+0x2c (1 samples, 0.45%)</title><rect x="1157.8" y="197" width="5.4" height="15.0" fill="rgb(215,49,11)" rx="2" ry="2" />
<text  x="1160.82" y="207.5" ></text>
</g>
<g >
<title>step_into+0x2a9 (2 samples, 0.91%)</title><rect x="1109.5" y="149" width="10.8" height="15.0" fill="rgb(245,186,44)" rx="2" ry="2" />
<text  x="1112.55" y="159.5" ></text>
</g>
<g >
<title>lookup_fast+0x84 (2 samples, 0.91%)</title><rect x="653.6" y="149" width="10.8" height="15.0" fill="rgb(209,18,4)" rx="2" ry="2" />
<text  x="656.64" y="159.5" ></text>
</g>
<g >
<title>lockref_get_not_zero+0x6a (15 samples, 6.82%)</title><rect x="819.9" y="117" width="80.5" height="15.0" fill="rgb(252,218,52)" rx="2" ry="2" />
<text  x="822.91" y="127.5" >lockref_g..</text>
</g>
<g >
<title>[unknown] (13 samples, 5.91%)</title><rect x="465.9" y="261" width="69.7" height="15.0" fill="rgb(210,24,5)" rx="2" ry="2" />
<text  x="468.91" y="271.5" >[unknown]</text>
</g>
<g >
<title>x64_sys_call+0x1d3a (1 samples, 0.45%)</title><rect x="541.0" y="261" width="5.4" height="15.0" fill="rgb(215,49,11)" rx="2" ry="2" />
<text  x="544.00" y="271.5" ></text>
</g>
<g >
<title>pick_link+0x349 (3 samples, 1.36%)</title><rect x="803.8" y="133" width="16.1" height="15.0" fill="rgb(242,174,41)" rx="2" ry="2" />
<text  x="806.82" y="143.5" ></text>
</g>
<g >
<title>kernfs_dop_revalidate+0xf6 (1 samples, 0.45%)</title><rect x="653.6" y="133" width="5.4" height="15.0" fill="rgb(208,15,3)" rx="2" ry="2" />
<text  x="656.64" y="143.5" ></text>
</g>
<g >
<title>get_mem_cgroup_from_mm+0x47 (1 samples, 0.45%)</title><rect x="1120.3" y="197" width="5.3" height="15.0" fill="rgb(214,42,10)" rx="2" ry="2" />
<text  x="1123.27" y="207.5" ></text>
</g>
<g >
<title>down_read+0x1c (2 samples, 0.91%)</title><rect x="557.1" y="133" width="10.7" height="15.0" fill="rgb(226,100,24)" rx="2" ry="2" />
<text  x="560.09" y="143.5" ></text>
</g>
<g >
<title>path_openat+0x87 (8 samples, 3.64%)</title><rect x="1077.4" y="213" width="42.9" height="15.0" fill="rgb(218,64,15)" rx="2" ry="2" />
<text  x="1080.36" y="223.5" >path..</text>
</g>
<g >
<title>handle_pte_fault+0x1ba (1 samples, 0.45%)</title><rect x="535.6" y="181" width="5.4" height="15.0" fill="rgb(228,106,25)" rx="2" ry="2" />
<text  x="538.64" y="191.5" ></text>
</g>
<g >
<title>_raw_spin_lock+0x38 (1 samples, 0.45%)</title><rect x="1098.8" y="133" width="5.4" height="15.0" fill="rgb(235,141,33)" rx="2" ry="2" />
<text  x="1101.82" y="143.5" ></text>
</g>
</g>
</svg>
