<?xml version="1.0" standalone="no"?>
<!DOCTYPE svg PUBLIC "-//W3C//DTD SVG 1.1//EN" "http://www.w3.org/Graphics/SVG/1.1/DTD/svg11.dtd">
<svg version="1.1" width="1200" height="374" onload="init(evt)" viewBox="0 0 1200 374" xmlns="http://www.w3.org/2000/svg" xmlns:xlink="http://www.w3.org/1999/xlink">
<!-- Flame graph stack visualization. See https://github.com/brendangregg/FlameGraph for latest version, and http://www.brendangregg.com/flamegraphs.html for examples. -->
<!-- NOTES:  -->
<defs>
	<linearGradient id="background" y1="0" y2="1" x1="0" x2="0" >
		<stop stop-color="#eeeeee" offset="5%" />
		<stop stop-color="#eeeeb0" offset="95%" />
	</linearGradient>
</defs>
<style type="text/css">
	text { font-family:Verdana; font-size:12px; fill:rgb(0,0,0); }
	#search, #ignorecase { opacity:0.1; cursor:pointer; }
	#search:hover, #search.show, #ignorecase:hover, #ignorecase.show { opacity:1; }
	#subtitle { text-anchor:middle; font-color:rgb(160,160,160); }
	#title { text-anchor:middle; font-size:17px}
	#unzoom { cursor:pointer; }
	#frames > *:hover { stroke:black; stroke-width:0.5; cursor:pointer; }
	.hide { display:none; }
	.parent { opacity:0.5; }
</style>
<script type="text/ecmascript">
<![CDATA[
	"use strict";
	var details, searchbtn, unzoombtn, matchedtxt, svg, searching, currentSearchTerm, ignorecase, ignorecaseBtn;
	function init(evt) {
		details = document.getElementById("details").firstChild;
		searchbtn = document.getElementById("search");
		ignorecaseBtn = document.getElementById("ignorecase");
		unzoombtn = document.getElementById("unzoom");
		matchedtxt = document.getElementById("matched");
		svg = document.getElementsByTagName("svg")[0];
		searching = 0;
		currentSearchTerm = null;

		// use GET parameters to restore a flamegraphs state.
		var params = get_params();
		if (params.x && params.y)
			zoom(find_group(document.querySelector('[x="' + params.x + '"][y="' + params.y + '"]')));
                if (params.s) search(params.s);
	}

	// event listeners
	window.addEventListener("click", function(e) {
		var target = find_group(e.target);
		if (target) {
			if (target.nodeName == "a") {
				if (e.ctrlKey === false) return;
				e.preventDefault();
			}
			if (target.classList.contains("parent")) unzoom(true);
			zoom(target);
			if (!document.querySelector('.parent')) {
				// we have basically done a clearzoom so clear the url
				var params = get_params();
				if (params.x) delete params.x;
				if (params.y) delete params.y;
				history.replaceState(null, null, parse_params(params));
				unzoombtn.classList.add("hide");
				return;
			}

			// set parameters for zoom state
			var el = target.querySelector("rect");
			if (el && el.attributes && el.attributes.y && el.attributes._orig_x) {
				var params = get_params()
				params.x = el.attributes._orig_x.value;
				params.y = el.attributes.y.value;
				history.replaceState(null, null, parse_params(params));
			}
		}
		else if (e.target.id == "unzoom") clearzoom();
		else if (e.target.id == "search") search_prompt();
		else if (e.target.id == "ignorecase") toggle_ignorecase();
	}, false)

	// mouse-over for info
	// show
	window.addEventListener("mouseover", function(e) {
		var target = find_group(e.target);
		if (target) details.nodeValue = "Function: " + g_to_text(target);
	}, false)

	// clear
	window.addEventListener("mouseout", function(e) {
		var target = find_group(e.target);
		if (target) details.nodeValue = ' ';
	}, false)

	// ctrl-F for search
	// ctrl-I to toggle case-sensitive search
	window.addEventListener("keydown",function (e) {
		if (e.keyCode === 114 || (e.ctrlKey && e.keyCode === 70)) {
			e.preventDefault();
			search_prompt();
		}
		else if (e.ctrlKey && e.keyCode === 73) {
			e.preventDefault();
			toggle_ignorecase();
		}
	}, false)

	// functions
	function get_params() {
		var params = {};
		var paramsarr = window.location.search.substr(1).split('&');
		for (var i = 0; i < paramsarr.length; ++i) {
			var tmp = paramsarr[i].split("=");
			if (!tmp[0] || !tmp[1]) continue;
			params[tmp[0]]  = decodeURIComponent(tmp[1]);
		}
		return params;
	}
	function parse_params(params) {
		var uri = "?";
		for (var key in params) {
			uri += key + '=' + encodeURIComponent(params[key]) + '&';
		}
		if (uri.slice(-1) == "&")
			uri = uri.substring(0, uri.length - 1);
		if (uri == '?')
			uri = window.location.href.split('?')[0];
		return uri;
	}
	function find_child(node, selector) {
		var children = node.querySelectorAll(selector);
		if (children.length) return children[0];
	}
	function find_group(node) {
		var parent = node.parentElement;
		if (!parent) return;
		if (parent.id == "frames") return node;
		return find_group(parent);
	}
	function orig_save(e, attr, val) {
		if (e.attributes["_orig_" + attr] != undefined) return;
		if (e.attributes[attr] == undefined) return;
		if (val == undefined) val = e.attributes[attr].value;
		e.setAttribute("_orig_" + attr, val);
	}
	function orig_load(e, attr) {
		if (e.attributes["_orig_"+attr] == undefined) return;
		e.attributes[attr].value = e.attributes["_orig_" + attr].value;
		e.removeAttribute("_orig_"+attr);
	}
	function g_to_text(e) {
		var text = find_child(e, "title").firstChild.nodeValue;
		return (text)
	}
	function g_to_func(e) {
		var func = g_to_text(e);
		// if there's any manipulation we want to do to the function
		// name before it's searched, do it here before returning.
		return (func);
	}
	function update_text(e) {
		var r = find_child(e, "rect");
		var t = find_child(e, "text");
		var w = parseFloat(r.attributes.width.value) -3;
		var txt = find_child(e, "title").textContent.replace(/\([^(]*\)$/,"");
		t.attributes.x.value = parseFloat(r.attributes.x.value) + 3;

		// Smaller than this size won't fit anything
		if (w < 2 * 12 * 0.59) {
			t.textContent = "";
			return;
		}

		t.textContent = txt;
		var sl = t.getSubStringLength(0, txt.length);
		// check if only whitespace or if we can fit the entire string into width w
		if (/^ *$/.test(txt) || sl < w)
			return;

		// this isn't perfect, but gives a good starting point
		// and avoids calling getSubStringLength too often
		var start = Math.floor((w/sl) * txt.length);
		for (var x = start; x > 0; x = x-2) {
			if (t.getSubStringLength(0, x + 2) <= w) {
				t.textContent = txt.substring(0, x) + "..";
				return;
			}
		}
		t.textContent = "";
	}

	// zoom
	function zoom_reset(e) {
		if (e.attributes != undefined) {
			orig_load(e, "x");
			orig_load(e, "width");
		}
		if (e.childNodes == undefined) return;
		for (var i = 0, c = e.childNodes; i < c.length; i++) {
			zoom_reset(c[i]);
		}
	}
	function zoom_child(e, x, ratio) {
		if (e.attributes != undefined) {
			if (e.attributes.x != undefined) {
				orig_save(e, "x");
				e.attributes.x.value = (parseFloat(e.attributes.x.value) - x - 10) * ratio + 10;
				if (e.tagName == "text")
					e.attributes.x.value = find_child(e.parentNode, "rect[x]").attributes.x.value + 3;
			}
			if (e.attributes.width != undefined) {
				orig_save(e, "width");
				e.attributes.width.value = parseFloat(e.attributes.width.value) * ratio;
			}
		}

		if (e.childNodes == undefined) return;
		for (var i = 0, c = e.childNodes; i < c.length; i++) {
			zoom_child(c[i], x - 10, ratio);
		}
	}
	function zoom_parent(e) {
		if (e.attributes) {
			if (e.attributes.x != undefined) {
				orig_save(e, "x");
				e.attributes.x.value = 10;
			}
			if (e.attributes.width != undefined) {
				orig_save(e, "width");
				e.attributes.width.value = parseInt(svg.width.baseVal.value) - (10 * 2);
			}
		}
		if (e.childNodes == undefined) return;
		for (var i = 0, c = e.childNodes; i < c.length; i++) {
			zoom_parent(c[i]);
		}
	}
	function zoom(node) {
		var attr = find_child(node, "rect").attributes;
		var width = parseFloat(attr.width.value);
		var xmin = parseFloat(attr.x.value);
		var xmax = parseFloat(xmin + width);
		var ymin = parseFloat(attr.y.value);
		var ratio = (svg.width.baseVal.value - 2 * 10) / width;

		// XXX: Workaround for JavaScript float issues (fix me)
		var fudge = 0.0001;

		unzoombtn.classList.remove("hide");

		var el = document.getElementById("frames").children;
		for (var i = 0; i < el.length; i++) {
			var e = el[i];
			var a = find_child(e, "rect").attributes;
			var ex = parseFloat(a.x.value);
			var ew = parseFloat(a.width.value);
			var upstack;
			// Is it an ancestor
			if (0 == 0) {
				upstack = parseFloat(a.y.value) > ymin;
			} else {
				upstack = parseFloat(a.y.value) < ymin;
			}
			if (upstack) {
				// Direct ancestor
				if (ex <= xmin && (ex+ew+fudge) >= xmax) {
					e.classList.add("parent");
					zoom_parent(e);
					update_text(e);
				}
				// not in current path
				else
					e.classList.add("hide");
			}
			// Children maybe
			else {
				// no common path
				if (ex < xmin || ex + fudge >= xmax) {
					e.classList.add("hide");
				}
				else {
					zoom_child(e, xmin, ratio);
					update_text(e);
				}
			}
		}
		search();
	}
	function unzoom(dont_update_text) {
		unzoombtn.classList.add("hide");
		var el = document.getElementById("frames").children;
		for(var i = 0; i < el.length; i++) {
			el[i].classList.remove("parent");
			el[i].classList.remove("hide");
			zoom_reset(el[i]);
			if(!dont_update_text) update_text(el[i]);
		}
		search();
	}
	function clearzoom() {
		unzoom();

		// remove zoom state
		var params = get_params();
		if (params.x) delete params.x;
		if (params.y) delete params.y;
		history.replaceState(null, null, parse_params(params));
	}

	// search
	function toggle_ignorecase() {
		ignorecase = !ignorecase;
		if (ignorecase) {
			ignorecaseBtn.classList.add("show");
		} else {
			ignorecaseBtn.classList.remove("show");
		}
		reset_search();
		search();
	}
	function reset_search() {
		var el = document.querySelectorAll("#frames rect");
		for (var i = 0; i < el.length; i++) {
			orig_load(el[i], "fill")
		}
		var params = get_params();
		delete params.s;
		history.replaceState(null, null, parse_params(params));
	}
	function search_prompt() {
		if (!searching) {
			var term = prompt("Enter a search term (regexp " +
			    "allowed, eg: ^ext4_)"
			    + (ignorecase ? ", ignoring case" : "")
			    + "\nPress Ctrl-i to toggle case sensitivity", "");
			if (term != null) search(term);
		} else {
			reset_search();
			searching = 0;
			currentSearchTerm = null;
			searchbtn.classList.remove("show");
			searchbtn.firstChild.nodeValue = "Search"
			matchedtxt.classList.add("hide");
			matchedtxt.firstChild.nodeValue = ""
		}
	}
	function search(term) {
		if (term) currentSearchTerm = term;
		if (currentSearchTerm === null) return;

		var re = new RegExp(currentSearchTerm, ignorecase ? 'i' : '');
		var el = document.getElementById("frames").children;
		var matches = new Object();
		var maxwidth = 0;
		for (var i = 0; i < el.length; i++) {
			var e = el[i];
			var func = g_to_func(e);
			var rect = find_child(e, "rect");
			if (func == null || rect == null)
				continue;

			// Save max width. Only works as we have a root frame
			var w = parseFloat(rect.attributes.width.value);
			if (w > maxwidth)
				maxwidth = w;

			if (func.match(re)) {
				// highlight
				var x = parseFloat(rect.attributes.x.value);
				orig_save(rect, "fill");
				rect.attributes.fill.value = "rgb(230,0,230)";

				// remember matches
				if (matches[x] == undefined) {
					matches[x] = w;
				} else {
					if (w > matches[x]) {
						// overwrite with parent
						matches[x] = w;
					}
				}
				searching = 1;
			}
		}
		if (!searching)
			return;
		var params = get_params();
		params.s = currentSearchTerm;
		history.replaceState(null, null, parse_params(params));

		searchbtn.classList.add("show");
		searchbtn.firstChild.nodeValue = "Reset Search";

		// calculate percent matched, excluding vertical overlap
		var count = 0;
		var lastx = -1;
		var lastw = 0;
		var keys = Array();
		for (k in matches) {
			if (matches.hasOwnProperty(k))
				keys.push(k);
		}
		// sort the matched frames by their x location
		// ascending, then width descending
		keys.sort(function(a, b){
			return a - b;
		});
		// Step through frames saving only the biggest bottom-up frames
		// thanks to the sort order. This relies on the tree property
		// where children are always smaller than their parents.
		var fudge = 0.0001;	// JavaScript floating point
		for (var k in keys) {
			var x = parseFloat(keys[k]);
			var w = matches[keys[k]];
			if (x >= lastx + lastw - fudge) {
				count += w;
				lastx = x;
				lastw = w;
			}
		}
		// display matched percent
		matchedtxt.classList.remove("hide");
		var pct = 100 * count / maxwidth;
		if (pct != 100) pct = pct.toFixed(1)
		matchedtxt.firstChild.nodeValue = "Matched: " + pct + "%";
	}
]]>
</script>
<rect x="0.0" y="0" width="1200.0" height="374.0" fill="url(#background)"  />
<text id="title" x="600.00" y="24" >Flame Graph</text>
<text id="details" x="10.00" y="357" > </text>
<text id="unzoom" x="10.00" y="24" class="hide">Reset Zoom</text>
<text id="search" x="1090.00" y="24" >Search</text>
<text id="ignorecase" x="1174.00" y="24" >ic</text>
<text id="matched" x="1090.00" y="357" > </text>
<g id="frames">
<g >
<title>process_vm_rw_single_vec.isra.0+0xcf (1 samples, 0.50%)</title><rect x="477.3" y="165" width="5.9" height="15.0" fill="rgb(230,119,28)" rx="2" ry="2" />
<text  x="480.33" y="175.5" ></text>
</g>
<g >
<title>path_openat+0x87 (70 samples, 34.65%)</title><rect x="494.9" y="165" width="408.9" height="15.0" fill="rgb(218,64,15)" rx="2" ry="2" />
<text  x="497.85" y="175.5" >path_openat+0x87</text>
</g>
<g >
<title>lookup_fast+0x65 (20 samples, 9.90%)</title><rect x="529.9" y="117" width="116.8" height="15.0" fill="rgb(215,48,11)" rx="2" ry="2" />
<text  x="532.90" y="127.5" >lookup_fast+0x65</text>
</g>
<g >
<title>__pv_queued_spin_lock_slowpath+0x2c3 (1 samples, 0.50%)</title><rect x="1155.0" y="85" width="5.8" height="15.0" fill="rgb(249,206,49)" rx="2" ry="2" />
<text  x="1157.95" y="95.5" ></text>
</g>
<g >
<title>walk_component+0x2c (5 samples, 2.48%)</title><rect x="1084.9" y="165" width="29.2" height="15.0" fill="rgb(215,49,11)" rx="2" ry="2" />
<text  x="1087.85" y="175.5" >wa..</text>
</g>
<g >
<title>__pv_queued_spin_lock_slowpath+0x2be (1 samples, 0.50%)</title><rect x="1149.1" y="85" width="5.9" height="15.0" fill="rgb(233,130,31)" rx="2" ry="2" />
<text  x="1152.11" y="95.5" ></text>
</g>
<g >
<title>__d_lookup+0x6b (20 samples, 9.90%)</title><rect x="529.9" y="101" width="116.8" height="15.0" fill="rgb(229,111,26)" rx="2" ry="2" />
<text  x="532.90" y="111.5" >__d_lookup+0x6b</text>
</g>
<g >
<title>do_syscall_64+0x45 (1 samples, 0.50%)</title><rect x="465.6" y="245" width="5.9" height="15.0" fill="rgb(218,60,14)" rx="2" ry="2" />
<text  x="468.64" y="255.5" ></text>
</g>
<g >
<title>_raw_spin_lock+0x38 (15 samples, 7.43%)</title><rect x="740.2" y="69" width="87.6" height="15.0" fill="rgb(235,141,33)" rx="2" ry="2" />
<text  x="743.20" y="79.5" >_raw_spin_..</text>
</g>
<g >
<title>__pv_queued_spin_lock_slowpath+0x2c3 (2 samples, 0.99%)</title><rect x="623.4" y="69" width="11.6" height="15.0" fill="rgb(249,206,49)" rx="2" ry="2" />
<text  x="626.37" y="79.5" ></text>
</g>
<g >
<title>ksys_read+0x73 (25 samples, 12.38%)</title><rect x="915.4" y="213" width="146.1" height="15.0" fill="rgb(231,124,29)" rx="2" ry="2" />
<text  x="918.45" y="223.5" >ksys_read+0x73</text>
</g>
<g >
<title>all (202 samples, 100%)</title><rect x="10.0" y="325" width="1180.0" height="15.0" fill="rgb(213,39,9)" rx="2" ry="2" />
<text  x="13.00" y="335.5" ></text>
</g>
<g >
<title>__check_object_size+0x23 (1 samples, 0.50%)</title><rect x="483.2" y="133" width="5.8" height="15.0" fill="rgb(210,26,6)" rx="2" ry="2" />
<text  x="486.17" y="143.5" ></text>
</g>
<g >
<title>handle_dots+0x12e (6 samples, 2.97%)</title><rect x="1125.7" y="149" width="35.1" height="15.0" fill="rgb(234,135,32)" rx="2" ry="2" />
<text  x="1128.74" y="159.5" >ha..</text>
</g>
<g >
<title>_copy_to_iter+0x98 (1 samples, 0.50%)</title><rect x="471.5" y="133" width="5.8" height="15.0" fill="rgb(234,137,32)" rx="2" ry="2" />
<text  x="474.49" y="143.5" ></text>
</g>
<g >
<title>dput+0x136 (1 samples, 0.50%)</title><rect x="909.6" y="85" width="5.8" height="15.0" fill="rgb(231,119,28)" rx="2" ry="2" />
<text  x="912.60" y="95.5" ></text>
</g>
<g >
<title>__pv_queued_spin_lock_slowpath+0x9d (1 samples, 0.50%)</title><rect x="1178.3" y="85" width="5.9" height="15.0" fill="rgb(227,103,24)" rx="2" ry="2" />
<text  x="1181.32" y="95.5" ></text>
</g>
<g >
<title>lockref_get_not_zero+0x6a (15 samples, 7.43%)</title><rect x="740.2" y="85" width="87.6" height="15.0" fill="rgb(252,218,52)" rx="2" ry="2" />
<text  x="743.20" y="95.5" >lockref_ge..</text>
</g>
<g >
<title>__pv_queued_spin_lock_slowpath+0x2b9 (1 samples, 0.50%)</title><rect x="909.6" y="53" width="5.8" height="15.0" fill="rgb(217,57,13)" rx="2" ry="2" />
<text  x="912.60" y="63.5" ></text>
</g>
<g >
<title>__d_lookup+0x6b (5 samples, 2.48%)</title><rect x="1084.9" y="133" width="29.2" height="15.0" fill="rgb(229,111,26)" rx="2" ry="2" />
<text  x="1087.85" y="143.5" >__..</text>
</g>
<g >
<title>lockref_get_not_zero+0x6a (6 samples, 2.97%)</title><rect x="1125.7" y="117" width="35.1" height="15.0" fill="rgb(252,218,52)" rx="2" ry="2" />
<text  x="1128.74" y="127.5" >lo..</text>
</g>
<g >
<title>[unknown] (92 samples, 45.54%)</title><rect x="366.3" y="277" width="537.5" height="15.0" fill="rgb(210,24,5)" rx="2" ry="2" />
<text  x="369.34" y="287.5" >[unknown]</text>
</g>
<g >
<title>x64_sys_call+0x238e (1 samples, 0.50%)</title><rect x="1061.5" y="245" width="5.8" height="15.0" fill="rgb(217,58,13)" rx="2" ry="2" />
<text  x="1064.49" y="255.5" ></text>
</g>
<g >
<title>__pv_queued_spin_lock_slowpath+0x2c3 (1 samples, 0.50%)</title><rect x="1119.9" y="101" width="5.8" height="15.0" fill="rgb(249,206,49)" rx="2" ry="2" />
<text  x="1122.90" y="111.5" ></text>
</g>
<g >
<title>__pv_queued_spin_lock_slowpath+0x2aa (1 samples, 0.50%)</title><rect x="827.8" y="53" width="5.9" height="15.0" fill="rgb(215,48,11)" rx="2" ry="2" />
<text  x="830.82" y="63.5" ></text>
</g>
<g >
<title>vfs_read+0x25c (25 samples, 12.38%)</title><rect x="915.4" y="197" width="146.1" height="15.0" fill="rgb(206,6,1)" rx="2" ry="2" />
<text  x="918.45" y="207.5" >vfs_read+0x25c</text>
</g>
<g >
<title>do_user_addr_fault+0x157 (1 samples, 0.50%)</title><rect x="1067.3" y="261" width="5.9" height="15.0" fill="rgb(251,212,50)" rx="2" ry="2" />
<text  x="1070.33" y="271.5" ></text>
</g>
<g >
<title>link_path_walk.part.0.constprop.0+0x130 (5 samples, 2.48%)</title><rect x="494.9" y="149" width="29.2" height="15.0" fill="rgb(229,111,26)" rx="2" ry="2" />
<text  x="497.85" y="159.5" >li..</text>
</g>
<g >
<title>entry_SYSCALL_64_after_hwframe+0x78 (75 samples, 37.13%)</title><rect x="465.6" y="261" width="438.2" height="15.0" fill="rgb(238,155,37)" rx="2" ry="2" />
<text  x="468.64" y="271.5" >entry_SYSCALL_64_after_hwframe+0x78</text>
</g>
<g >
<title>down_read+0x1c (1 samples, 0.50%)</title><rect x="500.7" y="101" width="5.8" height="15.0" fill="rgb(226,100,24)" rx="2" ry="2" />
<text  x="503.69" y="111.5" ></text>
</g>
<g >
<title>walk_component+0x51 (14 samples, 6.93%)</title><rect x="658.4" y="133" width="81.8" height="15.0" fill="rgb(219,66,15)" rx="2" ry="2" />
<text  x="661.42" y="143.5" >walk_comp..</text>
</g>
<g >
<title>kernfs_file_read_iter+0xa1 (25 samples, 12.38%)</title><rect x="915.4" y="165" width="146.1" height="15.0" fill="rgb(208,16,3)" rx="2" ry="2" />
<text  x="918.45" y="175.5" >kernfs_file_read_i..</text>
</g>
<g >
<title>walk_component+0x2c (1 samples, 0.50%)</title><rect x="524.1" y="133" width="5.8" height="15.0" fill="rgb(215,49,11)" rx="2" ry="2" />
<text  x="527.06" y="143.5" ></text>
</g>
<g >
<title>link_path_walk.part.0.constprop.0+0x23f (1 samples, 0.50%)</title><rect x="524.1" y="149" width="5.8" height="15.0" fill="rgb(223,87,20)" rx="2" ry="2" />
<text  x="527.06" y="159.5" ></text>
</g>
<g >
<title>__pv_queued_spin_lock_slowpath+0x2b9 (1 samples, 0.50%)</title><rect x="1114.1" y="101" width="5.8" height="15.0" fill="rgb(217,57,13)" rx="2" ry="2" />
<text  x="1117.06" y="111.5" ></text>
</g>
<g >
<title>handle_dots+0xcb (13 samples, 6.44%)</title><rect x="827.8" y="117" width="76.0" height="15.0" fill="rgb(253,224,53)" rx="2" ry="2" />
<text  x="830.82" y="127.5" >handle_d..</text>
</g>
<g >
<title>__check_heap_object+0x6d (1 samples, 0.50%)</title><rect x="483.2" y="85" width="5.8" height="15.0" fill="rgb(205,3,0)" rx="2" ry="2" />
<text  x="486.17" y="95.5" ></text>
</g>
<g >
<title>x64_sys_call+0x1eb1 (72 samples, 35.64%)</title><rect x="483.2" y="229" width="420.6" height="15.0" fill="rgb(215,49,11)" rx="2" ry="2" />
<text  x="486.17" y="239.5" >x64_sys_call+0x1eb1</text>
</g>
<g >
<title>lockref_put_return+0x3 (1 samples, 0.50%)</title><rect x="1184.2" y="117" width="5.8" height="15.0" fill="rgb(230,118,28)" rx="2" ry="2" />
<text  x="1187.16" y="127.5" ></text>
</g>
<g >
<title>__pv_queued_spin_lock_slowpath+0x2b9 (9 samples, 4.46%)</title><rect x="833.7" y="53" width="52.5" height="15.0" fill="rgb(217,57,13)" rx="2" ry="2" />
<text  x="836.66" y="63.5" >__pv_..</text>
</g>
<g >
<title>_raw_spin_lock+0x10 (1 samples, 0.50%)</title><rect x="477.3" y="37" width="5.9" height="15.0" fill="rgb(250,208,49)" rx="2" ry="2" />
<text  x="480.33" y="47.5" ></text>
</g>
<g >
<title>process_vm_rw+0x10d (2 samples, 0.99%)</title><rect x="471.5" y="197" width="11.7" height="15.0" fill="rgb(224,88,21)" rx="2" ry="2" />
<text  x="474.49" y="207.5" ></text>
</g>
<g >
<title>filename_lookup+0xe4 (2 samples, 0.99%)</title><rect x="903.8" y="181" width="11.6" height="15.0" fill="rgb(215,46,11)" rx="2" ry="2" />
<text  x="906.76" y="191.5" ></text>
</g>
<g >
<title>x64_sys_call+0x1eb1 (20 samples, 9.90%)</title><rect x="1073.2" y="261" width="116.8" height="15.0" fill="rgb(215,49,11)" rx="2" ry="2" />
<text  x="1076.17" y="271.5" >x64_sys_call+0..</text>
</g>
<g >
<title>step_into+0x2a9 (2 samples, 0.99%)</title><rect x="1114.1" y="149" width="11.6" height="15.0" fill="rgb(245,186,44)" rx="2" ry="2" />
<text  x="1117.06" y="159.5" ></text>
</g>
<g >
<title>up_read+0x11 (1 samples, 0.50%)</title><rect x="1079.0" y="149" width="5.9" height="15.0" fill="rgb(212,36,8)" rx="2" ry="2" />
<text  x="1082.01" y="159.5" ></text>
</g>
<g >
<title>__gup_longterm_locked+0xb5 (1 samples, 0.50%)</title><rect x="477.3" y="133" width="5.9" height="15.0" fill="rgb(248,201,48)" rx="2" ry="2" />
<text  x="480.33" y="143.5" ></text>
</g>
<g >
<title>__pv_queued_spin_lock_slowpath+0x2be (3 samples, 1.49%)</title><rect x="886.2" y="53" width="17.6" height="15.0" fill="rgb(233,130,31)" rx="2" ry="2" />
<text  x="889.24" y="63.5" ></text>
</g>
<g >
<title>lookup_fast+0x84 (1 samples, 0.50%)</title><rect x="524.1" y="117" width="5.8" height="15.0" fill="rgb(209,18,4)" rx="2" ry="2" />
<text  x="527.06" y="127.5" ></text>
</g>
<g >
<title>pci_read_config+0x105 (25 samples, 12.38%)</title><rect x="915.4" y="133" width="146.1" height="15.0" fill="rgb(231,122,29)" rx="2" ry="2" />
<text  x="918.45" y="143.5" >pci_read_config+0x..</text>
</g>
<g >
<title>exc_page_fault+0x83 (1 samples, 0.50%)</title><rect x="459.8" y="245" width="5.8" height="15.0" fill="rgb(208,16,3)" rx="2" ry="2" />
<text  x="462.80" y="255.5" ></text>
</g>
<g >
<title>handle_dots+0xcb (5 samples, 2.48%)</title><rect x="1160.8" y="149" width="29.2" height="15.0" fill="rgb(253,224,53)" rx="2" ry="2" />
<text  x="1163.79" y="159.5" >ha..</text>
</g>
<g >
<title>follow_page_mask+0x12d (1 samples, 0.50%)</title><rect x="477.3" y="101" width="5.9" height="15.0" fill="rgb(247,196,47)" rx="2" ry="2" />
<text  x="480.33" y="111.5" ></text>
</g>
<g >
<title>link_path_walk.part.0.constprop.0+0x2a9 (2 samples, 0.99%)</title><rect x="903.8" y="149" width="11.6" height="15.0" fill="rgb(217,57,13)" rx="2" ry="2" />
<text  x="906.76" y="159.5" ></text>
</g>
<g >
<title>iterate_dir+0x1ce (1 samples, 0.50%)</title><rect x="1061.5" y="213" width="5.8" height="15.0" fill="rgb(222,81,19)" rx="2" ry="2" />
<text  x="1064.49" y="223.5" ></text>
</g>
<g >
<title>inode_permission+0xfc (4 samples, 1.98%)</title><rect x="500.7" y="133" width="23.4" height="15.0" fill="rgb(247,195,46)" rx="2" ry="2" />
<text  x="503.69" y="143.5" >i..</text>
</g>
<g >
<title>dput+0x136 (4 samples, 1.98%)</title><rect x="1160.8" y="117" width="23.4" height="15.0" fill="rgb(231,119,28)" rx="2" ry="2" />
<text  x="1163.79" y="127.5" >d..</text>
</g>
<g >
<title>__pv_queued_spin_lock_slowpath+0x2be (4 samples, 1.98%)</title><rect x="600.0" y="69" width="23.4" height="15.0" fill="rgb(233,130,31)" rx="2" ry="2" />
<text  x="603.00" y="79.5" >_..</text>
</g>
<g >
<title>__x64_sys_read+0x19 (25 samples, 12.38%)</title><rect x="915.4" y="229" width="146.1" height="15.0" fill="rgb(222,79,18)" rx="2" ry="2" />
<text  x="918.45" y="239.5" >__x64_sys_read+0x19</text>
</g>
<g >
<title>getname_flags.part.0+0x50 (1 samples, 0.50%)</title><rect x="483.2" y="165" width="5.8" height="15.0" fill="rgb(241,168,40)" rx="2" ry="2" />
<text  x="486.17" y="175.5" ></text>
</g>
<g >
<title>dput+0x136 (13 samples, 6.44%)</title><rect x="827.8" y="85" width="76.0" height="15.0" fill="rgb(231,119,28)" rx="2" ry="2" />
<text  x="830.82" y="95.5" >dput+0x136</text>
</g>
<g >
<title>walk_component+0xd4 (11 samples, 5.45%)</title><rect x="1125.7" y="165" width="64.3" height="15.0" fill="rgb(246,190,45)" rx="2" ry="2" />
<text  x="1128.74" y="175.5" >walk_co..</text>
</g>
<g >
<title>inode_permission+0xfc (2 samples, 0.99%)</title><rect x="1073.2" y="165" width="11.7" height="15.0" fill="rgb(247,195,46)" rx="2" ry="2" />
<text  x="1076.17" y="175.5" ></text>
</g>
<g >
<title>path_openat+0x47 (1 samples, 0.50%)</title><rect x="489.0" y="165" width="5.9" height="15.0" fill="rgb(244,182,43)" rx="2" ry="2" />
<text  x="492.01" y="175.5" ></text>
</g>
<g >
<title>step_into+0x2a9 (5 samples, 2.48%)</title><rect x="1160.8" y="133" width="29.2" height="15.0" fill="rgb(245,186,44)" rx="2" ry="2" />
<text  x="1163.79" y="143.5" >st..</text>
</g>
<g >
<title>[unknown] (7 samples, 3.47%)</title><rect x="418.9" y="229" width="40.9" height="15.0" fill="rgb(210,24,5)" rx="2" ry="2" />
<text  x="421.91" y="239.5" >[un..</text>
</g>
<g >
<title>[unknown] (8 samples, 3.96%)</title><rect x="413.1" y="261" width="46.7" height="15.0" fill="rgb(210,24,5)" rx="2" ry="2" />
<text  x="416.07" y="271.5" >[unk..</text>
</g>
<g >
<title>walk_component+0x51 (2 samples, 0.99%)</title><rect x="1114.1" y="165" width="11.6" height="15.0" fill="rgb(219,66,15)" rx="2" ry="2" />
<text  x="1117.06" y="175.5" ></text>
</g>
<g >
<title>step_into+0x2a9 (13 samples, 6.44%)</title><rect x="827.8" y="101" width="76.0" height="15.0" fill="rgb(245,186,44)" rx="2" ry="2" />
<text  x="830.82" y="111.5" >step_int..</text>
</g>
<g >
<title>x64_sys_call+0x1611 (2 samples, 0.99%)</title><rect x="903.8" y="245" width="11.6" height="15.0" fill="rgb(235,141,33)" rx="2" ry="2" />
<text  x="906.76" y="255.5" ></text>
</g>
<g >
<title>do_syscall_64+0x7f (20 samples, 9.90%)</title><rect x="1073.2" y="277" width="116.8" height="15.0" fill="rgb(232,125,29)" rx="2" ry="2" />
<text  x="1076.17" y="287.5" >do_syscall_64+..</text>
</g>
<g >
<title>_raw_spin_lock+0x38 (1 samples, 0.50%)</title><rect x="903.8" y="85" width="5.8" height="15.0" fill="rgb(235,141,33)" rx="2" ry="2" />
<text  x="906.76" y="95.5" ></text>
</g>
<g >
<title>process_vm_rw_single_vec.isra.0+0x172 (1 samples, 0.50%)</title><rect x="471.5" y="165" width="5.8" height="15.0" fill="rgb(234,136,32)" rx="2" ry="2" />
<text  x="474.49" y="175.5" ></text>
</g>
<g >
<title>_raw_spin_lock+0x38 (6 samples, 2.97%)</title><rect x="1125.7" y="101" width="35.1" height="15.0" fill="rgb(235,141,33)" rx="2" ry="2" />
<text  x="1128.74" y="111.5" >_r..</text>
</g>
<g >
<title>__pv_queued_spin_lock_slowpath+0x2b9 (11 samples, 5.45%)</title><rect x="535.7" y="69" width="64.3" height="15.0" fill="rgb(217,57,13)" rx="2" ry="2" />
<text  x="538.74" y="79.5" >__pv_qu..</text>
</g>
<g >
<title>do_sys_openat2+0x7f (1 samples, 0.50%)</title><rect x="483.2" y="197" width="5.8" height="15.0" fill="rgb(225,96,23)" rx="2" ry="2" />
<text  x="486.17" y="207.5" ></text>
</g>
<g >
<title>__x64_sys_openat+0x55 (20 samples, 9.90%)</title><rect x="1073.2" y="245" width="116.8" height="15.0" fill="rgb(254,225,54)" rx="2" ry="2" />
<text  x="1076.17" y="255.5" >__x64_sys_open..</text>
</g>
<g >
<title>check_heap_object+0x186 (1 samples, 0.50%)</title><rect x="483.2" y="101" width="5.8" height="15.0" fill="rgb(250,211,50)" rx="2" ry="2" />
<text  x="486.17" y="111.5" ></text>
</g>
<g >
<title>__memcg_slab_post_alloc_hook+0x185 (1 samples, 0.50%)</title><rect x="489.0" y="117" width="5.9" height="15.0" fill="rgb(223,84,20)" rx="2" ry="2" />
<text  x="492.01" y="127.5" ></text>
</g>
<g >
<title>dget_parent+0x27 (15 samples, 7.43%)</title><rect x="740.2" y="101" width="87.6" height="15.0" fill="rgb(246,190,45)" rx="2" ry="2" />
<text  x="743.20" y="111.5" >dget_paren..</text>
</g>
<g >
<title>walk_component+0x2c (1 samples, 0.50%)</title><rect x="903.8" y="133" width="5.8" height="15.0" fill="rgb(215,49,11)" rx="2" ry="2" />
<text  x="906.76" y="143.5" ></text>
</g>
<g >
<title>walk_component+0xd4 (1 samples, 0.50%)</title><rect x="909.6" y="133" width="5.8" height="15.0" fill="rgb(246,190,45)" rx="2" ry="2" />
<text  x="912.60" y="143.5" ></text>
</g>
<g >
<title>__pv_queued_spin_lock_slowpath+0x9d (2 samples, 0.99%)</title><rect x="635.0" y="69" width="11.7" height="15.0" fill="rgb(227,103,24)" rx="2" ry="2" />
<text  x="638.05" y="79.5" ></text>
</g>
<g >
<title>copy_page_to_iter+0x9f (1 samples, 0.50%)</title><rect x="471.5" y="149" width="5.8" height="15.0" fill="rgb(219,67,16)" rx="2" ry="2" />
<text  x="474.49" y="159.5" ></text>
</g>
<g >
<title>follow_pmd_mask.isra.0+0x1bf (1 samples, 0.50%)</title><rect x="477.3" y="69" width="5.9" height="15.0" fill="rgb(230,117,28)" rx="2" ry="2" />
<text  x="480.33" y="79.5" ></text>
</g>
<g >
<title>_raw_spin_lock+0x38 (2 samples, 0.99%)</title><rect x="1114.1" y="117" width="11.6" height="15.0" fill="rgb(235,141,33)" rx="2" ry="2" />
<text  x="1117.06" y="127.5" ></text>
</g>
<g >
<title>lookup_fast+0x84 (2 samples, 0.99%)</title><rect x="646.7" y="117" width="11.7" height="15.0" fill="rgb(209,18,4)" rx="2" ry="2" />
<text  x="649.73" y="127.5" ></text>
</g>
<g >
<title>user_path_at_empty+0x3e (2 samples, 0.99%)</title><rect x="903.8" y="197" width="11.6" height="15.0" fill="rgb(231,122,29)" rx="2" ry="2" />
<text  x="906.76" y="207.5" ></text>
</g>
<g >
<title>_raw_spin_lock+0x38 (14 samples, 6.93%)</title><rect x="658.4" y="85" width="81.8" height="15.0" fill="rgb(235,141,33)" rx="2" ry="2" />
<text  x="661.42" y="95.5" >_raw_spin..</text>
</g>
<g >
<title>dput+0x136 (14 samples, 6.93%)</title><rect x="658.4" y="101" width="81.8" height="15.0" fill="rgb(231,119,28)" rx="2" ry="2" />
<text  x="661.42" y="111.5" >dput+0x136</text>
</g>
<g >
<title>__pv_queued_spin_lock_slowpath+0x2b9 (1 samples, 0.50%)</title><rect x="903.8" y="69" width="5.8" height="15.0" fill="rgb(217,57,13)" rx="2" ry="2" />
<text  x="906.76" y="79.5" ></text>
</g>
<g >
<title>_raw_spin_lock+0x38 (13 samples, 6.44%)</title><rect x="827.8" y="69" width="76.0" height="15.0" fill="rgb(235,141,33)" rx="2" ry="2" />
<text  x="830.82" y="79.5" >_raw_spi..</text>
</g>
<g >
<title>do_filp_open+0xaf (20 samples, 9.90%)</title><rect x="1073.2" y="213" width="116.8" height="15.0" fill="rgb(212,35,8)" rx="2" ry="2" />
<text  x="1076.17" y="223.5" >do_filp_open+0..</text>
</g>
<g >
<title>follow_pud_mask.isra.0+0x102 (1 samples, 0.50%)</title><rect x="477.3" y="85" width="5.9" height="15.0" fill="rgb(237,150,36)" rx="2" ry="2" />
<text  x="480.33" y="95.5" ></text>
</g>
<g >
<title>x64_sys_call+0x1d3a (2 samples, 0.99%)</title><rect x="471.5" y="229" width="11.7" height="15.0" fill="rgb(215,49,11)" rx="2" ry="2" />
<text  x="474.49" y="239.5" ></text>
</g>
<g >
<title>handle_dots+0x12e (15 samples, 7.43%)</title><rect x="740.2" y="117" width="87.6" height="15.0" fill="rgb(234,135,32)" rx="2" ry="2" />
<text  x="743.20" y="127.5" >handle_dot..</text>
</g>
<g >
<title>__pv_queued_spin_lock_slowpath+0x2c3 (2 samples, 0.99%)</title><rect x="816.1" y="53" width="11.7" height="15.0" fill="rgb(249,206,49)" rx="2" ry="2" />
<text  x="819.14" y="63.5" ></text>
</g>
<g >
<title>__pv_queued_spin_lock_slowpath+0x2b9 (9 samples, 4.46%)</title><rect x="658.4" y="69" width="52.6" height="15.0" fill="rgb(217,57,13)" rx="2" ry="2" />
<text  x="661.42" y="79.5" >__pv_..</text>
</g>
<g >
<title>entry_SYSCALL_64_after_hwframe+0x78 (20 samples, 9.90%)</title><rect x="1073.2" y="293" width="116.8" height="15.0" fill="rgb(238,155,37)" rx="2" ry="2" />
<text  x="1076.17" y="303.5" >entry_SYSCALL_..</text>
</g>
<g >
<title>getname+0x34 (1 samples, 0.50%)</title><rect x="483.2" y="181" width="5.8" height="15.0" fill="rgb(224,88,21)" rx="2" ry="2" />
<text  x="486.17" y="191.5" ></text>
</g>
<g >
<title>walk_component+0x2c (22 samples, 10.89%)</title><rect x="529.9" y="133" width="128.5" height="15.0" fill="rgb(215,49,11)" rx="2" ry="2" />
<text  x="532.90" y="143.5" >walk_component+0..</text>
</g>
<g >
<title>dput+0x136 (2 samples, 0.99%)</title><rect x="1114.1" y="133" width="11.6" height="15.0" fill="rgb(231,119,28)" rx="2" ry="2" />
<text  x="1117.06" y="143.5" ></text>
</g>
<g >
<title>__pv_queued_spin_lock_slowpath+0x2be (4 samples, 1.98%)</title><rect x="711.0" y="69" width="23.4" height="15.0" fill="rgb(233,130,31)" rx="2" ry="2" />
<text  x="713.99" y="79.5" >_..</text>
</g>
<g >
<title>mod_objcg_state+0xcd (1 samples, 0.50%)</title><rect x="489.0" y="101" width="5.9" height="15.0" fill="rgb(210,23,5)" rx="2" ry="2" />
<text  x="492.01" y="111.5" ></text>
</g>
<g >
<title>__x64_sys_faccessat2+0x1b (2 samples, 0.99%)</title><rect x="903.8" y="229" width="11.6" height="15.0" fill="rgb(217,55,13)" rx="2" ry="2" />
<text  x="906.76" y="239.5" ></text>
</g>
<g >
<title>[unknown] (181 samples, 89.60%)</title><rect x="10.0" y="293" width="1057.3" height="15.0" fill="rgb(210,24,5)" rx="2" ry="2" />
<text  x="13.00" y="303.5" >[unknown]</text>
</g>
<g >
<title>kernfs_iop_permission+0x40 (1 samples, 0.50%)</title><rect x="1073.2" y="149" width="5.8" height="15.0" fill="rgb(229,111,26)" rx="2" ry="2" />
<text  x="1076.17" y="159.5" ></text>
</g>
<g >
<title>__get_user_pages+0x108 (1 samples, 0.50%)</title><rect x="477.3" y="117" width="5.9" height="15.0" fill="rgb(241,169,40)" rx="2" ry="2" />
<text  x="480.33" y="127.5" ></text>
</g>
<g >
<title>handle_mm_fault+0x12a (1 samples, 0.50%)</title><rect x="1067.3" y="245" width="5.9" height="15.0" fill="rgb(205,1,0)" rx="2" ry="2" />
<text  x="1070.33" y="255.5" ></text>
</g>
<g >
<title>__x64_sys_getdents64+0x84 (1 samples, 0.50%)</title><rect x="1061.5" y="229" width="5.8" height="15.0" fill="rgb(217,57,13)" rx="2" ry="2" />
<text  x="1064.49" y="239.5" ></text>
</g>
<g >
<title>lmp-73372 (202 samples, 100.00%)</title><rect x="10.0" y="309" width="1180.0" height="15.0" fill="rgb(205,0,0)" rx="2" ry="2" />
<text  x="13.00" y="319.5" >lmp-73372</text>
</g>
<g >
<title>[unknown] (8 samples, 3.96%)</title><rect x="413.1" y="245" width="46.7" height="15.0" fill="rgb(210,24,5)" rx="2" ry="2" />
<text  x="416.07" y="255.5" >[unk..</text>
</g>
<g >
<title>inode_permission+0x5e (1 samples, 0.50%)</title><rect x="494.9" y="133" width="5.8" height="15.0" fill="rgb(251,212,50)" rx="2" ry="2" />
<text  x="497.85" y="143.5" ></text>
</g>
<g >
<title>kernfs_dop_revalidate+0x4c (1 samples, 0.50%)</title><rect x="646.7" y="101" width="5.9" height="15.0" fill="rgb(240,163,39)" rx="2" ry="2" />
<text  x="649.73" y="111.5" ></text>
</g>
<g >
<title>lookup_fast+0x65 (1 samples, 0.50%)</title><rect x="903.8" y="117" width="5.8" height="15.0" fill="rgb(215,48,11)" rx="2" ry="2" />
<text  x="906.76" y="127.5" ></text>
</g>
<g >
<title>x64_sys_call+0x1bf0 (25 samples, 12.38%)</title><rect x="915.4" y="245" width="146.1" height="15.0" fill="rgb(215,49,11)" rx="2" ry="2" />
<text  x="918.45" y="255.5" >x64_sys_call+0x1bf0</text>
</g>
<g >
<title>asm_exc_page_fault+0x27 (1 samples, 0.50%)</title><rect x="1067.3" y="293" width="5.9" height="15.0" fill="rgb(234,133,32)" rx="2" ry="2" />
<text  x="1070.33" y="303.5" ></text>
</g>
<g >
<title>strncpy_from_user+0x50 (1 samples, 0.50%)</title><rect x="483.2" y="149" width="5.8" height="15.0" fill="rgb(232,127,30)" rx="2" ry="2" />
<text  x="486.17" y="159.5" ></text>
</g>
<g >
<title>__pv_queued_spin_lock_slowpath+0x2b9 (4 samples, 1.98%)</title><rect x="1125.7" y="85" width="23.4" height="15.0" fill="rgb(217,57,13)" rx="2" ry="2" />
<text  x="1128.74" y="95.5" >_..</text>
</g>
<g >
<title>dget_parent+0x27 (6 samples, 2.97%)</title><rect x="1125.7" y="133" width="35.1" height="15.0" fill="rgb(246,190,45)" rx="2" ry="2" />
<text  x="1128.74" y="143.5" >dg..</text>
</g>
<g >
<title>kmem_cache_alloc+0x2f9 (1 samples, 0.50%)</title><rect x="489.0" y="133" width="5.9" height="15.0" fill="rgb(212,35,8)" rx="2" ry="2" />
<text  x="492.01" y="143.5" ></text>
</g>
<g >
<title>kernfs_fop_read_iter+0x25 (25 samples, 12.38%)</title><rect x="915.4" y="181" width="146.1" height="15.0" fill="rgb(224,88,21)" rx="2" ry="2" />
<text  x="918.45" y="191.5" >kernfs_fop_read_it..</text>
</g>
<g >
<title>exc_page_fault+0x83 (1 samples, 0.50%)</title><rect x="1067.3" y="277" width="5.9" height="15.0" fill="rgb(208,16,3)" rx="2" ry="2" />
<text  x="1070.33" y="287.5" ></text>
</g>
<g >
<title>up_read+0x11 (1 samples, 0.50%)</title><rect x="652.6" y="101" width="5.8" height="15.0" fill="rgb(212,36,8)" rx="2" ry="2" />
<text  x="655.57" y="111.5" ></text>
</g>
<g >
<title>pin_user_pages_remote+0x7a (1 samples, 0.50%)</title><rect x="477.3" y="149" width="5.9" height="15.0" fill="rgb(254,229,54)" rx="2" ry="2" />
<text  x="480.33" y="159.5" ></text>
</g>
<g >
<title>process_vm_rw_core.constprop.0+0x187 (2 samples, 0.99%)</title><rect x="471.5" y="181" width="11.7" height="15.0" fill="rgb(239,160,38)" rx="2" ry="2" />
<text  x="474.49" y="191.5" ></text>
</g>
<g >
<title>follow_page_pte+0x63 (1 samples, 0.50%)</title><rect x="477.3" y="53" width="5.9" height="15.0" fill="rgb(244,181,43)" rx="2" ry="2" />
<text  x="480.33" y="63.5" ></text>
</g>
<g >
<title>current_time+0x0 (1 samples, 0.50%)</title><rect x="1061.5" y="181" width="5.8" height="15.0" fill="rgb(211,32,7)" rx="2" ry="2" />
<text  x="1064.49" y="191.5" ></text>
</g>
<g >
<title>_raw_spin_lock+0x38 (1 samples, 0.50%)</title><rect x="909.6" y="69" width="5.8" height="15.0" fill="rgb(235,141,33)" rx="2" ry="2" />
<text  x="912.60" y="79.5" ></text>
</g>
<g >
<title>asm_exc_page_fault+0x27 (1 samples, 0.50%)</title><rect x="459.8" y="261" width="5.8" height="15.0" fill="rgb(234,133,32)" rx="2" ry="2" />
<text  x="462.80" y="271.5" ></text>
</g>
<g >
<title>do_user_addr_fault+0xbf (1 samples, 0.50%)</title><rect x="459.8" y="229" width="5.8" height="15.0" fill="rgb(223,85,20)" rx="2" ry="2" />
<text  x="462.80" y="239.5" ></text>
</g>
<g >
<title>down_read+0x1c (1 samples, 0.50%)</title><rect x="1073.2" y="133" width="5.8" height="15.0" fill="rgb(226,100,24)" rx="2" ry="2" />
<text  x="1076.17" y="143.5" ></text>
</g>
<g >
<title>handle_dots+0xcb (1 samples, 0.50%)</title><rect x="909.6" y="117" width="5.8" height="15.0" fill="rgb(253,224,53)" rx="2" ry="2" />
<text  x="912.60" y="127.5" ></text>
</g>
<g >
<title>__d_lookup+0x6b (1 samples, 0.50%)</title><rect x="903.8" y="101" width="5.8" height="15.0" fill="rgb(229,111,26)" rx="2" ry="2" />
<text  x="906.76" y="111.5" ></text>
</g>
<g >
<title>touch_atime+0x1f (1 samples, 0.50%)</title><rect x="1061.5" y="197" width="5.8" height="15.0" fill="rgb(216,55,13)" rx="2" ry="2" />
<text  x="1064.49" y="207.5" ></text>
</g>
<g >
<title>path_openat+0x87 (20 samples, 9.90%)</title><rect x="1073.2" y="197" width="116.8" height="15.0" fill="rgb(218,64,15)" rx="2" ry="2" />
<text  x="1076.17" y="207.5" >path_openat+0x87</text>
</g>
<g >
<title>__pv_queued_spin_lock_slowpath+0x2b9 (9 samples, 4.46%)</title><rect x="740.2" y="53" width="52.6" height="15.0" fill="rgb(217,57,13)" rx="2" ry="2" />
<text  x="743.20" y="63.5" >__pv_..</text>
</g>
<g >
<title>kernfs_iop_permission+0x40 (1 samples, 0.50%)</title><rect x="500.7" y="117" width="5.8" height="15.0" fill="rgb(229,111,26)" rx="2" ry="2" />
<text  x="503.69" y="127.5" ></text>
</g>
<g >
<title>kernfs_dop_revalidate+0x4c (1 samples, 0.50%)</title><rect x="524.1" y="101" width="5.8" height="15.0" fill="rgb(240,163,39)" rx="2" ry="2" />
<text  x="527.06" y="111.5" ></text>
</g>
<g >
<title>__handle_mm_fault+0x11c (1 samples, 0.50%)</title><rect x="1067.3" y="229" width="5.9" height="15.0" fill="rgb(221,75,18)" rx="2" ry="2" />
<text  x="1070.33" y="239.5" ></text>
</g>
<g >
<title>do_faccessat+0x10a (2 samples, 0.99%)</title><rect x="903.8" y="213" width="11.6" height="15.0" fill="rgb(241,169,40)" rx="2" ry="2" />
<text  x="906.76" y="223.5" ></text>
</g>
<g >
<title>sysfs_kf_bin_read+0x63 (25 samples, 12.38%)</title><rect x="915.4" y="149" width="146.1" height="15.0" fill="rgb(228,107,25)" rx="2" ry="2" />
<text  x="918.45" y="159.5" >sysfs_kf_bin_read+..</text>
</g>
<g >
<title>__pv_queued_spin_lock_slowpath+0x2b9 (4 samples, 1.98%)</title><rect x="1084.9" y="101" width="23.3" height="15.0" fill="rgb(217,57,13)" rx="2" ry="2" />
<text  x="1087.85" y="111.5" >_..</text>
</g>
<g >
<title>alloc_empty_file+0x50 (1 samples, 0.50%)</title><rect x="489.0" y="149" width="5.9" height="15.0" fill="rgb(243,178,42)" rx="2" ry="2" />
<text  x="492.01" y="159.5" ></text>
</g>
<g >
<title>__raw_spin_unlock_irq.constprop.0+0x17 (25 samples, 12.38%)</title><rect x="915.4" y="101" width="146.1" height="15.0" fill="rgb(252,218,52)" rx="2" ry="2" />
<text  x="918.45" y="111.5" >__raw_spin_unlock_..</text>
</g>
<g >
<title>_raw_spin_lock+0x38 (5 samples, 2.48%)</title><rect x="1084.9" y="117" width="29.2" height="15.0" fill="rgb(235,141,33)" rx="2" ry="2" />
<text  x="1087.85" y="127.5" >_r..</text>
</g>
<g >
<title>down_read+0x1c (1 samples, 0.50%)</title><rect x="646.7" y="85" width="5.9" height="15.0" fill="rgb(226,100,24)" rx="2" ry="2" />
<text  x="649.73" y="95.5" ></text>
</g>
<g >
<title>do_syscall_64+0x7f (74 samples, 36.63%)</title><rect x="471.5" y="245" width="432.3" height="15.0" fill="rgb(232,125,29)" rx="2" ry="2" />
<text  x="474.49" y="255.5" >do_syscall_64+0x7f</text>
</g>
<g >
<title>_raw_spin_lock+0x38 (4 samples, 1.98%)</title><rect x="1160.8" y="101" width="23.4" height="15.0" fill="rgb(235,141,33)" rx="2" ry="2" />
<text  x="1163.79" y="111.5" >_..</text>
</g>
<g >
<title>step_into+0x2a9 (1 samples, 0.50%)</title><rect x="909.6" y="101" width="5.8" height="15.0" fill="rgb(245,186,44)" rx="2" ry="2" />
<text  x="912.60" y="111.5" ></text>
</g>
<g >
<title>__pv_queued_spin_lock_slowpath+0x11c (1 samples, 0.50%)</title><rect x="529.9" y="69" width="5.8" height="15.0" fill="rgb(219,65,15)" rx="2" ry="2" />
<text  x="532.90" y="79.5" ></text>
</g>
<g >
<title>step_into+0x2a9 (14 samples, 6.93%)</title><rect x="658.4" y="117" width="81.8" height="15.0" fill="rgb(245,186,44)" rx="2" ry="2" />
<text  x="661.42" y="127.5" >step_into..</text>
</g>
<g >
<title>do_sys_openat2+0xb3 (20 samples, 9.90%)</title><rect x="1073.2" y="229" width="116.8" height="15.0" fill="rgb(227,104,24)" rx="2" ry="2" />
<text  x="1076.17" y="239.5" >do_sys_openat2..</text>
</g>
<g >
<title>do_sys_openat2+0xb3 (71 samples, 35.15%)</title><rect x="489.0" y="197" width="414.8" height="15.0" fill="rgb(227,104,24)" rx="2" ry="2" />
<text  x="492.01" y="207.5" >do_sys_openat2+0xb3</text>
</g>
<g >
<title>__x64_sys_openat+0x55 (72 samples, 35.64%)</title><rect x="483.2" y="213" width="420.6" height="15.0" fill="rgb(254,225,54)" rx="2" ry="2" />
<text  x="486.17" y="223.5" >__x64_sys_openat+0x55</text>
</g>
<g >
<title>up_read+0x11 (3 samples, 1.49%)</title><rect x="506.5" y="117" width="17.6" height="15.0" fill="rgb(212,36,8)" rx="2" ry="2" />
<text  x="509.53" y="127.5" ></text>
</g>
<g >
<title>walk_component+0xd4 (28 samples, 13.86%)</title><rect x="740.2" y="133" width="163.6" height="15.0" fill="rgb(246,190,45)" rx="2" ry="2" />
<text  x="743.20" y="143.5" >walk_component+0xd4</text>
</g>
<g >
<title>__pv_queued_spin_lock_slowpath+0x2be (1 samples, 0.50%)</title><rect x="1108.2" y="101" width="5.9" height="15.0" fill="rgb(233,130,31)" rx="2" ry="2" />
<text  x="1111.22" y="111.5" ></text>
</g>
<g >
<title>down_read+0x1c (1 samples, 0.50%)</title><rect x="524.1" y="85" width="5.8" height="15.0" fill="rgb(226,100,24)" rx="2" ry="2" />
<text  x="527.06" y="95.5" ></text>
</g>
<g >
<title>do_filp_open+0xaf (71 samples, 35.15%)</title><rect x="489.0" y="181" width="414.8" height="15.0" fill="rgb(212,35,8)" rx="2" ry="2" />
<text  x="492.01" y="191.5" >do_filp_open+0xaf</text>
</g>
<g >
<title>pci_user_read_config_dword+0x7e (25 samples, 12.38%)</title><rect x="915.4" y="117" width="146.1" height="15.0" fill="rgb(213,40,9)" rx="2" ry="2" />
<text  x="918.45" y="127.5" >pci_user_read_conf..</text>
</g>
<g >
<title>link_path_walk.part.0.constprop.0+0x2a9 (18 samples, 8.91%)</title><rect x="1084.9" y="181" width="105.1" height="15.0" fill="rgb(217,57,13)" rx="2" ry="2" />
<text  x="1087.85" y="191.5" >link_path_wa..</text>
</g>
<g >
<title>do_syscall_64+0x7f (28 samples, 13.86%)</title><rect x="903.8" y="261" width="163.5" height="15.0" fill="rgb(232,125,29)" rx="2" ry="2" />
<text  x="906.76" y="271.5" >do_syscall_64+0x7f</text>
</g>
<g >
<title>path_lookupat+0x3e (2 samples, 0.99%)</title><rect x="903.8" y="165" width="11.6" height="15.0" fill="rgb(205,1,0)" rx="2" ry="2" />
<text  x="906.76" y="175.5" ></text>
</g>
<g >
<title>entry_SYSCALL_64_after_hwframe+0x78 (28 samples, 13.86%)</title><rect x="903.8" y="277" width="163.5" height="15.0" fill="rgb(238,155,37)" rx="2" ry="2" />
<text  x="906.76" y="287.5" >entry_SYSCALL_64_afte..</text>
</g>
<g >
<title>__x64_sys_process_vm_readv+0x27 (2 samples, 0.99%)</title><rect x="471.5" y="213" width="11.7" height="15.0" fill="rgb(217,59,14)" rx="2" ry="2" />
<text  x="474.49" y="223.5" ></text>
</g>
<g >
<title>link_path_walk.part.0.constprop.0+0x130 (2 samples, 0.99%)</title><rect x="1073.2" y="181" width="11.7" height="15.0" fill="rgb(229,111,26)" rx="2" ry="2" />
<text  x="1076.17" y="191.5" ></text>
</g>
<g >
<title>_raw_spin_lock+0x38 (20 samples, 9.90%)</title><rect x="529.9" y="85" width="116.8" height="15.0" fill="rgb(235,141,33)" rx="2" ry="2" />
<text  x="532.90" y="95.5" >_raw_spin_lock..</text>
</g>
<g >
<title>__pv_queued_spin_lock_slowpath+0x2c3 (1 samples, 0.50%)</title><rect x="734.4" y="69" width="5.8" height="15.0" fill="rgb(249,206,49)" rx="2" ry="2" />
<text  x="737.36" y="79.5" ></text>
</g>
<g >
<title>link_path_walk.part.0.constprop.0+0x2a9 (64 samples, 31.68%)</title><rect x="529.9" y="149" width="373.9" height="15.0" fill="rgb(217,57,13)" rx="2" ry="2" />
<text  x="532.90" y="159.5" >link_path_walk.part.0.constprop.0+0x2a9</text>
</g>
<g >
<title>__pv_queued_spin_lock_slowpath+0x2b9 (3 samples, 1.49%)</title><rect x="1160.8" y="85" width="17.5" height="15.0" fill="rgb(217,57,13)" rx="2" ry="2" />
<text  x="1163.79" y="95.5" ></text>
</g>
<g >
<title>lookup_fast+0x65 (5 samples, 2.48%)</title><rect x="1084.9" y="149" width="29.2" height="15.0" fill="rgb(215,48,11)" rx="2" ry="2" />
<text  x="1087.85" y="159.5" >lo..</text>
</g>
<g >
<title>__pv_queued_spin_lock_slowpath+0x2be (4 samples, 1.98%)</title><rect x="792.8" y="53" width="23.3" height="15.0" fill="rgb(233,130,31)" rx="2" ry="2" />
<text  x="795.77" y="63.5" >_..</text>
</g>
<g >
<title>__check_object_size.part.0+0x72 (1 samples, 0.50%)</title><rect x="483.2" y="117" width="5.8" height="15.0" fill="rgb(244,182,43)" rx="2" ry="2" />
<text  x="486.17" y="127.5" ></text>
</g>
</g>
</svg>
