<?xml version="1.0" standalone="no"?>
<!DOCTYPE svg PUBLIC "-//W3C//DTD SVG 1.1//EN" "http://www.w3.org/Graphics/SVG/1.1/DTD/svg11.dtd">
<svg version="1.1" width="1200" height="406" onload="init(evt)" viewBox="0 0 1200 406" xmlns="http://www.w3.org/2000/svg" xmlns:xlink="http://www.w3.org/1999/xlink">
<!-- Flame graph stack visualization. See https://github.com/brendangregg/FlameGraph for latest version, and http://www.brendangregg.com/flamegraphs.html for examples. -->
<!-- NOTES:  -->
<defs>
	<linearGradient id="background" y1="0" y2="1" x1="0" x2="0" >
		<stop stop-color="#eeeeee" offset="5%" />
		<stop stop-color="#eeeeb0" offset="95%" />
	</linearGradient>
</defs>
<style type="text/css">
	text { font-family:Verdana; font-size:12px; fill:rgb(0,0,0); }
	#search, #ignorecase { opacity:0.1; cursor:pointer; }
	#search:hover, #search.show, #ignorecase:hover, #ignorecase.show { opacity:1; }
	#subtitle { text-anchor:middle; font-color:rgb(160,160,160); }
	#title { text-anchor:middle; font-size:17px}
	#unzoom { cursor:pointer; }
	#frames > *:hover { stroke:black; stroke-width:0.5; cursor:pointer; }
	.hide { display:none; }
	.parent { opacity:0.5; }
</style>
<script type="text/ecmascript">
<![CDATA[
	"use strict";
	var details, searchbtn, unzoombtn, matchedtxt, svg, searching, currentSearchTerm, ignorecase, ignorecaseBtn;
	function init(evt) {
		details = document.getElementById("details").firstChild;
		searchbtn = document.getElementById("search");
		ignorecaseBtn = document.getElementById("ignorecase");
		unzoombtn = document.getElementById("unzoom");
		matchedtxt = document.getElementById("matched");
		svg = document.getElementsByTagName("svg")[0];
		searching = 0;
		currentSearchTerm = null;

		// use GET parameters to restore a flamegraphs state.
		var params = get_params();
		if (params.x && params.y)
			zoom(find_group(document.querySelector('[x="' + params.x + '"][y="' + params.y + '"]')));
                if (params.s) search(params.s);
	}

	// event listeners
	window.addEventListener("click", function(e) {
		var target = find_group(e.target);
		if (target) {
			if (target.nodeName == "a") {
				if (e.ctrlKey === false) return;
				e.preventDefault();
			}
			if (target.classList.contains("parent")) unzoom(true);
			zoom(target);
			if (!document.querySelector('.parent')) {
				// we have basically done a clearzoom so clear the url
				var params = get_params();
				if (params.x) delete params.x;
				if (params.y) delete params.y;
				history.replaceState(null, null, parse_params(params));
				unzoombtn.classList.add("hide");
				return;
			}

			// set parameters for zoom state
			var el = target.querySelector("rect");
			if (el && el.attributes && el.attributes.y && el.attributes._orig_x) {
				var params = get_params()
				params.x = el.attributes._orig_x.value;
				params.y = el.attributes.y.value;
				history.replaceState(null, null, parse_params(params));
			}
		}
		else if (e.target.id == "unzoom") clearzoom();
		else if (e.target.id == "search") search_prompt();
		else if (e.target.id == "ignorecase") toggle_ignorecase();
	}, false)

	// mouse-over for info
	// show
	window.addEventListener("mouseover", function(e) {
		var target = find_group(e.target);
		if (target) details.nodeValue = "Function: " + g_to_text(target);
	}, false)

	// clear
	window.addEventListener("mouseout", function(e) {
		var target = find_group(e.target);
		if (target) details.nodeValue = ' ';
	}, false)

	// ctrl-F for search
	// ctrl-I to toggle case-sensitive search
	window.addEventListener("keydown",function (e) {
		if (e.keyCode === 114 || (e.ctrlKey && e.keyCode === 70)) {
			e.preventDefault();
			search_prompt();
		}
		else if (e.ctrlKey && e.keyCode === 73) {
			e.preventDefault();
			toggle_ignorecase();
		}
	}, false)

	// functions
	function get_params() {
		var params = {};
		var paramsarr = window.location.search.substr(1).split('&');
		for (var i = 0; i < paramsarr.length; ++i) {
			var tmp = paramsarr[i].split("=");
			if (!tmp[0] || !tmp[1]) continue;
			params[tmp[0]]  = decodeURIComponent(tmp[1]);
		}
		return params;
	}
	function parse_params(params) {
		var uri = "?";
		for (var key in params) {
			uri += key + '=' + encodeURIComponent(params[key]) + '&';
		}
		if (uri.slice(-1) == "&")
			uri = uri.substring(0, uri.length - 1);
		if (uri == '?')
			uri = window.location.href.split('?')[0];
		return uri;
	}
	function find_child(node, selector) {
		var children = node.querySelectorAll(selector);
		if (children.length) return children[0];
	}
	function find_group(node) {
		var parent = node.parentElement;
		if (!parent) return;
		if (parent.id == "frames") return node;
		return find_group(parent);
	}
	function orig_save(e, attr, val) {
		if (e.attributes["_orig_" + attr] != undefined) return;
		if (e.attributes[attr] == undefined) return;
		if (val == undefined) val = e.attributes[attr].value;
		e.setAttribute("_orig_" + attr, val);
	}
	function orig_load(e, attr) {
		if (e.attributes["_orig_"+attr] == undefined) return;
		e.attributes[attr].value = e.attributes["_orig_" + attr].value;
		e.removeAttribute("_orig_"+attr);
	}
	function g_to_text(e) {
		var text = find_child(e, "title").firstChild.nodeValue;
		return (text)
	}
	function g_to_func(e) {
		var func = g_to_text(e);
		// if there's any manipulation we want to do to the function
		// name before it's searched, do it here before returning.
		return (func);
	}
	function update_text(e) {
		var r = find_child(e, "rect");
		var t = find_child(e, "text");
		var w = parseFloat(r.attributes.width.value) -3;
		var txt = find_child(e, "title").textContent.replace(/\([^(]*\)$/,"");
		t.attributes.x.value = parseFloat(r.attributes.x.value) + 3;

		// Smaller than this size won't fit anything
		if (w < 2 * 12 * 0.59) {
			t.textContent = "";
			return;
		}

		t.textContent = txt;
		var sl = t.getSubStringLength(0, txt.length);
		// check if only whitespace or if we can fit the entire string into width w
		if (/^ *$/.test(txt) || sl < w)
			return;

		// this isn't perfect, but gives a good starting point
		// and avoids calling getSubStringLength too often
		var start = Math.floor((w/sl) * txt.length);
		for (var x = start; x > 0; x = x-2) {
			if (t.getSubStringLength(0, x + 2) <= w) {
				t.textContent = txt.substring(0, x) + "..";
				return;
			}
		}
		t.textContent = "";
	}

	// zoom
	function zoom_reset(e) {
		if (e.attributes != undefined) {
			orig_load(e, "x");
			orig_load(e, "width");
		}
		if (e.childNodes == undefined) return;
		for (var i = 0, c = e.childNodes; i < c.length; i++) {
			zoom_reset(c[i]);
		}
	}
	function zoom_child(e, x, ratio) {
		if (e.attributes != undefined) {
			if (e.attributes.x != undefined) {
				orig_save(e, "x");
				e.attributes.x.value = (parseFloat(e.attributes.x.value) - x - 10) * ratio + 10;
				if (e.tagName == "text")
					e.attributes.x.value = find_child(e.parentNode, "rect[x]").attributes.x.value + 3;
			}
			if (e.attributes.width != undefined) {
				orig_save(e, "width");
				e.attributes.width.value = parseFloat(e.attributes.width.value) * ratio;
			}
		}

		if (e.childNodes == undefined) return;
		for (var i = 0, c = e.childNodes; i < c.length; i++) {
			zoom_child(c[i], x - 10, ratio);
		}
	}
	function zoom_parent(e) {
		if (e.attributes) {
			if (e.attributes.x != undefined) {
				orig_save(e, "x");
				e.attributes.x.value = 10;
			}
			if (e.attributes.width != undefined) {
				orig_save(e, "width");
				e.attributes.width.value = parseInt(svg.width.baseVal.value) - (10 * 2);
			}
		}
		if (e.childNodes == undefined) return;
		for (var i = 0, c = e.childNodes; i < c.length; i++) {
			zoom_parent(c[i]);
		}
	}
	function zoom(node) {
		var attr = find_child(node, "rect").attributes;
		var width = parseFloat(attr.width.value);
		var xmin = parseFloat(attr.x.value);
		var xmax = parseFloat(xmin + width);
		var ymin = parseFloat(attr.y.value);
		var ratio = (svg.width.baseVal.value - 2 * 10) / width;

		// XXX: Workaround for JavaScript float issues (fix me)
		var fudge = 0.0001;

		unzoombtn.classList.remove("hide");

		var el = document.getElementById("frames").children;
		for (var i = 0; i < el.length; i++) {
			var e = el[i];
			var a = find_child(e, "rect").attributes;
			var ex = parseFloat(a.x.value);
			var ew = parseFloat(a.width.value);
			var upstack;
			// Is it an ancestor
			if (0 == 0) {
				upstack = parseFloat(a.y.value) > ymin;
			} else {
				upstack = parseFloat(a.y.value) < ymin;
			}
			if (upstack) {
				// Direct ancestor
				if (ex <= xmin && (ex+ew+fudge) >= xmax) {
					e.classList.add("parent");
					zoom_parent(e);
					update_text(e);
				}
				// not in current path
				else
					e.classList.add("hide");
			}
			// Children maybe
			else {
				// no common path
				if (ex < xmin || ex + fudge >= xmax) {
					e.classList.add("hide");
				}
				else {
					zoom_child(e, xmin, ratio);
					update_text(e);
				}
			}
		}
		search();
	}
	function unzoom(dont_update_text) {
		unzoombtn.classList.add("hide");
		var el = document.getElementById("frames").children;
		for(var i = 0; i < el.length; i++) {
			el[i].classList.remove("parent");
			el[i].classList.remove("hide");
			zoom_reset(el[i]);
			if(!dont_update_text) update_text(el[i]);
		}
		search();
	}
	function clearzoom() {
		unzoom();

		// remove zoom state
		var params = get_params();
		if (params.x) delete params.x;
		if (params.y) delete params.y;
		history.replaceState(null, null, parse_params(params));
	}

	// search
	function toggle_ignorecase() {
		ignorecase = !ignorecase;
		if (ignorecase) {
			ignorecaseBtn.classList.add("show");
		} else {
			ignorecaseBtn.classList.remove("show");
		}
		reset_search();
		search();
	}
	function reset_search() {
		var el = document.querySelectorAll("#frames rect");
		for (var i = 0; i < el.length; i++) {
			orig_load(el[i], "fill")
		}
		var params = get_params();
		delete params.s;
		history.replaceState(null, null, parse_params(params));
	}
	function search_prompt() {
		if (!searching) {
			var term = prompt("Enter a search term (regexp " +
			    "allowed, eg: ^ext4_)"
			    + (ignorecase ? ", ignoring case" : "")
			    + "\nPress Ctrl-i to toggle case sensitivity", "");
			if (term != null) search(term);
		} else {
			reset_search();
			searching = 0;
			currentSearchTerm = null;
			searchbtn.classList.remove("show");
			searchbtn.firstChild.nodeValue = "Search"
			matchedtxt.classList.add("hide");
			matchedtxt.firstChild.nodeValue = ""
		}
	}
	function search(term) {
		if (term) currentSearchTerm = term;
		if (currentSearchTerm === null) return;

		var re = new RegExp(currentSearchTerm, ignorecase ? 'i' : '');
		var el = document.getElementById("frames").children;
		var matches = new Object();
		var maxwidth = 0;
		for (var i = 0; i < el.length; i++) {
			var e = el[i];
			var func = g_to_func(e);
			var rect = find_child(e, "rect");
			if (func == null || rect == null)
				continue;

			// Save max width. Only works as we have a root frame
			var w = parseFloat(rect.attributes.width.value);
			if (w > maxwidth)
				maxwidth = w;

			if (func.match(re)) {
				// highlight
				var x = parseFloat(rect.attributes.x.value);
				orig_save(rect, "fill");
				rect.attributes.fill.value = "rgb(230,0,230)";

				// remember matches
				if (matches[x] == undefined) {
					matches[x] = w;
				} else {
					if (w > matches[x]) {
						// overwrite with parent
						matches[x] = w;
					}
				}
				searching = 1;
			}
		}
		if (!searching)
			return;
		var params = get_params();
		params.s = currentSearchTerm;
		history.replaceState(null, null, parse_params(params));

		searchbtn.classList.add("show");
		searchbtn.firstChild.nodeValue = "Reset Search";

		// calculate percent matched, excluding vertical overlap
		var count = 0;
		var lastx = -1;
		var lastw = 0;
		var keys = Array();
		for (k in matches) {
			if (matches.hasOwnProperty(k))
				keys.push(k);
		}
		// sort the matched frames by their x location
		// ascending, then width descending
		keys.sort(function(a, b){
			return a - b;
		});
		// Step through frames saving only the biggest bottom-up frames
		// thanks to the sort order. This relies on the tree property
		// where children are always smaller than their parents.
		var fudge = 0.0001;	// JavaScript floating point
		for (var k in keys) {
			var x = parseFloat(keys[k]);
			var w = matches[keys[k]];
			if (x >= lastx + lastw - fudge) {
				count += w;
				lastx = x;
				lastw = w;
			}
		}
		// display matched percent
		matchedtxt.classList.remove("hide");
		var pct = 100 * count / maxwidth;
		if (pct != 100) pct = pct.toFixed(1)
		matchedtxt.firstChild.nodeValue = "Matched: " + pct + "%";
	}
]]>
</script>
<rect x="0.0" y="0" width="1200.0" height="406.0" fill="url(#background)"  />
<text id="title" x="600.00" y="24" >Flame Graph</text>
<text id="details" x="10.00" y="389" > </text>
<text id="unzoom" x="10.00" y="24" class="hide">Reset Zoom</text>
<text id="search" x="1090.00" y="24" >Search</text>
<text id="ignorecase" x="1174.00" y="24" >ic</text>
<text id="matched" x="1090.00" y="389" > </text>
<g id="frames">
<g >
<title>user_path_at_empty+0x3e (3 samples, 2.16%)</title><rect x="884.4" y="229" width="25.5" height="15.0" fill="rgb(231,122,29)" rx="2" ry="2" />
<text  x="887.39" y="239.5" >u..</text>
</g>
<g >
<title>handle_dots+0x12e (18 samples, 12.95%)</title><rect x="621.2" y="149" width="152.8" height="15.0" fill="rgb(234,135,32)" rx="2" ry="2" />
<text  x="624.22" y="159.5" >handle_dots+0x12e</text>
</g>
<g >
<title>asm_exc_page_fault+0x27 (2 samples, 1.44%)</title><rect x="1020.2" y="325" width="17.0" height="15.0" fill="rgb(234,133,32)" rx="2" ry="2" />
<text  x="1023.22" y="335.5" ></text>
</g>
<g >
<title>_raw_spin_lock+0x38 (4 samples, 2.88%)</title><rect x="1062.7" y="149" width="33.9" height="15.0" fill="rgb(235,141,33)" rx="2" ry="2" />
<text  x="1065.66" y="159.5" >_r..</text>
</g>
<g >
<title>dput+0x136 (12 samples, 8.63%)</title><rect x="774.0" y="117" width="101.9" height="15.0" fill="rgb(231,119,28)" rx="2" ry="2" />
<text  x="777.03" y="127.5" >dput+0x136</text>
</g>
<g >
<title>path_openat+0x47 (2 samples, 1.44%)</title><rect x="290.1" y="197" width="17.0" height="15.0" fill="rgb(244,182,43)" rx="2" ry="2" />
<text  x="293.14" y="207.5" ></text>
</g>
<g >
<title>do_filp_open+0xaf (15 samples, 10.79%)</title><rect x="1062.7" y="245" width="127.3" height="15.0" fill="rgb(212,35,8)" rx="2" ry="2" />
<text  x="1065.66" y="255.5" >do_filp_open+0xaf</text>
</g>
<g >
<title>__pv_queued_spin_lock_slowpath+0x2b9 (1 samples, 0.72%)</title><rect x="901.4" y="85" width="8.5" height="15.0" fill="rgb(217,57,13)" rx="2" ry="2" />
<text  x="904.37" y="95.5" ></text>
</g>
<g >
<title>path_openat+0x87 (67 samples, 48.20%)</title><rect x="307.1" y="197" width="568.8" height="15.0" fill="rgb(218,64,15)" rx="2" ry="2" />
<text  x="310.12" y="207.5" >path_openat+0x87</text>
</g>
<g >
<title>vm_mmap_pgoff+0xf3 (1 samples, 0.72%)</title><rect x="875.9" y="213" width="8.5" height="15.0" fill="rgb(236,143,34)" rx="2" ry="2" />
<text  x="878.90" y="223.5" ></text>
</g>
<g >
<title>__pv_queued_spin_lock_slowpath+0x2aa (1 samples, 0.72%)</title><rect x="502.4" y="101" width="8.5" height="15.0" fill="rgb(215,48,11)" rx="2" ry="2" />
<text  x="505.37" y="111.5" ></text>
</g>
<g >
<title>alloc_fd+0x13a (1 samples, 0.72%)</title><rect x="1054.2" y="229" width="8.5" height="15.0" fill="rgb(230,118,28)" rx="2" ry="2" />
<text  x="1057.17" y="239.5" ></text>
</g>
<g >
<title>___slab_alloc+0x3fd (1 samples, 0.72%)</title><rect x="290.1" y="149" width="8.5" height="15.0" fill="rgb(232,127,30)" rx="2" ry="2" />
<text  x="293.14" y="159.5" ></text>
</g>
<g >
<title>_raw_spin_lock+0x38 (4 samples, 2.88%)</title><rect x="1096.6" y="149" width="34.0" height="15.0" fill="rgb(235,141,33)" rx="2" ry="2" />
<text  x="1099.62" y="159.5" >_r..</text>
</g>
<g >
<title>handle_dots+0x12e (4 samples, 2.88%)</title><rect x="1130.6" y="181" width="33.9" height="15.0" fill="rgb(234,135,32)" rx="2" ry="2" />
<text  x="1133.58" y="191.5" >ha..</text>
</g>
<g >
<title>__pv_queued_spin_lock_slowpath+0x9d (1 samples, 0.72%)</title><rect x="485.4" y="101" width="8.5" height="15.0" fill="rgb(227,103,24)" rx="2" ry="2" />
<text  x="488.40" y="111.5" ></text>
</g>
<g >
<title>path_openat+0x87 (15 samples, 10.79%)</title><rect x="1062.7" y="229" width="127.3" height="15.0" fill="rgb(218,64,15)" rx="2" ry="2" />
<text  x="1065.66" y="239.5" >path_openat+0x87</text>
</g>
<g >
<title>osq_lock+0x99 (1 samples, 0.72%)</title><rect x="875.9" y="37" width="8.5" height="15.0" fill="rgb(215,46,11)" rx="2" ry="2" />
<text  x="878.90" y="47.5" ></text>
</g>
<g >
<title>exc_page_fault+0x83 (2 samples, 1.44%)</title><rect x="1020.2" y="309" width="17.0" height="15.0" fill="rgb(208,16,3)" rx="2" ry="2" />
<text  x="1023.22" y="319.5" ></text>
</g>
<g >
<title>[unknown] (119 samples, 85.61%)</title><rect x="10.0" y="325" width="1010.2" height="15.0" fill="rgb(210,24,5)" rx="2" ry="2" />
<text  x="13.00" y="335.5" >[unknown]</text>
</g>
<g >
<title>__d_lookup+0x6b (8 samples, 5.76%)</title><rect x="426.0" y="133" width="67.9" height="15.0" fill="rgb(229,111,26)" rx="2" ry="2" />
<text  x="428.97" y="143.5" >__d_loo..</text>
</g>
<g >
<title>do_sys_openat2+0xb3 (15 samples, 10.79%)</title><rect x="1062.7" y="261" width="127.3" height="15.0" fill="rgb(227,104,24)" rx="2" ry="2" />
<text  x="1065.66" y="271.5" >do_sys_openat2+..</text>
</g>
<g >
<title>unlink_file_vma+0x31 (1 samples, 0.72%)</title><rect x="875.9" y="101" width="8.5" height="15.0" fill="rgb(252,219,52)" rx="2" ry="2" />
<text  x="878.90" y="111.5" ></text>
</g>
<g >
<title>__d_lookup+0x6b (4 samples, 2.88%)</title><rect x="1062.7" y="165" width="33.9" height="15.0" fill="rgb(229,111,26)" rx="2" ry="2" />
<text  x="1065.66" y="175.5" >__..</text>
</g>
<g >
<title>__pv_queued_spin_lock_slowpath+0x2b9 (4 samples, 2.88%)</title><rect x="1096.6" y="133" width="34.0" height="15.0" fill="rgb(217,57,13)" rx="2" ry="2" />
<text  x="1099.62" y="143.5" >__..</text>
</g>
<g >
<title>__pv_queued_spin_lock_slowpath+0x2c3 (1 samples, 0.72%)</title><rect x="612.7" y="101" width="8.5" height="15.0" fill="rgb(249,206,49)" rx="2" ry="2" />
<text  x="615.73" y="111.5" ></text>
</g>
<g >
<title>entry_SYSCALL_64_after_hwframe+0x78 (18 samples, 12.95%)</title><rect x="1037.2" y="325" width="152.8" height="15.0" fill="rgb(238,155,37)" rx="2" ry="2" />
<text  x="1040.19" y="335.5" >entry_SYSCALL_64_af..</text>
</g>
<g >
<title>__pv_queued_spin_lock_slowpath+0x2be (2 samples, 1.44%)</title><rect x="757.1" y="85" width="16.9" height="15.0" fill="rgb(233,130,31)" rx="2" ry="2" />
<text  x="760.05" y="95.5" ></text>
</g>
<g >
<title>__pv_queued_spin_lock_slowpath+0x2b9 (10 samples, 7.19%)</title><rect x="510.9" y="101" width="84.9" height="15.0" fill="rgb(217,57,13)" rx="2" ry="2" />
<text  x="513.86" y="111.5" >__pv_queu..</text>
</g>
<g >
<title>__pv_queued_spin_lock_slowpath+0x2be (1 samples, 0.72%)</title><rect x="1156.0" y="117" width="8.5" height="15.0" fill="rgb(233,130,31)" rx="2" ry="2" />
<text  x="1159.04" y="127.5" ></text>
</g>
<g >
<title>kernfs_iop_permission+0x40 (8 samples, 5.76%)</title><rect x="315.6" y="149" width="67.9" height="15.0" fill="rgb(229,111,26)" rx="2" ry="2" />
<text  x="318.61" y="159.5" >kernfs_..</text>
</g>
<g >
<title>__pv_queued_spin_lock_slowpath+0x2b9 (11 samples, 7.91%)</title><rect x="774.0" y="85" width="93.4" height="15.0" fill="rgb(217,57,13)" rx="2" ry="2" />
<text  x="777.03" y="95.5" >__pv_queued..</text>
</g>
<g >
<title>__x64_sys_openat+0x55 (16 samples, 11.51%)</title><rect x="1054.2" y="277" width="135.8" height="15.0" fill="rgb(254,225,54)" rx="2" ry="2" />
<text  x="1057.17" y="287.5" >__x64_sys_openat+..</text>
</g>
<g >
<title>__pv_queued_spin_lock_slowpath+0x2c3 (1 samples, 0.72%)</title><rect x="867.4" y="85" width="8.5" height="15.0" fill="rgb(249,206,49)" rx="2" ry="2" />
<text  x="870.41" y="95.5" ></text>
</g>
<g >
<title>_raw_spin_lock+0x38 (14 samples, 10.07%)</title><rect x="502.4" y="117" width="118.8" height="15.0" fill="rgb(235,141,33)" rx="2" ry="2" />
<text  x="505.37" y="127.5" >_raw_spin_lock..</text>
</g>
<g >
<title>step_into+0x2a9 (14 samples, 10.07%)</title><rect x="502.4" y="149" width="118.8" height="15.0" fill="rgb(245,186,44)" rx="2" ry="2" />
<text  x="505.37" y="159.5" >step_into+0x2a9</text>
</g>
<g >
<title>link_path_walk.part.0.constprop.0+0x130 (14 samples, 10.07%)</title><rect x="307.1" y="181" width="118.9" height="15.0" fill="rgb(229,111,26)" rx="2" ry="2" />
<text  x="310.12" y="191.5" >link_path_walk..</text>
</g>
<g >
<title>x64_sys_call+0x1611 (3 samples, 2.16%)</title><rect x="884.4" y="277" width="25.5" height="15.0" fill="rgb(235,141,33)" rx="2" ry="2" />
<text  x="887.39" y="287.5" >x..</text>
</g>
<g >
<title>__handle_mm_fault+0x653 (2 samples, 1.44%)</title><rect x="1020.2" y="261" width="17.0" height="15.0" fill="rgb(223,84,20)" rx="2" ry="2" />
<text  x="1023.22" y="271.5" ></text>
</g>
<g >
<title>ksys_read+0x73 (13 samples, 9.35%)</title><rect x="909.9" y="245" width="110.3" height="15.0" fill="rgb(231,124,29)" rx="2" ry="2" />
<text  x="912.86" y="255.5" >ksys_read+0x73</text>
</g>
<g >
<title>lockref_get_not_zero+0x6a (2 samples, 1.44%)</title><rect x="892.9" y="117" width="17.0" height="15.0" fill="rgb(252,218,52)" rx="2" ry="2" />
<text  x="895.88" y="127.5" ></text>
</g>
<g >
<title>handle_pte_fault+0x1ba (2 samples, 1.44%)</title><rect x="1020.2" y="245" width="17.0" height="15.0" fill="rgb(228,106,25)" rx="2" ry="2" />
<text  x="1023.22" y="255.5" ></text>
</g>
<g >
<title>_raw_spin_lock+0x38 (2 samples, 1.44%)</title><rect x="892.9" y="101" width="17.0" height="15.0" fill="rgb(235,141,33)" rx="2" ry="2" />
<text  x="895.88" y="111.5" ></text>
</g>
<g >
<title>down_write+0x4c (1 samples, 0.72%)</title><rect x="875.9" y="85" width="8.5" height="15.0" fill="rgb(233,132,31)" rx="2" ry="2" />
<text  x="878.90" y="95.5" ></text>
</g>
<g >
<title>inode_permission+0x5e (1 samples, 0.72%)</title><rect x="307.1" y="165" width="8.5" height="15.0" fill="rgb(251,212,50)" rx="2" ry="2" />
<text  x="310.12" y="175.5" ></text>
</g>
<g >
<title>walk_component+0x51 (4 samples, 2.88%)</title><rect x="1096.6" y="197" width="34.0" height="15.0" fill="rgb(219,66,15)" rx="2" ry="2" />
<text  x="1099.62" y="207.5" >wa..</text>
</g>
<g >
<title>walk_component+0x2c (9 samples, 6.47%)</title><rect x="426.0" y="165" width="76.4" height="15.0" fill="rgb(215,49,11)" rx="2" ry="2" />
<text  x="428.97" y="175.5" >walk_com..</text>
</g>
<g >
<title>__pv_queued_spin_lock_slowpath+0x2b9 (14 samples, 10.07%)</title><rect x="638.2" y="85" width="118.9" height="15.0" fill="rgb(217,57,13)" rx="2" ry="2" />
<text  x="641.20" y="95.5" >__pv_queued_sp..</text>
</g>
<g >
<title>step_into+0x2a9 (3 samples, 2.16%)</title><rect x="1164.5" y="165" width="25.5" height="15.0" fill="rgb(245,186,44)" rx="2" ry="2" />
<text  x="1167.53" y="175.5" >s..</text>
</g>
<g >
<title>walk_component+0x2c (1 samples, 0.72%)</title><rect x="884.4" y="165" width="8.5" height="15.0" fill="rgb(215,49,11)" rx="2" ry="2" />
<text  x="887.39" y="175.5" ></text>
</g>
<g >
<title>pci_user_read_config_dword+0x7e (13 samples, 9.35%)</title><rect x="909.9" y="149" width="110.3" height="15.0" fill="rgb(213,40,9)" rx="2" ry="2" />
<text  x="912.86" y="159.5" >pci_user_read..</text>
</g>
<g >
<title>__pv_queued_spin_lock_slowpath+0x2be (2 samples, 1.44%)</title><rect x="595.8" y="101" width="16.9" height="15.0" fill="rgb(233,130,31)" rx="2" ry="2" />
<text  x="598.76" y="111.5" ></text>
</g>
<g >
<title>__pv_queued_spin_lock_slowpath+0x2b9 (1 samples, 0.72%)</title><rect x="1173.0" y="117" width="8.5" height="15.0" fill="rgb(217,57,13)" rx="2" ry="2" />
<text  x="1176.02" y="127.5" ></text>
</g>
<g >
<title>ksys_mmap_pgoff+0x1cc (1 samples, 0.72%)</title><rect x="875.9" y="229" width="8.5" height="15.0" fill="rgb(236,146,34)" rx="2" ry="2" />
<text  x="878.90" y="239.5" ></text>
</g>
<g >
<title>sysfs_kf_bin_read+0x63 (13 samples, 9.35%)</title><rect x="909.9" y="181" width="110.3" height="15.0" fill="rgb(228,107,25)" rx="2" ry="2" />
<text  x="912.86" y="191.5" >sysfs_kf_bin_..</text>
</g>
<g >
<title>entry_SYSCALL_64_after_hwframe+0x78 (16 samples, 11.51%)</title><rect x="884.4" y="309" width="135.8" height="15.0" fill="rgb(238,155,37)" rx="2" ry="2" />
<text  x="887.39" y="319.5" >entry_SYSCALL_64_..</text>
</g>
<g >
<title>mmap_region+0xd4 (1 samples, 0.72%)</title><rect x="875.9" y="181" width="8.5" height="15.0" fill="rgb(236,144,34)" rx="2" ry="2" />
<text  x="878.90" y="191.5" ></text>
</g>
<g >
<title>step_into+0x2a9 (4 samples, 2.88%)</title><rect x="1096.6" y="181" width="34.0" height="15.0" fill="rgb(245,186,44)" rx="2" ry="2" />
<text  x="1099.62" y="191.5" >st..</text>
</g>
<g >
<title>do_syscall_64+0x7f (16 samples, 11.51%)</title><rect x="884.4" y="293" width="135.8" height="15.0" fill="rgb(232,125,29)" rx="2" ry="2" />
<text  x="887.39" y="303.5" >do_syscall_64+0x7f</text>
</g>
<g >
<title>alloc_empty_file+0x6a (1 samples, 0.72%)</title><rect x="298.6" y="181" width="8.5" height="15.0" fill="rgb(220,72,17)" rx="2" ry="2" />
<text  x="301.63" y="191.5" ></text>
</g>
<g >
<title>__x64_sys_read+0x19 (13 samples, 9.35%)</title><rect x="909.9" y="261" width="110.3" height="15.0" fill="rgb(222,79,18)" rx="2" ry="2" />
<text  x="912.86" y="271.5" >__x64_sys_rea..</text>
</g>
<g >
<title>vfs_read+0x25c (13 samples, 9.35%)</title><rect x="909.9" y="229" width="110.3" height="15.0" fill="rgb(206,6,1)" rx="2" ry="2" />
<text  x="912.86" y="239.5" >vfs_read+0x25c</text>
</g>
<g >
<title>rwsem_optimistic_spin+0x29 (1 samples, 0.72%)</title><rect x="875.9" y="53" width="8.5" height="15.0" fill="rgb(211,29,7)" rx="2" ry="2" />
<text  x="878.90" y="63.5" ></text>
</g>
<g >
<title>walk_component+0x2c (4 samples, 2.88%)</title><rect x="1062.7" y="197" width="33.9" height="15.0" fill="rgb(215,49,11)" rx="2" ry="2" />
<text  x="1065.66" y="207.5" >wa..</text>
</g>
<g >
<title>[unknown] (5 samples, 3.60%)</title><rect x="247.7" y="293" width="42.4" height="15.0" fill="rgb(210,24,5)" rx="2" ry="2" />
<text  x="250.70" y="303.5" >[un..</text>
</g>
<g >
<title>free_pgtables+0x68 (1 samples, 0.72%)</title><rect x="875.9" y="117" width="8.5" height="15.0" fill="rgb(235,138,33)" rx="2" ry="2" />
<text  x="878.90" y="127.5" ></text>
</g>
<g >
<title>__d_lookup+0x6b (1 samples, 0.72%)</title><rect x="884.4" y="133" width="8.5" height="15.0" fill="rgb(229,111,26)" rx="2" ry="2" />
<text  x="887.39" y="143.5" ></text>
</g>
<g >
<title>__pv_queued_spin_lock_slowpath+0x2c3 (2 samples, 1.44%)</title><rect x="468.4" y="101" width="17.0" height="15.0" fill="rgb(249,206,49)" rx="2" ry="2" />
<text  x="471.42" y="111.5" ></text>
</g>
<g >
<title>walk_component+0x51 (14 samples, 10.07%)</title><rect x="502.4" y="165" width="118.8" height="15.0" fill="rgb(219,66,15)" rx="2" ry="2" />
<text  x="505.37" y="175.5" >walk_component..</text>
</g>
<g >
<title>do_sys_openat2+0x91 (1 samples, 0.72%)</title><rect x="1054.2" y="261" width="8.5" height="15.0" fill="rgb(205,1,0)" rx="2" ry="2" />
<text  x="1057.17" y="271.5" ></text>
</g>
<g >
<title>_raw_spin_lock+0x38 (3 samples, 2.16%)</title><rect x="1164.5" y="133" width="25.5" height="15.0" fill="rgb(235,141,33)" rx="2" ry="2" />
<text  x="1167.53" y="143.5" >_..</text>
</g>
<g >
<title>walk_component+0xd4 (7 samples, 5.04%)</title><rect x="1130.6" y="197" width="59.4" height="15.0" fill="rgb(246,190,45)" rx="2" ry="2" />
<text  x="1133.58" y="207.5" >walk_c..</text>
</g>
<g >
<title>lmp-76960 (139 samples, 100.00%)</title><rect x="10.0" y="341" width="1180.0" height="15.0" fill="rgb(216,51,12)" rx="2" ry="2" />
<text  x="13.00" y="351.5" >lmp-76960</text>
</g>
<g >
<title>__pv_queued_spin_lock_slowpath+0x2b9 (2 samples, 1.44%)</title><rect x="1071.2" y="133" width="16.9" height="15.0" fill="rgb(217,57,13)" rx="2" ry="2" />
<text  x="1074.15" y="143.5" ></text>
</g>
<g >
<title>dget_parent+0x27 (18 samples, 12.95%)</title><rect x="621.2" y="133" width="152.8" height="15.0" fill="rgb(246,190,45)" rx="2" ry="2" />
<text  x="624.22" y="143.5" >dget_parent+0x27</text>
</g>
<g >
<title>kmem_cache_alloc+0x2d9 (1 samples, 0.72%)</title><rect x="290.1" y="165" width="8.5" height="15.0" fill="rgb(225,94,22)" rx="2" ry="2" />
<text  x="293.14" y="175.5" ></text>
</g>
<g >
<title>dput+0x136 (3 samples, 2.16%)</title><rect x="1164.5" y="149" width="25.5" height="15.0" fill="rgb(231,119,28)" rx="2" ry="2" />
<text  x="1167.53" y="159.5" >d..</text>
</g>
<g >
<title>lookup_fast+0x84 (1 samples, 0.72%)</title><rect x="493.9" y="149" width="8.5" height="15.0" fill="rgb(209,18,4)" rx="2" ry="2" />
<text  x="496.88" y="159.5" ></text>
</g>
<g >
<title>__pv_queued_spin_lock_slowpath+0x2aa (1 samples, 0.72%)</title><rect x="1164.5" y="117" width="8.5" height="15.0" fill="rgb(215,48,11)" rx="2" ry="2" />
<text  x="1167.53" y="127.5" ></text>
</g>
<g >
<title>inode_permission+0xfc (13 samples, 9.35%)</title><rect x="315.6" y="165" width="110.4" height="15.0" fill="rgb(247,195,46)" rx="2" ry="2" />
<text  x="318.61" y="175.5" >inode_permiss..</text>
</g>
<g >
<title>memcg_alloc_slab_cgroups+0x3d (1 samples, 0.72%)</title><rect x="290.1" y="101" width="8.5" height="15.0" fill="rgb(209,18,4)" rx="2" ry="2" />
<text  x="293.14" y="111.5" ></text>
</g>
<g >
<title>dget_parent+0x27 (4 samples, 2.88%)</title><rect x="1130.6" y="165" width="33.9" height="15.0" fill="rgb(246,190,45)" rx="2" ry="2" />
<text  x="1133.58" y="175.5" >dg..</text>
</g>
<g >
<title>walk_component+0xd4 (30 samples, 21.58%)</title><rect x="621.2" y="165" width="254.7" height="15.0" fill="rgb(246,190,45)" rx="2" ry="2" />
<text  x="624.22" y="175.5" >walk_component+0xd4</text>
</g>
<g >
<title>handle_mm_fault+0x12a (2 samples, 1.44%)</title><rect x="1020.2" y="277" width="17.0" height="15.0" fill="rgb(205,1,0)" rx="2" ry="2" />
<text  x="1023.22" y="287.5" ></text>
</g>
<g >
<title>dput+0x136 (14 samples, 10.07%)</title><rect x="502.4" y="133" width="118.8" height="15.0" fill="rgb(231,119,28)" rx="2" ry="2" />
<text  x="505.37" y="143.5" >dput+0x136</text>
</g>
<g >
<title>filename_lookup+0xe4 (3 samples, 2.16%)</title><rect x="884.4" y="213" width="25.5" height="15.0" fill="rgb(215,46,11)" rx="2" ry="2" />
<text  x="887.39" y="223.5" >f..</text>
</g>
<g >
<title>pci_read_config+0x105 (13 samples, 9.35%)</title><rect x="909.9" y="165" width="110.3" height="15.0" fill="rgb(231,122,29)" rx="2" ry="2" />
<text  x="912.86" y="175.5" >pci_read_conf..</text>
</g>
<g >
<title>__x64_sys_mmap+0x33 (1 samples, 0.72%)</title><rect x="875.9" y="245" width="8.5" height="15.0" fill="rgb(251,212,50)" rx="2" ry="2" />
<text  x="878.90" y="255.5" ></text>
</g>
<g >
<title>_raw_spin_lock+0x38 (1 samples, 0.72%)</title><rect x="884.4" y="117" width="8.5" height="15.0" fill="rgb(235,141,33)" rx="2" ry="2" />
<text  x="887.39" y="127.5" ></text>
</g>
<g >
<title>lockref_get_not_zero+0x6a (18 samples, 12.95%)</title><rect x="621.2" y="117" width="152.8" height="15.0" fill="rgb(252,218,52)" rx="2" ry="2" />
<text  x="624.22" y="127.5" >lockref_get_not_zer..</text>
</g>
<g >
<title>init_file+0x34 (1 samples, 0.72%)</title><rect x="298.6" y="165" width="8.5" height="15.0" fill="rgb(217,58,13)" rx="2" ry="2" />
<text  x="301.63" y="175.5" ></text>
</g>
<g >
<title>_raw_spin_lock+0x38 (8 samples, 5.76%)</title><rect x="426.0" y="117" width="67.9" height="15.0" fill="rgb(235,141,33)" rx="2" ry="2" />
<text  x="428.97" y="127.5" >_raw_sp..</text>
</g>
<g >
<title>up_read+0x11 (5 samples, 3.60%)</title><rect x="383.5" y="149" width="42.5" height="15.0" fill="rgb(212,36,8)" rx="2" ry="2" />
<text  x="386.53" y="159.5" >up_..</text>
</g>
<g >
<title>path_lookupat+0x3e (3 samples, 2.16%)</title><rect x="884.4" y="197" width="25.5" height="15.0" fill="rgb(205,1,0)" rx="2" ry="2" />
<text  x="887.39" y="207.5" >p..</text>
</g>
<g >
<title>__pv_queued_spin_lock_slowpath+0x2b9 (3 samples, 2.16%)</title><rect x="1130.6" y="117" width="25.4" height="15.0" fill="rgb(217,57,13)" rx="2" ry="2" />
<text  x="1133.58" y="127.5" >_..</text>
</g>
<g >
<title>__pv_queued_spin_lock_slowpath+0x2be (1 samples, 0.72%)</title><rect x="1181.5" y="117" width="8.5" height="15.0" fill="rgb(233,130,31)" rx="2" ry="2" />
<text  x="1184.51" y="127.5" ></text>
</g>
<g >
<title>rwsem_down_write_slowpath+0x2f7 (1 samples, 0.72%)</title><rect x="875.9" y="69" width="8.5" height="15.0" fill="rgb(242,172,41)" rx="2" ry="2" />
<text  x="878.90" y="79.5" ></text>
</g>
<g >
<title>__pv_queued_spin_lock_slowpath+0x2b9 (1 samples, 0.72%)</title><rect x="884.4" y="101" width="8.5" height="15.0" fill="rgb(217,57,13)" rx="2" ry="2" />
<text  x="887.39" y="111.5" ></text>
</g>
<g >
<title>walk_component+0xd4 (2 samples, 1.44%)</title><rect x="892.9" y="165" width="17.0" height="15.0" fill="rgb(246,190,45)" rx="2" ry="2" />
<text  x="895.88" y="175.5" ></text>
</g>
<g >
<title>do_vmi_munmap+0xdf (1 samples, 0.72%)</title><rect x="875.9" y="165" width="8.5" height="15.0" fill="rgb(235,141,33)" rx="2" ry="2" />
<text  x="878.90" y="175.5" ></text>
</g>
<g >
<title>alloc_empty_file+0x50 (1 samples, 0.72%)</title><rect x="290.1" y="181" width="8.5" height="15.0" fill="rgb(243,178,42)" rx="2" ry="2" />
<text  x="293.14" y="191.5" ></text>
</g>
<g >
<title>kernfs_file_read_iter+0xa1 (13 samples, 9.35%)</title><rect x="909.9" y="197" width="110.3" height="15.0" fill="rgb(208,16,3)" rx="2" ry="2" />
<text  x="912.86" y="207.5" >kernfs_file_r..</text>
</g>
<g >
<title>kernfs_fop_read_iter+0x25 (13 samples, 9.35%)</title><rect x="909.9" y="213" width="110.3" height="15.0" fill="rgb(224,88,21)" rx="2" ry="2" />
<text  x="912.86" y="223.5" >kernfs_fop_re..</text>
</g>
<g >
<title>new_slab+0x38 (1 samples, 0.72%)</title><rect x="290.1" y="133" width="8.5" height="15.0" fill="rgb(213,39,9)" rx="2" ry="2" />
<text  x="293.14" y="143.5" ></text>
</g>
<g >
<title>dget_parent+0x27 (2 samples, 1.44%)</title><rect x="892.9" y="133" width="17.0" height="15.0" fill="rgb(246,190,45)" rx="2" ry="2" />
<text  x="895.88" y="143.5" ></text>
</g>
<g >
<title>do_syscall_64+0x7f (16 samples, 11.51%)</title><rect x="1054.2" y="309" width="135.8" height="15.0" fill="rgb(232,125,29)" rx="2" ry="2" />
<text  x="1057.17" y="319.5" >do_syscall_64+0x7f</text>
</g>
<g >
<title>__x64_sys_openat+0x55 (69 samples, 49.64%)</title><rect x="290.1" y="245" width="585.8" height="15.0" fill="rgb(254,225,54)" rx="2" ry="2" />
<text  x="293.14" y="255.5" >__x64_sys_openat+0x55</text>
</g>
<g >
<title>do_faccessat+0x10a (3 samples, 2.16%)</title><rect x="884.4" y="245" width="25.5" height="15.0" fill="rgb(241,169,40)" rx="2" ry="2" />
<text  x="887.39" y="255.5" >d..</text>
</g>
<g >
<title>lockref_get_not_zero+0x6a (4 samples, 2.88%)</title><rect x="1130.6" y="149" width="33.9" height="15.0" fill="rgb(252,218,52)" rx="2" ry="2" />
<text  x="1133.58" y="159.5" >lo..</text>
</g>
<g >
<title>do_syscall_64+0x45 (2 samples, 1.44%)</title><rect x="1037.2" y="309" width="17.0" height="15.0" fill="rgb(218,60,14)" rx="2" ry="2" />
<text  x="1040.19" y="319.5" ></text>
</g>
<g >
<title>_raw_spin_lock+0x38 (4 samples, 2.88%)</title><rect x="1130.6" y="133" width="33.9" height="15.0" fill="rgb(235,141,33)" rx="2" ry="2" />
<text  x="1133.58" y="143.5" >_r..</text>
</g>
<g >
<title>kernfs_dop_revalidate+0x4c (1 samples, 0.72%)</title><rect x="493.9" y="133" width="8.5" height="15.0" fill="rgb(240,163,39)" rx="2" ry="2" />
<text  x="496.88" y="143.5" ></text>
</g>
<g >
<title>lookup_fast+0x65 (1 samples, 0.72%)</title><rect x="884.4" y="149" width="8.5" height="15.0" fill="rgb(215,48,11)" rx="2" ry="2" />
<text  x="887.39" y="159.5" ></text>
</g>
<g >
<title>x64_sys_call+0x1bf0 (13 samples, 9.35%)</title><rect x="909.9" y="277" width="110.3" height="15.0" fill="rgb(215,49,11)" rx="2" ry="2" />
<text  x="912.86" y="287.5" >x64_sys_call+..</text>
</g>
<g >
<title>do_vmi_align_munmap+0x3e8 (1 samples, 0.72%)</title><rect x="875.9" y="149" width="8.5" height="15.0" fill="rgb(254,228,54)" rx="2" ry="2" />
<text  x="878.90" y="159.5" ></text>
</g>
<g >
<title>link_path_walk.part.0.constprop.0+0x2a9 (3 samples, 2.16%)</title><rect x="884.4" y="181" width="25.5" height="15.0" fill="rgb(217,57,13)" rx="2" ry="2" />
<text  x="887.39" y="191.5" >l..</text>
</g>
<g >
<title>do_sys_openat2+0xb3 (69 samples, 49.64%)</title><rect x="290.1" y="229" width="585.8" height="15.0" fill="rgb(227,104,24)" rx="2" ry="2" />
<text  x="293.14" y="239.5" >do_sys_openat2+0xb3</text>
</g>
<g >
<title>security_file_alloc+0x5f (1 samples, 0.72%)</title><rect x="298.6" y="149" width="8.5" height="15.0" fill="rgb(219,67,16)" rx="2" ry="2" />
<text  x="301.63" y="159.5" ></text>
</g>
<g >
<title>lookup_fast+0x65 (8 samples, 5.76%)</title><rect x="426.0" y="149" width="67.9" height="15.0" fill="rgb(215,48,11)" rx="2" ry="2" />
<text  x="428.97" y="159.5" >lookup_..</text>
</g>
<g >
<title>do_user_addr_fault+0x157 (2 samples, 1.44%)</title><rect x="1020.2" y="293" width="17.0" height="15.0" fill="rgb(251,212,50)" rx="2" ry="2" />
<text  x="1023.22" y="303.5" ></text>
</g>
<g >
<title>get_unused_fd_flags+0x29 (1 samples, 0.72%)</title><rect x="1054.2" y="245" width="8.5" height="15.0" fill="rgb(241,166,39)" rx="2" ry="2" />
<text  x="1057.17" y="255.5" ></text>
</g>
<g >
<title>do_syscall_64+0x7f (70 samples, 50.36%)</title><rect x="290.1" y="277" width="594.3" height="15.0" fill="rgb(232,125,29)" rx="2" ry="2" />
<text  x="293.14" y="287.5" >do_syscall_64+0x7f</text>
</g>
<g >
<title>x64_sys_call+0x1eb1 (16 samples, 11.51%)</title><rect x="1054.2" y="293" width="135.8" height="15.0" fill="rgb(215,49,11)" rx="2" ry="2" />
<text  x="1057.17" y="303.5" >x64_sys_call+0x1eb1</text>
</g>
<g >
<title>link_path_walk.part.0.constprop.0+0x2a9 (15 samples, 10.79%)</title><rect x="1062.7" y="213" width="127.3" height="15.0" fill="rgb(217,57,13)" rx="2" ry="2" />
<text  x="1065.66" y="223.5" >link_path_walk...</text>
</g>
<g >
<title>_raw_spin_lock+0x38 (12 samples, 8.63%)</title><rect x="774.0" y="101" width="101.9" height="15.0" fill="rgb(235,141,33)" rx="2" ry="2" />
<text  x="777.03" y="111.5" >_raw_spin_lo..</text>
</g>
<g >
<title>step_into+0x2a9 (12 samples, 8.63%)</title><rect x="774.0" y="133" width="101.9" height="15.0" fill="rgb(245,186,44)" rx="2" ry="2" />
<text  x="777.03" y="143.5" >step_into+0x..</text>
</g>
<g >
<title>unmap_region+0x13d (1 samples, 0.72%)</title><rect x="875.9" y="133" width="8.5" height="15.0" fill="rgb(214,41,9)" rx="2" ry="2" />
<text  x="878.90" y="143.5" ></text>
</g>
<g >
<title>dput+0x136 (4 samples, 2.88%)</title><rect x="1096.6" y="165" width="34.0" height="15.0" fill="rgb(231,119,28)" rx="2" ry="2" />
<text  x="1099.62" y="175.5" >dp..</text>
</g>
<g >
<title>apparmor_file_alloc_security+0x45 (1 samples, 0.72%)</title><rect x="298.6" y="133" width="8.5" height="15.0" fill="rgb(234,136,32)" rx="2" ry="2" />
<text  x="301.63" y="143.5" ></text>
</g>
<g >
<title>all (139 samples, 100%)</title><rect x="10.0" y="357" width="1180.0" height="15.0" fill="rgb(213,39,9)" rx="2" ry="2" />
<text  x="13.00" y="367.5" ></text>
</g>
<g >
<title>do_filp_open+0xaf (69 samples, 49.64%)</title><rect x="290.1" y="213" width="585.8" height="15.0" fill="rgb(212,35,8)" rx="2" ry="2" />
<text  x="293.14" y="223.5" >do_filp_open+0xaf</text>
</g>
<g >
<title>__x64_sys_faccessat2+0x1b (3 samples, 2.16%)</title><rect x="884.4" y="261" width="25.5" height="15.0" fill="rgb(217,55,13)" rx="2" ry="2" />
<text  x="887.39" y="271.5" >_..</text>
</g>
<g >
<title>link_path_walk.part.0.constprop.0+0x2a9 (53 samples, 38.13%)</title><rect x="426.0" y="181" width="449.9" height="15.0" fill="rgb(217,57,13)" rx="2" ry="2" />
<text  x="428.97" y="191.5" >link_path_walk.part.0.constprop.0+0x2a9</text>
</g>
<g >
<title>__pv_queued_spin_lock_slowpath+0x2b9 (5 samples, 3.60%)</title><rect x="426.0" y="101" width="42.4" height="15.0" fill="rgb(217,57,13)" rx="2" ry="2" />
<text  x="428.97" y="111.5" >__p..</text>
</g>
<g >
<title>_raw_spin_lock+0x38 (18 samples, 12.95%)</title><rect x="621.2" y="101" width="152.8" height="15.0" fill="rgb(235,141,33)" rx="2" ry="2" />
<text  x="624.22" y="111.5" >_raw_spin_lock+0x38</text>
</g>
<g >
<title>entry_SYSCALL_64_after_hwframe+0x78 (70 samples, 50.36%)</title><rect x="290.1" y="293" width="594.3" height="15.0" fill="rgb(238,155,37)" rx="2" ry="2" />
<text  x="293.14" y="303.5" >entry_SYSCALL_64_after_hwframe+0x78</text>
</g>
<g >
<title>__pv_queued_spin_lock_slowpath+0x11c (1 samples, 0.72%)</title><rect x="892.9" y="85" width="8.5" height="15.0" fill="rgb(219,65,15)" rx="2" ry="2" />
<text  x="895.88" y="95.5" ></text>
</g>
<g >
<title>x64_sys_call+0x1eb1 (69 samples, 49.64%)</title><rect x="290.1" y="261" width="585.8" height="15.0" fill="rgb(215,49,11)" rx="2" ry="2" />
<text  x="293.14" y="271.5" >x64_sys_call+0x1eb1</text>
</g>
<g >
<title>allocate_slab+0x2ad (1 samples, 0.72%)</title><rect x="290.1" y="117" width="8.5" height="15.0" fill="rgb(234,133,31)" rx="2" ry="2" />
<text  x="293.14" y="127.5" ></text>
</g>
<g >
<title>handle_dots+0x12e (2 samples, 1.44%)</title><rect x="892.9" y="149" width="17.0" height="15.0" fill="rgb(234,135,32)" rx="2" ry="2" />
<text  x="895.88" y="159.5" ></text>
</g>
<g >
<title>down_read+0x1c (8 samples, 5.76%)</title><rect x="315.6" y="133" width="67.9" height="15.0" fill="rgb(226,100,24)" rx="2" ry="2" />
<text  x="318.61" y="143.5" >down_re..</text>
</g>
<g >
<title>__pv_queued_spin_lock_slowpath+0x2be (1 samples, 0.72%)</title><rect x="1088.1" y="133" width="8.5" height="15.0" fill="rgb(233,130,31)" rx="2" ry="2" />
<text  x="1091.13" y="143.5" ></text>
</g>
<g >
<title>handle_dots+0xcb (12 samples, 8.63%)</title><rect x="774.0" y="149" width="101.9" height="15.0" fill="rgb(253,224,53)" rx="2" ry="2" />
<text  x="777.03" y="159.5" >handle_dots+..</text>
</g>
<g >
<title>lookup_fast+0x65 (4 samples, 2.88%)</title><rect x="1062.7" y="181" width="33.9" height="15.0" fill="rgb(215,48,11)" rx="2" ry="2" />
<text  x="1065.66" y="191.5" >lo..</text>
</g>
<g >
<title>handle_dots+0xcb (3 samples, 2.16%)</title><rect x="1164.5" y="181" width="25.5" height="15.0" fill="rgb(253,224,53)" rx="2" ry="2" />
<text  x="1167.53" y="191.5" >h..</text>
</g>
<g >
<title>__kmalloc_node+0x154 (1 samples, 0.72%)</title><rect x="290.1" y="85" width="8.5" height="15.0" fill="rgb(214,44,10)" rx="2" ry="2" />
<text  x="293.14" y="95.5" ></text>
</g>
<g >
<title>__pv_queued_spin_lock_slowpath+0x165 (1 samples, 0.72%)</title><rect x="1062.7" y="133" width="8.5" height="15.0" fill="rgb(234,133,31)" rx="2" ry="2" />
<text  x="1065.66" y="143.5" ></text>
</g>
<g >
<title>__raw_spin_unlock_irq.constprop.0+0x17 (13 samples, 9.35%)</title><rect x="909.9" y="133" width="110.3" height="15.0" fill="rgb(252,218,52)" rx="2" ry="2" />
<text  x="912.86" y="143.5" >__raw_spin_un..</text>
</g>
<g >
<title>[unknown] (80 samples, 57.55%)</title><rect x="205.3" y="309" width="679.1" height="15.0" fill="rgb(210,24,5)" rx="2" ry="2" />
<text  x="208.25" y="319.5" >[unknown]</text>
</g>
<g >
<title>[unknown] (5 samples, 3.60%)</title><rect x="247.7" y="277" width="42.4" height="15.0" fill="rgb(210,24,5)" rx="2" ry="2" />
<text  x="250.70" y="287.5" >[un..</text>
</g>
<g >
<title>_raw_spin_lock+0x10 (2 samples, 1.44%)</title><rect x="1020.2" y="213" width="17.0" height="15.0" fill="rgb(250,208,49)" rx="2" ry="2" />
<text  x="1023.22" y="223.5" ></text>
</g>
<g >
<title>do_anonymous_page+0x143 (2 samples, 1.44%)</title><rect x="1020.2" y="229" width="17.0" height="15.0" fill="rgb(243,178,42)" rx="2" ry="2" />
<text  x="1023.22" y="239.5" ></text>
</g>
<g >
<title>do_mmap+0x402 (1 samples, 0.72%)</title><rect x="875.9" y="197" width="8.5" height="15.0" fill="rgb(246,190,45)" rx="2" ry="2" />
<text  x="878.90" y="207.5" ></text>
</g>
<g >
<title>down_read+0x1c (1 samples, 0.72%)</title><rect x="493.9" y="117" width="8.5" height="15.0" fill="rgb(226,100,24)" rx="2" ry="2" />
<text  x="496.88" y="127.5" ></text>
</g>
<g >
<title>__pv_queued_spin_lock_slowpath+0x2aa (2 samples, 1.44%)</title><rect x="621.2" y="85" width="17.0" height="15.0" fill="rgb(215,48,11)" rx="2" ry="2" />
<text  x="624.22" y="95.5" ></text>
</g>
<g >
<title>x64_sys_call+0x1fce (1 samples, 0.72%)</title><rect x="875.9" y="261" width="8.5" height="15.0" fill="rgb(216,54,13)" rx="2" ry="2" />
<text  x="878.90" y="271.5" ></text>
</g>
<g >
<title>[unknown] (5 samples, 3.60%)</title><rect x="247.7" y="261" width="42.4" height="15.0" fill="rgb(210,24,5)" rx="2" ry="2" />
<text  x="250.70" y="271.5" >[un..</text>
</g>
</g>
</svg>
