<?xml version="1.0" encoding="utf-8" standalone="no"?>
<!DOCTYPE svg PUBLIC "-//W3C//DTD SVG 1.1//EN"
  "http://www.w3.org/Graphics/SVG/1.1/DTD/svg11.dtd">
<svg xmlns:xlink="http://www.w3.org/1999/xlink" width="1296pt" height="216pt" viewBox="0 0 1296 216" xmlns="http://www.w3.org/2000/svg" version="1.1">
 <metadata>
  <rdf:RDF xmlns:dc="http://purl.org/dc/elements/1.1/" xmlns:cc="http://creativecommons.org/ns#" xmlns:rdf="http://www.w3.org/1999/02/22-rdf-syntax-ns#">
   <cc:Work>
    <dc:type rdf:resource="http://purl.org/dc/dcmitype/StillImage"/>
    <dc:date>2025-04-20T16:44:29.559830</dc:date>
    <dc:format>image/svg+xml</dc:format>
    <dc:creator>
     <cc:Agent>
      <dc:title>Matplotlib v3.8.4, https://matplotlib.org/</dc:title>
     </cc:Agent>
    </dc:creator>
   </cc:Work>
  </rdf:RDF>
 </metadata>
 <defs>
  <style type="text/css">*{stroke-linejoin: round; stroke-linecap: butt}</style>
 </defs>
 <g id="figure_1">
  <g id="patch_1">
   <path d="M 0 216 
L 1296 216 
L 1296 0 
L 0 0 
z
" style="fill: #ffffff"/>
  </g>
  <g id="axes_1">
   <g id="patch_2">
    <path d="M 58.751081 180.148 
L 366.867824 180.148 
L 366.867824 27.6 
L 58.751081 27.6 
z
" style="fill: #ffffff"/>
   </g>
   <g id="matplotlib.axis_1">
    <g id="xtick_1">
     <g id="line2d_1">
      <path d="M 72.756387 180.148 
L 72.756387 27.6 
" clip-path="url(#p0ad3780cbe)" style="fill: none; stroke: #cccccc; stroke-linecap: round"/>
     </g>
     <g id="text_1">
      <!-- $\mathdefault{10^{0}}$ -->
      <g style="fill: #262626" transform="translate(63.956387 197.246438) scale(0.1 -0.1)">
       <defs>
        <path id="DejaVuSans-31" d="M 794 531 
L 1825 531 
L 1825 4091 
L 703 3866 
L 703 4441 
L 1819 4666 
L 2450 4666 
L 2450 531 
L 3481 531 
L 3481 0 
L 794 0 
L 794 531 
z
" transform="scale(0.015625)"/>
        <path id="DejaVuSans-30" d="M 2034 4250 
Q 1547 4250 1301 3770 
Q 1056 3291 1056 2328 
Q 1056 1369 1301 889 
Q 1547 409 2034 409 
Q 2525 409 2770 889 
Q 3016 1369 3016 2328 
Q 3016 3291 2770 3770 
Q 2525 4250 2034 4250 
z
M 2034 4750 
Q 2819 4750 3233 4129 
Q 3647 3509 3647 2328 
Q 3647 1150 3233 529 
Q 2819 -91 2034 -91 
Q 1250 -91 836 529 
Q 422 1150 422 2328 
Q 422 3509 836 4129 
Q 1250 4750 2034 4750 
z
" transform="scale(0.015625)"/>
       </defs>
       <use xlink:href="#DejaVuSans-31" transform="translate(0 0.765625)"/>
       <use xlink:href="#DejaVuSans-30" transform="translate(63.623047 0.765625)"/>
       <use xlink:href="#DejaVuSans-30" transform="translate(128.203125 39.046875) scale(0.7)"/>
      </g>
     </g>
    </g>
    <g id="xtick_2">
     <g id="line2d_2">
      <path d="M 115.051497 180.148 
L 115.051497 27.6 
" clip-path="url(#p0ad3780cbe)" style="fill: none; stroke: #cccccc; stroke-linecap: round"/>
     </g>
     <g id="text_2">
      <!-- $\mathdefault{10^{1}}$ -->
      <g style="fill: #262626" transform="translate(106.251497 197.246438) scale(0.1 -0.1)">
       <use xlink:href="#DejaVuSans-31" transform="translate(0 0.684375)"/>
       <use xlink:href="#DejaVuSans-30" transform="translate(63.623047 0.684375)"/>
       <use xlink:href="#DejaVuSans-31" transform="translate(128.203125 38.965625) scale(0.7)"/>
      </g>
     </g>
    </g>
    <g id="xtick_3">
     <g id="line2d_3">
      <path d="M 157.346608 180.148 
L 157.346608 27.6 
" clip-path="url(#p0ad3780cbe)" style="fill: none; stroke: #cccccc; stroke-linecap: round"/>
     </g>
     <g id="text_3">
      <!-- $\mathdefault{10^{2}}$ -->
      <g style="fill: #262626" transform="translate(148.546608 197.246438) scale(0.1 -0.1)">
       <defs>
        <path id="DejaVuSans-32" d="M 1228 531 
L 3431 531 
L 3431 0 
L 469 0 
L 469 531 
Q 828 903 1448 1529 
Q 2069 2156 2228 2338 
Q 2531 2678 2651 2914 
Q 2772 3150 2772 3378 
Q 2772 3750 2511 3984 
Q 2250 4219 1831 4219 
Q 1534 4219 1204 4116 
Q 875 4013 500 3803 
L 500 4441 
Q 881 4594 1212 4672 
Q 1544 4750 1819 4750 
Q 2544 4750 2975 4387 
Q 3406 4025 3406 3419 
Q 3406 3131 3298 2873 
Q 3191 2616 2906 2266 
Q 2828 2175 2409 1742 
Q 1991 1309 1228 531 
z
" transform="scale(0.015625)"/>
       </defs>
       <use xlink:href="#DejaVuSans-31" transform="translate(0 0.765625)"/>
       <use xlink:href="#DejaVuSans-30" transform="translate(63.623047 0.765625)"/>
       <use xlink:href="#DejaVuSans-32" transform="translate(128.203125 39.046875) scale(0.7)"/>
      </g>
     </g>
    </g>
    <g id="xtick_4">
     <g id="line2d_4">
      <path d="M 199.641718 180.148 
L 199.641718 27.6 
" clip-path="url(#p0ad3780cbe)" style="fill: none; stroke: #cccccc; stroke-linecap: round"/>
     </g>
     <g id="text_4">
      <!-- $\mathdefault{10^{3}}$ -->
      <g style="fill: #262626" transform="translate(190.841718 197.246438) scale(0.1 -0.1)">
       <defs>
        <path id="DejaVuSans-33" d="M 2597 2516 
Q 3050 2419 3304 2112 
Q 3559 1806 3559 1356 
Q 3559 666 3084 287 
Q 2609 -91 1734 -91 
Q 1441 -91 1130 -33 
Q 819 25 488 141 
L 488 750 
Q 750 597 1062 519 
Q 1375 441 1716 441 
Q 2309 441 2620 675 
Q 2931 909 2931 1356 
Q 2931 1769 2642 2001 
Q 2353 2234 1838 2234 
L 1294 2234 
L 1294 2753 
L 1863 2753 
Q 2328 2753 2575 2939 
Q 2822 3125 2822 3475 
Q 2822 3834 2567 4026 
Q 2313 4219 1838 4219 
Q 1578 4219 1281 4162 
Q 984 4106 628 3988 
L 628 4550 
Q 988 4650 1302 4700 
Q 1616 4750 1894 4750 
Q 2613 4750 3031 4423 
Q 3450 4097 3450 3541 
Q 3450 3153 3228 2886 
Q 3006 2619 2597 2516 
z
" transform="scale(0.015625)"/>
       </defs>
       <use xlink:href="#DejaVuSans-31" transform="translate(0 0.765625)"/>
       <use xlink:href="#DejaVuSans-30" transform="translate(63.623047 0.765625)"/>
       <use xlink:href="#DejaVuSans-33" transform="translate(128.203125 39.046875) scale(0.7)"/>
      </g>
     </g>
    </g>
    <g id="xtick_5">
     <g id="line2d_5">
      <path d="M 241.936828 180.148 
L 241.936828 27.6 
" clip-path="url(#p0ad3780cbe)" style="fill: none; stroke: #cccccc; stroke-linecap: round"/>
     </g>
     <g id="text_5">
      <!-- $\mathdefault{10^{4}}$ -->
      <g style="fill: #262626" transform="translate(233.136828 197.246438) scale(0.1 -0.1)">
       <defs>
        <path id="DejaVuSans-34" d="M 2419 4116 
L 825 1625 
L 2419 1625 
L 2419 4116 
z
M 2253 4666 
L 3047 4666 
L 3047 1625 
L 3713 1625 
L 3713 1100 
L 3047 1100 
L 3047 0 
L 2419 0 
L 2419 1100 
L 313 1100 
L 313 1709 
L 2253 4666 
z
" transform="scale(0.015625)"/>
       </defs>
       <use xlink:href="#DejaVuSans-31" transform="translate(0 0.684375)"/>
       <use xlink:href="#DejaVuSans-30" transform="translate(63.623047 0.684375)"/>
       <use xlink:href="#DejaVuSans-34" transform="translate(128.203125 38.965625) scale(0.7)"/>
      </g>
     </g>
    </g>
    <g id="xtick_6">
     <g id="line2d_6">
      <path d="M 284.231938 180.148 
L 284.231938 27.6 
" clip-path="url(#p0ad3780cbe)" style="fill: none; stroke: #cccccc; stroke-linecap: round"/>
     </g>
     <g id="text_6">
      <!-- $\mathdefault{10^{5}}$ -->
      <g style="fill: #262626" transform="translate(275.431938 197.246438) scale(0.1 -0.1)">
       <defs>
        <path id="DejaVuSans-35" d="M 691 4666 
L 3169 4666 
L 3169 4134 
L 1269 4134 
L 1269 2991 
Q 1406 3038 1543 3061 
Q 1681 3084 1819 3084 
Q 2600 3084 3056 2656 
Q 3513 2228 3513 1497 
Q 3513 744 3044 326 
Q 2575 -91 1722 -91 
Q 1428 -91 1123 -41 
Q 819 9 494 109 
L 494 744 
Q 775 591 1075 516 
Q 1375 441 1709 441 
Q 2250 441 2565 725 
Q 2881 1009 2881 1497 
Q 2881 1984 2565 2268 
Q 2250 2553 1709 2553 
Q 1456 2553 1204 2497 
Q 953 2441 691 2322 
L 691 4666 
z
" transform="scale(0.015625)"/>
       </defs>
       <use xlink:href="#DejaVuSans-31" transform="translate(0 0.684375)"/>
       <use xlink:href="#DejaVuSans-30" transform="translate(63.623047 0.684375)"/>
       <use xlink:href="#DejaVuSans-35" transform="translate(128.203125 38.965625) scale(0.7)"/>
      </g>
     </g>
    </g>
    <g id="xtick_7">
     <g id="line2d_7">
      <path d="M 326.527048 180.148 
L 326.527048 27.6 
" clip-path="url(#p0ad3780cbe)" style="fill: none; stroke: #cccccc; stroke-linecap: round"/>
     </g>
     <g id="text_7">
      <!-- $\mathdefault{10^{6}}$ -->
      <g style="fill: #262626" transform="translate(317.727048 197.246438) scale(0.1 -0.1)">
       <defs>
        <path id="DejaVuSans-36" d="M 2113 2584 
Q 1688 2584 1439 2293 
Q 1191 2003 1191 1497 
Q 1191 994 1439 701 
Q 1688 409 2113 409 
Q 2538 409 2786 701 
Q 3034 994 3034 1497 
Q 3034 2003 2786 2293 
Q 2538 2584 2113 2584 
z
M 3366 4563 
L 3366 3988 
Q 3128 4100 2886 4159 
Q 2644 4219 2406 4219 
Q 1781 4219 1451 3797 
Q 1122 3375 1075 2522 
Q 1259 2794 1537 2939 
Q 1816 3084 2150 3084 
Q 2853 3084 3261 2657 
Q 3669 2231 3669 1497 
Q 3669 778 3244 343 
Q 2819 -91 2113 -91 
Q 1303 -91 875 529 
Q 447 1150 447 2328 
Q 447 3434 972 4092 
Q 1497 4750 2381 4750 
Q 2619 4750 2861 4703 
Q 3103 4656 3366 4563 
z
" transform="scale(0.015625)"/>
       </defs>
       <use xlink:href="#DejaVuSans-31" transform="translate(0 0.765625)"/>
       <use xlink:href="#DejaVuSans-30" transform="translate(63.623047 0.765625)"/>
       <use xlink:href="#DejaVuSans-36" transform="translate(128.203125 39.046875) scale(0.7)"/>
      </g>
     </g>
    </g>
    <g id="xtick_8"/>
    <g id="xtick_9"/>
    <g id="xtick_10"/>
    <g id="xtick_11"/>
    <g id="xtick_12"/>
    <g id="xtick_13"/>
    <g id="xtick_14"/>
    <g id="xtick_15"/>
    <g id="xtick_16"/>
    <g id="xtick_17"/>
    <g id="xtick_18"/>
    <g id="xtick_19"/>
    <g id="xtick_20"/>
    <g id="xtick_21"/>
    <g id="xtick_22"/>
    <g id="xtick_23"/>
    <g id="xtick_24"/>
    <g id="xtick_25"/>
    <g id="xtick_26"/>
    <g id="xtick_27"/>
    <g id="xtick_28"/>
    <g id="xtick_29"/>
    <g id="xtick_30"/>
    <g id="xtick_31"/>
    <g id="xtick_32"/>
    <g id="xtick_33"/>
    <g id="xtick_34"/>
    <g id="xtick_35"/>
    <g id="xtick_36"/>
    <g id="xtick_37"/>
    <g id="xtick_38"/>
    <g id="xtick_39"/>
    <g id="xtick_40"/>
    <g id="xtick_41"/>
    <g id="xtick_42"/>
    <g id="xtick_43"/>
    <g id="xtick_44"/>
    <g id="xtick_45"/>
    <g id="xtick_46"/>
    <g id="xtick_47"/>
    <g id="xtick_48"/>
    <g id="xtick_49"/>
    <g id="xtick_50"/>
    <g id="xtick_51"/>
    <g id="xtick_52"/>
    <g id="xtick_53"/>
    <g id="xtick_54"/>
    <g id="xtick_55"/>
    <g id="xtick_56"/>
    <g id="xtick_57"/>
    <g id="xtick_58"/>
    <g id="xtick_59"/>
    <g id="xtick_60"/>
    <g id="xtick_61"/>
    <g id="xtick_62"/>
    <g id="xtick_63"/>
    <g id="xtick_64"/>
    <g id="xtick_65"/>
    <g id="xtick_66"/>
    <g id="xtick_67"/>
   </g>
   <g id="matplotlib.axis_2">
    <g id="ytick_1">
     <g id="line2d_8">
      <path d="M 58.751081 118.65126 
L 366.867824 118.65126 
" clip-path="url(#p0ad3780cbe)" style="fill: none; stroke: #cccccc; stroke-linecap: round"/>
     </g>
     <g id="text_8">
      <!-- $\mathdefault{10^{2}}$ -->
      <g style="fill: #262626" transform="translate(28.131081 123.210323) scale(0.12 -0.12)">
       <use xlink:href="#DejaVuSans-31" transform="translate(0 0.765625)"/>
       <use xlink:href="#DejaVuSans-30" transform="translate(63.623047 0.765625)"/>
       <use xlink:href="#DejaVuSans-32" transform="translate(128.203125 39.046875) scale(0.7)"/>
      </g>
     </g>
    </g>
    <g id="ytick_2">
     <g id="line2d_9">
      <path d="M 58.751081 43.254628 
L 366.867824 43.254628 
" clip-path="url(#p0ad3780cbe)" style="fill: none; stroke: #cccccc; stroke-linecap: round"/>
     </g>
     <g id="text_9">
      <!-- $\mathdefault{10^{3}}$ -->
      <g style="fill: #262626" transform="translate(28.131081 47.813691) scale(0.12 -0.12)">
       <use xlink:href="#DejaVuSans-31" transform="translate(0 0.765625)"/>
       <use xlink:href="#DejaVuSans-30" transform="translate(63.623047 0.765625)"/>
       <use xlink:href="#DejaVuSans-33" transform="translate(128.203125 39.046875) scale(0.7)"/>
      </g>
     </g>
    </g>
    <g id="ytick_3"/>
    <g id="ytick_4"/>
    <g id="ytick_5"/>
    <g id="ytick_6"/>
    <g id="ytick_7"/>
    <g id="ytick_8"/>
    <g id="ytick_9"/>
    <g id="ytick_10"/>
    <g id="ytick_11"/>
    <g id="ytick_12"/>
    <g id="ytick_13"/>
    <g id="ytick_14"/>
    <g id="ytick_15"/>
    <g id="ytick_16"/>
    <g id="ytick_17"/>
    <g id="ytick_18"/>
    <g id="text_10">
     <!-- latency us (logscale) -->
     <g style="fill: #262626" transform="translate(21.635456 165.945875) rotate(-90) scale(0.12 -0.12)">
      <defs>
       <path id="DejaVuSans-6c" d="M 603 4863 
L 1178 4863 
L 1178 0 
L 603 0 
L 603 4863 
z
" transform="scale(0.015625)"/>
       <path id="DejaVuSans-61" d="M 2194 1759 
Q 1497 1759 1228 1600 
Q 959 1441 959 1056 
Q 959 750 1161 570 
Q 1363 391 1709 391 
Q 2188 391 2477 730 
Q 2766 1069 2766 1631 
L 2766 1759 
L 2194 1759 
z
M 3341 1997 
L 3341 0 
L 2766 0 
L 2766 531 
Q 2569 213 2275 61 
Q 1981 -91 1556 -91 
Q 1019 -91 701 211 
Q 384 513 384 1019 
Q 384 1609 779 1909 
Q 1175 2209 1959 2209 
L 2766 2209 
L 2766 2266 
Q 2766 2663 2505 2880 
Q 2244 3097 1772 3097 
Q 1472 3097 1187 3025 
Q 903 2953 641 2809 
L 641 3341 
Q 956 3463 1253 3523 
Q 1550 3584 1831 3584 
Q 2591 3584 2966 3190 
Q 3341 2797 3341 1997 
z
" transform="scale(0.015625)"/>
       <path id="DejaVuSans-74" d="M 1172 4494 
L 1172 3500 
L 2356 3500 
L 2356 3053 
L 1172 3053 
L 1172 1153 
Q 1172 725 1289 603 
Q 1406 481 1766 481 
L 2356 481 
L 2356 0 
L 1766 0 
Q 1100 0 847 248 
Q 594 497 594 1153 
L 594 3053 
L 172 3053 
L 172 3500 
L 594 3500 
L 594 4494 
L 1172 4494 
z
" transform="scale(0.015625)"/>
       <path id="DejaVuSans-65" d="M 3597 1894 
L 3597 1613 
L 953 1613 
Q 991 1019 1311 708 
Q 1631 397 2203 397 
Q 2534 397 2845 478 
Q 3156 559 3463 722 
L 3463 178 
Q 3153 47 2828 -22 
Q 2503 -91 2169 -91 
Q 1331 -91 842 396 
Q 353 884 353 1716 
Q 353 2575 817 3079 
Q 1281 3584 2069 3584 
Q 2775 3584 3186 3129 
Q 3597 2675 3597 1894 
z
M 3022 2063 
Q 3016 2534 2758 2815 
Q 2500 3097 2075 3097 
Q 1594 3097 1305 2825 
Q 1016 2553 972 2059 
L 3022 2063 
z
" transform="scale(0.015625)"/>
       <path id="DejaVuSans-6e" d="M 3513 2113 
L 3513 0 
L 2938 0 
L 2938 2094 
Q 2938 2591 2744 2837 
Q 2550 3084 2163 3084 
Q 1697 3084 1428 2787 
Q 1159 2491 1159 1978 
L 1159 0 
L 581 0 
L 581 3500 
L 1159 3500 
L 1159 2956 
Q 1366 3272 1645 3428 
Q 1925 3584 2291 3584 
Q 2894 3584 3203 3211 
Q 3513 2838 3513 2113 
z
" transform="scale(0.015625)"/>
       <path id="DejaVuSans-63" d="M 3122 3366 
L 3122 2828 
Q 2878 2963 2633 3030 
Q 2388 3097 2138 3097 
Q 1578 3097 1268 2742 
Q 959 2388 959 1747 
Q 959 1106 1268 751 
Q 1578 397 2138 397 
Q 2388 397 2633 464 
Q 2878 531 3122 666 
L 3122 134 
Q 2881 22 2623 -34 
Q 2366 -91 2075 -91 
Q 1284 -91 818 406 
Q 353 903 353 1747 
Q 353 2603 823 3093 
Q 1294 3584 2113 3584 
Q 2378 3584 2631 3529 
Q 2884 3475 3122 3366 
z
" transform="scale(0.015625)"/>
       <path id="DejaVuSans-79" d="M 2059 -325 
Q 1816 -950 1584 -1140 
Q 1353 -1331 966 -1331 
L 506 -1331 
L 506 -850 
L 844 -850 
Q 1081 -850 1212 -737 
Q 1344 -625 1503 -206 
L 1606 56 
L 191 3500 
L 800 3500 
L 1894 763 
L 2988 3500 
L 3597 3500 
L 2059 -325 
z
" transform="scale(0.015625)"/>
       <path id="DejaVuSans-20" transform="scale(0.015625)"/>
       <path id="DejaVuSans-75" d="M 544 1381 
L 544 3500 
L 1119 3500 
L 1119 1403 
Q 1119 906 1312 657 
Q 1506 409 1894 409 
Q 2359 409 2629 706 
Q 2900 1003 2900 1516 
L 2900 3500 
L 3475 3500 
L 3475 0 
L 2900 0 
L 2900 538 
Q 2691 219 2414 64 
Q 2138 -91 1772 -91 
Q 1169 -91 856 284 
Q 544 659 544 1381 
z
M 1991 3584 
L 1991 3584 
z
" transform="scale(0.015625)"/>
       <path id="DejaVuSans-73" d="M 2834 3397 
L 2834 2853 
Q 2591 2978 2328 3040 
Q 2066 3103 1784 3103 
Q 1356 3103 1142 2972 
Q 928 2841 928 2578 
Q 928 2378 1081 2264 
Q 1234 2150 1697 2047 
L 1894 2003 
Q 2506 1872 2764 1633 
Q 3022 1394 3022 966 
Q 3022 478 2636 193 
Q 2250 -91 1575 -91 
Q 1294 -91 989 -36 
Q 684 19 347 128 
L 347 722 
Q 666 556 975 473 
Q 1284 391 1588 391 
Q 1994 391 2212 530 
Q 2431 669 2431 922 
Q 2431 1156 2273 1281 
Q 2116 1406 1581 1522 
L 1381 1569 
Q 847 1681 609 1914 
Q 372 2147 372 2553 
Q 372 3047 722 3315 
Q 1072 3584 1716 3584 
Q 2034 3584 2315 3537 
Q 2597 3491 2834 3397 
z
" transform="scale(0.015625)"/>
       <path id="DejaVuSans-28" d="M 1984 4856 
Q 1566 4138 1362 3434 
Q 1159 2731 1159 2009 
Q 1159 1288 1364 580 
Q 1569 -128 1984 -844 
L 1484 -844 
Q 1016 -109 783 600 
Q 550 1309 550 2009 
Q 550 2706 781 3412 
Q 1013 4119 1484 4856 
L 1984 4856 
z
" transform="scale(0.015625)"/>
       <path id="DejaVuSans-6f" d="M 1959 3097 
Q 1497 3097 1228 2736 
Q 959 2375 959 1747 
Q 959 1119 1226 758 
Q 1494 397 1959 397 
Q 2419 397 2687 759 
Q 2956 1122 2956 1747 
Q 2956 2369 2687 2733 
Q 2419 3097 1959 3097 
z
M 1959 3584 
Q 2709 3584 3137 3096 
Q 3566 2609 3566 1747 
Q 3566 888 3137 398 
Q 2709 -91 1959 -91 
Q 1206 -91 779 398 
Q 353 888 353 1747 
Q 353 2609 779 3096 
Q 1206 3584 1959 3584 
z
" transform="scale(0.015625)"/>
       <path id="DejaVuSans-67" d="M 2906 1791 
Q 2906 2416 2648 2759 
Q 2391 3103 1925 3103 
Q 1463 3103 1205 2759 
Q 947 2416 947 1791 
Q 947 1169 1205 825 
Q 1463 481 1925 481 
Q 2391 481 2648 825 
Q 2906 1169 2906 1791 
z
M 3481 434 
Q 3481 -459 3084 -895 
Q 2688 -1331 1869 -1331 
Q 1566 -1331 1297 -1286 
Q 1028 -1241 775 -1147 
L 775 -588 
Q 1028 -725 1275 -790 
Q 1522 -856 1778 -856 
Q 2344 -856 2625 -561 
Q 2906 -266 2906 331 
L 2906 616 
Q 2728 306 2450 153 
Q 2172 0 1784 0 
Q 1141 0 747 490 
Q 353 981 353 1791 
Q 353 2603 747 3093 
Q 1141 3584 1784 3584 
Q 2172 3584 2450 3431 
Q 2728 3278 2906 2969 
L 2906 3500 
L 3481 3500 
L 3481 434 
z
" transform="scale(0.015625)"/>
       <path id="DejaVuSans-29" d="M 513 4856 
L 1013 4856 
Q 1481 4119 1714 3412 
Q 1947 2706 1947 2009 
Q 1947 1309 1714 600 
Q 1481 -109 1013 -844 
L 513 -844 
Q 928 -128 1133 580 
Q 1338 1288 1338 2009 
Q 1338 2731 1133 3434 
Q 928 4138 513 4856 
z
" transform="scale(0.015625)"/>
      </defs>
      <use xlink:href="#DejaVuSans-6c"/>
      <use xlink:href="#DejaVuSans-61" x="27.783203"/>
      <use xlink:href="#DejaVuSans-74" x="89.0625"/>
      <use xlink:href="#DejaVuSans-65" x="128.271484"/>
      <use xlink:href="#DejaVuSans-6e" x="189.794922"/>
      <use xlink:href="#DejaVuSans-63" x="253.173828"/>
      <use xlink:href="#DejaVuSans-79" x="308.154297"/>
      <use xlink:href="#DejaVuSans-20" x="367.333984"/>
      <use xlink:href="#DejaVuSans-75" x="399.121094"/>
      <use xlink:href="#DejaVuSans-73" x="462.5"/>
      <use xlink:href="#DejaVuSans-20" x="514.599609"/>
      <use xlink:href="#DejaVuSans-28" x="546.386719"/>
      <use xlink:href="#DejaVuSans-6c" x="585.400391"/>
      <use xlink:href="#DejaVuSans-6f" x="613.183594"/>
      <use xlink:href="#DejaVuSans-67" x="674.365234"/>
      <use xlink:href="#DejaVuSans-73" x="737.841797"/>
      <use xlink:href="#DejaVuSans-63" x="789.941406"/>
      <use xlink:href="#DejaVuSans-61" x="844.921875"/>
      <use xlink:href="#DejaVuSans-6c" x="906.201172"/>
      <use xlink:href="#DejaVuSans-65" x="933.984375"/>
      <use xlink:href="#DejaVuSans-29" x="995.507812"/>
     </g>
    </g>
   </g>
   <g id="PolyCollection_1">
    <path d="M -42222.353786 172.589168 
L -42222.353786 173.214 
L 72.756387 173.089889 
L 85.488484 173.106727 
L 98.220581 173.113637 
L 110.952678 173.010135 
L 123.684775 172.955068 
L 136.416871 172.98259 
L 149.148968 172.975708 
L 161.881065 172.718646 
L 174.613162 170.600254 
L 187.345259 170.193171 
L 200.077356 169.822322 
L 212.809452 168.3198 
L 225.541549 166.545006 
L 238.273646 163.429535 
L 251.005743 150.374686 
L 263.73784 146.851817 
L 276.469936 119.293411 
L 289.202033 111.340904 
L 301.93413 101.899212 
L 314.666227 90.293039 
L 327.398324 76.389674 
L 340.130421 58.686422 
L 352.862517 38.343322 
L 352.862517 35.347164 
L 352.862517 35.347164 
L 340.130421 54.951401 
L 327.398324 73.326308 
L 314.666227 88.480961 
L 301.93413 100.506754 
L 289.202033 110.48521 
L 276.469936 118.88192 
L 263.73784 144.993462 
L 251.005743 149.352895 
L 238.273646 162.757781 
L 225.541549 165.926034 
L 212.809452 167.707683 
L 200.077356 169.27035 
L 187.345259 169.703784 
L 174.613162 170.06384 
L 161.881065 172.1399 
L 149.148968 172.379007 
L 136.416871 172.419578 
L 123.684775 172.490699 
L 110.952678 172.571489 
L 98.220581 172.504263 
L 85.488484 172.480529 
L 72.756387 172.385765 
L -42222.353786 172.589168 
z
" clip-path="url(#p0ad3780cbe)" style="fill: #edd1cb; fill-opacity: 0.2; stroke: #edd1cb; stroke-opacity: 0.2"/>
   </g>
   <g id="PolyCollection_2">
    <path d="M -42222.353786 172.852173 
L -42222.353786 173.038827 
L 72.756387 172.997636 
L 85.488484 172.94968 
L 98.220581 172.930653 
L 110.952678 172.963175 
L 123.684775 172.943602 
L 136.416871 172.942958 
L 149.148968 172.857086 
L 161.881065 172.678814 
L 174.613162 170.583814 
L 187.345259 170.258707 
L 200.077356 169.858545 
L 212.809452 168.170894 
L 225.541549 166.636343 
L 238.273646 163.733574 
L 251.005743 151.016474 
L 263.73784 147.48633 
L 276.469936 119.40038 
L 289.202033 112.197884 
L 301.93413 102.680959 
L 314.666227 91.242551 
L 327.398324 77.975069 
L 340.130421 60.775563 
L 352.862517 40.078085 
L 352.862517 38.077846 
L 352.862517 38.077846 
L 340.130421 58.880604 
L 327.398324 76.469203 
L 314.666227 90.181466 
L 301.93413 99.940371 
L 289.202033 111.705462 
L 276.469936 119.198757 
L 263.73784 145.931162 
L 251.005743 150.269545 
L 238.273646 163.460388 
L 225.541549 166.170079 
L 212.809452 167.786774 
L 200.077356 169.610283 
L 187.345259 170.01296 
L 174.613162 170.351572 
L 161.881065 172.511123 
L 149.148968 172.68603 
L 136.416871 172.776966 
L 123.684775 172.780615 
L 110.952678 172.80874 
L 98.220581 172.775744 
L 85.488484 172.780035 
L 72.756387 172.81117 
L -42222.353786 172.852173 
z
" clip-path="url(#p0ad3780cbe)" style="fill: #ebcac5; fill-opacity: 0.2; stroke: #ebcac5; stroke-opacity: 0.2"/>
   </g>
   <g id="PolyCollection_3">
    <path d="M -42222.353786 172.872978 
L -42222.353786 173.10722 
L 72.756387 173.059751 
L 85.488484 173.033318 
L 98.220581 172.979779 
L 110.952678 172.99636 
L 123.684775 172.969948 
L 136.416871 172.976092 
L 149.148968 172.905504 
L 161.881065 172.666684 
L 174.613162 170.45612 
L 187.345259 170.112589 
L 200.077356 169.803242 
L 212.809452 167.965693 
L 225.541549 166.118445 
L 238.273646 162.840155 
L 251.005743 150.756994 
L 263.73784 147.014143 
L 276.469936 118.974337 
L 289.202033 110.21163 
L 301.93413 100.199129 
L 314.666227 87.424865 
L 327.398324 72.427644 
L 340.130421 54.093967 
L 352.862517 35.712186 
L 352.862517 35.206893 
L 352.862517 35.206893 
L 340.130421 53.359635 
L 327.398324 71.735621 
L 314.666227 86.640658 
L 301.93413 99.018734 
L 289.202033 109.621918 
L 276.469936 118.022726 
L 263.73784 144.802378 
L 251.005743 149.787475 
L 238.273646 162.612654 
L 225.541549 165.896407 
L 212.809452 167.718213 
L 200.077356 169.588639 
L 187.345259 169.89987 
L 174.613162 170.232109 
L 161.881065 172.376307 
L 149.148968 172.49359 
L 136.416871 172.792253 
L 123.684775 172.786724 
L 110.952678 172.768432 
L 98.220581 172.773286 
L 85.488484 172.80142 
L 72.756387 172.846664 
L -42222.353786 172.872978 
z
" clip-path="url(#p0ad3780cbe)" style="fill: #e5bcbb; fill-opacity: 0.2; stroke: #e5bcbb; stroke-opacity: 0.2"/>
   </g>
   <g id="PolyCollection_4">
    <path d="M -42222.353786 168.344115 
L -42222.353786 170.62495 
L 72.756387 170.587898 
L 85.488484 170.531864 
L 98.220581 170.523924 
L 110.952678 170.589584 
L 123.684775 170.549077 
L 136.416871 170.472197 
L 149.148968 170.46642 
L 161.881065 170.246366 
L 174.613162 168.111097 
L 187.345259 167.829581 
L 200.077356 167.569004 
L 212.809452 165.577776 
L 225.541549 163.905047 
L 238.273646 160.574216 
L 251.005743 148.91191 
L 263.73784 144.635609 
L 276.469936 117.382646 
L 289.202033 108.793668 
L 301.93413 99.017184 
L 314.666227 86.412337 
L 327.398324 71.36772 
L 340.130421 53.079932 
L 352.862517 35.228826 
L 352.862517 34.611901 
L 352.862517 34.611901 
L 340.130421 52.270315 
L 327.398324 70.620744 
L 314.666227 85.719225 
L 301.93413 97.763266 
L 289.202033 107.307257 
L 276.469936 115.838812 
L 263.73784 142.649095 
L 251.005743 147.57985 
L 238.273646 158.463721 
L 225.541549 161.777376 
L 212.809452 163.569772 
L 200.077356 165.408092 
L 187.345259 165.747247 
L 174.613162 165.984945 
L 161.881065 167.998216 
L 149.148968 168.206331 
L 136.416871 168.309128 
L 123.684775 168.19948 
L 110.952678 168.296808 
L 98.220581 168.207898 
L 85.488484 168.236861 
L 72.756387 168.303787 
L -42222.353786 168.344115 
z
" clip-path="url(#p0ad3780cbe)" style="fill: #d89faa; fill-opacity: 0.2; stroke: #d89faa; stroke-opacity: 0.2"/>
   </g>
   <g id="PolyCollection_5">
    <path d="M -42222.353786 166.959884 
L -42222.353786 168.651438 
L 72.756387 168.590637 
L 85.488484 168.586567 
L 98.220581 168.522064 
L 110.952678 168.52201 
L 123.684775 168.535944 
L 136.416871 168.550716 
L 149.148968 168.481356 
L 161.881065 168.200356 
L 174.613162 166.178029 
L 187.345259 165.915247 
L 200.077356 165.690348 
L 212.809452 163.979996 
L 225.541549 162.259269 
L 238.273646 159.039127 
L 251.005743 148.018708 
L 263.73784 143.464192 
L 276.469936 116.304388 
L 289.202033 108.296604 
L 301.93413 98.824141 
L 314.666227 86.565473 
L 327.398324 72.20447 
L 340.130421 54.311656 
L 352.862517 35.64445 
L 352.862517 34.9892 
L 352.862517 34.9892 
L 340.130421 53.359871 
L 327.398324 71.221949 
L 314.666227 85.859118 
L 301.93413 97.978307 
L 289.202033 107.319566 
L 276.469936 115.165596 
L 263.73784 141.612767 
L 251.005743 147.04581 
L 238.273646 157.474676 
L 225.541549 160.755655 
L 212.809452 162.383265 
L 200.077356 164.148814 
L 187.345259 164.334701 
L 174.613162 164.592151 
L 161.881065 166.616476 
L 149.148968 166.730563 
L 136.416871 166.85431 
L 123.684775 166.852781 
L 110.952678 166.910603 
L 98.220581 166.844003 
L 85.488484 166.910475 
L 72.756387 166.870599 
L -42222.353786 166.959884 
z
" clip-path="url(#p0ad3780cbe)" style="fill: #ae6b91; fill-opacity: 0.2; stroke: #ae6b91; stroke-opacity: 0.2"/>
   </g>
   <g id="PolyCollection_6">
    <path d="M -42222.353786 166.092429 
L -42222.353786 167.484877 
L 72.756387 167.335987 
L 85.488484 167.351288 
L 98.220581 167.250818 
L 110.952678 167.246188 
L 123.684775 167.339026 
L 136.416871 167.252327 
L 149.148968 167.173511 
L 161.881065 167.016729 
L 174.613162 165.322728 
L 187.345259 165.035774 
L 200.077356 164.695712 
L 212.809452 162.832153 
L 225.541549 161.126895 
L 238.273646 157.876421 
L 251.005743 147.467215 
L 263.73784 143.731375 
L 276.469936 115.673062 
L 289.202033 107.707873 
L 301.93413 98.248856 
L 314.666227 86.431682 
L 327.398324 71.958129 
L 340.130421 54.122063 
L 352.862517 35.155184 
L 352.862517 34.534 
L 352.862517 34.534 
L 340.130421 53.288361 
L 327.398324 71.171305 
L 314.666227 85.813126 
L 301.93413 97.6506 
L 289.202033 106.958766 
L 276.469936 114.771876 
L 263.73784 141.406362 
L 251.005743 146.872071 
L 238.273646 156.657816 
L 225.541549 159.933516 
L 212.809452 161.60952 
L 200.077356 163.446594 
L 187.345259 163.799843 
L 174.613162 164.130259 
L 161.881065 165.679835 
L 149.148968 165.817304 
L 136.416871 165.944953 
L 123.684775 165.971733 
L 110.952678 165.94639 
L 98.220581 165.965768 
L 85.488484 166.002011 
L 72.756387 165.991001 
L -42222.353786 166.092429 
z
" clip-path="url(#p0ad3780cbe)" style="fill: #2d1e3e; fill-opacity: 0.2; stroke: #2d1e3e; stroke-opacity: 0.2"/>
   </g>
   <g id="line2d_10">
    <path d="M -1 172.746239 
L 72.756387 172.74597 
L 85.488484 172.783578 
L 98.220581 172.807532 
L 110.952678 172.79042 
L 123.684775 172.749387 
L 136.416871 172.72206 
L 149.148968 172.694756 
L 161.881065 172.40943 
L 174.613162 170.310324 
L 187.345259 169.966391 
L 200.077356 169.545366 
L 212.809452 167.999008 
L 225.541549 166.235458 
L 238.273646 163.081759 
L 251.005743 149.838155 
L 263.73784 145.909458 
L 276.469936 119.025365 
L 289.202033 110.86299 
L 301.93413 101.112874 
L 314.666227 89.184856 
L 327.398324 74.569934 
L 340.130421 56.450995 
L 352.862517 36.78249 
" clip-path="url(#p0ad3780cbe)" style="fill: none; stroke: #edd1cb; stroke-width: 1.5; stroke-linecap: round"/>
   </g>
   <g id="line2d_11">
    <path d="M -1 172.901275 
L 72.756387 172.901197 
L 85.488484 172.861372 
L 98.220581 172.857086 
L 110.952678 172.885261 
L 123.684775 172.865659 
L 136.416871 172.869333 
L 149.148968 172.773317 
L 161.881065 172.602165 
L 174.613162 170.466349 
L 187.345259 170.136216 
L 200.077356 169.741394 
L 212.809452 168.000486 
L 225.541549 166.437438 
L 238.273646 163.596235 
L 251.005743 150.625972 
L 263.73784 146.624388 
L 276.469936 119.299064 
L 289.202033 111.933623 
L 301.93413 101.639832 
L 314.666227 90.70257 
L 327.398324 77.170475 
L 340.130421 59.767404 
L 352.862517 39.086042 
" clip-path="url(#p0ad3780cbe)" style="fill: none; stroke: #ebcac5; stroke-width: 1.5; stroke-linecap: round"/>
   </g>
   <g id="line2d_12">
    <path d="M -1 172.947887 
L 72.756387 172.947823 
L 85.488484 172.911007 
L 98.220581 172.875458 
L 110.952678 172.8871 
L 123.684775 172.873008 
L 136.416871 172.884036 
L 149.148968 172.744628 
L 161.881065 172.536622 
L 174.613162 170.347049 
L 187.345259 170.010252 
L 200.077356 169.69967 
L 212.809452 167.843564 
L 225.541549 166.011957 
L 238.273646 162.730627 
L 251.005743 150.261 
L 263.73784 145.94292 
L 276.469936 118.603815 
L 289.202033 109.949317 
L 301.93413 99.73583 
L 314.666227 87.071535 
L 327.398324 72.08254 
L 340.130421 53.694403 
L 352.862517 35.451058 
" clip-path="url(#p0ad3780cbe)" style="fill: none; stroke: #e5bcbb; stroke-width: 1.5; stroke-linecap: round"/>
   </g>
   <g id="line2d_13">
    <path d="M -1 169.433951 
L 72.756387 169.433891 
L 85.488484 169.420659 
L 98.220581 169.392557 
L 110.952678 169.393659 
L 123.684775 169.386499 
L 136.416871 169.37769 
L 149.148968 169.321036 
L 161.881065 169.124879 
L 174.613162 167.050554 
L 187.345259 166.775849 
L 200.077356 166.454049 
L 212.809452 164.553692 
L 225.541549 162.795852 
L 238.273646 159.524324 
L 251.005743 148.260826 
L 263.73784 143.595175 
L 276.469936 116.615556 
L 289.202033 108.083077 
L 301.93413 98.403276 
L 314.666227 86.077249 
L 327.398324 71.005443 
L 340.130421 52.713827 
L 352.862517 34.902742 
" clip-path="url(#p0ad3780cbe)" style="fill: none; stroke: #d89faa; stroke-width: 1.5; stroke-linecap: round"/>
   </g>
   <g id="line2d_14">
    <path d="M -1 167.642599 
L 72.756387 167.64246 
L 85.488484 167.656037 
L 98.220581 167.648725 
L 110.952678 167.625757 
L 123.684775 167.639327 
L 136.416871 167.611148 
L 149.148968 167.528838 
L 161.881065 167.379852 
L 174.613162 165.324284 
L 187.345259 165.085836 
L 200.077356 164.833295 
L 212.809452 163.1203 
L 225.541549 161.428504 
L 238.273646 158.156911 
L 251.005743 147.489751 
L 263.73784 142.51789 
L 276.469936 115.687259 
L 289.202033 107.77534 
L 301.93413 98.369267 
L 314.666227 86.185976 
L 327.398324 71.702239 
L 340.130421 53.829836 
L 352.862517 35.315222 
" clip-path="url(#p0ad3780cbe)" style="fill: none; stroke: #ae6b91; stroke-width: 1.5; stroke-linecap: round"/>
   </g>
   <g id="line2d_15">
    <path d="M -1 166.586392 
L 72.756387 166.586232 
L 85.488484 166.574101 
L 98.220581 166.528147 
L 110.952678 166.525119 
L 123.684775 166.532184 
L 136.416871 166.518056 
L 149.148968 166.418823 
L 161.881065 166.24176 
L 174.613162 164.644563 
L 187.345259 164.350503 
L 200.077356 163.99641 
L 212.809452 162.163951 
L 225.541549 160.492778 
L 238.273646 157.180935 
L 251.005743 147.162135 
L 263.73784 142.427117 
L 276.469936 115.151146 
L 289.202033 107.295974 
L 301.93413 97.937665 
L 314.666227 86.114158 
L 327.398324 71.547761 
L 340.130421 53.729424 
L 352.862517 34.849412 
" clip-path="url(#p0ad3780cbe)" style="fill: none; stroke: #2d1e3e; stroke-width: 1.5; stroke-linecap: round"/>
   </g>
   <g id="line2d_16"/>
   <g id="line2d_17"/>
   <g id="line2d_18"/>
   <g id="line2d_19"/>
   <g id="line2d_20"/>
   <g id="line2d_21"/>
   <g id="patch_3">
    <path d="M 58.751081 180.148 
L 58.751081 27.6 
" style="fill: none; stroke: #cccccc; stroke-width: 1.25; stroke-linejoin: miter; stroke-linecap: square"/>
   </g>
   <g id="patch_4">
    <path d="M 366.867824 180.148 
L 366.867824 27.6 
" style="fill: none; stroke: #cccccc; stroke-width: 1.25; stroke-linejoin: miter; stroke-linecap: square"/>
   </g>
   <g id="patch_5">
    <path d="M 58.751081 180.148 
L 366.867824 180.148 
" style="fill: none; stroke: #cccccc; stroke-width: 1.25; stroke-linejoin: miter; stroke-linecap: square"/>
   </g>
   <g id="patch_6">
    <path d="M 58.751081 27.6 
L 366.867824 27.6 
" style="fill: none; stroke: #cccccc; stroke-width: 1.25; stroke-linejoin: miter; stroke-linecap: square"/>
   </g>
   <g id="text_11">
    <!-- OSU Latency -->
    <g style="fill: #262626" transform="translate(174.262265 21.6) scale(0.12 -0.12)">
     <defs>
      <path id="DejaVuSans-4f" d="M 2522 4238 
Q 1834 4238 1429 3725 
Q 1025 3213 1025 2328 
Q 1025 1447 1429 934 
Q 1834 422 2522 422 
Q 3209 422 3611 934 
Q 4013 1447 4013 2328 
Q 4013 3213 3611 3725 
Q 3209 4238 2522 4238 
z
M 2522 4750 
Q 3503 4750 4090 4092 
Q 4678 3434 4678 2328 
Q 4678 1225 4090 567 
Q 3503 -91 2522 -91 
Q 1538 -91 948 565 
Q 359 1222 359 2328 
Q 359 3434 948 4092 
Q 1538 4750 2522 4750 
z
" transform="scale(0.015625)"/>
      <path id="DejaVuSans-53" d="M 3425 4513 
L 3425 3897 
Q 3066 4069 2747 4153 
Q 2428 4238 2131 4238 
Q 1616 4238 1336 4038 
Q 1056 3838 1056 3469 
Q 1056 3159 1242 3001 
Q 1428 2844 1947 2747 
L 2328 2669 
Q 3034 2534 3370 2195 
Q 3706 1856 3706 1288 
Q 3706 609 3251 259 
Q 2797 -91 1919 -91 
Q 1588 -91 1214 -16 
Q 841 59 441 206 
L 441 856 
Q 825 641 1194 531 
Q 1563 422 1919 422 
Q 2459 422 2753 634 
Q 3047 847 3047 1241 
Q 3047 1584 2836 1778 
Q 2625 1972 2144 2069 
L 1759 2144 
Q 1053 2284 737 2584 
Q 422 2884 422 3419 
Q 422 4038 858 4394 
Q 1294 4750 2059 4750 
Q 2388 4750 2728 4690 
Q 3069 4631 3425 4513 
z
" transform="scale(0.015625)"/>
      <path id="DejaVuSans-55" d="M 556 4666 
L 1191 4666 
L 1191 1831 
Q 1191 1081 1462 751 
Q 1734 422 2344 422 
Q 2950 422 3222 751 
Q 3494 1081 3494 1831 
L 3494 4666 
L 4128 4666 
L 4128 1753 
Q 4128 841 3676 375 
Q 3225 -91 2344 -91 
Q 1459 -91 1007 375 
Q 556 841 556 1753 
L 556 4666 
z
" transform="scale(0.015625)"/>
      <path id="DejaVuSans-4c" d="M 628 4666 
L 1259 4666 
L 1259 531 
L 3531 531 
L 3531 0 
L 628 0 
L 628 4666 
z
" transform="scale(0.015625)"/>
     </defs>
     <use xlink:href="#DejaVuSans-4f"/>
     <use xlink:href="#DejaVuSans-53" x="78.710938"/>
     <use xlink:href="#DejaVuSans-55" x="142.1875"/>
     <use xlink:href="#DejaVuSans-20" x="215.380859"/>
     <use xlink:href="#DejaVuSans-4c" x="247.167969"/>
     <use xlink:href="#DejaVuSans-61" x="302.880859"/>
     <use xlink:href="#DejaVuSans-74" x="364.160156"/>
     <use xlink:href="#DejaVuSans-65" x="403.369141"/>
     <use xlink:href="#DejaVuSans-6e" x="464.892578"/>
     <use xlink:href="#DejaVuSans-63" x="528.271484"/>
     <use xlink:href="#DejaVuSans-79" x="583.251953"/>
    </g>
   </g>
  </g>
  <g id="axes_2">
   <g id="patch_7">
    <path d="M 425.765155 180.148 
L 733.881898 180.148 
L 733.881898 27.6 
L 425.765155 27.6 
z
" style="fill: #ffffff"/>
   </g>
   <g id="matplotlib.axis_3">
    <g id="xtick_68">
     <g id="line2d_22">
      <path d="M 460.341581 180.148 
L 460.341581 27.6 
" clip-path="url(#p51efe0eeb6)" style="fill: none; stroke: #cccccc; stroke-linecap: round"/>
     </g>
     <g id="text_12">
      <!-- $\mathdefault{10^{1}}$ -->
      <g style="fill: #262626" transform="translate(451.541581 197.246438) scale(0.1 -0.1)">
       <use xlink:href="#DejaVuSans-31" transform="translate(0 0.684375)"/>
       <use xlink:href="#DejaVuSans-30" transform="translate(63.623047 0.684375)"/>
       <use xlink:href="#DejaVuSans-31" transform="translate(128.203125 38.965625) scale(0.7)"/>
      </g>
     </g>
    </g>
    <g id="xtick_69">
     <g id="line2d_23">
      <path d="M 512.035605 180.148 
L 512.035605 27.6 
" clip-path="url(#p51efe0eeb6)" style="fill: none; stroke: #cccccc; stroke-linecap: round"/>
     </g>
     <g id="text_13">
      <!-- $\mathdefault{10^{2}}$ -->
      <g style="fill: #262626" transform="translate(503.235605 197.246438) scale(0.1 -0.1)">
       <use xlink:href="#DejaVuSans-31" transform="translate(0 0.765625)"/>
       <use xlink:href="#DejaVuSans-30" transform="translate(63.623047 0.765625)"/>
       <use xlink:href="#DejaVuSans-32" transform="translate(128.203125 39.046875) scale(0.7)"/>
      </g>
     </g>
    </g>
    <g id="xtick_70">
     <g id="line2d_24">
      <path d="M 563.729628 180.148 
L 563.729628 27.6 
" clip-path="url(#p51efe0eeb6)" style="fill: none; stroke: #cccccc; stroke-linecap: round"/>
     </g>
     <g id="text_14">
      <!-- $\mathdefault{10^{3}}$ -->
      <g style="fill: #262626" transform="translate(554.929628 197.246438) scale(0.1 -0.1)">
       <use xlink:href="#DejaVuSans-31" transform="translate(0 0.765625)"/>
       <use xlink:href="#DejaVuSans-30" transform="translate(63.623047 0.765625)"/>
       <use xlink:href="#DejaVuSans-33" transform="translate(128.203125 39.046875) scale(0.7)"/>
      </g>
     </g>
    </g>
    <g id="xtick_71">
     <g id="line2d_25">
      <path d="M 615.423652 180.148 
L 615.423652 27.6 
" clip-path="url(#p51efe0eeb6)" style="fill: none; stroke: #cccccc; stroke-linecap: round"/>
     </g>
     <g id="text_15">
      <!-- $\mathdefault{10^{4}}$ -->
      <g style="fill: #262626" transform="translate(606.623652 197.246438) scale(0.1 -0.1)">
       <use xlink:href="#DejaVuSans-31" transform="translate(0 0.684375)"/>
       <use xlink:href="#DejaVuSans-30" transform="translate(63.623047 0.684375)"/>
       <use xlink:href="#DejaVuSans-34" transform="translate(128.203125 38.965625) scale(0.7)"/>
      </g>
     </g>
    </g>
    <g id="xtick_72">
     <g id="line2d_26">
      <path d="M 667.117676 180.148 
L 667.117676 27.6 
" clip-path="url(#p51efe0eeb6)" style="fill: none; stroke: #cccccc; stroke-linecap: round"/>
     </g>
     <g id="text_16">
      <!-- $\mathdefault{10^{5}}$ -->
      <g style="fill: #262626" transform="translate(658.317676 197.246438) scale(0.1 -0.1)">
       <use xlink:href="#DejaVuSans-31" transform="translate(0 0.684375)"/>
       <use xlink:href="#DejaVuSans-30" transform="translate(63.623047 0.684375)"/>
       <use xlink:href="#DejaVuSans-35" transform="translate(128.203125 38.965625) scale(0.7)"/>
      </g>
     </g>
    </g>
    <g id="xtick_73">
     <g id="line2d_27">
      <path d="M 718.811699 180.148 
L 718.811699 27.6 
" clip-path="url(#p51efe0eeb6)" style="fill: none; stroke: #cccccc; stroke-linecap: round"/>
     </g>
     <g id="text_17">
      <!-- $\mathdefault{10^{6}}$ -->
      <g style="fill: #262626" transform="translate(710.011699 197.246438) scale(0.1 -0.1)">
       <use xlink:href="#DejaVuSans-31" transform="translate(0 0.765625)"/>
       <use xlink:href="#DejaVuSans-30" transform="translate(63.623047 0.765625)"/>
       <use xlink:href="#DejaVuSans-36" transform="translate(128.203125 39.046875) scale(0.7)"/>
      </g>
     </g>
    </g>
    <g id="xtick_74"/>
    <g id="xtick_75"/>
    <g id="xtick_76"/>
    <g id="xtick_77"/>
    <g id="xtick_78"/>
    <g id="xtick_79"/>
    <g id="xtick_80"/>
    <g id="xtick_81"/>
    <g id="xtick_82"/>
    <g id="xtick_83"/>
    <g id="xtick_84"/>
    <g id="xtick_85"/>
    <g id="xtick_86"/>
    <g id="xtick_87"/>
    <g id="xtick_88"/>
    <g id="xtick_89"/>
    <g id="xtick_90"/>
    <g id="xtick_91"/>
    <g id="xtick_92"/>
    <g id="xtick_93"/>
    <g id="xtick_94"/>
    <g id="xtick_95"/>
    <g id="xtick_96"/>
    <g id="xtick_97"/>
    <g id="xtick_98"/>
    <g id="xtick_99"/>
    <g id="xtick_100"/>
    <g id="xtick_101"/>
    <g id="xtick_102"/>
    <g id="xtick_103"/>
    <g id="xtick_104"/>
    <g id="xtick_105"/>
    <g id="xtick_106"/>
    <g id="xtick_107"/>
    <g id="xtick_108"/>
    <g id="xtick_109"/>
    <g id="xtick_110"/>
    <g id="xtick_111"/>
    <g id="xtick_112"/>
    <g id="xtick_113"/>
    <g id="xtick_114"/>
    <g id="xtick_115"/>
    <g id="xtick_116"/>
    <g id="xtick_117"/>
    <g id="xtick_118"/>
    <g id="xtick_119"/>
    <g id="xtick_120"/>
   </g>
   <g id="matplotlib.axis_4">
    <g id="ytick_19">
     <g id="line2d_28">
      <path d="M 425.765155 169.66506 
L 733.881898 169.66506 
" clip-path="url(#p51efe0eeb6)" style="fill: none; stroke: #cccccc; stroke-linecap: round"/>
     </g>
     <g id="text_18">
      <!-- $\mathdefault{10^{2}}$ -->
      <g style="fill: #262626" transform="translate(395.145155 174.224122) scale(0.12 -0.12)">
       <use xlink:href="#DejaVuSans-31" transform="translate(0 0.765625)"/>
       <use xlink:href="#DejaVuSans-30" transform="translate(63.623047 0.765625)"/>
       <use xlink:href="#DejaVuSans-32" transform="translate(128.203125 39.046875) scale(0.7)"/>
      </g>
     </g>
    </g>
    <g id="ytick_20">
     <g id="line2d_29">
      <path d="M 425.765155 101.87335 
L 733.881898 101.87335 
" clip-path="url(#p51efe0eeb6)" style="fill: none; stroke: #cccccc; stroke-linecap: round"/>
     </g>
     <g id="text_19">
      <!-- $\mathdefault{10^{3}}$ -->
      <g style="fill: #262626" transform="translate(395.145155 106.432413) scale(0.12 -0.12)">
       <use xlink:href="#DejaVuSans-31" transform="translate(0 0.765625)"/>
       <use xlink:href="#DejaVuSans-30" transform="translate(63.623047 0.765625)"/>
       <use xlink:href="#DejaVuSans-33" transform="translate(128.203125 39.046875) scale(0.7)"/>
      </g>
     </g>
    </g>
    <g id="ytick_21">
     <g id="line2d_30">
      <path d="M 425.765155 34.081641 
L 733.881898 34.081641 
" clip-path="url(#p51efe0eeb6)" style="fill: none; stroke: #cccccc; stroke-linecap: round"/>
     </g>
     <g id="text_20">
      <!-- $\mathdefault{10^{4}}$ -->
      <g style="fill: #262626" transform="translate(395.145155 38.640704) scale(0.12 -0.12)">
       <use xlink:href="#DejaVuSans-31" transform="translate(0 0.684375)"/>
       <use xlink:href="#DejaVuSans-30" transform="translate(63.623047 0.684375)"/>
       <use xlink:href="#DejaVuSans-34" transform="translate(128.203125 38.965625) scale(0.7)"/>
      </g>
     </g>
    </g>
    <g id="ytick_22"/>
    <g id="ytick_23"/>
    <g id="ytick_24"/>
    <g id="ytick_25"/>
    <g id="ytick_26"/>
    <g id="ytick_27"/>
    <g id="ytick_28"/>
    <g id="ytick_29"/>
    <g id="ytick_30"/>
    <g id="ytick_31"/>
    <g id="ytick_32"/>
    <g id="ytick_33"/>
    <g id="ytick_34"/>
    <g id="ytick_35"/>
    <g id="ytick_36"/>
    <g id="ytick_37"/>
    <g id="ytick_38"/>
    <g id="ytick_39"/>
    <g id="text_21">
     <!-- avg latency us (logscale) -->
     <g style="fill: #262626" transform="translate(388.64953 178.889938) rotate(-90) scale(0.12 -0.12)">
      <defs>
       <path id="DejaVuSans-76" d="M 191 3500 
L 800 3500 
L 1894 563 
L 2988 3500 
L 3597 3500 
L 2284 0 
L 1503 0 
L 191 3500 
z
" transform="scale(0.015625)"/>
      </defs>
      <use xlink:href="#DejaVuSans-61"/>
      <use xlink:href="#DejaVuSans-76" x="61.279297"/>
      <use xlink:href="#DejaVuSans-67" x="120.458984"/>
      <use xlink:href="#DejaVuSans-20" x="183.935547"/>
      <use xlink:href="#DejaVuSans-6c" x="215.722656"/>
      <use xlink:href="#DejaVuSans-61" x="243.505859"/>
      <use xlink:href="#DejaVuSans-74" x="304.785156"/>
      <use xlink:href="#DejaVuSans-65" x="343.994141"/>
      <use xlink:href="#DejaVuSans-6e" x="405.517578"/>
      <use xlink:href="#DejaVuSans-63" x="468.896484"/>
      <use xlink:href="#DejaVuSans-79" x="523.876953"/>
      <use xlink:href="#DejaVuSans-20" x="583.056641"/>
      <use xlink:href="#DejaVuSans-75" x="614.84375"/>
      <use xlink:href="#DejaVuSans-73" x="678.222656"/>
      <use xlink:href="#DejaVuSans-20" x="730.322266"/>
      <use xlink:href="#DejaVuSans-28" x="762.109375"/>
      <use xlink:href="#DejaVuSans-6c" x="801.123047"/>
      <use xlink:href="#DejaVuSans-6f" x="828.90625"/>
      <use xlink:href="#DejaVuSans-67" x="890.087891"/>
      <use xlink:href="#DejaVuSans-73" x="953.564453"/>
      <use xlink:href="#DejaVuSans-63" x="1005.664062"/>
      <use xlink:href="#DejaVuSans-61" x="1060.644531"/>
      <use xlink:href="#DejaVuSans-6c" x="1121.923828"/>
      <use xlink:href="#DejaVuSans-65" x="1149.707031"/>
      <use xlink:href="#DejaVuSans-29" x="1211.230469"/>
     </g>
    </g>
   </g>
   <g id="PolyCollection_7">
    <defs>
     <path id="m243b367a3e" d="M 439.770461 -49.946764 
L 439.770461 -43.848677 
L 455.331913 -46.866537 
L 470.893365 -42.786 
L 486.454816 -43.943383 
L 502.016268 -44.696202 
L 517.57772 -45.389905 
L 533.139171 -45.710745 
L 548.700623 -46.691372 
L 564.262075 -46.811548 
L 579.823526 -51.961211 
L 595.384978 -138.600448 
L 610.94643 -138.960351 
L 626.507881 -139.273629 
L 642.069333 -139.486203 
L 657.630785 -139.938157 
L 673.192236 -140.577583 
L 688.753688 -142.839846 
L 704.31514 -144.509112 
L 719.876591 -150.371379 
L 719.876591 -180.951133 
L 719.876591 -180.951133 
L 704.31514 -181.158816 
L 688.753688 -181.422623 
L 673.192236 -181.401165 
L 657.630785 -181.466 
L 642.069333 -181.298969 
L 626.507881 -181.301542 
L 610.94643 -181.238899 
L 595.384978 -181.184822 
L 579.823526 -55.033168 
L 564.262075 -52.243452 
L 548.700623 -50.670958 
L 533.139171 -51.942722 
L 517.57772 -52.266062 
L 502.016268 -54.749644 
L 486.454816 -54.054701 
L 470.893365 -51.001129 
L 455.331913 -53.340891 
L 439.770461 -49.946764 
z
" style="stroke: #edd1cb; stroke-opacity: 0.2"/>
    </defs>
    <g clip-path="url(#p51efe0eeb6)">
     <use xlink:href="#m243b367a3e" x="0" y="216" style="fill: #edd1cb; fill-opacity: 0.2; stroke: #edd1cb; stroke-opacity: 0.2"/>
    </g>
   </g>
   <g id="PolyCollection_8">
    <defs>
     <path id="m23c096c6f7" d="M 439.770461 -51.410344 
L 439.770461 -44.750313 
L 455.331913 -45.279887 
L 470.893365 -44.134962 
L 486.454816 -45.317916 
L 502.016268 -43.486374 
L 517.57772 -44.168572 
L 533.139171 -45.227996 
L 548.700623 -49.513368 
L 564.262075 -49.879498 
L 579.823526 -52.191351 
L 595.384978 -92.154934 
L 610.94643 -92.60136 
L 626.507881 -96.355642 
L 642.069333 -97.905617 
L 657.630785 -97.078694 
L 673.192236 -100.989651 
L 688.753688 -107.187882 
L 704.31514 -117.682272 
L 719.876591 -134.118654 
L 719.876591 -170.042758 
L 719.876591 -170.042758 
L 704.31514 -168.551335 
L 688.753688 -167.658397 
L 673.192236 -169.126081 
L 657.630785 -167.676283 
L 642.069333 -167.441758 
L 626.507881 -167.310834 
L 610.94643 -166.996612 
L 595.384978 -167.140171 
L 579.823526 -60.987049 
L 564.262075 -58.856258 
L 548.700623 -51.054349 
L 533.139171 -49.159216 
L 517.57772 -50.652327 
L 502.016268 -54.912457 
L 486.454816 -54.718811 
L 470.893365 -48.113811 
L 455.331913 -48.130227 
L 439.770461 -51.410344 
z
" style="stroke: #ebcac5; stroke-opacity: 0.2"/>
    </defs>
    <g clip-path="url(#p51efe0eeb6)">
     <use xlink:href="#m23c096c6f7" x="0" y="216" style="fill: #ebcac5; fill-opacity: 0.2; stroke: #ebcac5; stroke-opacity: 0.2"/>
    </g>
   </g>
   <g id="PolyCollection_9">
    <defs>
     <path id="md3a567c736" d="M 439.770461 -78.243802 
L 439.770461 -72.78688 
L 455.331913 -71.177152 
L 470.893365 -76.388315 
L 486.454816 -70.921578 
L 502.016268 -75.724885 
L 517.57772 -77.683315 
L 533.139171 -74.446983 
L 548.700623 -73.500267 
L 564.262075 -75.669933 
L 579.823526 -90.947316 
L 595.384978 -91.996536 
L 610.94643 -96.420071 
L 626.507881 -112.969528 
L 642.069333 -116.713654 
L 657.630785 -112.906134 
L 673.192236 -114.785082 
L 688.753688 -118.674574 
L 704.31514 -128.03204 
L 719.876591 -140.249427 
L 719.876591 -146.56464 
L 719.876591 -146.56464 
L 704.31514 -134.738513 
L 688.753688 -126.084151 
L 673.192236 -124.453439 
L 657.630785 -115.640005 
L 642.069333 -119.534201 
L 626.507881 -122.631828 
L 610.94643 -102.128882 
L 595.384978 -99.849262 
L 579.823526 -95.276206 
L 564.262075 -84.607237 
L 548.700623 -81.962003 
L 533.139171 -84.136972 
L 517.57772 -84.239039 
L 502.016268 -84.525597 
L 486.454816 -81.706849 
L 470.893365 -84.818318 
L 455.331913 -79.842073 
L 439.770461 -78.243802 
z
" style="stroke: #e5bcbb; stroke-opacity: 0.2"/>
    </defs>
    <g clip-path="url(#p51efe0eeb6)">
     <use xlink:href="#md3a567c736" x="0" y="216" style="fill: #e5bcbb; fill-opacity: 0.2; stroke: #e5bcbb; stroke-opacity: 0.2"/>
    </g>
   </g>
   <g id="PolyCollection_10">
    <defs>
     <path id="mffe092a224" d="M 439.770461 -96.587315 
L 439.770461 -89.85462 
L 455.331913 -87.277263 
L 470.893365 -91.8608 
L 486.454816 -89.223297 
L 502.016268 -85.495781 
L 517.57772 -92.015509 
L 533.139171 -86.0775 
L 548.700623 -85.092533 
L 564.262075 -86.444957 
L 579.823526 -102.364411 
L 595.384978 -109.181448 
L 610.94643 -111.598004 
L 626.507881 -121.625358 
L 642.069333 -126.509869 
L 657.630785 -132.386532 
L 673.192236 -130.257734 
L 688.753688 -133.399242 
L 704.31514 -138.175667 
L 719.876591 -149.323346 
L 719.876591 -157.094089 
L 719.876591 -157.094089 
L 704.31514 -145.416025 
L 688.753688 -136.889199 
L 673.192236 -137.273965 
L 657.630785 -138.050393 
L 642.069333 -132.736261 
L 626.507881 -127.754215 
L 610.94643 -118.06722 
L 595.384978 -123.82856 
L 579.823526 -106.991882 
L 564.262075 -96.475567 
L 548.700623 -96.138624 
L 533.139171 -98.929406 
L 517.57772 -94.778417 
L 502.016268 -91.544703 
L 486.454816 -96.515434 
L 470.893365 -95.695765 
L 455.331913 -93.138088 
L 439.770461 -96.587315 
z
" style="stroke: #d89faa; stroke-opacity: 0.2"/>
    </defs>
    <g clip-path="url(#p51efe0eeb6)">
     <use xlink:href="#mffe092a224" x="0" y="216" style="fill: #d89faa; fill-opacity: 0.2; stroke: #d89faa; stroke-opacity: 0.2"/>
    </g>
   </g>
   <g id="PolyCollection_11">
    <defs>
     <path id="m64c222ab88" d="M 439.770461 -136.714309 
L 439.770461 -127.582584 
L 455.331913 -118.976265 
L 470.893365 -129.069039 
L 486.454816 -122.414067 
L 502.016268 -121.179719 
L 517.57772 -129.546999 
L 533.139171 -124.212761 
L 548.700623 -122.732139 
L 564.262075 -129.660614 
L 579.823526 -130.438158 
L 595.384978 -132.338356 
L 610.94643 -137.581115 
L 626.507881 -147.289971 
L 642.069333 -146.018634 
L 657.630785 -147.380621 
L 673.192236 -149.713392 
L 688.753688 -150.986019 
L 704.31514 -154.572799 
L 719.876591 -163.192227 
L 719.876591 -171.623841 
L 719.876591 -171.623841 
L 704.31514 -163.639926 
L 688.753688 -159.665499 
L 673.192236 -156.215823 
L 657.630785 -150.115614 
L 642.069333 -154.204278 
L 626.507881 -149.260229 
L 610.94643 -141.247167 
L 595.384978 -143.211656 
L 579.823526 -138.168225 
L 564.262075 -133.137025 
L 548.700623 -131.787665 
L 533.139171 -129.669368 
L 517.57772 -134.088789 
L 502.016268 -129.553171 
L 486.454816 -131.214287 
L 470.893365 -131.469703 
L 455.331913 -129.332149 
L 439.770461 -136.714309 
z
" style="stroke: #ae6b91; stroke-opacity: 0.2"/>
    </defs>
    <g clip-path="url(#p51efe0eeb6)">
     <use xlink:href="#m64c222ab88" x="0" y="216" style="fill: #ae6b91; fill-opacity: 0.2; stroke: #ae6b91; stroke-opacity: 0.2"/>
    </g>
   </g>
   <g id="PolyCollection_12">
    <defs>
     <path id="m7edba1351f" d="M 439.770461 -144.6867 
L 439.770461 -139.368043 
L 455.331913 -142.171286 
L 470.893365 -142.459879 
L 486.454816 -142.325272 
L 502.016268 -141.817709 
L 517.57772 -141.389873 
L 533.139171 -141.990492 
L 548.700623 -147.373712 
L 564.262075 -146.01379 
L 579.823526 -154.034476 
L 595.384978 -152.043892 
L 610.94643 -153.705938 
L 626.507881 -161.146263 
L 642.069333 -166.510561 
L 657.630785 -168.679139 
L 673.192236 -166.677245 
L 688.753688 -167.610581 
L 704.31514 -169.201944 
L 719.876591 -173.572781 
L 719.876591 -181.39251 
L 719.876591 -181.39251 
L 704.31514 -180.055754 
L 688.753688 -175.572881 
L 673.192236 -177.725511 
L 657.630785 -174.765301 
L 642.069333 -169.383297 
L 626.507881 -163.083315 
L 610.94643 -156.346616 
L 595.384978 -155.546029 
L 579.823526 -157.237559 
L 564.262075 -149.448502 
L 548.700623 -149.322563 
L 533.139171 -151.458505 
L 517.57772 -146.783002 
L 502.016268 -149.785842 
L 486.454816 -146.169709 
L 470.893365 -147.674057 
L 455.331913 -145.566269 
L 439.770461 -144.6867 
z
" style="stroke: #2d1e3e; stroke-opacity: 0.2"/>
    </defs>
    <g clip-path="url(#p51efe0eeb6)">
     <use xlink:href="#m7edba1351f" x="0" y="216" style="fill: #2d1e3e; fill-opacity: 0.2; stroke: #2d1e3e; stroke-opacity: 0.2"/>
    </g>
   </g>
   <g id="line2d_31">
    <path d="M 439.770461 168.982913 
L 455.331913 165.650778 
L 470.893365 169.67625 
L 486.454816 166.925431 
L 502.016268 166.900762 
L 517.57772 167.095998 
L 533.139171 167.03993 
L 548.700623 167.194916 
L 564.262075 166.593598 
L 579.823526 162.697657 
L 595.384978 48.965226 
L 610.94643 48.854246 
L 626.507881 48.774781 
L 642.069333 48.735603 
L 657.630785 48.527901 
L 673.192236 48.433257 
L 688.753688 47.692587 
L 704.31514 47.797361 
L 719.876591 46.493397 
" clip-path="url(#p51efe0eeb6)" style="fill: none; stroke: #edd1cb; stroke-width: 1.5; stroke-linecap: round"/>
   </g>
   <g id="line2d_32">
    <path d="M 439.770461 167.656028 
L 455.331913 169.200621 
L 470.893365 170.120791 
L 486.454816 166.068345 
L 502.016268 167.593945 
L 517.57772 169.107451 
L 533.139171 168.620386 
L 548.700623 165.737735 
L 564.262075 162.045462 
L 579.823526 159.996118 
L 595.384978 76.740335 
L 610.94643 76.80005 
L 626.507881 76.043201 
L 642.069333 75.73901 
L 657.630785 75.573476 
L 673.192236 73.848438 
L 688.753688 73.599242 
L 704.31514 70.082995 
L 719.876591 64.249652 
" clip-path="url(#p51efe0eeb6)" style="fill: none; stroke: #ebcac5; stroke-width: 1.5; stroke-linecap: round"/>
   </g>
   <g id="line2d_33">
    <path d="M 439.770461 140.222864 
L 455.331913 140.251471 
L 470.893365 135.373194 
L 486.454816 139.371648 
L 502.016268 135.872709 
L 517.57772 135.381095 
L 533.139171 136.415466 
L 548.700623 138.041644 
L 564.262075 136.043245 
L 579.823526 123.145057 
L 595.384978 120.657407 
L 610.94643 116.58737 
L 626.507881 98.781578 
L 642.069333 97.986659 
L 657.630785 101.569206 
L 673.192236 95.927405 
L 688.753688 93.851229 
L 704.31514 84.451665 
L 719.876591 72.301149 
" clip-path="url(#p51efe0eeb6)" style="fill: none; stroke: #e5bcbb; stroke-width: 1.5; stroke-linecap: round"/>
   </g>
   <g id="line2d_34">
    <path d="M 439.770461 122.711672 
L 455.331913 125.769905 
L 470.893365 122.227859 
L 486.454816 123.327534 
L 502.016268 127.111673 
L 517.57772 122.698291 
L 533.139171 122.777353 
L 548.700623 124.869388 
L 564.262075 125.042593 
L 579.823526 111.420733 
L 595.384978 100.516463 
L 610.94643 101.030833 
L 626.507881 91.948623 
L 642.069333 85.870516 
L 657.630785 80.02403 
L 673.192236 81.90865 
L 688.753688 80.579324 
L 704.31514 74.237723 
L 719.876591 62.325719 
" clip-path="url(#p51efe0eeb6)" style="fill: none; stroke: #d89faa; stroke-width: 1.5; stroke-linecap: round"/>
   </g>
   <g id="line2d_35">
    <path d="M 439.770461 83.83229 
L 455.331913 91.472766 
L 470.893365 85.706167 
L 486.454816 89.264725 
L 502.016268 90.794573 
L 517.57772 84.215211 
L 533.139171 89.368817 
L 548.700623 88.097158 
L 564.262075 84.34651 
L 579.823526 82.42087 
L 595.384978 76.674735 
L 610.94643 76.644451 
L 626.507881 67.750788 
L 642.069333 65.174762 
L 657.630785 67.283884 
L 673.192236 62.732327 
L 688.753688 60.262873 
L 704.31514 56.467672 
L 719.876591 48.447766 
" clip-path="url(#p51efe0eeb6)" style="fill: none; stroke: #ae6b91; stroke-width: 1.5; stroke-linecap: round"/>
   </g>
   <g id="line2d_36">
    <path d="M 439.770461 73.793075 
L 455.331913 72.307318 
L 470.893365 70.794228 
L 486.454816 71.598674 
L 502.016268 69.692696 
L 517.57772 71.790245 
L 533.139171 69.341986 
L 548.700623 67.642634 
L 564.262075 67.97429 
L 579.823526 60.392297 
L 595.384978 62.152997 
L 610.94643 61.102325 
L 626.507881 53.858798 
L 642.069333 47.917541 
L 657.630785 44.120308 
L 673.192236 43.283387 
L 688.753688 43.901081 
L 704.31514 41.061519 
L 719.876591 38.178364 
" clip-path="url(#p51efe0eeb6)" style="fill: none; stroke: #2d1e3e; stroke-width: 1.5; stroke-linecap: round"/>
   </g>
   <g id="line2d_37"/>
   <g id="line2d_38"/>
   <g id="line2d_39"/>
   <g id="line2d_40"/>
   <g id="line2d_41"/>
   <g id="line2d_42"/>
   <g id="patch_8">
    <path d="M 425.765155 180.148 
L 425.765155 27.6 
" style="fill: none; stroke: #cccccc; stroke-width: 1.25; stroke-linejoin: miter; stroke-linecap: square"/>
   </g>
   <g id="patch_9">
    <path d="M 733.881898 180.148 
L 733.881898 27.6 
" style="fill: none; stroke: #cccccc; stroke-width: 1.25; stroke-linejoin: miter; stroke-linecap: square"/>
   </g>
   <g id="patch_10">
    <path d="M 425.765155 180.148 
L 733.881898 180.148 
" style="fill: none; stroke: #cccccc; stroke-width: 1.25; stroke-linejoin: miter; stroke-linecap: square"/>
   </g>
   <g id="patch_11">
    <path d="M 425.765155 27.6 
L 733.881898 27.6 
" style="fill: none; stroke: #cccccc; stroke-width: 1.25; stroke-linejoin: miter; stroke-linecap: square"/>
   </g>
   <g id="text_22">
    <!-- OSU AllReduce -->
    <g style="fill: #262626" transform="translate(535.361651 21.6) scale(0.12 -0.12)">
     <defs>
      <path id="DejaVuSans-41" d="M 2188 4044 
L 1331 1722 
L 3047 1722 
L 2188 4044 
z
M 1831 4666 
L 2547 4666 
L 4325 0 
L 3669 0 
L 3244 1197 
L 1141 1197 
L 716 0 
L 50 0 
L 1831 4666 
z
" transform="scale(0.015625)"/>
      <path id="DejaVuSans-52" d="M 2841 2188 
Q 3044 2119 3236 1894 
Q 3428 1669 3622 1275 
L 4263 0 
L 3584 0 
L 2988 1197 
Q 2756 1666 2539 1819 
Q 2322 1972 1947 1972 
L 1259 1972 
L 1259 0 
L 628 0 
L 628 4666 
L 2053 4666 
Q 2853 4666 3247 4331 
Q 3641 3997 3641 3322 
Q 3641 2881 3436 2590 
Q 3231 2300 2841 2188 
z
M 1259 4147 
L 1259 2491 
L 2053 2491 
Q 2509 2491 2742 2702 
Q 2975 2913 2975 3322 
Q 2975 3731 2742 3939 
Q 2509 4147 2053 4147 
L 1259 4147 
z
" transform="scale(0.015625)"/>
      <path id="DejaVuSans-64" d="M 2906 2969 
L 2906 4863 
L 3481 4863 
L 3481 0 
L 2906 0 
L 2906 525 
Q 2725 213 2448 61 
Q 2172 -91 1784 -91 
Q 1150 -91 751 415 
Q 353 922 353 1747 
Q 353 2572 751 3078 
Q 1150 3584 1784 3584 
Q 2172 3584 2448 3432 
Q 2725 3281 2906 2969 
z
M 947 1747 
Q 947 1113 1208 752 
Q 1469 391 1925 391 
Q 2381 391 2643 752 
Q 2906 1113 2906 1747 
Q 2906 2381 2643 2742 
Q 2381 3103 1925 3103 
Q 1469 3103 1208 2742 
Q 947 2381 947 1747 
z
" transform="scale(0.015625)"/>
     </defs>
     <use xlink:href="#DejaVuSans-4f"/>
     <use xlink:href="#DejaVuSans-53" x="78.710938"/>
     <use xlink:href="#DejaVuSans-55" x="142.1875"/>
     <use xlink:href="#DejaVuSans-20" x="215.380859"/>
     <use xlink:href="#DejaVuSans-41" x="247.167969"/>
     <use xlink:href="#DejaVuSans-6c" x="315.576172"/>
     <use xlink:href="#DejaVuSans-6c" x="343.359375"/>
     <use xlink:href="#DejaVuSans-52" x="371.142578"/>
     <use xlink:href="#DejaVuSans-65" x="436.125"/>
     <use xlink:href="#DejaVuSans-64" x="497.648438"/>
     <use xlink:href="#DejaVuSans-75" x="561.125"/>
     <use xlink:href="#DejaVuSans-63" x="624.503906"/>
     <use xlink:href="#DejaVuSans-65" x="679.484375"/>
    </g>
   </g>
  </g>
  <g id="axes_3">
   <g id="patch_12">
    <path d="M 792.779229 180.148 
L 1100.895972 180.148 
L 1100.895972 27.6 
L 792.779229 27.6 
z
" style="fill: #ffffff"/>
   </g>
   <g id="matplotlib.axis_5">
    <g id="xtick_121">
     <g id="line2d_43">
      <path d="M 806.784535 180.148 
L 806.784535 27.6 
" clip-path="url(#p21906b98cc)" style="fill: none; stroke: #cccccc; stroke-linecap: round"/>
     </g>
     <g id="text_23">
      <!-- $\mathdefault{10^{0}}$ -->
      <g style="fill: #262626" transform="translate(797.984535 197.246438) scale(0.1 -0.1)">
       <use xlink:href="#DejaVuSans-31" transform="translate(0 0.765625)"/>
       <use xlink:href="#DejaVuSans-30" transform="translate(63.623047 0.765625)"/>
       <use xlink:href="#DejaVuSans-30" transform="translate(128.203125 39.046875) scale(0.7)"/>
      </g>
     </g>
    </g>
    <g id="xtick_122">
     <g id="line2d_44">
      <path d="M 849.079645 180.148 
L 849.079645 27.6 
" clip-path="url(#p21906b98cc)" style="fill: none; stroke: #cccccc; stroke-linecap: round"/>
     </g>
     <g id="text_24">
      <!-- $\mathdefault{10^{1}}$ -->
      <g style="fill: #262626" transform="translate(840.279645 197.246438) scale(0.1 -0.1)">
       <use xlink:href="#DejaVuSans-31" transform="translate(0 0.684375)"/>
       <use xlink:href="#DejaVuSans-30" transform="translate(63.623047 0.684375)"/>
       <use xlink:href="#DejaVuSans-31" transform="translate(128.203125 38.965625) scale(0.7)"/>
      </g>
     </g>
    </g>
    <g id="xtick_123">
     <g id="line2d_45">
      <path d="M 891.374756 180.148 
L 891.374756 27.6 
" clip-path="url(#p21906b98cc)" style="fill: none; stroke: #cccccc; stroke-linecap: round"/>
     </g>
     <g id="text_25">
      <!-- $\mathdefault{10^{2}}$ -->
      <g style="fill: #262626" transform="translate(882.574756 197.246438) scale(0.1 -0.1)">
       <use xlink:href="#DejaVuSans-31" transform="translate(0 0.765625)"/>
       <use xlink:href="#DejaVuSans-30" transform="translate(63.623047 0.765625)"/>
       <use xlink:href="#DejaVuSans-32" transform="translate(128.203125 39.046875) scale(0.7)"/>
      </g>
     </g>
    </g>
    <g id="xtick_124">
     <g id="line2d_46">
      <path d="M 933.669866 180.148 
L 933.669866 27.6 
" clip-path="url(#p21906b98cc)" style="fill: none; stroke: #cccccc; stroke-linecap: round"/>
     </g>
     <g id="text_26">
      <!-- $\mathdefault{10^{3}}$ -->
      <g style="fill: #262626" transform="translate(924.869866 197.246438) scale(0.1 -0.1)">
       <use xlink:href="#DejaVuSans-31" transform="translate(0 0.765625)"/>
       <use xlink:href="#DejaVuSans-30" transform="translate(63.623047 0.765625)"/>
       <use xlink:href="#DejaVuSans-33" transform="translate(128.203125 39.046875) scale(0.7)"/>
      </g>
     </g>
    </g>
    <g id="xtick_125">
     <g id="line2d_47">
      <path d="M 975.964976 180.148 
L 975.964976 27.6 
" clip-path="url(#p21906b98cc)" style="fill: none; stroke: #cccccc; stroke-linecap: round"/>
     </g>
     <g id="text_27">
      <!-- $\mathdefault{10^{4}}$ -->
      <g style="fill: #262626" transform="translate(967.164976 197.246438) scale(0.1 -0.1)">
       <use xlink:href="#DejaVuSans-31" transform="translate(0 0.684375)"/>
       <use xlink:href="#DejaVuSans-30" transform="translate(63.623047 0.684375)"/>
       <use xlink:href="#DejaVuSans-34" transform="translate(128.203125 38.965625) scale(0.7)"/>
      </g>
     </g>
    </g>
    <g id="xtick_126">
     <g id="line2d_48">
      <path d="M 1018.260086 180.148 
L 1018.260086 27.6 
" clip-path="url(#p21906b98cc)" style="fill: none; stroke: #cccccc; stroke-linecap: round"/>
     </g>
     <g id="text_28">
      <!-- $\mathdefault{10^{5}}$ -->
      <g style="fill: #262626" transform="translate(1009.460086 197.246438) scale(0.1 -0.1)">
       <use xlink:href="#DejaVuSans-31" transform="translate(0 0.684375)"/>
       <use xlink:href="#DejaVuSans-30" transform="translate(63.623047 0.684375)"/>
       <use xlink:href="#DejaVuSans-35" transform="translate(128.203125 38.965625) scale(0.7)"/>
      </g>
     </g>
    </g>
    <g id="xtick_127">
     <g id="line2d_49">
      <path d="M 1060.555196 180.148 
L 1060.555196 27.6 
" clip-path="url(#p21906b98cc)" style="fill: none; stroke: #cccccc; stroke-linecap: round"/>
     </g>
     <g id="text_29">
      <!-- $\mathdefault{10^{6}}$ -->
      <g style="fill: #262626" transform="translate(1051.755196 197.246438) scale(0.1 -0.1)">
       <use xlink:href="#DejaVuSans-31" transform="translate(0 0.765625)"/>
       <use xlink:href="#DejaVuSans-30" transform="translate(63.623047 0.765625)"/>
       <use xlink:href="#DejaVuSans-36" transform="translate(128.203125 39.046875) scale(0.7)"/>
      </g>
     </g>
    </g>
    <g id="xtick_128"/>
    <g id="xtick_129"/>
    <g id="xtick_130"/>
    <g id="xtick_131"/>
    <g id="xtick_132"/>
    <g id="xtick_133"/>
    <g id="xtick_134"/>
    <g id="xtick_135"/>
    <g id="xtick_136"/>
    <g id="xtick_137"/>
    <g id="xtick_138"/>
    <g id="xtick_139"/>
    <g id="xtick_140"/>
    <g id="xtick_141"/>
    <g id="xtick_142"/>
    <g id="xtick_143"/>
    <g id="xtick_144"/>
    <g id="xtick_145"/>
    <g id="xtick_146"/>
    <g id="xtick_147"/>
    <g id="xtick_148"/>
    <g id="xtick_149"/>
    <g id="xtick_150"/>
    <g id="xtick_151"/>
    <g id="xtick_152"/>
    <g id="xtick_153"/>
    <g id="xtick_154"/>
    <g id="xtick_155"/>
    <g id="xtick_156"/>
    <g id="xtick_157"/>
    <g id="xtick_158"/>
    <g id="xtick_159"/>
    <g id="xtick_160"/>
    <g id="xtick_161"/>
    <g id="xtick_162"/>
    <g id="xtick_163"/>
    <g id="xtick_164"/>
    <g id="xtick_165"/>
    <g id="xtick_166"/>
    <g id="xtick_167"/>
    <g id="xtick_168"/>
    <g id="xtick_169"/>
    <g id="xtick_170"/>
    <g id="xtick_171"/>
    <g id="xtick_172"/>
    <g id="xtick_173"/>
    <g id="xtick_174"/>
    <g id="xtick_175"/>
    <g id="xtick_176"/>
    <g id="xtick_177"/>
    <g id="xtick_178"/>
    <g id="xtick_179"/>
    <g id="xtick_180"/>
    <g id="xtick_181"/>
    <g id="xtick_182"/>
    <g id="xtick_183"/>
    <g id="xtick_184"/>
    <g id="xtick_185"/>
    <g id="xtick_186"/>
    <g id="xtick_187"/>
   </g>
   <g id="matplotlib.axis_6">
    <g id="ytick_40">
     <g id="line2d_50">
      <path d="M 792.779229 150.346655 
L 1100.895972 150.346655 
" clip-path="url(#p21906b98cc)" style="fill: none; stroke: #cccccc; stroke-linecap: round"/>
     </g>
     <g id="text_30">
      <!-- $\mathdefault{10^{0}}$ -->
      <g style="fill: #262626" transform="translate(762.159229 154.905717) scale(0.12 -0.12)">
       <use xlink:href="#DejaVuSans-31" transform="translate(0 0.765625)"/>
       <use xlink:href="#DejaVuSans-30" transform="translate(63.623047 0.765625)"/>
       <use xlink:href="#DejaVuSans-30" transform="translate(128.203125 39.046875) scale(0.7)"/>
      </g>
     </g>
    </g>
    <g id="ytick_41">
     <g id="line2d_51">
      <path d="M 792.779229 118.137556 
L 1100.895972 118.137556 
" clip-path="url(#p21906b98cc)" style="fill: none; stroke: #cccccc; stroke-linecap: round"/>
     </g>
     <g id="text_31">
      <!-- $\mathdefault{10^{1}}$ -->
      <g style="fill: #262626" transform="translate(762.159229 122.696619) scale(0.12 -0.12)">
       <use xlink:href="#DejaVuSans-31" transform="translate(0 0.684375)"/>
       <use xlink:href="#DejaVuSans-30" transform="translate(63.623047 0.684375)"/>
       <use xlink:href="#DejaVuSans-31" transform="translate(128.203125 38.965625) scale(0.7)"/>
      </g>
     </g>
    </g>
    <g id="ytick_42">
     <g id="line2d_52">
      <path d="M 792.779229 85.928458 
L 1100.895972 85.928458 
" clip-path="url(#p21906b98cc)" style="fill: none; stroke: #cccccc; stroke-linecap: round"/>
     </g>
     <g id="text_32">
      <!-- $\mathdefault{10^{2}}$ -->
      <g style="fill: #262626" transform="translate(762.159229 90.48752) scale(0.12 -0.12)">
       <use xlink:href="#DejaVuSans-31" transform="translate(0 0.765625)"/>
       <use xlink:href="#DejaVuSans-30" transform="translate(63.623047 0.765625)"/>
       <use xlink:href="#DejaVuSans-32" transform="translate(128.203125 39.046875) scale(0.7)"/>
      </g>
     </g>
    </g>
    <g id="ytick_43">
     <g id="line2d_53">
      <path d="M 792.779229 53.719359 
L 1100.895972 53.719359 
" clip-path="url(#p21906b98cc)" style="fill: none; stroke: #cccccc; stroke-linecap: round"/>
     </g>
     <g id="text_33">
      <!-- $\mathdefault{10^{3}}$ -->
      <g style="fill: #262626" transform="translate(762.159229 58.278421) scale(0.12 -0.12)">
       <use xlink:href="#DejaVuSans-31" transform="translate(0 0.765625)"/>
       <use xlink:href="#DejaVuSans-30" transform="translate(63.623047 0.765625)"/>
       <use xlink:href="#DejaVuSans-33" transform="translate(128.203125 39.046875) scale(0.7)"/>
      </g>
     </g>
    </g>
    <g id="ytick_44"/>
    <g id="ytick_45"/>
    <g id="ytick_46"/>
    <g id="ytick_47"/>
    <g id="ytick_48"/>
    <g id="ytick_49"/>
    <g id="ytick_50"/>
    <g id="ytick_51"/>
    <g id="ytick_52"/>
    <g id="ytick_53"/>
    <g id="ytick_54"/>
    <g id="ytick_55"/>
    <g id="ytick_56"/>
    <g id="ytick_57"/>
    <g id="ytick_58"/>
    <g id="ytick_59"/>
    <g id="ytick_60"/>
    <g id="ytick_61"/>
    <g id="ytick_62"/>
    <g id="ytick_63"/>
    <g id="ytick_64"/>
    <g id="ytick_65"/>
    <g id="ytick_66"/>
    <g id="ytick_67"/>
    <g id="ytick_68"/>
    <g id="ytick_69"/>
    <g id="ytick_70"/>
    <g id="ytick_71"/>
    <g id="ytick_72"/>
    <g id="ytick_73"/>
    <g id="ytick_74"/>
    <g id="ytick_75"/>
    <g id="ytick_76"/>
    <g id="ytick_77"/>
    <g id="ytick_78"/>
    <g id="ytick_79"/>
    <g id="ytick_80"/>
    <g id="text_34">
     <!-- bandwidth mb s (logscale) -->
     <g style="fill: #262626" transform="translate(755.663604 183.298063) rotate(-90) scale(0.12 -0.12)">
      <defs>
       <path id="DejaVuSans-62" d="M 3116 1747 
Q 3116 2381 2855 2742 
Q 2594 3103 2138 3103 
Q 1681 3103 1420 2742 
Q 1159 2381 1159 1747 
Q 1159 1113 1420 752 
Q 1681 391 2138 391 
Q 2594 391 2855 752 
Q 3116 1113 3116 1747 
z
M 1159 2969 
Q 1341 3281 1617 3432 
Q 1894 3584 2278 3584 
Q 2916 3584 3314 3078 
Q 3713 2572 3713 1747 
Q 3713 922 3314 415 
Q 2916 -91 2278 -91 
Q 1894 -91 1617 61 
Q 1341 213 1159 525 
L 1159 0 
L 581 0 
L 581 4863 
L 1159 4863 
L 1159 2969 
z
" transform="scale(0.015625)"/>
       <path id="DejaVuSans-77" d="M 269 3500 
L 844 3500 
L 1563 769 
L 2278 3500 
L 2956 3500 
L 3675 769 
L 4391 3500 
L 4966 3500 
L 4050 0 
L 3372 0 
L 2619 2869 
L 1863 0 
L 1184 0 
L 269 3500 
z
" transform="scale(0.015625)"/>
       <path id="DejaVuSans-69" d="M 603 3500 
L 1178 3500 
L 1178 0 
L 603 0 
L 603 3500 
z
M 603 4863 
L 1178 4863 
L 1178 4134 
L 603 4134 
L 603 4863 
z
" transform="scale(0.015625)"/>
       <path id="DejaVuSans-68" d="M 3513 2113 
L 3513 0 
L 2938 0 
L 2938 2094 
Q 2938 2591 2744 2837 
Q 2550 3084 2163 3084 
Q 1697 3084 1428 2787 
Q 1159 2491 1159 1978 
L 1159 0 
L 581 0 
L 581 4863 
L 1159 4863 
L 1159 2956 
Q 1366 3272 1645 3428 
Q 1925 3584 2291 3584 
Q 2894 3584 3203 3211 
Q 3513 2838 3513 2113 
z
" transform="scale(0.015625)"/>
       <path id="DejaVuSans-6d" d="M 3328 2828 
Q 3544 3216 3844 3400 
Q 4144 3584 4550 3584 
Q 5097 3584 5394 3201 
Q 5691 2819 5691 2113 
L 5691 0 
L 5113 0 
L 5113 2094 
Q 5113 2597 4934 2840 
Q 4756 3084 4391 3084 
Q 3944 3084 3684 2787 
Q 3425 2491 3425 1978 
L 3425 0 
L 2847 0 
L 2847 2094 
Q 2847 2600 2669 2842 
Q 2491 3084 2119 3084 
Q 1678 3084 1418 2786 
Q 1159 2488 1159 1978 
L 1159 0 
L 581 0 
L 581 3500 
L 1159 3500 
L 1159 2956 
Q 1356 3278 1631 3431 
Q 1906 3584 2284 3584 
Q 2666 3584 2933 3390 
Q 3200 3197 3328 2828 
z
" transform="scale(0.015625)"/>
      </defs>
      <use xlink:href="#DejaVuSans-62"/>
      <use xlink:href="#DejaVuSans-61" x="63.476562"/>
      <use xlink:href="#DejaVuSans-6e" x="124.755859"/>
      <use xlink:href="#DejaVuSans-64" x="188.134766"/>
      <use xlink:href="#DejaVuSans-77" x="251.611328"/>
      <use xlink:href="#DejaVuSans-69" x="333.398438"/>
      <use xlink:href="#DejaVuSans-64" x="361.181641"/>
      <use xlink:href="#DejaVuSans-74" x="424.658203"/>
      <use xlink:href="#DejaVuSans-68" x="463.867188"/>
      <use xlink:href="#DejaVuSans-20" x="527.246094"/>
      <use xlink:href="#DejaVuSans-6d" x="559.033203"/>
      <use xlink:href="#DejaVuSans-62" x="656.445312"/>
      <use xlink:href="#DejaVuSans-20" x="719.921875"/>
      <use xlink:href="#DejaVuSans-73" x="751.708984"/>
      <use xlink:href="#DejaVuSans-20" x="803.808594"/>
      <use xlink:href="#DejaVuSans-28" x="835.595703"/>
      <use xlink:href="#DejaVuSans-6c" x="874.609375"/>
      <use xlink:href="#DejaVuSans-6f" x="902.392578"/>
      <use xlink:href="#DejaVuSans-67" x="963.574219"/>
      <use xlink:href="#DejaVuSans-73" x="1027.050781"/>
      <use xlink:href="#DejaVuSans-63" x="1079.150391"/>
      <use xlink:href="#DejaVuSans-61" x="1134.130859"/>
      <use xlink:href="#DejaVuSans-6c" x="1195.410156"/>
      <use xlink:href="#DejaVuSans-65" x="1223.193359"/>
      <use xlink:href="#DejaVuSans-29" x="1284.716797"/>
     </g>
    </g>
   </g>
   <g id="PolyCollection_13">
    <defs>
     <path id="m19db473e75" d="M 806.784535 -43.553627 
L 806.784535 -43.140151 
L 819.516632 -52.836056 
L 832.248729 -62.426654 
L 844.980826 -72.122559 
L 857.712923 -81.844865 
L 870.445019 -91.394942 
L 883.177116 -101.190439 
L 895.909213 -110.85212 
L 908.64131 -120.515933 
L 921.373407 -130.050824 
L 934.105504 -139.711663 
L 946.8376 -149.146524 
L 959.569697 -158.326541 
L 972.301794 -167.452648 
L 985.033891 -172.740039 
L 997.765988 -173.308406 
L 1010.498084 -173.629456 
L 1023.230181 -176.806667 
L 1035.962278 -178.164867 
L 1048.694375 -179.549711 
L 1061.426472 -179.789691 
L 1074.158569 -179.246646 
L 1086.890665 -179.016265 
L 1086.890665 -179.410473 
L 1086.890665 -179.410473 
L 1074.158569 -179.595506 
L 1061.426472 -180.40097 
L 1048.694375 -180.724837 
L 1035.962278 -179.358391 
L 1023.230181 -177.63192 
L 1010.498084 -174.797711 
L 997.765988 -174.530551 
L 985.033891 -173.823467 
L 972.301794 -167.54655 
L 959.569697 -158.590997 
L 946.8376 -149.440953 
L 934.105504 -139.971853 
L 921.373407 -130.301566 
L 908.64131 -120.713945 
L 895.909213 -111.145262 
L 883.177116 -101.463421 
L 870.445019 -91.63715 
L 857.712923 -82.09754 
L 844.980826 -72.367053 
L 832.248729 -62.740226 
L 819.516632 -53.044322 
L 806.784535 -43.553627 
z
" style="stroke: #edd1cb; stroke-opacity: 0.2"/>
    </defs>
    <g clip-path="url(#p21906b98cc)">
     <use xlink:href="#m19db473e75" x="0" y="216" style="fill: #edd1cb; fill-opacity: 0.2; stroke: #edd1cb; stroke-opacity: 0.2"/>
    </g>
   </g>
   <g id="PolyCollection_14">
    <defs>
     <path id="m885ee1c6e0" d="M 806.784535 -43.509906 
L 806.784535 -43.264492 
L 819.516632 -53.05908 
L 832.248729 -62.71806 
L 844.980826 -72.472307 
L 857.712923 -82.137572 
L 870.445019 -91.818093 
L 883.177116 -101.50167 
L 895.909213 -111.162661 
L 908.64131 -120.738479 
L 921.373407 -130.303454 
L 934.105504 -139.945877 
L 946.8376 -149.363325 
L 959.569697 -158.550849 
L 972.301794 -167.629004 
L 985.033891 -174.172972 
L 997.765988 -175.797106 
L 1010.498084 -175.571473 
L 1023.230181 -178.401236 
L 1035.962278 -179.976334 
L 1048.694375 -180.894133 
L 1061.426472 -180.591467 
L 1074.158569 -179.941317 
L 1086.890665 -179.742008 
L 1086.890665 -180.049261 
L 1086.890665 -180.049261 
L 1074.158569 -180.288629 
L 1061.426472 -181.015009 
L 1048.694375 -181.466 
L 1035.962278 -180.604938 
L 1023.230181 -178.998984 
L 1010.498084 -176.627195 
L 997.765988 -176.869236 
L 985.033891 -174.832883 
L 972.301794 -167.834438 
L 959.569697 -158.756412 
L 946.8376 -149.577937 
L 934.105504 -140.134119 
L 921.373407 -130.42134 
L 908.64131 -120.849058 
L 895.909213 -111.280724 
L 883.177116 -101.611044 
L 870.445019 -91.919333 
L 857.712923 -82.249362 
L 844.980826 -72.594655 
L 832.248729 -62.834655 
L 819.516632 -53.181462 
L 806.784535 -43.509906 
z
" style="stroke: #ebcac5; stroke-opacity: 0.2"/>
    </defs>
    <g clip-path="url(#p21906b98cc)">
     <use xlink:href="#m885ee1c6e0" x="0" y="216" style="fill: #ebcac5; fill-opacity: 0.2; stroke: #ebcac5; stroke-opacity: 0.2"/>
    </g>
   </g>
   <g id="PolyCollection_15">
    <defs>
     <path id="m33a832c0eb" d="M 806.784535 -43.015326 
L 806.784535 -42.786 
L 819.516632 -52.59672 
L 832.248729 -62.311669 
L 844.980826 -72.004402 
L 857.712923 -81.717706 
L 870.445019 -91.385837 
L 883.177116 -101.073832 
L 895.909213 -110.776501 
L 908.64131 -120.380113 
L 921.373407 -129.963265 
L 934.105504 -139.647887 
L 946.8376 -149.089305 
L 959.569697 -158.28383 
L 972.301794 -167.21767 
L 985.033891 -172.974134 
L 997.765988 -173.960024 
L 1010.498084 -173.875605 
L 1023.230181 -177.438782 
L 1035.962278 -178.948971 
L 1048.694375 -180.094599 
L 1061.426472 -179.96494 
L 1074.158569 -179.423897 
L 1086.890665 -179.092871 
L 1086.890665 -179.54945 
L 1086.890665 -179.54945 
L 1074.158569 -179.773894 
L 1061.426472 -180.227482 
L 1048.694375 -180.416428 
L 1035.962278 -179.326294 
L 1023.230181 -177.797563 
L 1010.498084 -174.171814 
L 997.765988 -174.415248 
L 985.033891 -173.188885 
L 972.301794 -167.366977 
L 959.569697 -158.413336 
L 946.8376 -149.214351 
L 934.105504 -139.780959 
L 921.373407 -130.103879 
L 908.64131 -120.521958 
L 895.909213 -110.911211 
L 883.177116 -101.244797 
L 870.445019 -91.514703 
L 857.712923 -81.869022 
L 844.980826 -72.159004 
L 832.248729 -62.469374 
L 819.516632 -52.748355 
L 806.784535 -43.015326 
z
" style="stroke: #e5bcbb; stroke-opacity: 0.2"/>
    </defs>
    <g clip-path="url(#p21906b98cc)">
     <use xlink:href="#m33a832c0eb" x="0" y="216" style="fill: #e5bcbb; fill-opacity: 0.2; stroke: #e5bcbb; stroke-opacity: 0.2"/>
    </g>
   </g>
   <g id="PolyCollection_16">
    <defs>
     <path id="m35a541e834" d="M 806.784535 -43.065013 
L 806.784535 -42.837145 
L 819.516632 -52.622107 
L 832.248729 -62.248086 
L 844.980826 -72.007574 
L 857.712923 -81.638263 
L 870.445019 -91.264723 
L 883.177116 -101.013751 
L 895.909213 -110.686096 
L 908.64131 -120.275866 
L 921.373407 -129.751423 
L 934.105504 -139.52878 
L 946.8376 -148.75214 
L 959.569697 -158.207962 
L 972.301794 -166.829486 
L 985.033891 -172.845996 
L 997.765988 -174.155441 
L 1010.498084 -173.811625 
L 1023.230181 -177.28602 
L 1035.962278 -178.878056 
L 1048.694375 -179.924454 
L 1061.426472 -179.848352 
L 1074.158569 -179.301686 
L 1086.890665 -179.151304 
L 1086.890665 -179.43711 
L 1086.890665 -179.43711 
L 1074.158569 -179.624512 
L 1061.426472 -180.112479 
L 1048.694375 -180.276887 
L 1035.962278 -179.2805 
L 1023.230181 -177.630397 
L 1010.498084 -174.24288 
L 997.765988 -174.598178 
L 985.033891 -173.240433 
L 972.301794 -167.280799 
L 959.569697 -158.334202 
L 946.8376 -149.128343 
L 934.105504 -139.660878 
L 921.373407 -129.993987 
L 908.64131 -120.389923 
L 895.909213 -110.800518 
L 883.177116 -101.118662 
L 870.445019 -91.438206 
L 857.712923 -81.768392 
L 844.980826 -72.121379 
L 832.248729 -62.368648 
L 819.516632 -52.760918 
L 806.784535 -43.065013 
z
" style="stroke: #d89faa; stroke-opacity: 0.2"/>
    </defs>
    <g clip-path="url(#p21906b98cc)">
     <use xlink:href="#m35a541e834" x="0" y="216" style="fill: #d89faa; fill-opacity: 0.2; stroke: #d89faa; stroke-opacity: 0.2"/>
    </g>
   </g>
   <g id="PolyCollection_17">
    <defs>
     <path id="mdc3e1c1204" d="M 806.784535 -43.165108 
L 806.784535 -42.913514 
L 819.516632 -52.685374 
L 832.248729 -62.279914 
L 844.980826 -72.004323 
L 857.712923 -81.670134 
L 870.445019 -91.404934 
L 883.177116 -101.08577 
L 895.909213 -110.760412 
L 908.64131 -120.312443 
L 921.373407 -129.944775 
L 934.105504 -139.570535 
L 946.8376 -149.111612 
L 959.569697 -158.239554 
L 972.301794 -167.40809 
L 985.033891 -173.074915 
L 997.765988 -174.424099 
L 1010.498084 -174.292023 
L 1023.230181 -177.751734 
L 1035.962278 -179.404631 
L 1048.694375 -180.390791 
L 1061.426472 -180.176724 
L 1074.158569 -179.649888 
L 1086.890665 -179.291917 
L 1086.890665 -179.711125 
L 1086.890665 -179.711125 
L 1074.158569 -179.964268 
L 1061.426472 -180.514523 
L 1048.694375 -180.947168 
L 1035.962278 -179.968336 
L 1023.230181 -178.187619 
L 1010.498084 -174.893522 
L 997.765988 -175.128042 
L 985.033891 -173.56965 
L 972.301794 -167.559495 
L 959.569697 -158.392053 
L 946.8376 -149.252029 
L 934.105504 -139.739847 
L 921.373407 -130.095123 
L 908.64131 -120.496541 
L 895.909213 -110.916909 
L 883.177116 -101.267521 
L 870.445019 -91.566514 
L 857.712923 -81.897205 
L 844.980826 -72.215449 
L 832.248729 -62.513214 
L 819.516632 -52.861013 
L 806.784535 -43.165108 
z
" style="stroke: #ae6b91; stroke-opacity: 0.2"/>
    </defs>
    <g clip-path="url(#p21906b98cc)">
     <use xlink:href="#mdc3e1c1204" x="0" y="216" style="fill: #ae6b91; fill-opacity: 0.2; stroke: #ae6b91; stroke-opacity: 0.2"/>
    </g>
   </g>
   <g id="PolyCollection_18">
    <defs>
     <path id="m42ea4f024a" d="M 806.784535 -43.127656 
L 806.784535 -43.039877 
L 819.516632 -52.59672 
L 832.248729 -62.337022 
L 844.980826 -72.031343 
L 857.712923 -81.710614 
L 870.445019 -91.403735 
L 883.177116 -101.080998 
L 895.909213 -110.743332 
L 908.64131 -120.323476 
L 921.373407 -129.881276 
L 934.105504 -139.582382 
L 946.8376 -149.124313 
L 959.569697 -158.253588 
L 972.301794 -167.372963 
L 985.033891 -173.166035 
L 997.765988 -174.741238 
L 1010.498084 -174.68063 
L 1023.230181 -177.88023 
L 1035.962278 -179.422498 
L 1048.694375 -180.58326 
L 1061.426472 -180.271779 
L 1074.158569 -179.588312 
L 1086.890665 -179.224787 
L 1086.890665 -179.447882 
L 1086.890665 -179.447882 
L 1074.158569 -179.791227 
L 1061.426472 -180.460055 
L 1048.694375 -180.91103 
L 1035.962278 -179.726002 
L 1023.230181 -178.227431 
L 1010.498084 -175.121226 
L 997.765988 -175.209511 
L 985.033891 -173.514019 
L 972.301794 -167.440864 
L 959.569697 -158.317083 
L 946.8376 -149.176715 
L 934.105504 -139.658756 
L 921.373407 -129.960018 
L 908.64131 -120.400345 
L 895.909213 -110.829207 
L 883.177116 -101.145953 
L 870.445019 -91.484381 
L 857.712923 -81.781765 
L 844.980826 -72.122913 
L 832.248729 -62.437975 
L 819.516632 -52.697993 
L 806.784535 -43.127656 
z
" style="stroke: #2d1e3e; stroke-opacity: 0.2"/>
    </defs>
    <g clip-path="url(#p21906b98cc)">
     <use xlink:href="#m42ea4f024a" x="0" y="216" style="fill: #2d1e3e; fill-opacity: 0.2; stroke: #2d1e3e; stroke-opacity: 0.2"/>
    </g>
   </g>
   <g id="line2d_54">
    <path d="M 806.784535 172.720661 
L 819.516632 163.094177 
L 832.248729 153.433112 
L 844.980826 143.75466 
L 857.712923 134.041302 
L 870.445019 124.472425 
L 883.177116 114.695352 
L 895.909213 105.000541 
L 908.64131 95.396266 
L 921.373407 85.854516 
L 934.105504 76.171697 
L 946.8376 66.723018 
L 959.569697 57.559571 
L 972.301794 48.500345 
L 985.033891 42.758612 
L 997.765988 42.068809 
L 1010.498084 41.859675 
L 1023.230181 38.795629 
L 1035.962278 37.244226 
L 1048.694375 35.873176 
L 1061.426472 35.929617 
L 1074.158569 36.577947 
L 1086.890665 36.779265 
" clip-path="url(#p21906b98cc)" style="fill: none; stroke: #edd1cb; stroke-width: 1.5; stroke-linecap: round"/>
   </g>
   <g id="line2d_55">
    <path d="M 806.784535 172.612263 
L 819.516632 162.879595 
L 832.248729 153.220453 
L 844.980826 143.466385 
L 857.712923 133.804124 
L 870.445019 124.130438 
L 883.177116 114.443354 
L 895.909213 104.776059 
L 908.64131 95.201965 
L 921.373407 85.634615 
L 934.105504 75.945267 
L 946.8376 66.51224 
L 959.569697 57.335604 
L 972.301794 48.254785 
L 985.033891 41.495926 
L 997.765988 39.64856 
L 1010.498084 39.936661 
L 1023.230181 37.296938 
L 1035.962278 35.694636 
L 1048.694375 34.818295 
L 1061.426472 35.182006 
L 1074.158569 35.89739 
L 1086.890665 36.10572 
" clip-path="url(#p21906b98cc)" style="fill: none; stroke: #ebcac5; stroke-width: 1.5; stroke-linecap: round"/>
   </g>
   <g id="line2d_56">
    <path d="M 806.784535 173.086486 
L 819.516632 163.327257 
L 832.248729 153.606103 
L 844.980826 143.913351 
L 857.712923 134.207988 
L 870.445019 124.549957 
L 883.177116 114.84339 
L 895.909213 105.15637 
L 908.64131 95.553005 
L 921.373407 85.970485 
L 934.105504 76.284681 
L 946.8376 66.847799 
L 959.569697 57.652755 
L 972.301794 48.711438 
L 985.033891 42.917616 
L 997.765988 41.802288 
L 1010.498084 41.974736 
L 1023.230181 38.379454 
L 1035.962278 36.861128 
L 1048.694375 35.743042 
L 1061.426472 35.899697 
L 1074.158569 36.405211 
L 1086.890665 36.667888 
" clip-path="url(#p21906b98cc)" style="fill: none; stroke: #e5bcbb; stroke-width: 1.5; stroke-linecap: round"/>
   </g>
   <g id="line2d_57">
    <path d="M 806.784535 173.035804 
L 819.516632 163.314626 
L 832.248729 153.694676 
L 844.980826 143.935447 
L 857.712923 134.294935 
L 870.445019 124.643503 
L 883.177116 114.933288 
L 895.909213 105.255472 
L 908.64131 95.668294 
L 921.373407 86.106892 
L 934.105504 76.405169 
L 946.8376 67.017806 
L 959.569697 57.730234 
L 972.301794 48.886909 
L 985.033891 42.958882 
L 997.765988 41.623755 
L 1010.498084 41.980727 
L 1023.230181 38.533326 
L 1035.962278 36.914306 
L 1048.694375 35.899728 
L 1061.426472 36.017065 
L 1074.158569 36.541619 
L 1086.890665 36.708971 
" clip-path="url(#p21906b98cc)" style="fill: none; stroke: #d89faa; stroke-width: 1.5; stroke-linecap: round"/>
   </g>
   <g id="line2d_58">
    <path d="M 806.784535 172.960123 
L 819.516632 163.226531 
L 832.248729 153.593495 
L 844.980826 143.881846 
L 857.712923 134.206412 
L 870.445019 124.512871 
L 883.177116 114.820907 
L 895.909213 105.161111 
L 908.64131 95.595417 
L 921.373407 85.982466 
L 934.105504 76.344707 
L 946.8376 66.817821 
L 959.569697 57.681851 
L 972.301794 48.514205 
L 985.033891 42.667088 
L 997.765988 41.234519 
L 1010.498084 41.403989 
L 1023.230181 38.033776 
L 1035.962278 36.33299 
L 1048.694375 35.341544 
L 1061.426472 35.656525 
L 1074.158569 36.18713 
L 1086.890665 36.485636 
" clip-path="url(#p21906b98cc)" style="fill: none; stroke: #ae6b91; stroke-width: 1.5; stroke-linecap: round"/>
   </g>
   <g id="line2d_59">
    <path d="M 806.784535 172.909896 
L 819.516632 163.352552 
L 832.248729 153.612411 
L 844.980826 143.922817 
L 857.712923 134.253765 
L 870.445019 124.553908 
L 883.177116 114.884901 
L 895.909213 105.209798 
L 908.64131 95.637057 
L 921.373407 86.077423 
L 934.105504 76.379701 
L 946.8376 66.849894 
L 959.569697 57.711699 
L 972.301794 48.593281 
L 985.033891 42.662244 
L 997.765988 41.009981 
L 1010.498084 41.109554 
L 1023.230181 37.946389 
L 1035.962278 36.418845 
L 1048.694375 35.260956 
L 1061.426472 35.637133 
L 1074.158569 36.309375 
L 1086.890665 36.662205 
" clip-path="url(#p21906b98cc)" style="fill: none; stroke: #2d1e3e; stroke-width: 1.5; stroke-linecap: round"/>
   </g>
   <g id="line2d_60"/>
   <g id="line2d_61"/>
   <g id="line2d_62"/>
   <g id="line2d_63"/>
   <g id="line2d_64"/>
   <g id="line2d_65"/>
   <g id="patch_13">
    <path d="M 792.779229 180.148 
L 792.779229 27.6 
" style="fill: none; stroke: #cccccc; stroke-width: 1.25; stroke-linejoin: miter; stroke-linecap: square"/>
   </g>
   <g id="patch_14">
    <path d="M 1100.895972 180.148 
L 1100.895972 27.6 
" style="fill: none; stroke: #cccccc; stroke-width: 1.25; stroke-linejoin: miter; stroke-linecap: square"/>
   </g>
   <g id="patch_15">
    <path d="M 792.779229 180.148 
L 1100.895972 180.148 
" style="fill: none; stroke: #cccccc; stroke-width: 1.25; stroke-linejoin: miter; stroke-linecap: square"/>
   </g>
   <g id="patch_16">
    <path d="M 792.779229 27.6 
L 1100.895972 27.6 
" style="fill: none; stroke: #cccccc; stroke-width: 1.25; stroke-linejoin: miter; stroke-linecap: square"/>
   </g>
   <g id="text_35">
    <!-- OSU Bandwidth -->
    <g style="fill: #262626" transform="translate(900.064788 21.6) scale(0.12 -0.12)">
     <defs>
      <path id="DejaVuSans-42" d="M 1259 2228 
L 1259 519 
L 2272 519 
Q 2781 519 3026 730 
Q 3272 941 3272 1375 
Q 3272 1813 3026 2020 
Q 2781 2228 2272 2228 
L 1259 2228 
z
M 1259 4147 
L 1259 2741 
L 2194 2741 
Q 2656 2741 2882 2914 
Q 3109 3088 3109 3444 
Q 3109 3797 2882 3972 
Q 2656 4147 2194 4147 
L 1259 4147 
z
M 628 4666 
L 2241 4666 
Q 2963 4666 3353 4366 
Q 3744 4066 3744 3513 
Q 3744 3084 3544 2831 
Q 3344 2578 2956 2516 
Q 3422 2416 3680 2098 
Q 3938 1781 3938 1306 
Q 3938 681 3513 340 
Q 3088 0 2303 0 
L 628 0 
L 628 4666 
z
" transform="scale(0.015625)"/>
     </defs>
     <use xlink:href="#DejaVuSans-4f"/>
     <use xlink:href="#DejaVuSans-53" x="78.710938"/>
     <use xlink:href="#DejaVuSans-55" x="142.1875"/>
     <use xlink:href="#DejaVuSans-20" x="215.380859"/>
     <use xlink:href="#DejaVuSans-42" x="247.167969"/>
     <use xlink:href="#DejaVuSans-61" x="315.771484"/>
     <use xlink:href="#DejaVuSans-6e" x="377.050781"/>
     <use xlink:href="#DejaVuSans-64" x="440.429688"/>
     <use xlink:href="#DejaVuSans-77" x="503.90625"/>
     <use xlink:href="#DejaVuSans-69" x="585.693359"/>
     <use xlink:href="#DejaVuSans-64" x="613.476562"/>
     <use xlink:href="#DejaVuSans-74" x="676.953125"/>
     <use xlink:href="#DejaVuSans-68" x="716.162109"/>
    </g>
   </g>
  </g>
  <g id="axes_4">
   <g id="text_36">
    <!-- OSU Benchmarks on Google Cloud H3 -->
    <g style="fill: #262626" transform="translate(1107.556339 21.6) scale(0.12 -0.12)">
     <defs>
      <path id="DejaVuSans-72" d="M 2631 2963 
Q 2534 3019 2420 3045 
Q 2306 3072 2169 3072 
Q 1681 3072 1420 2755 
Q 1159 2438 1159 1844 
L 1159 0 
L 581 0 
L 581 3500 
L 1159 3500 
L 1159 2956 
Q 1341 3275 1631 3429 
Q 1922 3584 2338 3584 
Q 2397 3584 2469 3576 
Q 2541 3569 2628 3553 
L 2631 2963 
z
" transform="scale(0.015625)"/>
      <path id="DejaVuSans-6b" d="M 581 4863 
L 1159 4863 
L 1159 1991 
L 2875 3500 
L 3609 3500 
L 1753 1863 
L 3688 0 
L 2938 0 
L 1159 1709 
L 1159 0 
L 581 0 
L 581 4863 
z
" transform="scale(0.015625)"/>
      <path id="DejaVuSans-47" d="M 3809 666 
L 3809 1919 
L 2778 1919 
L 2778 2438 
L 4434 2438 
L 4434 434 
Q 4069 175 3628 42 
Q 3188 -91 2688 -91 
Q 1594 -91 976 548 
Q 359 1188 359 2328 
Q 359 3472 976 4111 
Q 1594 4750 2688 4750 
Q 3144 4750 3555 4637 
Q 3966 4525 4313 4306 
L 4313 3634 
Q 3963 3931 3569 4081 
Q 3175 4231 2741 4231 
Q 1884 4231 1454 3753 
Q 1025 3275 1025 2328 
Q 1025 1384 1454 906 
Q 1884 428 2741 428 
Q 3075 428 3337 486 
Q 3600 544 3809 666 
z
" transform="scale(0.015625)"/>
      <path id="DejaVuSans-43" d="M 4122 4306 
L 4122 3641 
Q 3803 3938 3442 4084 
Q 3081 4231 2675 4231 
Q 1875 4231 1450 3742 
Q 1025 3253 1025 2328 
Q 1025 1406 1450 917 
Q 1875 428 2675 428 
Q 3081 428 3442 575 
Q 3803 722 4122 1019 
L 4122 359 
Q 3791 134 3420 21 
Q 3050 -91 2638 -91 
Q 1578 -91 968 557 
Q 359 1206 359 2328 
Q 359 3453 968 4101 
Q 1578 4750 2638 4750 
Q 3056 4750 3426 4639 
Q 3797 4528 4122 4306 
z
" transform="scale(0.015625)"/>
      <path id="DejaVuSans-48" d="M 628 4666 
L 1259 4666 
L 1259 2753 
L 3553 2753 
L 3553 4666 
L 4184 4666 
L 4184 0 
L 3553 0 
L 3553 2222 
L 1259 2222 
L 1259 0 
L 628 0 
L 628 4666 
z
" transform="scale(0.015625)"/>
     </defs>
     <use xlink:href="#DejaVuSans-4f"/>
     <use xlink:href="#DejaVuSans-53" x="78.710938"/>
     <use xlink:href="#DejaVuSans-55" x="142.1875"/>
     <use xlink:href="#DejaVuSans-20" x="215.380859"/>
     <use xlink:href="#DejaVuSans-42" x="247.167969"/>
     <use xlink:href="#DejaVuSans-65" x="315.771484"/>
     <use xlink:href="#DejaVuSans-6e" x="377.294922"/>
     <use xlink:href="#DejaVuSans-63" x="440.673828"/>
     <use xlink:href="#DejaVuSans-68" x="495.654297"/>
     <use xlink:href="#DejaVuSans-6d" x="559.033203"/>
     <use xlink:href="#DejaVuSans-61" x="656.445312"/>
     <use xlink:href="#DejaVuSans-72" x="717.724609"/>
     <use xlink:href="#DejaVuSans-6b" x="758.837891"/>
     <use xlink:href="#DejaVuSans-73" x="816.748047"/>
     <use xlink:href="#DejaVuSans-20" x="868.847656"/>
     <use xlink:href="#DejaVuSans-6f" x="900.634766"/>
     <use xlink:href="#DejaVuSans-6e" x="961.816406"/>
     <use xlink:href="#DejaVuSans-20" x="1025.195312"/>
     <use xlink:href="#DejaVuSans-47" x="1056.982422"/>
     <use xlink:href="#DejaVuSans-6f" x="1134.472656"/>
     <use xlink:href="#DejaVuSans-6f" x="1195.654297"/>
     <use xlink:href="#DejaVuSans-67" x="1256.835938"/>
     <use xlink:href="#DejaVuSans-6c" x="1320.3125"/>
     <use xlink:href="#DejaVuSans-65" x="1348.095703"/>
     <use xlink:href="#DejaVuSans-20" x="1409.619141"/>
     <use xlink:href="#DejaVuSans-43" x="1441.40625"/>
     <use xlink:href="#DejaVuSans-6c" x="1511.230469"/>
     <use xlink:href="#DejaVuSans-6f" x="1539.013672"/>
     <use xlink:href="#DejaVuSans-75" x="1600.195312"/>
     <use xlink:href="#DejaVuSans-64" x="1663.574219"/>
     <use xlink:href="#DejaVuSans-20" x="1727.050781"/>
     <use xlink:href="#DejaVuSans-48" x="1758.837891"/>
     <use xlink:href="#DejaVuSans-33" x="1834.033203"/>
    </g>
   </g>
   <g id="legend_1">
    <g id="line2d_66">
     <path d="M 1138.881628 62.694469 
L 1149.881628 62.694469 
L 1160.881628 62.694469 
" style="fill: none; stroke: #edd1cb; stroke-width: 1.5; stroke-linecap: round"/>
    </g>
    <g id="text_37">
     <!-- 4 -->
     <g style="fill: #262626" transform="translate(1169.681628 66.544469) scale(0.11 -0.11)">
      <use xlink:href="#DejaVuSans-34"/>
     </g>
    </g>
    <g id="line2d_67">
     <path d="M 1138.881628 78.840406 
L 1149.881628 78.840406 
L 1160.881628 78.840406 
" style="fill: none; stroke: #ebcac5; stroke-width: 1.5; stroke-linecap: round"/>
    </g>
    <g id="text_38">
     <!-- 8 -->
     <g style="fill: #262626" transform="translate(1169.681628 82.690406) scale(0.11 -0.11)">
      <defs>
       <path id="DejaVuSans-38" d="M 2034 2216 
Q 1584 2216 1326 1975 
Q 1069 1734 1069 1313 
Q 1069 891 1326 650 
Q 1584 409 2034 409 
Q 2484 409 2743 651 
Q 3003 894 3003 1313 
Q 3003 1734 2745 1975 
Q 2488 2216 2034 2216 
z
M 1403 2484 
Q 997 2584 770 2862 
Q 544 3141 544 3541 
Q 544 4100 942 4425 
Q 1341 4750 2034 4750 
Q 2731 4750 3128 4425 
Q 3525 4100 3525 3541 
Q 3525 3141 3298 2862 
Q 3072 2584 2669 2484 
Q 3125 2378 3379 2068 
Q 3634 1759 3634 1313 
Q 3634 634 3220 271 
Q 2806 -91 2034 -91 
Q 1263 -91 848 271 
Q 434 634 434 1313 
Q 434 1759 690 2068 
Q 947 2378 1403 2484 
z
M 1172 3481 
Q 1172 3119 1398 2916 
Q 1625 2713 2034 2713 
Q 2441 2713 2670 2916 
Q 2900 3119 2900 3481 
Q 2900 3844 2670 4047 
Q 2441 4250 2034 4250 
Q 1625 4250 1398 4047 
Q 1172 3844 1172 3481 
z
" transform="scale(0.015625)"/>
      </defs>
      <use xlink:href="#DejaVuSans-38"/>
     </g>
    </g>
    <g id="line2d_68">
     <path d="M 1138.881628 94.986344 
L 1149.881628 94.986344 
L 1160.881628 94.986344 
" style="fill: none; stroke: #e5bcbb; stroke-width: 1.5; stroke-linecap: round"/>
    </g>
    <g id="text_39">
     <!-- 16 -->
     <g style="fill: #262626" transform="translate(1169.681628 98.836344) scale(0.11 -0.11)">
      <use xlink:href="#DejaVuSans-31"/>
      <use xlink:href="#DejaVuSans-36" x="63.623047"/>
     </g>
    </g>
    <g id="line2d_69">
     <path d="M 1138.881628 111.132281 
L 1149.881628 111.132281 
L 1160.881628 111.132281 
" style="fill: none; stroke: #d89faa; stroke-width: 1.5; stroke-linecap: round"/>
    </g>
    <g id="text_40">
     <!-- 32 -->
     <g style="fill: #262626" transform="translate(1169.681628 114.982281) scale(0.11 -0.11)">
      <use xlink:href="#DejaVuSans-33"/>
      <use xlink:href="#DejaVuSans-32" x="63.623047"/>
     </g>
    </g>
    <g id="line2d_70">
     <path d="M 1138.881628 127.278219 
L 1149.881628 127.278219 
L 1160.881628 127.278219 
" style="fill: none; stroke: #ae6b91; stroke-width: 1.5; stroke-linecap: round"/>
    </g>
    <g id="text_41">
     <!-- 64 -->
     <g style="fill: #262626" transform="translate(1169.681628 131.128219) scale(0.11 -0.11)">
      <use xlink:href="#DejaVuSans-36"/>
      <use xlink:href="#DejaVuSans-34" x="63.623047"/>
     </g>
    </g>
    <g id="line2d_71">
     <path d="M 1138.881628 143.424156 
L 1149.881628 143.424156 
L 1160.881628 143.424156 
" style="fill: none; stroke: #2d1e3e; stroke-width: 1.5; stroke-linecap: round"/>
    </g>
    <g id="text_42">
     <!-- 128 -->
     <g style="fill: #262626" transform="translate(1169.681628 147.274156) scale(0.11 -0.11)">
      <use xlink:href="#DejaVuSans-31"/>
      <use xlink:href="#DejaVuSans-32" x="63.623047"/>
      <use xlink:href="#DejaVuSans-38" x="127.246094"/>
     </g>
    </g>
   </g>
  </g>
  <g id="text_43">
   <!-- Message size in bytes (logscale) -->
   <g style="fill: #262626" transform="translate(535.01125 213.84) scale(0.14 -0.14)">
    <defs>
     <path id="DejaVuSans-4d" d="M 628 4666 
L 1569 4666 
L 2759 1491 
L 3956 4666 
L 4897 4666 
L 4897 0 
L 4281 0 
L 4281 4097 
L 3078 897 
L 2444 897 
L 1241 4097 
L 1241 0 
L 628 0 
L 628 4666 
z
" transform="scale(0.015625)"/>
     <path id="DejaVuSans-7a" d="M 353 3500 
L 3084 3500 
L 3084 2975 
L 922 459 
L 3084 459 
L 3084 0 
L 275 0 
L 275 525 
L 2438 3041 
L 353 3041 
L 353 3500 
z
" transform="scale(0.015625)"/>
    </defs>
    <use xlink:href="#DejaVuSans-4d"/>
    <use xlink:href="#DejaVuSans-65" x="86.279297"/>
    <use xlink:href="#DejaVuSans-73" x="147.802734"/>
    <use xlink:href="#DejaVuSans-73" x="199.902344"/>
    <use xlink:href="#DejaVuSans-61" x="252.001953"/>
    <use xlink:href="#DejaVuSans-67" x="313.28125"/>
    <use xlink:href="#DejaVuSans-65" x="376.757812"/>
    <use xlink:href="#DejaVuSans-20" x="438.28125"/>
    <use xlink:href="#DejaVuSans-73" x="470.068359"/>
    <use xlink:href="#DejaVuSans-69" x="522.167969"/>
    <use xlink:href="#DejaVuSans-7a" x="549.951172"/>
    <use xlink:href="#DejaVuSans-65" x="602.441406"/>
    <use xlink:href="#DejaVuSans-20" x="663.964844"/>
    <use xlink:href="#DejaVuSans-69" x="695.751953"/>
    <use xlink:href="#DejaVuSans-6e" x="723.535156"/>
    <use xlink:href="#DejaVuSans-20" x="786.914062"/>
    <use xlink:href="#DejaVuSans-62" x="818.701172"/>
    <use xlink:href="#DejaVuSans-79" x="882.177734"/>
    <use xlink:href="#DejaVuSans-74" x="941.357422"/>
    <use xlink:href="#DejaVuSans-65" x="980.566406"/>
    <use xlink:href="#DejaVuSans-73" x="1042.089844"/>
    <use xlink:href="#DejaVuSans-20" x="1094.189453"/>
    <use xlink:href="#DejaVuSans-28" x="1125.976562"/>
    <use xlink:href="#DejaVuSans-6c" x="1164.990234"/>
    <use xlink:href="#DejaVuSans-6f" x="1192.773438"/>
    <use xlink:href="#DejaVuSans-67" x="1253.955078"/>
    <use xlink:href="#DejaVuSans-73" x="1317.431641"/>
    <use xlink:href="#DejaVuSans-63" x="1369.53125"/>
    <use xlink:href="#DejaVuSans-61" x="1424.511719"/>
    <use xlink:href="#DejaVuSans-6c" x="1485.791016"/>
    <use xlink:href="#DejaVuSans-65" x="1513.574219"/>
    <use xlink:href="#DejaVuSans-29" x="1575.097656"/>
   </g>
  </g>
 </g>
 <defs>
  <clipPath id="p0ad3780cbe">
   <rect x="58.751081" y="27.6" width="308.116743" height="152.548"/>
  </clipPath>
  <clipPath id="p51efe0eeb6">
   <rect x="425.765155" y="27.6" width="308.116743" height="152.548"/>
  </clipPath>
  <clipPath id="p21906b98cc">
   <rect x="792.779229" y="27.6" width="308.116743" height="152.548"/>
  </clipPath>
 </defs>
</svg>
