<?xml version="1.0" encoding="utf-8" standalone="no"?>
<!DOCTYPE svg PUBLIC "-//W3C//DTD SVG 1.1//EN"
  "http://www.w3.org/Graphics/SVG/1.1/DTD/svg11.dtd">
<svg xmlns:xlink="http://www.w3.org/1999/xlink" width="720pt" height="237.6pt" viewBox="0 0 720 237.6" xmlns="http://www.w3.org/2000/svg" version="1.1">
 <metadata>
  <rdf:RDF xmlns:dc="http://purl.org/dc/elements/1.1/" xmlns:cc="http://creativecommons.org/ns#" xmlns:rdf="http://www.w3.org/1999/02/22-rdf-syntax-ns#">
   <cc:Work>
    <dc:type rdf:resource="http://purl.org/dc/dcmitype/StillImage"/>
    <dc:date>2025-05-18T22:05:47.562159</dc:date>
    <dc:format>image/svg+xml</dc:format>
    <dc:creator>
     <cc:Agent>
      <dc:title>Matplotlib v3.8.4, https://matplotlib.org/</dc:title>
     </cc:Agent>
    </dc:creator>
   </cc:Work>
  </rdf:RDF>
 </metadata>
 <defs>
  <style type="text/css">*{stroke-linejoin: round; stroke-linecap: butt}</style>
 </defs>
 <g id="figure_1">
  <g id="patch_1">
   <path d="M 0 237.6 
L 720 237.6 
L 720 0 
L 0 0 
z
" style="fill: #ffffff"/>
  </g>
  <g id="axes_1">
   <g id="patch_2">
    <path d="M 61.2 186.66 
L 455.327273 186.66 
L 455.327273 29.76 
L 61.2 29.76 
z
" style="fill: #ffffff"/>
   </g>
   <g id="matplotlib.axis_1">
    <g id="xtick_1">
     <g id="text_1">
      <!-- 4 -->
      <g style="fill: #262626" transform="translate(90.544564 204.518281) scale(0.11 -0.11)">
       <defs>
        <path id="DejaVuSans-34" d="M 2419 4116 
L 825 1625 
L 2419 1625 
L 2419 4116 
z
M 2253 4666 
L 3047 4666 
L 3047 1625 
L 3713 1625 
L 3713 1100 
L 3047 1100 
L 3047 0 
L 2419 0 
L 2419 1100 
L 313 1100 
L 313 1709 
L 2253 4666 
z
" transform="scale(0.015625)"/>
       </defs>
       <use xlink:href="#DejaVuSans-34"/>
      </g>
     </g>
    </g>
    <g id="xtick_2">
     <g id="text_2">
      <!-- 8 -->
      <g style="fill: #262626" transform="translate(156.232443 204.518281) scale(0.11 -0.11)">
       <defs>
        <path id="DejaVuSans-38" d="M 2034 2216 
Q 1584 2216 1326 1975 
Q 1069 1734 1069 1313 
Q 1069 891 1326 650 
Q 1584 409 2034 409 
Q 2484 409 2743 651 
Q 3003 894 3003 1313 
Q 3003 1734 2745 1975 
Q 2488 2216 2034 2216 
z
M 1403 2484 
Q 997 2584 770 2862 
Q 544 3141 544 3541 
Q 544 4100 942 4425 
Q 1341 4750 2034 4750 
Q 2731 4750 3128 4425 
Q 3525 4100 3525 3541 
Q 3525 3141 3298 2862 
Q 3072 2584 2669 2484 
Q 3125 2378 3379 2068 
Q 3634 1759 3634 1313 
Q 3634 634 3220 271 
Q 2806 -91 2034 -91 
Q 1263 -91 848 271 
Q 434 634 434 1313 
Q 434 1759 690 2068 
Q 947 2378 1403 2484 
z
M 1172 3481 
Q 1172 3119 1398 2916 
Q 1625 2713 2034 2713 
Q 2441 2713 2670 2916 
Q 2900 3119 2900 3481 
Q 2900 3844 2670 4047 
Q 2441 4250 2034 4250 
Q 1625 4250 1398 4047 
Q 1172 3844 1172 3481 
z
" transform="scale(0.015625)"/>
       </defs>
       <use xlink:href="#DejaVuSans-38"/>
      </g>
     </g>
    </g>
    <g id="xtick_3">
     <g id="text_3">
      <!-- 16 -->
      <g style="fill: #262626" transform="translate(218.420947 204.518281) scale(0.11 -0.11)">
       <defs>
        <path id="DejaVuSans-31" d="M 794 531 
L 1825 531 
L 1825 4091 
L 703 3866 
L 703 4441 
L 1819 4666 
L 2450 4666 
L 2450 531 
L 3481 531 
L 3481 0 
L 794 0 
L 794 531 
z
" transform="scale(0.015625)"/>
        <path id="DejaVuSans-36" d="M 2113 2584 
Q 1688 2584 1439 2293 
Q 1191 2003 1191 1497 
Q 1191 994 1439 701 
Q 1688 409 2113 409 
Q 2538 409 2786 701 
Q 3034 994 3034 1497 
Q 3034 2003 2786 2293 
Q 2538 2584 2113 2584 
z
M 3366 4563 
L 3366 3988 
Q 3128 4100 2886 4159 
Q 2644 4219 2406 4219 
Q 1781 4219 1451 3797 
Q 1122 3375 1075 2522 
Q 1259 2794 1537 2939 
Q 1816 3084 2150 3084 
Q 2853 3084 3261 2657 
Q 3669 2231 3669 1497 
Q 3669 778 3244 343 
Q 2819 -91 2113 -91 
Q 1303 -91 875 529 
Q 447 1150 447 2328 
Q 447 3434 972 4092 
Q 1497 4750 2381 4750 
Q 2619 4750 2861 4703 
Q 3103 4656 3366 4563 
z
" transform="scale(0.015625)"/>
       </defs>
       <use xlink:href="#DejaVuSans-31"/>
       <use xlink:href="#DejaVuSans-36" x="63.623047"/>
      </g>
     </g>
    </g>
    <g id="xtick_4">
     <g id="text_4">
      <!-- 32 -->
      <g style="fill: #262626" transform="translate(284.108826 204.518281) scale(0.11 -0.11)">
       <defs>
        <path id="DejaVuSans-33" d="M 2597 2516 
Q 3050 2419 3304 2112 
Q 3559 1806 3559 1356 
Q 3559 666 3084 287 
Q 2609 -91 1734 -91 
Q 1441 -91 1130 -33 
Q 819 25 488 141 
L 488 750 
Q 750 597 1062 519 
Q 1375 441 1716 441 
Q 2309 441 2620 675 
Q 2931 909 2931 1356 
Q 2931 1769 2642 2001 
Q 2353 2234 1838 2234 
L 1294 2234 
L 1294 2753 
L 1863 2753 
Q 2328 2753 2575 2939 
Q 2822 3125 2822 3475 
Q 2822 3834 2567 4026 
Q 2313 4219 1838 4219 
Q 1578 4219 1281 4162 
Q 984 4106 628 3988 
L 628 4550 
Q 988 4650 1302 4700 
Q 1616 4750 1894 4750 
Q 2613 4750 3031 4423 
Q 3450 4097 3450 3541 
Q 3450 3153 3228 2886 
Q 3006 2619 2597 2516 
z
" transform="scale(0.015625)"/>
        <path id="DejaVuSans-32" d="M 1228 531 
L 3431 531 
L 3431 0 
L 469 0 
L 469 531 
Q 828 903 1448 1529 
Q 2069 2156 2228 2338 
Q 2531 2678 2651 2914 
Q 2772 3150 2772 3378 
Q 2772 3750 2511 3984 
Q 2250 4219 1831 4219 
Q 1534 4219 1204 4116 
Q 875 4013 500 3803 
L 500 4441 
Q 881 4594 1212 4672 
Q 1544 4750 1819 4750 
Q 2544 4750 2975 4387 
Q 3406 4025 3406 3419 
Q 3406 3131 3298 2873 
Q 3191 2616 2906 2266 
Q 2828 2175 2409 1742 
Q 1991 1309 1228 531 
z
" transform="scale(0.015625)"/>
       </defs>
       <use xlink:href="#DejaVuSans-33"/>
       <use xlink:href="#DejaVuSans-32" x="63.623047"/>
      </g>
     </g>
    </g>
    <g id="xtick_5">
     <g id="text_5">
      <!-- 64 -->
      <g style="fill: #262626" transform="translate(349.796705 204.518281) scale(0.11 -0.11)">
       <use xlink:href="#DejaVuSans-36"/>
       <use xlink:href="#DejaVuSans-34" x="63.623047"/>
      </g>
     </g>
    </g>
    <g id="xtick_6">
     <g id="text_6">
      <!-- 128 -->
      <g style="fill: #262626" transform="translate(411.985208 204.518281) scale(0.11 -0.11)">
       <use xlink:href="#DejaVuSans-31"/>
       <use xlink:href="#DejaVuSans-32" x="63.623047"/>
       <use xlink:href="#DejaVuSans-38" x="127.246094"/>
      </g>
     </g>
    </g>
    <g id="text_7">
     <!-- Nodes -->
     <g style="fill: #262626" transform="translate(236.34598 221.44375) scale(0.14 -0.14)">
      <defs>
       <path id="DejaVuSans-4e" d="M 628 4666 
L 1478 4666 
L 3547 763 
L 3547 4666 
L 4159 4666 
L 4159 0 
L 3309 0 
L 1241 3903 
L 1241 0 
L 628 0 
L 628 4666 
z
" transform="scale(0.015625)"/>
       <path id="DejaVuSans-6f" d="M 1959 3097 
Q 1497 3097 1228 2736 
Q 959 2375 959 1747 
Q 959 1119 1226 758 
Q 1494 397 1959 397 
Q 2419 397 2687 759 
Q 2956 1122 2956 1747 
Q 2956 2369 2687 2733 
Q 2419 3097 1959 3097 
z
M 1959 3584 
Q 2709 3584 3137 3096 
Q 3566 2609 3566 1747 
Q 3566 888 3137 398 
Q 2709 -91 1959 -91 
Q 1206 -91 779 398 
Q 353 888 353 1747 
Q 353 2609 779 3096 
Q 1206 3584 1959 3584 
z
" transform="scale(0.015625)"/>
       <path id="DejaVuSans-64" d="M 2906 2969 
L 2906 4863 
L 3481 4863 
L 3481 0 
L 2906 0 
L 2906 525 
Q 2725 213 2448 61 
Q 2172 -91 1784 -91 
Q 1150 -91 751 415 
Q 353 922 353 1747 
Q 353 2572 751 3078 
Q 1150 3584 1784 3584 
Q 2172 3584 2448 3432 
Q 2725 3281 2906 2969 
z
M 947 1747 
Q 947 1113 1208 752 
Q 1469 391 1925 391 
Q 2381 391 2643 752 
Q 2906 1113 2906 1747 
Q 2906 2381 2643 2742 
Q 2381 3103 1925 3103 
Q 1469 3103 1208 2742 
Q 947 2381 947 1747 
z
" transform="scale(0.015625)"/>
       <path id="DejaVuSans-65" d="M 3597 1894 
L 3597 1613 
L 953 1613 
Q 991 1019 1311 708 
Q 1631 397 2203 397 
Q 2534 397 2845 478 
Q 3156 559 3463 722 
L 3463 178 
Q 3153 47 2828 -22 
Q 2503 -91 2169 -91 
Q 1331 -91 842 396 
Q 353 884 353 1716 
Q 353 2575 817 3079 
Q 1281 3584 2069 3584 
Q 2775 3584 3186 3129 
Q 3597 2675 3597 1894 
z
M 3022 2063 
Q 3016 2534 2758 2815 
Q 2500 3097 2075 3097 
Q 1594 3097 1305 2825 
Q 1016 2553 972 2059 
L 3022 2063 
z
" transform="scale(0.015625)"/>
       <path id="DejaVuSans-73" d="M 2834 3397 
L 2834 2853 
Q 2591 2978 2328 3040 
Q 2066 3103 1784 3103 
Q 1356 3103 1142 2972 
Q 928 2841 928 2578 
Q 928 2378 1081 2264 
Q 1234 2150 1697 2047 
L 1894 2003 
Q 2506 1872 2764 1633 
Q 3022 1394 3022 966 
Q 3022 478 2636 193 
Q 2250 -91 1575 -91 
Q 1294 -91 989 -36 
Q 684 19 347 128 
L 347 722 
Q 666 556 975 473 
Q 1284 391 1588 391 
Q 1994 391 2212 530 
Q 2431 669 2431 922 
Q 2431 1156 2273 1281 
Q 2116 1406 1581 1522 
L 1381 1569 
Q 847 1681 609 1914 
Q 372 2147 372 2553 
Q 372 3047 722 3315 
Q 1072 3584 1716 3584 
Q 2034 3584 2315 3537 
Q 2597 3491 2834 3397 
z
" transform="scale(0.015625)"/>
      </defs>
      <use xlink:href="#DejaVuSans-4e"/>
      <use xlink:href="#DejaVuSans-6f" x="74.804688"/>
      <use xlink:href="#DejaVuSans-64" x="135.986328"/>
      <use xlink:href="#DejaVuSans-65" x="199.462891"/>
      <use xlink:href="#DejaVuSans-73" x="260.986328"/>
     </g>
    </g>
   </g>
   <g id="matplotlib.axis_2">
    <g id="ytick_1">
     <g id="line2d_1">
      <path d="M 61.2 186.66 
L 455.327273 186.66 
" clip-path="url(#pf5d4bcc9dc)" style="fill: none; stroke: #cccccc; stroke-linecap: round"/>
     </g>
     <g id="text_8">
      <!-- 0 -->
      <g style="fill: #262626" transform="translate(44.70125 190.839141) scale(0.11 -0.11)">
       <defs>
        <path id="DejaVuSans-30" d="M 2034 4250 
Q 1547 4250 1301 3770 
Q 1056 3291 1056 2328 
Q 1056 1369 1301 889 
Q 1547 409 2034 409 
Q 2525 409 2770 889 
Q 3016 1369 3016 2328 
Q 3016 3291 2770 3770 
Q 2525 4250 2034 4250 
z
M 2034 4750 
Q 2819 4750 3233 4129 
Q 3647 3509 3647 2328 
Q 3647 1150 3233 529 
Q 2819 -91 2034 -91 
Q 1250 -91 836 529 
Q 422 1150 422 2328 
Q 422 3509 836 4129 
Q 1250 4750 2034 4750 
z
" transform="scale(0.015625)"/>
       </defs>
       <use xlink:href="#DejaVuSans-30"/>
      </g>
     </g>
    </g>
    <g id="ytick_2">
     <g id="line2d_2">
      <path d="M 61.2 156.774286 
L 455.327273 156.774286 
" clip-path="url(#pf5d4bcc9dc)" style="fill: none; stroke: #cccccc; stroke-linecap: round"/>
     </g>
     <g id="text_9">
      <!-- 20 -->
      <g style="fill: #262626" transform="translate(37.7025 160.953426) scale(0.11 -0.11)">
       <use xlink:href="#DejaVuSans-32"/>
       <use xlink:href="#DejaVuSans-30" x="63.623047"/>
      </g>
     </g>
    </g>
    <g id="ytick_3">
     <g id="line2d_3">
      <path d="M 61.2 126.888571 
L 455.327273 126.888571 
" clip-path="url(#pf5d4bcc9dc)" style="fill: none; stroke: #cccccc; stroke-linecap: round"/>
     </g>
     <g id="text_10">
      <!-- 40 -->
      <g style="fill: #262626" transform="translate(37.7025 131.067712) scale(0.11 -0.11)">
       <use xlink:href="#DejaVuSans-34"/>
       <use xlink:href="#DejaVuSans-30" x="63.623047"/>
      </g>
     </g>
    </g>
    <g id="ytick_4">
     <g id="line2d_4">
      <path d="M 61.2 97.002857 
L 455.327273 97.002857 
" clip-path="url(#pf5d4bcc9dc)" style="fill: none; stroke: #cccccc; stroke-linecap: round"/>
     </g>
     <g id="text_11">
      <!-- 60 -->
      <g style="fill: #262626" transform="translate(37.7025 101.181998) scale(0.11 -0.11)">
       <use xlink:href="#DejaVuSans-36"/>
       <use xlink:href="#DejaVuSans-30" x="63.623047"/>
      </g>
     </g>
    </g>
    <g id="ytick_5">
     <g id="line2d_5">
      <path d="M 61.2 67.117143 
L 455.327273 67.117143 
" clip-path="url(#pf5d4bcc9dc)" style="fill: none; stroke: #cccccc; stroke-linecap: round"/>
     </g>
     <g id="text_12">
      <!-- 80 -->
      <g style="fill: #262626" transform="translate(37.7025 71.296283) scale(0.11 -0.11)">
       <use xlink:href="#DejaVuSans-38"/>
       <use xlink:href="#DejaVuSans-30" x="63.623047"/>
      </g>
     </g>
    </g>
    <g id="ytick_6">
     <g id="line2d_6">
      <path d="M 61.2 37.231429 
L 455.327273 37.231429 
" clip-path="url(#pf5d4bcc9dc)" style="fill: none; stroke: #cccccc; stroke-linecap: round"/>
     </g>
     <g id="text_13">
      <!-- 100 -->
      <g style="fill: #262626" transform="translate(30.70375 41.410569) scale(0.11 -0.11)">
       <use xlink:href="#DejaVuSans-31"/>
       <use xlink:href="#DejaVuSans-30" x="63.623047"/>
       <use xlink:href="#DejaVuSans-30" x="127.246094"/>
      </g>
     </g>
    </g>
    <g id="text_14">
     <!-- Seconds -->
     <g style="fill: #262626" transform="translate(23.792188 137.619844) rotate(-90) scale(0.14 -0.14)">
      <defs>
       <path id="DejaVuSans-53" d="M 3425 4513 
L 3425 3897 
Q 3066 4069 2747 4153 
Q 2428 4238 2131 4238 
Q 1616 4238 1336 4038 
Q 1056 3838 1056 3469 
Q 1056 3159 1242 3001 
Q 1428 2844 1947 2747 
L 2328 2669 
Q 3034 2534 3370 2195 
Q 3706 1856 3706 1288 
Q 3706 609 3251 259 
Q 2797 -91 1919 -91 
Q 1588 -91 1214 -16 
Q 841 59 441 206 
L 441 856 
Q 825 641 1194 531 
Q 1563 422 1919 422 
Q 2459 422 2753 634 
Q 3047 847 3047 1241 
Q 3047 1584 2836 1778 
Q 2625 1972 2144 2069 
L 1759 2144 
Q 1053 2284 737 2584 
Q 422 2884 422 3419 
Q 422 4038 858 4394 
Q 1294 4750 2059 4750 
Q 2388 4750 2728 4690 
Q 3069 4631 3425 4513 
z
" transform="scale(0.015625)"/>
       <path id="DejaVuSans-63" d="M 3122 3366 
L 3122 2828 
Q 2878 2963 2633 3030 
Q 2388 3097 2138 3097 
Q 1578 3097 1268 2742 
Q 959 2388 959 1747 
Q 959 1106 1268 751 
Q 1578 397 2138 397 
Q 2388 397 2633 464 
Q 2878 531 3122 666 
L 3122 134 
Q 2881 22 2623 -34 
Q 2366 -91 2075 -91 
Q 1284 -91 818 406 
Q 353 903 353 1747 
Q 353 2603 823 3093 
Q 1294 3584 2113 3584 
Q 2378 3584 2631 3529 
Q 2884 3475 3122 3366 
z
" transform="scale(0.015625)"/>
       <path id="DejaVuSans-6e" d="M 3513 2113 
L 3513 0 
L 2938 0 
L 2938 2094 
Q 2938 2591 2744 2837 
Q 2550 3084 2163 3084 
Q 1697 3084 1428 2787 
Q 1159 2491 1159 1978 
L 1159 0 
L 581 0 
L 581 3500 
L 1159 3500 
L 1159 2956 
Q 1366 3272 1645 3428 
Q 1925 3584 2291 3584 
Q 2894 3584 3203 3211 
Q 3513 2838 3513 2113 
z
" transform="scale(0.015625)"/>
      </defs>
      <use xlink:href="#DejaVuSans-53"/>
      <use xlink:href="#DejaVuSans-65" x="63.476562"/>
      <use xlink:href="#DejaVuSans-63" x="125"/>
      <use xlink:href="#DejaVuSans-6f" x="179.980469"/>
      <use xlink:href="#DejaVuSans-6e" x="241.162109"/>
      <use xlink:href="#DejaVuSans-64" x="304.541016"/>
      <use xlink:href="#DejaVuSans-73" x="368.017578"/>
     </g>
    </g>
   </g>
   <g id="patch_3">
    <path d="M 67.768788 186.66 
L 73.023818 186.66 
L 73.023818 87.539048 
L 67.768788 87.539048 
z
" clip-path="url(#pf5d4bcc9dc)" style="fill: #759adc; stroke: #ffffff; stroke-linejoin: miter"/>
   </g>
   <g id="patch_4">
    <path d="M 133.456667 186.66 
L 138.711697 186.66 
L 138.711697 113.44 
L 133.456667 113.44 
z
" clip-path="url(#pf5d4bcc9dc)" style="fill: #759adc; stroke: #ffffff; stroke-linejoin: miter"/>
   </g>
   <g id="patch_5">
    <path d="M 199.144545 186.66 
L 204.399576 186.66 
L 204.399576 130.873333 
L 199.144545 130.873333 
z
" clip-path="url(#pf5d4bcc9dc)" style="fill: #759adc; stroke: #ffffff; stroke-linejoin: miter"/>
   </g>
   <g id="patch_6">
    <path d="M 264.832424 186.66 
L 270.087455 186.66 
L 270.087455 139.839048 
L 264.832424 139.839048 
z
" clip-path="url(#pf5d4bcc9dc)" style="fill: #759adc; stroke: #ffffff; stroke-linejoin: miter"/>
   </g>
   <g id="patch_7">
    <path d="M 330.520303 186.66 
L 335.775333 186.66 
L 335.775333 137.846667 
L 330.520303 137.846667 
z
" clip-path="url(#pf5d4bcc9dc)" style="fill: #759adc; stroke: #ffffff; stroke-linejoin: miter"/>
   </g>
   <g id="patch_8">
    <path d="M 396.208182 186.66 
L 401.463212 186.66 
L 401.463212 130.375238 
L 396.208182 130.375238 
z
" clip-path="url(#pf5d4bcc9dc)" style="fill: #759adc; stroke: #ffffff; stroke-linejoin: miter"/>
   </g>
   <g id="patch_9">
    <path d="M 73.023818 186.66 
L 78.278848 186.66 
L 78.278848 79.370286 
L 73.023818 79.370286 
z
" clip-path="url(#pf5d4bcc9dc)" style="fill: #7c8fa2; stroke: #ffffff; stroke-linejoin: miter"/>
   </g>
   <g id="patch_10">
    <path d="M 138.711697 186.66 
L 143.966727 186.66 
L 143.966727 125.693143 
L 138.711697 125.693143 
z
" clip-path="url(#pf5d4bcc9dc)" style="fill: #7c8fa2; stroke: #ffffff; stroke-linejoin: miter"/>
   </g>
   <g id="patch_11">
    <path d="M 204.399576 186.66 
L 209.654606 186.66 
L 209.654606 143.325714 
L 204.399576 143.325714 
z
" clip-path="url(#pf5d4bcc9dc)" style="fill: #7c8fa2; stroke: #ffffff; stroke-linejoin: miter"/>
   </g>
   <g id="patch_12">
    <path d="M 270.087455 186.66 
L 275.342485 186.66 
L 275.342485 153.188 
L 270.087455 153.188 
z
" clip-path="url(#pf5d4bcc9dc)" style="fill: #7c8fa2; stroke: #ffffff; stroke-linejoin: miter"/>
   </g>
   <g id="patch_13">
    <path d="M 335.775333 186.66 
L 341.030364 186.66 
L 341.030364 140.337143 
L 335.775333 140.337143 
z
" clip-path="url(#pf5d4bcc9dc)" style="fill: #7c8fa2; stroke: #ffffff; stroke-linejoin: miter"/>
   </g>
   <g id="patch_14">
    <path d="M 401.463212 186.66 
L 406.718242 186.66 
L 406.718242 126.888571 
L 401.463212 126.888571 
z
" clip-path="url(#pf5d4bcc9dc)" style="fill: #7c8fa2; stroke: #ffffff; stroke-linejoin: miter"/>
   </g>
   <g id="patch_15">
    <path d="M 78.278848 186.66 
L 83.533879 186.66 
L 83.533879 79.569524 
L 78.278848 79.569524 
z
" clip-path="url(#pf5d4bcc9dc)" style="fill: #154b96; stroke: #ffffff; stroke-linejoin: miter"/>
   </g>
   <g id="patch_16">
    <path d="M 143.966727 186.66 
L 149.221758 186.66 
L 149.221758 101.485714 
L 143.966727 101.485714 
z
" clip-path="url(#pf5d4bcc9dc)" style="fill: #154b96; stroke: #ffffff; stroke-linejoin: miter"/>
   </g>
   <g id="patch_17">
    <path d="M 209.654606 186.66 
L 214.909636 186.66 
L 214.909636 118.420952 
L 209.654606 118.420952 
z
" clip-path="url(#pf5d4bcc9dc)" style="fill: #154b96; stroke: #ffffff; stroke-linejoin: miter"/>
   </g>
   <g id="patch_18">
    <path d="M 275.342485 186.66 
L 280.597515 186.66 
L 280.597515 119.417143 
L 275.342485 119.417143 
z
" clip-path="url(#pf5d4bcc9dc)" style="fill: #154b96; stroke: #ffffff; stroke-linejoin: miter"/>
   </g>
   <g id="patch_19">
    <path d="M 341.030364 186.66 
L 346.285394 186.66 
L 346.285394 95.010476 
L 341.030364 95.010476 
z
" clip-path="url(#pf5d4bcc9dc)" style="fill: #154b96; stroke: #ffffff; stroke-linejoin: miter"/>
   </g>
   <g id="patch_20">
    <path d="M 406.718242 186.66 
L 411.973273 186.66 
L 411.973273 86.542857 
L 406.718242 86.542857 
z
" clip-path="url(#pf5d4bcc9dc)" style="fill: #154b96; stroke: #ffffff; stroke-linejoin: miter"/>
   </g>
   <g id="patch_21">
    <path d="M 83.533879 186.66 
L 88.788909 186.66 
L 88.788909 90.527619 
L 83.533879 90.527619 
z
" clip-path="url(#pf5d4bcc9dc)" style="fill: #e0a7f2; stroke: #ffffff; stroke-linejoin: miter"/>
   </g>
   <g id="patch_22">
    <path d="M 149.221758 186.66 
L 154.476788 186.66 
L 154.476788 119.417143 
L 149.221758 119.417143 
z
" clip-path="url(#pf5d4bcc9dc)" style="fill: #e0a7f2; stroke: #ffffff; stroke-linejoin: miter"/>
   </g>
   <g id="patch_23">
    <path d="M 214.909636 186.66 
L 220.164667 186.66 
L 220.164667 142.827619 
L 214.909636 142.827619 
z
" clip-path="url(#pf5d4bcc9dc)" style="fill: #e0a7f2; stroke: #ffffff; stroke-linejoin: miter"/>
   </g>
   <g id="patch_24">
    <path d="M 280.597515 186.66 
L 285.852545 186.66 
L 285.852545 145.318095 
L 280.597515 145.318095 
z
" clip-path="url(#pf5d4bcc9dc)" style="fill: #e0a7f2; stroke: #ffffff; stroke-linejoin: miter"/>
   </g>
   <g id="patch_25">
    <path d="M 346.285394 186.66 
L 351.540424 186.66 
L 351.540424 138.344762 
L 346.285394 138.344762 
z
" clip-path="url(#pf5d4bcc9dc)" style="fill: #e0a7f2; stroke: #ffffff; stroke-linejoin: miter"/>
   </g>
   <g id="patch_26">
    <path d="M 411.973273 186.66 
L 417.228303 186.66 
L 417.228303 132.367619 
L 411.973273 132.367619 
z
" clip-path="url(#pf5d4bcc9dc)" style="fill: #e0a7f2; stroke: #ffffff; stroke-linejoin: miter"/>
   </g>
   <g id="patch_27">
    <path d="M 88.788909 186.66 
L 94.043939 186.66 
L 94.043939 83.554286 
L 88.788909 83.554286 
z
" clip-path="url(#pf5d4bcc9dc)" style="fill: #a859c1; stroke: #ffffff; stroke-linejoin: miter"/>
   </g>
   <g id="patch_28">
    <path d="M 154.476788 186.66 
L 159.731818 186.66 
L 159.731818 128.980571 
L 154.476788 128.980571 
z
" clip-path="url(#pf5d4bcc9dc)" style="fill: #a859c1; stroke: #ffffff; stroke-linejoin: miter"/>
   </g>
   <g id="patch_29">
    <path d="M 220.164667 186.66 
L 225.419697 186.66 
L 225.419697 146.314286 
L 220.164667 146.314286 
z
" clip-path="url(#pf5d4bcc9dc)" style="fill: #a859c1; stroke: #ffffff; stroke-linejoin: miter"/>
   </g>
   <g id="patch_30">
    <path d="M 285.852545 186.66 
L 291.107576 186.66 
L 291.107576 151.992571 
L 285.852545 151.992571 
z
" clip-path="url(#pf5d4bcc9dc)" style="fill: #a859c1; stroke: #ffffff; stroke-linejoin: miter"/>
   </g>
   <g id="patch_31">
    <path d="M 351.540424 186.66 
L 356.795455 186.66 
L 356.795455 142.130286 
L 351.540424 142.130286 
z
" clip-path="url(#pf5d4bcc9dc)" style="fill: #a859c1; stroke: #ffffff; stroke-linejoin: miter"/>
   </g>
   <g id="patch_32">
    <path d="M 417.228303 186.66 
L 422.483333 186.66 
L 422.483333 130.773714 
L 417.228303 130.773714 
z
" clip-path="url(#pf5d4bcc9dc)" style="fill: #a859c1; stroke: #ffffff; stroke-linejoin: miter"/>
   </g>
   <g id="patch_33">
    <path d="M 94.043939 186.66 
L 99.29897 186.66 
L 99.29897 77.577143 
L 94.043939 77.577143 
z
" clip-path="url(#pf5d4bcc9dc)" style="fill: #622576; stroke: #ffffff; stroke-linejoin: miter"/>
   </g>
   <g id="patch_34">
    <path d="M 159.731818 186.66 
L 164.986848 186.66 
L 164.986848 104.972381 
L 159.731818 104.972381 
z
" clip-path="url(#pf5d4bcc9dc)" style="fill: #622576; stroke: #ffffff; stroke-linejoin: miter"/>
   </g>
   <g id="patch_35">
    <path d="M 225.419697 186.66 
L 230.674727 186.66 
L 230.674727 122.405714 
L 225.419697 122.405714 
z
" clip-path="url(#pf5d4bcc9dc)" style="fill: #622576; stroke: #ffffff; stroke-linejoin: miter"/>
   </g>
   <g id="patch_36">
    <path d="M 291.107576 186.66 
L 296.362606 186.66 
L 296.362606 118.420952 
L 291.107576 118.420952 
z
" clip-path="url(#pf5d4bcc9dc)" style="fill: #622576; stroke: #ffffff; stroke-linejoin: miter"/>
   </g>
   <g id="patch_37">
    <path d="M 356.795455 186.66 
L 362.050485 186.66 
L 362.050485 96.006667 
L 356.795455 96.006667 
z
" clip-path="url(#pf5d4bcc9dc)" style="fill: #622576; stroke: #ffffff; stroke-linejoin: miter"/>
   </g>
   <g id="patch_38">
    <path d="M 422.483333 186.66 
L 427.738364 186.66 
L 427.738364 82.558095 
L 422.483333 82.558095 
z
" clip-path="url(#pf5d4bcc9dc)" style="fill: #622576; stroke: #ffffff; stroke-linejoin: miter"/>
   </g>
   <g id="patch_39">
    <path d="M 99.29897 186.66 
L 104.554 186.66 
L 104.554 46.695238 
L 99.29897 46.695238 
z
" clip-path="url(#pf5d4bcc9dc)" style="fill: #c4d495; stroke: #ffffff; stroke-linejoin: miter"/>
   </g>
   <g id="patch_40">
    <path d="M 164.986848 186.66 
L 170.241879 186.66 
L 170.241879 97.999048 
L 164.986848 97.999048 
z
" clip-path="url(#pf5d4bcc9dc)" style="fill: #c4d495; stroke: #ffffff; stroke-linejoin: miter"/>
   </g>
   <g id="patch_41">
    <path d="M 230.674727 186.66 
L 235.929758 186.66 
L 235.929758 126.888571 
L 230.674727 126.888571 
z
" clip-path="url(#pf5d4bcc9dc)" style="fill: #c4d495; stroke: #ffffff; stroke-linejoin: miter"/>
   </g>
   <g id="patch_42">
    <path d="M 296.362606 186.66 
L 301.617636 186.66 
L 301.617636 138.842857 
L 296.362606 138.842857 
z
" clip-path="url(#pf5d4bcc9dc)" style="fill: #c4d495; stroke: #ffffff; stroke-linejoin: miter"/>
   </g>
   <g id="patch_43">
    <path d="M 362.050485 186.66 
L 367.305515 186.66 
L 367.305515 127.386667 
L 362.050485 127.386667 
z
" clip-path="url(#pf5d4bcc9dc)" style="fill: #c4d495; stroke: #ffffff; stroke-linejoin: miter"/>
   </g>
   <g id="patch_44">
    <path d="M 427.738364 186.66 
L 432.993394 186.66 
L 432.993394 127.386667 
L 427.738364 127.386667 
z
" clip-path="url(#pf5d4bcc9dc)" style="fill: #c4d495; stroke: #ffffff; stroke-linejoin: miter"/>
   </g>
   <g id="patch_45">
    <path d="M 104.554 186.66 
L 109.80903 186.66 
L 109.80903 51.576571 
L 104.554 51.576571 
z
" clip-path="url(#pf5d4bcc9dc)" style="fill: #7aa163; stroke: #ffffff; stroke-linejoin: miter"/>
   </g>
   <g id="patch_46">
    <path d="M 170.241879 186.66 
L 175.496909 186.66 
L 175.496909 104.773143 
L 170.241879 104.773143 
z
" clip-path="url(#pf5d4bcc9dc)" style="fill: #7aa163; stroke: #ffffff; stroke-linejoin: miter"/>
   </g>
   <g id="patch_47">
    <path d="M 235.929758 186.66 
L 241.184788 186.66 
L 241.184788 134.36 
L 235.929758 134.36 
z
" clip-path="url(#pf5d4bcc9dc)" style="fill: #7aa163; stroke: #ffffff; stroke-linejoin: miter"/>
   </g>
   <g id="patch_48">
    <path d="M 301.617636 186.66 
L 306.872667 186.66 
L 306.872667 146.314286 
L 301.617636 146.314286 
z
" clip-path="url(#pf5d4bcc9dc)" style="fill: #7aa163; stroke: #ffffff; stroke-linejoin: miter"/>
   </g>
   <g id="patch_49">
    <path d="M 367.305515 186.66 
L 372.560545 186.66 
L 372.560545 136.452 
L 367.305515 136.452 
z
" clip-path="url(#pf5d4bcc9dc)" style="fill: #7aa163; stroke: #ffffff; stroke-linejoin: miter"/>
   </g>
   <g id="patch_50">
    <path d="M 432.993394 186.66 
L 438.248424 186.66 
L 438.248424 124.796571 
L 432.993394 124.796571 
z
" clip-path="url(#pf5d4bcc9dc)" style="fill: #7aa163; stroke: #ffffff; stroke-linejoin: miter"/>
   </g>
   <g id="patch_51">
    <path d="M 109.80903 186.66 
L 115.064061 186.66 
L 115.064061 38.227619 
L 109.80903 38.227619 
z
" clip-path="url(#pf5d4bcc9dc)" style="fill: #3e7637; stroke: #ffffff; stroke-linejoin: miter"/>
   </g>
   <g id="patch_52">
    <path d="M 175.496909 186.66 
L 180.751939 186.66 
L 180.751939 91.025714 
L 175.496909 91.025714 
z
" clip-path="url(#pf5d4bcc9dc)" style="fill: #3e7637; stroke: #ffffff; stroke-linejoin: miter"/>
   </g>
   <g id="patch_53">
    <path d="M 241.184788 186.66 
L 246.439818 186.66 
L 246.439818 109.455238 
L 241.184788 109.455238 
z
" clip-path="url(#pf5d4bcc9dc)" style="fill: #3e7637; stroke: #ffffff; stroke-linejoin: miter"/>
   </g>
   <g id="patch_54">
    <path d="M 306.872667 186.66 
L 312.127697 186.66 
L 312.127697 114.43619 
L 306.872667 114.43619 
z
" clip-path="url(#pf5d4bcc9dc)" style="fill: #3e7637; stroke: #ffffff; stroke-linejoin: miter"/>
   </g>
   <g id="patch_55">
    <path d="M 372.560545 186.66 
L 377.815576 186.66 
L 377.815576 90.029524 
L 372.560545 90.029524 
z
" clip-path="url(#pf5d4bcc9dc)" style="fill: #3e7637; stroke: #ffffff; stroke-linejoin: miter"/>
   </g>
   <g id="patch_56">
    <path d="M 438.248424 186.66 
L 443.503455 186.66 
L 443.503455 79.071429 
L 438.248424 79.071429 
z
" clip-path="url(#pf5d4bcc9dc)" style="fill: #3e7637; stroke: #ffffff; stroke-linejoin: miter"/>
   </g>
   <g id="patch_57">
    <path d="M 115.064061 186.66 
L 120.319091 186.66 
L 120.319091 128.084 
L 115.064061 128.084 
z
" clip-path="url(#pf5d4bcc9dc)" style="fill: #8a404f; stroke: #ffffff; stroke-linejoin: miter"/>
   </g>
   <g id="patch_58">
    <path d="M 180.751939 186.66 
L 186.00697 186.66 
L 186.00697 149.302857 
L 180.751939 149.302857 
z
" clip-path="url(#pf5d4bcc9dc)" style="fill: #8a404f; stroke: #ffffff; stroke-linejoin: miter"/>
   </g>
   <g id="patch_59">
    <path d="M 246.439818 186.66 
L 251.694848 186.66 
L 251.694848 161.257143 
L 246.439818 161.257143 
z
" clip-path="url(#pf5d4bcc9dc)" style="fill: #8a404f; stroke: #ffffff; stroke-linejoin: miter"/>
   </g>
   <g id="patch_60">
    <path d="M 312.127697 186.66 
L 317.382727 186.66 
L 317.382727 168.429714 
L 312.127697 168.429714 
z
" clip-path="url(#pf5d4bcc9dc)" style="fill: #8a404f; stroke: #ffffff; stroke-linejoin: miter"/>
   </g>
   <g id="patch_61">
    <path d="M 377.815576 186.66 
L 383.070606 186.66 
L 383.070606 172.314857 
L 377.815576 172.314857 
z
" clip-path="url(#pf5d4bcc9dc)" style="fill: #8a404f; stroke: #ffffff; stroke-linejoin: miter"/>
   </g>
   <g id="patch_62">
    <path d="M 443.503455 186.66 
L 448.758485 186.66 
L 448.758485 172.613714 
L 443.503455 172.613714 
z
" clip-path="url(#pf5d4bcc9dc)" style="fill: #8a404f; stroke: #ffffff; stroke-linejoin: miter"/>
   </g>
   <g id="patch_63">
    <path d="M 94.043939 186.66 
L 94.043939 186.66 
L 94.043939 186.66 
L 94.043939 186.66 
z
" clip-path="url(#pf5d4bcc9dc)" style="fill: #759adc; stroke: #ffffff; stroke-linejoin: miter"/>
   </g>
   <g id="patch_64">
    <path d="M 94.043939 186.66 
L 94.043939 186.66 
L 94.043939 186.66 
L 94.043939 186.66 
z
" clip-path="url(#pf5d4bcc9dc)" style="fill: #7c8fa2; stroke: #ffffff; stroke-linejoin: miter"/>
   </g>
   <g id="patch_65">
    <path d="M 94.043939 186.66 
L 94.043939 186.66 
L 94.043939 186.66 
L 94.043939 186.66 
z
" clip-path="url(#pf5d4bcc9dc)" style="fill: #154b96; stroke: #ffffff; stroke-linejoin: miter"/>
   </g>
   <g id="patch_66">
    <path d="M 94.043939 186.66 
L 94.043939 186.66 
L 94.043939 186.66 
L 94.043939 186.66 
z
" clip-path="url(#pf5d4bcc9dc)" style="fill: #e0a7f2; stroke: #ffffff; stroke-linejoin: miter"/>
   </g>
   <g id="patch_67">
    <path d="M 94.043939 186.66 
L 94.043939 186.66 
L 94.043939 186.66 
L 94.043939 186.66 
z
" clip-path="url(#pf5d4bcc9dc)" style="fill: #a859c1; stroke: #ffffff; stroke-linejoin: miter"/>
   </g>
   <g id="patch_68">
    <path d="M 94.043939 186.66 
L 94.043939 186.66 
L 94.043939 186.66 
L 94.043939 186.66 
z
" clip-path="url(#pf5d4bcc9dc)" style="fill: #622576; stroke: #ffffff; stroke-linejoin: miter"/>
   </g>
   <g id="patch_69">
    <path d="M 94.043939 186.66 
L 94.043939 186.66 
L 94.043939 186.66 
L 94.043939 186.66 
z
" clip-path="url(#pf5d4bcc9dc)" style="fill: #c4d495; stroke: #ffffff; stroke-linejoin: miter"/>
   </g>
   <g id="patch_70">
    <path d="M 94.043939 186.66 
L 94.043939 186.66 
L 94.043939 186.66 
L 94.043939 186.66 
z
" clip-path="url(#pf5d4bcc9dc)" style="fill: #7aa163; stroke: #ffffff; stroke-linejoin: miter"/>
   </g>
   <g id="patch_71">
    <path d="M 94.043939 186.66 
L 94.043939 186.66 
L 94.043939 186.66 
L 94.043939 186.66 
z
" clip-path="url(#pf5d4bcc9dc)" style="fill: #3e7637; stroke: #ffffff; stroke-linejoin: miter"/>
   </g>
   <g id="patch_72">
    <path d="M 94.043939 186.66 
L 94.043939 186.66 
L 94.043939 186.66 
L 94.043939 186.66 
z
" clip-path="url(#pf5d4bcc9dc)" style="fill: #8a404f; stroke: #ffffff; stroke-linejoin: miter"/>
   </g>
   <g id="line2d_7">
    <path d="M 70.396303 89.531429 
L 70.396303 86.542857 
" clip-path="url(#pf5d4bcc9dc)" style="fill: none; stroke: #8b0000; stroke-width: 2.25; stroke-linecap: round"/>
   </g>
   <g id="line2d_8">
    <path d="M 136.084182 125.394286 
L 136.084182 97.002857 
" clip-path="url(#pf5d4bcc9dc)" style="fill: none; stroke: #8b0000; stroke-width: 2.25; stroke-linecap: round"/>
   </g>
   <g id="line2d_9">
    <path d="M 201.772061 147.808571 
L 201.772061 116.428571 
" clip-path="url(#pf5d4bcc9dc)" style="fill: none; stroke: #8b0000; stroke-width: 2.25; stroke-linecap: round"/>
   </g>
   <g id="line2d_10">
    <path d="M 267.459939 152.291429 
L 267.459939 128.382857 
" clip-path="url(#pf5d4bcc9dc)" style="fill: none; stroke: #8b0000; stroke-width: 2.25; stroke-linecap: round"/>
   </g>
   <g id="line2d_11">
    <path d="M 333.147818 140.337143 
L 333.147818 135.854286 
" clip-path="url(#pf5d4bcc9dc)" style="fill: none; stroke: #8b0000; stroke-width: 2.25; stroke-linecap: round"/>
   </g>
   <g id="line2d_12">
    <path d="M 398.835697 132.865714 
L 398.835697 128.382857 
" clip-path="url(#pf5d4bcc9dc)" style="fill: none; stroke: #8b0000; stroke-width: 2.25; stroke-linecap: round"/>
   </g>
   <g id="line2d_13">
    <path d="M 75.651333 90.726857 
L 75.651333 57.553714 
" clip-path="url(#pf5d4bcc9dc)" style="fill: none; stroke: #8b0000; stroke-width: 2.25; stroke-linecap: round"/>
   </g>
   <g id="line2d_14">
    <path d="M 141.339212 131.072571 
L 141.339212 115.532 
" clip-path="url(#pf5d4bcc9dc)" style="fill: none; stroke: #8b0000; stroke-width: 2.25; stroke-linecap: round"/>
   </g>
   <g id="line2d_15">
    <path d="M 207.027091 148.107429 
L 207.027091 138.842857 
" clip-path="url(#pf5d4bcc9dc)" style="fill: none; stroke: #8b0000; stroke-width: 2.25; stroke-linecap: round"/>
   </g>
   <g id="line2d_16">
    <path d="M 272.71497 156.475429 
L 272.71497 149.900571 
" clip-path="url(#pf5d4bcc9dc)" style="fill: none; stroke: #8b0000; stroke-width: 2.25; stroke-linecap: round"/>
   </g>
   <g id="line2d_17">
    <path d="M 338.402848 144.82 
L 338.402848 133.754814 
" clip-path="url(#pf5d4bcc9dc)" style="fill: none; stroke: #8b0000; stroke-width: 2.25; stroke-linecap: round"/>
   </g>
   <g id="line2d_18">
    <path d="M 404.090727 128.084 
L 404.090727 125.693143 
" clip-path="url(#pf5d4bcc9dc)" style="fill: none; stroke: #8b0000; stroke-width: 2.25; stroke-linecap: round"/>
   </g>
   <g id="line2d_19">
    <path d="M 80.906364 80.565714 
L 80.906364 79.071429 
" clip-path="url(#pf5d4bcc9dc)" style="fill: none; stroke: #8b0000; stroke-width: 2.25; stroke-linecap: round"/>
   </g>
   <g id="line2d_20">
    <path d="M 146.594242 114.934286 
L 146.594242 88.037143 
" clip-path="url(#pf5d4bcc9dc)" style="fill: none; stroke: #8b0000; stroke-width: 2.25; stroke-linecap: round"/>
   </g>
   <g id="line2d_21">
    <path d="M 212.282121 123.9 
L 212.282121 108.957143 
" clip-path="url(#pf5d4bcc9dc)" style="fill: none; stroke: #8b0000; stroke-width: 2.25; stroke-linecap: round"/>
   </g>
   <g id="line2d_22">
    <path d="M 277.97 128.382857 
L 277.97 105.968571 
" clip-path="url(#pf5d4bcc9dc)" style="fill: none; stroke: #8b0000; stroke-width: 2.25; stroke-linecap: round"/>
   </g>
   <g id="line2d_23">
    <path d="M 343.657879 104.474286 
L 343.657879 80.565714 
" clip-path="url(#pf5d4bcc9dc)" style="fill: none; stroke: #8b0000; stroke-width: 2.25; stroke-linecap: round"/>
   </g>
   <g id="line2d_24">
    <path d="M 409.345758 91.025714 
L 409.345758 77.577143 
" clip-path="url(#pf5d4bcc9dc)" style="fill: none; stroke: #8b0000; stroke-width: 2.25; stroke-linecap: round"/>
   </g>
   <g id="line2d_25">
    <path d="M 86.161394 91.025714 
L 86.161394 89.531429 
" clip-path="url(#pf5d4bcc9dc)" style="fill: none; stroke: #8b0000; stroke-width: 2.25; stroke-linecap: round"/>
   </g>
   <g id="line2d_26">
    <path d="M 151.849273 126.888571 
L 151.849273 107.462857 
" clip-path="url(#pf5d4bcc9dc)" style="fill: none; stroke: #8b0000; stroke-width: 2.25; stroke-linecap: round"/>
   </g>
   <g id="line2d_27">
    <path d="M 217.537152 147.808571 
L 217.537152 137.348571 
" clip-path="url(#pf5d4bcc9dc)" style="fill: none; stroke: #8b0000; stroke-width: 2.25; stroke-linecap: round"/>
   </g>
   <g id="line2d_28">
    <path d="M 283.22503 153.785714 
L 283.22503 135.854286 
" clip-path="url(#pf5d4bcc9dc)" style="fill: none; stroke: #8b0000; stroke-width: 2.25; stroke-linecap: round"/>
   </g>
   <g id="line2d_29">
    <path d="M 348.912909 141.831429 
L 348.912909 135.854286 
" clip-path="url(#pf5d4bcc9dc)" style="fill: none; stroke: #8b0000; stroke-width: 2.25; stroke-linecap: round"/>
   </g>
   <g id="line2d_30">
    <path d="M 414.600788 138.842857 
L 414.600788 128.382857 
" clip-path="url(#pf5d4bcc9dc)" style="fill: none; stroke: #8b0000; stroke-width: 2.25; stroke-linecap: round"/>
   </g>
   <g id="line2d_31">
    <path d="M 91.416424 88.933714 
L 91.416424 78.772571 
" clip-path="url(#pf5d4bcc9dc)" style="fill: none; stroke: #8b0000; stroke-width: 2.25; stroke-linecap: round"/>
   </g>
   <g id="line2d_32">
    <path d="M 157.104303 129.877143 
L 157.104303 127.785143 
" clip-path="url(#pf5d4bcc9dc)" style="fill: none; stroke: #8b0000; stroke-width: 2.25; stroke-linecap: round"/>
   </g>
   <g id="line2d_33">
    <path d="M 222.792182 148.406286 
L 222.792182 143.026857 
" clip-path="url(#pf5d4bcc9dc)" style="fill: none; stroke: #8b0000; stroke-width: 2.25; stroke-linecap: round"/>
   </g>
   <g id="line2d_34">
    <path d="M 288.480061 155.28 
L 288.480061 146.015429 
" clip-path="url(#pf5d4bcc9dc)" style="fill: none; stroke: #8b0000; stroke-width: 2.25; stroke-linecap: round"/>
   </g>
   <g id="line2d_35">
    <path d="M 354.167939 146.613143 
L 354.167939 134.957714 
" clip-path="url(#pf5d4bcc9dc)" style="fill: none; stroke: #8b0000; stroke-width: 2.25; stroke-linecap: round"/>
   </g>
   <g id="line2d_36">
    <path d="M 419.855818 132.865714 
L 419.855818 128.382857 
" clip-path="url(#pf5d4bcc9dc)" style="fill: none; stroke: #8b0000; stroke-width: 2.25; stroke-linecap: round"/>
   </g>
   <g id="line2d_37">
    <path d="M 96.671455 77.577143 
L 96.671455 77.577143 
" clip-path="url(#pf5d4bcc9dc)" style="fill: none; stroke: #8b0000; stroke-width: 2.25; stroke-linecap: round"/>
   </g>
   <g id="line2d_38">
    <path d="M 162.359333 116.428571 
L 162.359333 89.531429 
" clip-path="url(#pf5d4bcc9dc)" style="fill: none; stroke: #8b0000; stroke-width: 2.25; stroke-linecap: round"/>
   </g>
   <g id="line2d_39">
    <path d="M 228.047212 128.382857 
L 228.047212 116.428571 
" clip-path="url(#pf5d4bcc9dc)" style="fill: none; stroke: #8b0000; stroke-width: 2.25; stroke-linecap: round"/>
   </g>
   <g id="line2d_40">
    <path d="M 293.735091 123.9 
L 293.735091 108.957143 
" clip-path="url(#pf5d4bcc9dc)" style="fill: none; stroke: #8b0000; stroke-width: 2.25; stroke-linecap: round"/>
   </g>
   <g id="line2d_41">
    <path d="M 359.42297 102.98 
L 359.42297 91.025714 
" clip-path="url(#pf5d4bcc9dc)" style="fill: none; stroke: #8b0000; stroke-width: 2.25; stroke-linecap: round"/>
   </g>
   <g id="line2d_42">
    <path d="M 425.110848 83.554286 
L 425.110848 80.565714 
" clip-path="url(#pf5d4bcc9dc)" style="fill: none; stroke: #8b0000; stroke-width: 2.25; stroke-linecap: round"/>
   </g>
   <g id="line2d_43">
    <path d="M 101.926485 49.185714 
L 101.926485 44.702857 
" clip-path="url(#pf5d4bcc9dc)" style="fill: none; stroke: #8b0000; stroke-width: 2.25; stroke-linecap: round"/>
   </g>
   <g id="line2d_44">
    <path d="M 167.614364 101.485714 
L 167.614364 94.014286 
" clip-path="url(#pf5d4bcc9dc)" style="fill: none; stroke: #8b0000; stroke-width: 2.25; stroke-linecap: round"/>
   </g>
   <g id="line2d_45">
    <path d="M 233.302242 132.865714 
L 233.302242 123.9 
" clip-path="url(#pf5d4bcc9dc)" style="fill: none; stroke: #8b0000; stroke-width: 2.25; stroke-linecap: round"/>
   </g>
   <g id="line2d_46">
    <path d="M 298.990121 146.314286 
L 298.990121 128.382857 
" clip-path="url(#pf5d4bcc9dc)" style="fill: none; stroke: #8b0000; stroke-width: 2.25; stroke-linecap: round"/>
   </g>
   <g id="line2d_47">
    <path d="M 364.678 141.831429 
L 364.678 117.922857 
" clip-path="url(#pf5d4bcc9dc)" style="fill: none; stroke: #8b0000; stroke-width: 2.25; stroke-linecap: round"/>
   </g>
   <g id="line2d_48">
    <path d="M 430.365879 128.382857 
L 430.365879 126.888571 
" clip-path="url(#pf5d4bcc9dc)" style="fill: none; stroke: #8b0000; stroke-width: 2.25; stroke-linecap: round"/>
   </g>
   <g id="line2d_49">
    <path d="M 107.181515 53.369714 
L 107.181515 48.879386 
" clip-path="url(#pf5d4bcc9dc)" style="fill: none; stroke: #8b0000; stroke-width: 2.25; stroke-linecap: round"/>
   </g>
   <g id="line2d_50">
    <path d="M 172.869394 108.658286 
L 172.869394 100.888 
" clip-path="url(#pf5d4bcc9dc)" style="fill: none; stroke: #8b0000; stroke-width: 2.25; stroke-linecap: round"/>
   </g>
   <g id="line2d_51">
    <path d="M 238.557273 135.854286 
L 238.557273 131.969143 
" clip-path="url(#pf5d4bcc9dc)" style="fill: none; stroke: #8b0000; stroke-width: 2.25; stroke-linecap: round"/>
   </g>
   <g id="line2d_52">
    <path d="M 304.245152 149.601714 
L 304.245152 141.831429 
" clip-path="url(#pf5d4bcc9dc)" style="fill: none; stroke: #8b0000; stroke-width: 2.25; stroke-linecap: round"/>
   </g>
   <g id="line2d_53">
    <path d="M 369.93303 142.130286 
L 369.93303 128.681714 
" clip-path="url(#pf5d4bcc9dc)" style="fill: none; stroke: #8b0000; stroke-width: 2.25; stroke-linecap: round"/>
   </g>
   <g id="line2d_54">
    <path d="M 435.620909 127.486286 
L 435.620909 122.6971 
" clip-path="url(#pf5d4bcc9dc)" style="fill: none; stroke: #8b0000; stroke-width: 2.25; stroke-linecap: round"/>
   </g>
   <g id="line2d_55">
    <path d="M 112.436545 40.22 
L 112.436545 37.231429 
" clip-path="url(#pf5d4bcc9dc)" style="fill: none; stroke: #8b0000; stroke-width: 2.25; stroke-linecap: round"/>
   </g>
   <g id="line2d_56">
    <path d="M 178.124424 94.014286 
L 178.124424 88.037143 
" clip-path="url(#pf5d4bcc9dc)" style="fill: none; stroke: #8b0000; stroke-width: 2.25; stroke-linecap: round"/>
   </g>
   <g id="line2d_57">
    <path d="M 243.812303 113.44 
L 243.812303 105.968571 
" clip-path="url(#pf5d4bcc9dc)" style="fill: none; stroke: #8b0000; stroke-width: 2.25; stroke-linecap: round"/>
   </g>
   <g id="line2d_58">
    <path d="M 309.500182 122.405714 
L 309.500182 104.474286 
" clip-path="url(#pf5d4bcc9dc)" style="fill: none; stroke: #8b0000; stroke-width: 2.25; stroke-linecap: round"/>
   </g>
   <g id="line2d_59">
    <path d="M 375.188061 96.504762 
L 375.188061 77.577143 
" clip-path="url(#pf5d4bcc9dc)" style="fill: none; stroke: #8b0000; stroke-width: 2.25; stroke-linecap: round"/>
   </g>
   <g id="line2d_60">
    <path d="M 440.875939 80.565714 
L 440.875939 76.082857 
" clip-path="url(#pf5d4bcc9dc)" style="fill: none; stroke: #8b0000; stroke-width: 2.25; stroke-linecap: round"/>
   </g>
   <g id="line2d_61">
    <path d="M 117.691576 128.382857 
L 117.691576 127.486286 
" clip-path="url(#pf5d4bcc9dc)" style="fill: none; stroke: #8b0000; stroke-width: 2.25; stroke-linecap: round"/>
   </g>
   <g id="line2d_62">
    <path d="M 183.379455 149.302857 
L 183.379455 149.302857 
" clip-path="url(#pf5d4bcc9dc)" style="fill: none; stroke: #8b0000; stroke-width: 2.25; stroke-linecap: round"/>
   </g>
   <g id="line2d_63">
    <path d="M 249.067333 161.257143 
L 249.067333 161.257143 
" clip-path="url(#pf5d4bcc9dc)" style="fill: none; stroke: #8b0000; stroke-width: 2.25; stroke-linecap: round"/>
   </g>
   <g id="line2d_64">
    <path d="M 314.755212 168.728571 
L 314.755212 167.832 
" clip-path="url(#pf5d4bcc9dc)" style="fill: none; stroke: #8b0000; stroke-width: 2.25; stroke-linecap: round"/>
   </g>
   <g id="line2d_65">
    <path d="M 380.443091 172.912571 
L 380.443091 171.717143 
" clip-path="url(#pf5d4bcc9dc)" style="fill: none; stroke: #8b0000; stroke-width: 2.25; stroke-linecap: round"/>
   </g>
   <g id="line2d_66">
    <path d="M 446.13097 173.211429 
L 446.13097 172.016 
" clip-path="url(#pf5d4bcc9dc)" style="fill: none; stroke: #8b0000; stroke-width: 2.25; stroke-linecap: round"/>
   </g>
   <g id="patch_73">
    <path d="M 61.2 186.66 
L 61.2 29.76 
" style="fill: none; stroke: #cccccc; stroke-width: 1.25; stroke-linejoin: miter; stroke-linecap: square"/>
   </g>
   <g id="patch_74">
    <path d="M 455.327273 186.66 
L 455.327273 29.76 
" style="fill: none; stroke: #cccccc; stroke-width: 1.25; stroke-linejoin: miter; stroke-linecap: square"/>
   </g>
   <g id="patch_75">
    <path d="M 61.2 186.66 
L 455.327273 186.66 
" style="fill: none; stroke: #cccccc; stroke-width: 1.25; stroke-linejoin: miter; stroke-linecap: square"/>
   </g>
   <g id="patch_76">
    <path d="M 61.2 29.76 
L 455.327273 29.76 
" style="fill: none; stroke: #cccccc; stroke-width: 1.25; stroke-linejoin: miter; stroke-linecap: square"/>
   </g>
   <g id="text_15">
    <!-- LAMMPS Wall-time -->
    <g style="fill: #262626" transform="translate(193.454574 23.76) scale(0.14 -0.14)">
     <defs>
      <path id="DejaVuSans-4c" d="M 628 4666 
L 1259 4666 
L 1259 531 
L 3531 531 
L 3531 0 
L 628 0 
L 628 4666 
z
" transform="scale(0.015625)"/>
      <path id="DejaVuSans-41" d="M 2188 4044 
L 1331 1722 
L 3047 1722 
L 2188 4044 
z
M 1831 4666 
L 2547 4666 
L 4325 0 
L 3669 0 
L 3244 1197 
L 1141 1197 
L 716 0 
L 50 0 
L 1831 4666 
z
" transform="scale(0.015625)"/>
      <path id="DejaVuSans-4d" d="M 628 4666 
L 1569 4666 
L 2759 1491 
L 3956 4666 
L 4897 4666 
L 4897 0 
L 4281 0 
L 4281 4097 
L 3078 897 
L 2444 897 
L 1241 4097 
L 1241 0 
L 628 0 
L 628 4666 
z
" transform="scale(0.015625)"/>
      <path id="DejaVuSans-50" d="M 1259 4147 
L 1259 2394 
L 2053 2394 
Q 2494 2394 2734 2622 
Q 2975 2850 2975 3272 
Q 2975 3691 2734 3919 
Q 2494 4147 2053 4147 
L 1259 4147 
z
M 628 4666 
L 2053 4666 
Q 2838 4666 3239 4311 
Q 3641 3956 3641 3272 
Q 3641 2581 3239 2228 
Q 2838 1875 2053 1875 
L 1259 1875 
L 1259 0 
L 628 0 
L 628 4666 
z
" transform="scale(0.015625)"/>
      <path id="DejaVuSans-20" transform="scale(0.015625)"/>
      <path id="DejaVuSans-57" d="M 213 4666 
L 850 4666 
L 1831 722 
L 2809 4666 
L 3519 4666 
L 4500 722 
L 5478 4666 
L 6119 4666 
L 4947 0 
L 4153 0 
L 3169 4050 
L 2175 0 
L 1381 0 
L 213 4666 
z
" transform="scale(0.015625)"/>
      <path id="DejaVuSans-61" d="M 2194 1759 
Q 1497 1759 1228 1600 
Q 959 1441 959 1056 
Q 959 750 1161 570 
Q 1363 391 1709 391 
Q 2188 391 2477 730 
Q 2766 1069 2766 1631 
L 2766 1759 
L 2194 1759 
z
M 3341 1997 
L 3341 0 
L 2766 0 
L 2766 531 
Q 2569 213 2275 61 
Q 1981 -91 1556 -91 
Q 1019 -91 701 211 
Q 384 513 384 1019 
Q 384 1609 779 1909 
Q 1175 2209 1959 2209 
L 2766 2209 
L 2766 2266 
Q 2766 2663 2505 2880 
Q 2244 3097 1772 3097 
Q 1472 3097 1187 3025 
Q 903 2953 641 2809 
L 641 3341 
Q 956 3463 1253 3523 
Q 1550 3584 1831 3584 
Q 2591 3584 2966 3190 
Q 3341 2797 3341 1997 
z
" transform="scale(0.015625)"/>
      <path id="DejaVuSans-6c" d="M 603 4863 
L 1178 4863 
L 1178 0 
L 603 0 
L 603 4863 
z
" transform="scale(0.015625)"/>
      <path id="DejaVuSans-2d" d="M 313 2009 
L 1997 2009 
L 1997 1497 
L 313 1497 
L 313 2009 
z
" transform="scale(0.015625)"/>
      <path id="DejaVuSans-74" d="M 1172 4494 
L 1172 3500 
L 2356 3500 
L 2356 3053 
L 1172 3053 
L 1172 1153 
Q 1172 725 1289 603 
Q 1406 481 1766 481 
L 2356 481 
L 2356 0 
L 1766 0 
Q 1100 0 847 248 
Q 594 497 594 1153 
L 594 3053 
L 172 3053 
L 172 3500 
L 594 3500 
L 594 4494 
L 1172 4494 
z
" transform="scale(0.015625)"/>
      <path id="DejaVuSans-69" d="M 603 3500 
L 1178 3500 
L 1178 0 
L 603 0 
L 603 3500 
z
M 603 4863 
L 1178 4863 
L 1178 4134 
L 603 4134 
L 603 4863 
z
" transform="scale(0.015625)"/>
      <path id="DejaVuSans-6d" d="M 3328 2828 
Q 3544 3216 3844 3400 
Q 4144 3584 4550 3584 
Q 5097 3584 5394 3201 
Q 5691 2819 5691 2113 
L 5691 0 
L 5113 0 
L 5113 2094 
Q 5113 2597 4934 2840 
Q 4756 3084 4391 3084 
Q 3944 3084 3684 2787 
Q 3425 2491 3425 1978 
L 3425 0 
L 2847 0 
L 2847 2094 
Q 2847 2600 2669 2842 
Q 2491 3084 2119 3084 
Q 1678 3084 1418 2786 
Q 1159 2488 1159 1978 
L 1159 0 
L 581 0 
L 581 3500 
L 1159 3500 
L 1159 2956 
Q 1356 3278 1631 3431 
Q 1906 3584 2284 3584 
Q 2666 3584 2933 3390 
Q 3200 3197 3328 2828 
z
" transform="scale(0.015625)"/>
     </defs>
     <use xlink:href="#DejaVuSans-4c"/>
     <use xlink:href="#DejaVuSans-41" x="57.962891"/>
     <use xlink:href="#DejaVuSans-4d" x="126.371094"/>
     <use xlink:href="#DejaVuSans-4d" x="212.650391"/>
     <use xlink:href="#DejaVuSans-50" x="298.929688"/>
     <use xlink:href="#DejaVuSans-53" x="359.232422"/>
     <use xlink:href="#DejaVuSans-20" x="422.708984"/>
     <use xlink:href="#DejaVuSans-57" x="454.496094"/>
     <use xlink:href="#DejaVuSans-61" x="546.998047"/>
     <use xlink:href="#DejaVuSans-6c" x="608.277344"/>
     <use xlink:href="#DejaVuSans-6c" x="636.060547"/>
     <use xlink:href="#DejaVuSans-2d" x="663.84375"/>
     <use xlink:href="#DejaVuSans-74" x="699.927734"/>
     <use xlink:href="#DejaVuSans-69" x="739.136719"/>
     <use xlink:href="#DejaVuSans-6d" x="766.919922"/>
     <use xlink:href="#DejaVuSans-65" x="864.332031"/>
    </g>
   </g>
  </g>
  <g id="axes_2">
   <g id="legend_1">
    <g id="patch_77">
     <path d="M 469.89 38.588594 
L 491.89 38.588594 
L 491.89 30.888594 
L 469.89 30.888594 
z
" style="fill: #759adc; stroke: #ffffff; stroke-linejoin: miter"/>
    </g>
    <g id="text_16">
     <!-- Ubuntu Mpich eBPF Sample -->
     <g style="fill: #262626" transform="translate(500.69 38.588594) scale(0.11 -0.11)">
      <defs>
       <path id="DejaVuSans-55" d="M 556 4666 
L 1191 4666 
L 1191 1831 
Q 1191 1081 1462 751 
Q 1734 422 2344 422 
Q 2950 422 3222 751 
Q 3494 1081 3494 1831 
L 3494 4666 
L 4128 4666 
L 4128 1753 
Q 4128 841 3676 375 
Q 3225 -91 2344 -91 
Q 1459 -91 1007 375 
Q 556 841 556 1753 
L 556 4666 
z
" transform="scale(0.015625)"/>
       <path id="DejaVuSans-62" d="M 3116 1747 
Q 3116 2381 2855 2742 
Q 2594 3103 2138 3103 
Q 1681 3103 1420 2742 
Q 1159 2381 1159 1747 
Q 1159 1113 1420 752 
Q 1681 391 2138 391 
Q 2594 391 2855 752 
Q 3116 1113 3116 1747 
z
M 1159 2969 
Q 1341 3281 1617 3432 
Q 1894 3584 2278 3584 
Q 2916 3584 3314 3078 
Q 3713 2572 3713 1747 
Q 3713 922 3314 415 
Q 2916 -91 2278 -91 
Q 1894 -91 1617 61 
Q 1341 213 1159 525 
L 1159 0 
L 581 0 
L 581 4863 
L 1159 4863 
L 1159 2969 
z
" transform="scale(0.015625)"/>
       <path id="DejaVuSans-75" d="M 544 1381 
L 544 3500 
L 1119 3500 
L 1119 1403 
Q 1119 906 1312 657 
Q 1506 409 1894 409 
Q 2359 409 2629 706 
Q 2900 1003 2900 1516 
L 2900 3500 
L 3475 3500 
L 3475 0 
L 2900 0 
L 2900 538 
Q 2691 219 2414 64 
Q 2138 -91 1772 -91 
Q 1169 -91 856 284 
Q 544 659 544 1381 
z
M 1991 3584 
L 1991 3584 
z
" transform="scale(0.015625)"/>
       <path id="DejaVuSans-70" d="M 1159 525 
L 1159 -1331 
L 581 -1331 
L 581 3500 
L 1159 3500 
L 1159 2969 
Q 1341 3281 1617 3432 
Q 1894 3584 2278 3584 
Q 2916 3584 3314 3078 
Q 3713 2572 3713 1747 
Q 3713 922 3314 415 
Q 2916 -91 2278 -91 
Q 1894 -91 1617 61 
Q 1341 213 1159 525 
z
M 3116 1747 
Q 3116 2381 2855 2742 
Q 2594 3103 2138 3103 
Q 1681 3103 1420 2742 
Q 1159 2381 1159 1747 
Q 1159 1113 1420 752 
Q 1681 391 2138 391 
Q 2594 391 2855 752 
Q 3116 1113 3116 1747 
z
" transform="scale(0.015625)"/>
       <path id="DejaVuSans-68" d="M 3513 2113 
L 3513 0 
L 2938 0 
L 2938 2094 
Q 2938 2591 2744 2837 
Q 2550 3084 2163 3084 
Q 1697 3084 1428 2787 
Q 1159 2491 1159 1978 
L 1159 0 
L 581 0 
L 581 4863 
L 1159 4863 
L 1159 2956 
Q 1366 3272 1645 3428 
Q 1925 3584 2291 3584 
Q 2894 3584 3203 3211 
Q 3513 2838 3513 2113 
z
" transform="scale(0.015625)"/>
       <path id="DejaVuSans-42" d="M 1259 2228 
L 1259 519 
L 2272 519 
Q 2781 519 3026 730 
Q 3272 941 3272 1375 
Q 3272 1813 3026 2020 
Q 2781 2228 2272 2228 
L 1259 2228 
z
M 1259 4147 
L 1259 2741 
L 2194 2741 
Q 2656 2741 2882 2914 
Q 3109 3088 3109 3444 
Q 3109 3797 2882 3972 
Q 2656 4147 2194 4147 
L 1259 4147 
z
M 628 4666 
L 2241 4666 
Q 2963 4666 3353 4366 
Q 3744 4066 3744 3513 
Q 3744 3084 3544 2831 
Q 3344 2578 2956 2516 
Q 3422 2416 3680 2098 
Q 3938 1781 3938 1306 
Q 3938 681 3513 340 
Q 3088 0 2303 0 
L 628 0 
L 628 4666 
z
" transform="scale(0.015625)"/>
       <path id="DejaVuSans-46" d="M 628 4666 
L 3309 4666 
L 3309 4134 
L 1259 4134 
L 1259 2759 
L 3109 2759 
L 3109 2228 
L 1259 2228 
L 1259 0 
L 628 0 
L 628 4666 
z
" transform="scale(0.015625)"/>
      </defs>
      <use xlink:href="#DejaVuSans-55"/>
      <use xlink:href="#DejaVuSans-62" x="73.193359"/>
      <use xlink:href="#DejaVuSans-75" x="136.669922"/>
      <use xlink:href="#DejaVuSans-6e" x="200.048828"/>
      <use xlink:href="#DejaVuSans-74" x="263.427734"/>
      <use xlink:href="#DejaVuSans-75" x="302.636719"/>
      <use xlink:href="#DejaVuSans-20" x="366.015625"/>
      <use xlink:href="#DejaVuSans-4d" x="397.802734"/>
      <use xlink:href="#DejaVuSans-70" x="484.082031"/>
      <use xlink:href="#DejaVuSans-69" x="547.558594"/>
      <use xlink:href="#DejaVuSans-63" x="575.341797"/>
      <use xlink:href="#DejaVuSans-68" x="630.322266"/>
      <use xlink:href="#DejaVuSans-20" x="693.701172"/>
      <use xlink:href="#DejaVuSans-65" x="725.488281"/>
      <use xlink:href="#DejaVuSans-42" x="787.011719"/>
      <use xlink:href="#DejaVuSans-50" x="855.615234"/>
      <use xlink:href="#DejaVuSans-46" x="915.917969"/>
      <use xlink:href="#DejaVuSans-20" x="973.4375"/>
      <use xlink:href="#DejaVuSans-53" x="1005.224609"/>
      <use xlink:href="#DejaVuSans-61" x="1068.701172"/>
      <use xlink:href="#DejaVuSans-6d" x="1129.980469"/>
      <use xlink:href="#DejaVuSans-70" x="1227.392578"/>
      <use xlink:href="#DejaVuSans-6c" x="1290.869141"/>
      <use xlink:href="#DejaVuSans-65" x="1318.652344"/>
     </g>
    </g>
    <g id="patch_78">
     <path d="M 469.89 54.734531 
L 491.89 54.734531 
L 491.89 47.034531 
L 469.89 47.034531 
z
" style="fill: #7c8fa2; stroke: #ffffff; stroke-linejoin: miter"/>
    </g>
    <g id="text_17">
     <!-- Ubuntu Mpich -->
     <g style="fill: #262626" transform="translate(500.69 54.734531) scale(0.11 -0.11)">
      <use xlink:href="#DejaVuSans-55"/>
      <use xlink:href="#DejaVuSans-62" x="73.193359"/>
      <use xlink:href="#DejaVuSans-75" x="136.669922"/>
      <use xlink:href="#DejaVuSans-6e" x="200.048828"/>
      <use xlink:href="#DejaVuSans-74" x="263.427734"/>
      <use xlink:href="#DejaVuSans-75" x="302.636719"/>
      <use xlink:href="#DejaVuSans-20" x="366.015625"/>
      <use xlink:href="#DejaVuSans-4d" x="397.802734"/>
      <use xlink:href="#DejaVuSans-70" x="484.082031"/>
      <use xlink:href="#DejaVuSans-69" x="547.558594"/>
      <use xlink:href="#DejaVuSans-63" x="575.341797"/>
      <use xlink:href="#DejaVuSans-68" x="630.322266"/>
     </g>
    </g>
    <g id="patch_79">
     <path d="M 469.89 70.880469 
L 491.89 70.880469 
L 491.89 63.180469 
L 469.89 63.180469 
z
" style="fill: #154b96; stroke: #ffffff; stroke-linejoin: miter"/>
    </g>
    <g id="text_18">
     <!-- Ubuntu Mpich eBPF Multiple -->
     <g style="fill: #262626" transform="translate(500.69 70.880469) scale(0.11 -0.11)">
      <use xlink:href="#DejaVuSans-55"/>
      <use xlink:href="#DejaVuSans-62" x="73.193359"/>
      <use xlink:href="#DejaVuSans-75" x="136.669922"/>
      <use xlink:href="#DejaVuSans-6e" x="200.048828"/>
      <use xlink:href="#DejaVuSans-74" x="263.427734"/>
      <use xlink:href="#DejaVuSans-75" x="302.636719"/>
      <use xlink:href="#DejaVuSans-20" x="366.015625"/>
      <use xlink:href="#DejaVuSans-4d" x="397.802734"/>
      <use xlink:href="#DejaVuSans-70" x="484.082031"/>
      <use xlink:href="#DejaVuSans-69" x="547.558594"/>
      <use xlink:href="#DejaVuSans-63" x="575.341797"/>
      <use xlink:href="#DejaVuSans-68" x="630.322266"/>
      <use xlink:href="#DejaVuSans-20" x="693.701172"/>
      <use xlink:href="#DejaVuSans-65" x="725.488281"/>
      <use xlink:href="#DejaVuSans-42" x="787.011719"/>
      <use xlink:href="#DejaVuSans-50" x="855.615234"/>
      <use xlink:href="#DejaVuSans-46" x="915.917969"/>
      <use xlink:href="#DejaVuSans-20" x="973.4375"/>
      <use xlink:href="#DejaVuSans-4d" x="1005.224609"/>
      <use xlink:href="#DejaVuSans-75" x="1091.503906"/>
      <use xlink:href="#DejaVuSans-6c" x="1154.882812"/>
      <use xlink:href="#DejaVuSans-74" x="1182.666016"/>
      <use xlink:href="#DejaVuSans-69" x="1221.875"/>
      <use xlink:href="#DejaVuSans-70" x="1249.658203"/>
      <use xlink:href="#DejaVuSans-6c" x="1313.134766"/>
      <use xlink:href="#DejaVuSans-65" x="1340.917969"/>
     </g>
    </g>
    <g id="patch_80">
     <path d="M 469.89 87.026406 
L 491.89 87.026406 
L 491.89 79.326406 
L 469.89 79.326406 
z
" style="fill: #e0a7f2; stroke: #ffffff; stroke-linejoin: miter"/>
    </g>
    <g id="text_19">
     <!-- Ubuntu OpenMPI eBPF Sample -->
     <g style="fill: #262626" transform="translate(500.69 87.026406) scale(0.11 -0.11)">
      <defs>
       <path id="DejaVuSans-4f" d="M 2522 4238 
Q 1834 4238 1429 3725 
Q 1025 3213 1025 2328 
Q 1025 1447 1429 934 
Q 1834 422 2522 422 
Q 3209 422 3611 934 
Q 4013 1447 4013 2328 
Q 4013 3213 3611 3725 
Q 3209 4238 2522 4238 
z
M 2522 4750 
Q 3503 4750 4090 4092 
Q 4678 3434 4678 2328 
Q 4678 1225 4090 567 
Q 3503 -91 2522 -91 
Q 1538 -91 948 565 
Q 359 1222 359 2328 
Q 359 3434 948 4092 
Q 1538 4750 2522 4750 
z
" transform="scale(0.015625)"/>
       <path id="DejaVuSans-49" d="M 628 4666 
L 1259 4666 
L 1259 0 
L 628 0 
L 628 4666 
z
" transform="scale(0.015625)"/>
      </defs>
      <use xlink:href="#DejaVuSans-55"/>
      <use xlink:href="#DejaVuSans-62" x="73.193359"/>
      <use xlink:href="#DejaVuSans-75" x="136.669922"/>
      <use xlink:href="#DejaVuSans-6e" x="200.048828"/>
      <use xlink:href="#DejaVuSans-74" x="263.427734"/>
      <use xlink:href="#DejaVuSans-75" x="302.636719"/>
      <use xlink:href="#DejaVuSans-20" x="366.015625"/>
      <use xlink:href="#DejaVuSans-4f" x="397.802734"/>
      <use xlink:href="#DejaVuSans-70" x="476.513672"/>
      <use xlink:href="#DejaVuSans-65" x="539.990234"/>
      <use xlink:href="#DejaVuSans-6e" x="601.513672"/>
      <use xlink:href="#DejaVuSans-4d" x="664.892578"/>
      <use xlink:href="#DejaVuSans-50" x="751.171875"/>
      <use xlink:href="#DejaVuSans-49" x="811.474609"/>
      <use xlink:href="#DejaVuSans-20" x="840.966797"/>
      <use xlink:href="#DejaVuSans-65" x="872.753906"/>
      <use xlink:href="#DejaVuSans-42" x="934.277344"/>
      <use xlink:href="#DejaVuSans-50" x="1002.880859"/>
      <use xlink:href="#DejaVuSans-46" x="1063.183594"/>
      <use xlink:href="#DejaVuSans-20" x="1120.703125"/>
      <use xlink:href="#DejaVuSans-53" x="1152.490234"/>
      <use xlink:href="#DejaVuSans-61" x="1215.966797"/>
      <use xlink:href="#DejaVuSans-6d" x="1277.246094"/>
      <use xlink:href="#DejaVuSans-70" x="1374.658203"/>
      <use xlink:href="#DejaVuSans-6c" x="1438.134766"/>
      <use xlink:href="#DejaVuSans-65" x="1465.917969"/>
     </g>
    </g>
    <g id="patch_81">
     <path d="M 469.89 103.172344 
L 491.89 103.172344 
L 491.89 95.472344 
L 469.89 95.472344 
z
" style="fill: #a859c1; stroke: #ffffff; stroke-linejoin: miter"/>
    </g>
    <g id="text_20">
     <!-- Ubuntu OpenMPI -->
     <g style="fill: #262626" transform="translate(500.69 103.172344) scale(0.11 -0.11)">
      <use xlink:href="#DejaVuSans-55"/>
      <use xlink:href="#DejaVuSans-62" x="73.193359"/>
      <use xlink:href="#DejaVuSans-75" x="136.669922"/>
      <use xlink:href="#DejaVuSans-6e" x="200.048828"/>
      <use xlink:href="#DejaVuSans-74" x="263.427734"/>
      <use xlink:href="#DejaVuSans-75" x="302.636719"/>
      <use xlink:href="#DejaVuSans-20" x="366.015625"/>
      <use xlink:href="#DejaVuSans-4f" x="397.802734"/>
      <use xlink:href="#DejaVuSans-70" x="476.513672"/>
      <use xlink:href="#DejaVuSans-65" x="539.990234"/>
      <use xlink:href="#DejaVuSans-6e" x="601.513672"/>
      <use xlink:href="#DejaVuSans-4d" x="664.892578"/>
      <use xlink:href="#DejaVuSans-50" x="751.171875"/>
      <use xlink:href="#DejaVuSans-49" x="811.474609"/>
     </g>
    </g>
    <g id="patch_82">
     <path d="M 469.89 119.318281 
L 491.89 119.318281 
L 491.89 111.618281 
L 469.89 111.618281 
z
" style="fill: #622576; stroke: #ffffff; stroke-linejoin: miter"/>
    </g>
    <g id="text_21">
     <!-- Ubuntu OpenMPI eBPF Multiple -->
     <g style="fill: #262626" transform="translate(500.69 119.318281) scale(0.11 -0.11)">
      <use xlink:href="#DejaVuSans-55"/>
      <use xlink:href="#DejaVuSans-62" x="73.193359"/>
      <use xlink:href="#DejaVuSans-75" x="136.669922"/>
      <use xlink:href="#DejaVuSans-6e" x="200.048828"/>
      <use xlink:href="#DejaVuSans-74" x="263.427734"/>
      <use xlink:href="#DejaVuSans-75" x="302.636719"/>
      <use xlink:href="#DejaVuSans-20" x="366.015625"/>
      <use xlink:href="#DejaVuSans-4f" x="397.802734"/>
      <use xlink:href="#DejaVuSans-70" x="476.513672"/>
      <use xlink:href="#DejaVuSans-65" x="539.990234"/>
      <use xlink:href="#DejaVuSans-6e" x="601.513672"/>
      <use xlink:href="#DejaVuSans-4d" x="664.892578"/>
      <use xlink:href="#DejaVuSans-50" x="751.171875"/>
      <use xlink:href="#DejaVuSans-49" x="811.474609"/>
      <use xlink:href="#DejaVuSans-20" x="840.966797"/>
      <use xlink:href="#DejaVuSans-65" x="872.753906"/>
      <use xlink:href="#DejaVuSans-42" x="934.277344"/>
      <use xlink:href="#DejaVuSans-50" x="1002.880859"/>
      <use xlink:href="#DejaVuSans-46" x="1063.183594"/>
      <use xlink:href="#DejaVuSans-20" x="1120.703125"/>
      <use xlink:href="#DejaVuSans-4d" x="1152.490234"/>
      <use xlink:href="#DejaVuSans-75" x="1238.769531"/>
      <use xlink:href="#DejaVuSans-6c" x="1302.148438"/>
      <use xlink:href="#DejaVuSans-74" x="1329.931641"/>
      <use xlink:href="#DejaVuSans-69" x="1369.140625"/>
      <use xlink:href="#DejaVuSans-70" x="1396.923828"/>
      <use xlink:href="#DejaVuSans-6c" x="1460.400391"/>
      <use xlink:href="#DejaVuSans-65" x="1488.183594"/>
     </g>
    </g>
    <g id="patch_83">
     <path d="M 469.89 135.464219 
L 491.89 135.464219 
L 491.89 127.764219 
L 469.89 127.764219 
z
" style="fill: #c4d495; stroke: #ffffff; stroke-linejoin: miter"/>
    </g>
    <g id="text_22">
     <!-- Rocky OpenMPI eBPF Sample -->
     <g style="fill: #262626" transform="translate(500.69 135.464219) scale(0.11 -0.11)">
      <defs>
       <path id="DejaVuSans-52" d="M 2841 2188 
Q 3044 2119 3236 1894 
Q 3428 1669 3622 1275 
L 4263 0 
L 3584 0 
L 2988 1197 
Q 2756 1666 2539 1819 
Q 2322 1972 1947 1972 
L 1259 1972 
L 1259 0 
L 628 0 
L 628 4666 
L 2053 4666 
Q 2853 4666 3247 4331 
Q 3641 3997 3641 3322 
Q 3641 2881 3436 2590 
Q 3231 2300 2841 2188 
z
M 1259 4147 
L 1259 2491 
L 2053 2491 
Q 2509 2491 2742 2702 
Q 2975 2913 2975 3322 
Q 2975 3731 2742 3939 
Q 2509 4147 2053 4147 
L 1259 4147 
z
" transform="scale(0.015625)"/>
       <path id="DejaVuSans-6b" d="M 581 4863 
L 1159 4863 
L 1159 1991 
L 2875 3500 
L 3609 3500 
L 1753 1863 
L 3688 0 
L 2938 0 
L 1159 1709 
L 1159 0 
L 581 0 
L 581 4863 
z
" transform="scale(0.015625)"/>
       <path id="DejaVuSans-79" d="M 2059 -325 
Q 1816 -950 1584 -1140 
Q 1353 -1331 966 -1331 
L 506 -1331 
L 506 -850 
L 844 -850 
Q 1081 -850 1212 -737 
Q 1344 -625 1503 -206 
L 1606 56 
L 191 3500 
L 800 3500 
L 1894 763 
L 2988 3500 
L 3597 3500 
L 2059 -325 
z
" transform="scale(0.015625)"/>
      </defs>
      <use xlink:href="#DejaVuSans-52"/>
      <use xlink:href="#DejaVuSans-6f" x="64.982422"/>
      <use xlink:href="#DejaVuSans-63" x="126.164062"/>
      <use xlink:href="#DejaVuSans-6b" x="181.144531"/>
      <use xlink:href="#DejaVuSans-79" x="235.429688"/>
      <use xlink:href="#DejaVuSans-20" x="294.609375"/>
      <use xlink:href="#DejaVuSans-4f" x="326.396484"/>
      <use xlink:href="#DejaVuSans-70" x="405.107422"/>
      <use xlink:href="#DejaVuSans-65" x="468.583984"/>
      <use xlink:href="#DejaVuSans-6e" x="530.107422"/>
      <use xlink:href="#DejaVuSans-4d" x="593.486328"/>
      <use xlink:href="#DejaVuSans-50" x="679.765625"/>
      <use xlink:href="#DejaVuSans-49" x="740.068359"/>
      <use xlink:href="#DejaVuSans-20" x="769.560547"/>
      <use xlink:href="#DejaVuSans-65" x="801.347656"/>
      <use xlink:href="#DejaVuSans-42" x="862.871094"/>
      <use xlink:href="#DejaVuSans-50" x="931.474609"/>
      <use xlink:href="#DejaVuSans-46" x="991.777344"/>
      <use xlink:href="#DejaVuSans-20" x="1049.296875"/>
      <use xlink:href="#DejaVuSans-53" x="1081.083984"/>
      <use xlink:href="#DejaVuSans-61" x="1144.560547"/>
      <use xlink:href="#DejaVuSans-6d" x="1205.839844"/>
      <use xlink:href="#DejaVuSans-70" x="1303.251953"/>
      <use xlink:href="#DejaVuSans-6c" x="1366.728516"/>
      <use xlink:href="#DejaVuSans-65" x="1394.511719"/>
     </g>
    </g>
    <g id="patch_84">
     <path d="M 469.89 151.610156 
L 491.89 151.610156 
L 491.89 143.910156 
L 469.89 143.910156 
z
" style="fill: #7aa163; stroke: #ffffff; stroke-linejoin: miter"/>
    </g>
    <g id="text_23">
     <!-- Rocky OpenMPI -->
     <g style="fill: #262626" transform="translate(500.69 151.610156) scale(0.11 -0.11)">
      <use xlink:href="#DejaVuSans-52"/>
      <use xlink:href="#DejaVuSans-6f" x="64.982422"/>
      <use xlink:href="#DejaVuSans-63" x="126.164062"/>
      <use xlink:href="#DejaVuSans-6b" x="181.144531"/>
      <use xlink:href="#DejaVuSans-79" x="235.429688"/>
      <use xlink:href="#DejaVuSans-20" x="294.609375"/>
      <use xlink:href="#DejaVuSans-4f" x="326.396484"/>
      <use xlink:href="#DejaVuSans-70" x="405.107422"/>
      <use xlink:href="#DejaVuSans-65" x="468.583984"/>
      <use xlink:href="#DejaVuSans-6e" x="530.107422"/>
      <use xlink:href="#DejaVuSans-4d" x="593.486328"/>
      <use xlink:href="#DejaVuSans-50" x="679.765625"/>
      <use xlink:href="#DejaVuSans-49" x="740.068359"/>
     </g>
    </g>
    <g id="patch_85">
     <path d="M 469.89 167.756094 
L 491.89 167.756094 
L 491.89 160.056094 
L 469.89 160.056094 
z
" style="fill: #3e7637; stroke: #ffffff; stroke-linejoin: miter"/>
    </g>
    <g id="text_24">
     <!-- Rocky OpenMPI eBPF Multiple -->
     <g style="fill: #262626" transform="translate(500.69 167.756094) scale(0.11 -0.11)">
      <use xlink:href="#DejaVuSans-52"/>
      <use xlink:href="#DejaVuSans-6f" x="64.982422"/>
      <use xlink:href="#DejaVuSans-63" x="126.164062"/>
      <use xlink:href="#DejaVuSans-6b" x="181.144531"/>
      <use xlink:href="#DejaVuSans-79" x="235.429688"/>
      <use xlink:href="#DejaVuSans-20" x="294.609375"/>
      <use xlink:href="#DejaVuSans-4f" x="326.396484"/>
      <use xlink:href="#DejaVuSans-70" x="405.107422"/>
      <use xlink:href="#DejaVuSans-65" x="468.583984"/>
      <use xlink:href="#DejaVuSans-6e" x="530.107422"/>
      <use xlink:href="#DejaVuSans-4d" x="593.486328"/>
      <use xlink:href="#DejaVuSans-50" x="679.765625"/>
      <use xlink:href="#DejaVuSans-49" x="740.068359"/>
      <use xlink:href="#DejaVuSans-20" x="769.560547"/>
      <use xlink:href="#DejaVuSans-65" x="801.347656"/>
      <use xlink:href="#DejaVuSans-42" x="862.871094"/>
      <use xlink:href="#DejaVuSans-50" x="931.474609"/>
      <use xlink:href="#DejaVuSans-46" x="991.777344"/>
      <use xlink:href="#DejaVuSans-20" x="1049.296875"/>
      <use xlink:href="#DejaVuSans-4d" x="1081.083984"/>
      <use xlink:href="#DejaVuSans-75" x="1167.363281"/>
      <use xlink:href="#DejaVuSans-6c" x="1230.742188"/>
      <use xlink:href="#DejaVuSans-74" x="1258.525391"/>
      <use xlink:href="#DejaVuSans-69" x="1297.734375"/>
      <use xlink:href="#DejaVuSans-70" x="1325.517578"/>
      <use xlink:href="#DejaVuSans-6c" x="1388.994141"/>
      <use xlink:href="#DejaVuSans-65" x="1416.777344"/>
     </g>
    </g>
    <g id="patch_86">
     <path d="M 469.89 183.902031 
L 491.89 183.902031 
L 491.89 176.202031 
L 469.89 176.202031 
z
" style="fill: #8a404f; stroke: #ffffff; stroke-linejoin: miter"/>
    </g>
    <g id="text_25">
     <!-- Ubuntu OpenMPI GPU -->
     <g style="fill: #262626" transform="translate(500.69 183.902031) scale(0.11 -0.11)">
      <defs>
       <path id="DejaVuSans-47" d="M 3809 666 
L 3809 1919 
L 2778 1919 
L 2778 2438 
L 4434 2438 
L 4434 434 
Q 4069 175 3628 42 
Q 3188 -91 2688 -91 
Q 1594 -91 976 548 
Q 359 1188 359 2328 
Q 359 3472 976 4111 
Q 1594 4750 2688 4750 
Q 3144 4750 3555 4637 
Q 3966 4525 4313 4306 
L 4313 3634 
Q 3963 3931 3569 4081 
Q 3175 4231 2741 4231 
Q 1884 4231 1454 3753 
Q 1025 3275 1025 2328 
Q 1025 1384 1454 906 
Q 1884 428 2741 428 
Q 3075 428 3337 486 
Q 3600 544 3809 666 
z
" transform="scale(0.015625)"/>
      </defs>
      <use xlink:href="#DejaVuSans-55"/>
      <use xlink:href="#DejaVuSans-62" x="73.193359"/>
      <use xlink:href="#DejaVuSans-75" x="136.669922"/>
      <use xlink:href="#DejaVuSans-6e" x="200.048828"/>
      <use xlink:href="#DejaVuSans-74" x="263.427734"/>
      <use xlink:href="#DejaVuSans-75" x="302.636719"/>
      <use xlink:href="#DejaVuSans-20" x="366.015625"/>
      <use xlink:href="#DejaVuSans-4f" x="397.802734"/>
      <use xlink:href="#DejaVuSans-70" x="476.513672"/>
      <use xlink:href="#DejaVuSans-65" x="539.990234"/>
      <use xlink:href="#DejaVuSans-6e" x="601.513672"/>
      <use xlink:href="#DejaVuSans-4d" x="664.892578"/>
      <use xlink:href="#DejaVuSans-50" x="751.171875"/>
      <use xlink:href="#DejaVuSans-49" x="811.474609"/>
      <use xlink:href="#DejaVuSans-20" x="840.966797"/>
      <use xlink:href="#DejaVuSans-47" x="872.753906"/>
      <use xlink:href="#DejaVuSans-50" x="950.244141"/>
      <use xlink:href="#DejaVuSans-55" x="1010.546875"/>
     </g>
    </g>
   </g>
  </g>
 </g>
 <defs>
  <clipPath id="pf5d4bcc9dc">
   <rect x="61.2" y="29.76" width="394.127273" height="156.9"/>
  </clipPath>
 </defs>
</svg>
