<?xml version="1.0" encoding="utf-8" standalone="no"?>
<!DOCTYPE svg PUBLIC "-//W3C//DTD SVG 1.1//EN"
  "http://www.w3.org/Graphics/SVG/1.1/DTD/svg11.dtd">
<svg xmlns:xlink="http://www.w3.org/1999/xlink" width="648pt" height="237.6pt" viewBox="0 0 648 237.6" xmlns="http://www.w3.org/2000/svg" version="1.1">
 <metadata>
  <rdf:RDF xmlns:dc="http://purl.org/dc/elements/1.1/" xmlns:cc="http://creativecommons.org/ns#" xmlns:rdf="http://www.w3.org/1999/02/22-rdf-syntax-ns#">
   <cc:Work>
    <dc:type rdf:resource="http://purl.org/dc/dcmitype/StillImage"/>
    <dc:date>2025-05-18T10:03:20.755860</dc:date>
    <dc:format>image/svg+xml</dc:format>
    <dc:creator>
     <cc:Agent>
      <dc:title>Matplotlib v3.8.4, https://matplotlib.org/</dc:title>
     </cc:Agent>
    </dc:creator>
   </cc:Work>
  </rdf:RDF>
 </metadata>
 <defs>
  <style type="text/css">*{stroke-linejoin: round; stroke-linecap: butt}</style>
 </defs>
 <g id="figure_1">
  <g id="patch_1">
   <path d="M 0 237.6 
L 648 237.6 
L 648 0 
L 0 0 
z
" style="fill: #ffffff"/>
  </g>
  <g id="axes_1">
   <g id="patch_2">
    <path d="M 54.18 186.66 
L 393.714545 186.66 
L 393.714545 29.76 
L 54.18 29.76 
z
" style="fill: #ffffff"/>
   </g>
   <g id="matplotlib.axis_1">
    <g id="xtick_1">
     <g id="text_1">
      <!-- 4 -->
      <g style="fill: #262626" transform="translate(78.97517 204.518281) scale(0.11 -0.11)">
       <defs>
        <path id="DejaVuSans-34" d="M 2419 4116 
L 825 1625 
L 2419 1625 
L 2419 4116 
z
M 2253 4666 
L 3047 4666 
L 3047 1625 
L 3713 1625 
L 3713 1100 
L 3047 1100 
L 3047 0 
L 2419 0 
L 2419 1100 
L 313 1100 
L 313 1709 
L 2253 4666 
z
" transform="scale(0.015625)"/>
       </defs>
       <use xlink:href="#DejaVuSans-34"/>
      </g>
     </g>
    </g>
    <g id="xtick_2">
     <g id="text_2">
      <!-- 8 -->
      <g style="fill: #262626" transform="translate(135.564261 204.518281) scale(0.11 -0.11)">
       <defs>
        <path id="DejaVuSans-38" d="M 2034 2216 
Q 1584 2216 1326 1975 
Q 1069 1734 1069 1313 
Q 1069 891 1326 650 
Q 1584 409 2034 409 
Q 2484 409 2743 651 
Q 3003 894 3003 1313 
Q 3003 1734 2745 1975 
Q 2488 2216 2034 2216 
z
M 1403 2484 
Q 997 2584 770 2862 
Q 544 3141 544 3541 
Q 544 4100 942 4425 
Q 1341 4750 2034 4750 
Q 2731 4750 3128 4425 
Q 3525 4100 3525 3541 
Q 3525 3141 3298 2862 
Q 3072 2584 2669 2484 
Q 3125 2378 3379 2068 
Q 3634 1759 3634 1313 
Q 3634 634 3220 271 
Q 2806 -91 2034 -91 
Q 1263 -91 848 271 
Q 434 634 434 1313 
Q 434 1759 690 2068 
Q 947 2378 1403 2484 
z
M 1172 3481 
Q 1172 3119 1398 2916 
Q 1625 2713 2034 2713 
Q 2441 2713 2670 2916 
Q 2900 3119 2900 3481 
Q 2900 3844 2670 4047 
Q 2441 4250 2034 4250 
Q 1625 4250 1398 4047 
Q 1172 3844 1172 3481 
z
" transform="scale(0.015625)"/>
       </defs>
       <use xlink:href="#DejaVuSans-38"/>
      </g>
     </g>
    </g>
    <g id="xtick_3">
     <g id="text_3">
      <!-- 16 -->
      <g style="fill: #262626" transform="translate(188.653977 204.518281) scale(0.11 -0.11)">
       <defs>
        <path id="DejaVuSans-31" d="M 794 531 
L 1825 531 
L 1825 4091 
L 703 3866 
L 703 4441 
L 1819 4666 
L 2450 4666 
L 2450 531 
L 3481 531 
L 3481 0 
L 794 0 
L 794 531 
z
" transform="scale(0.015625)"/>
        <path id="DejaVuSans-36" d="M 2113 2584 
Q 1688 2584 1439 2293 
Q 1191 2003 1191 1497 
Q 1191 994 1439 701 
Q 1688 409 2113 409 
Q 2538 409 2786 701 
Q 3034 994 3034 1497 
Q 3034 2003 2786 2293 
Q 2538 2584 2113 2584 
z
M 3366 4563 
L 3366 3988 
Q 3128 4100 2886 4159 
Q 2644 4219 2406 4219 
Q 1781 4219 1451 3797 
Q 1122 3375 1075 2522 
Q 1259 2794 1537 2939 
Q 1816 3084 2150 3084 
Q 2853 3084 3261 2657 
Q 3669 2231 3669 1497 
Q 3669 778 3244 343 
Q 2819 -91 2113 -91 
Q 1303 -91 875 529 
Q 447 1150 447 2328 
Q 447 3434 972 4092 
Q 1497 4750 2381 4750 
Q 2619 4750 2861 4703 
Q 3103 4656 3366 4563 
z
" transform="scale(0.015625)"/>
       </defs>
       <use xlink:href="#DejaVuSans-31"/>
       <use xlink:href="#DejaVuSans-36" x="63.623047"/>
      </g>
     </g>
    </g>
    <g id="xtick_4">
     <g id="text_4">
      <!-- 32 -->
      <g style="fill: #262626" transform="translate(245.243068 204.518281) scale(0.11 -0.11)">
       <defs>
        <path id="DejaVuSans-33" d="M 2597 2516 
Q 3050 2419 3304 2112 
Q 3559 1806 3559 1356 
Q 3559 666 3084 287 
Q 2609 -91 1734 -91 
Q 1441 -91 1130 -33 
Q 819 25 488 141 
L 488 750 
Q 750 597 1062 519 
Q 1375 441 1716 441 
Q 2309 441 2620 675 
Q 2931 909 2931 1356 
Q 2931 1769 2642 2001 
Q 2353 2234 1838 2234 
L 1294 2234 
L 1294 2753 
L 1863 2753 
Q 2328 2753 2575 2939 
Q 2822 3125 2822 3475 
Q 2822 3834 2567 4026 
Q 2313 4219 1838 4219 
Q 1578 4219 1281 4162 
Q 984 4106 628 3988 
L 628 4550 
Q 988 4650 1302 4700 
Q 1616 4750 1894 4750 
Q 2613 4750 3031 4423 
Q 3450 4097 3450 3541 
Q 3450 3153 3228 2886 
Q 3006 2619 2597 2516 
z
" transform="scale(0.015625)"/>
        <path id="DejaVuSans-32" d="M 1228 531 
L 3431 531 
L 3431 0 
L 469 0 
L 469 531 
Q 828 903 1448 1529 
Q 2069 2156 2228 2338 
Q 2531 2678 2651 2914 
Q 2772 3150 2772 3378 
Q 2772 3750 2511 3984 
Q 2250 4219 1831 4219 
Q 1534 4219 1204 4116 
Q 875 4013 500 3803 
L 500 4441 
Q 881 4594 1212 4672 
Q 1544 4750 1819 4750 
Q 2544 4750 2975 4387 
Q 3406 4025 3406 3419 
Q 3406 3131 3298 2873 
Q 3191 2616 2906 2266 
Q 2828 2175 2409 1742 
Q 1991 1309 1228 531 
z
" transform="scale(0.015625)"/>
       </defs>
       <use xlink:href="#DejaVuSans-33"/>
       <use xlink:href="#DejaVuSans-32" x="63.623047"/>
      </g>
     </g>
    </g>
    <g id="xtick_5">
     <g id="text_5">
      <!-- 64 -->
      <g style="fill: #262626" transform="translate(301.832159 204.518281) scale(0.11 -0.11)">
       <use xlink:href="#DejaVuSans-36"/>
       <use xlink:href="#DejaVuSans-34" x="63.623047"/>
      </g>
     </g>
    </g>
    <g id="xtick_6">
     <g id="text_6">
      <!-- 128 -->
      <g style="fill: #262626" transform="translate(354.921875 204.518281) scale(0.11 -0.11)">
       <use xlink:href="#DejaVuSans-31"/>
       <use xlink:href="#DejaVuSans-32" x="63.623047"/>
       <use xlink:href="#DejaVuSans-38" x="127.246094"/>
      </g>
     </g>
    </g>
    <g id="text_7">
     <!-- Nodes -->
     <g style="fill: #262626" transform="translate(202.029616 221.44375) scale(0.14 -0.14)">
      <defs>
       <path id="DejaVuSans-4e" d="M 628 4666 
L 1478 4666 
L 3547 763 
L 3547 4666 
L 4159 4666 
L 4159 0 
L 3309 0 
L 1241 3903 
L 1241 0 
L 628 0 
L 628 4666 
z
" transform="scale(0.015625)"/>
       <path id="DejaVuSans-6f" d="M 1959 3097 
Q 1497 3097 1228 2736 
Q 959 2375 959 1747 
Q 959 1119 1226 758 
Q 1494 397 1959 397 
Q 2419 397 2687 759 
Q 2956 1122 2956 1747 
Q 2956 2369 2687 2733 
Q 2419 3097 1959 3097 
z
M 1959 3584 
Q 2709 3584 3137 3096 
Q 3566 2609 3566 1747 
Q 3566 888 3137 398 
Q 2709 -91 1959 -91 
Q 1206 -91 779 398 
Q 353 888 353 1747 
Q 353 2609 779 3096 
Q 1206 3584 1959 3584 
z
" transform="scale(0.015625)"/>
       <path id="DejaVuSans-64" d="M 2906 2969 
L 2906 4863 
L 3481 4863 
L 3481 0 
L 2906 0 
L 2906 525 
Q 2725 213 2448 61 
Q 2172 -91 1784 -91 
Q 1150 -91 751 415 
Q 353 922 353 1747 
Q 353 2572 751 3078 
Q 1150 3584 1784 3584 
Q 2172 3584 2448 3432 
Q 2725 3281 2906 2969 
z
M 947 1747 
Q 947 1113 1208 752 
Q 1469 391 1925 391 
Q 2381 391 2643 752 
Q 2906 1113 2906 1747 
Q 2906 2381 2643 2742 
Q 2381 3103 1925 3103 
Q 1469 3103 1208 2742 
Q 947 2381 947 1747 
z
" transform="scale(0.015625)"/>
       <path id="DejaVuSans-65" d="M 3597 1894 
L 3597 1613 
L 953 1613 
Q 991 1019 1311 708 
Q 1631 397 2203 397 
Q 2534 397 2845 478 
Q 3156 559 3463 722 
L 3463 178 
Q 3153 47 2828 -22 
Q 2503 -91 2169 -91 
Q 1331 -91 842 396 
Q 353 884 353 1716 
Q 353 2575 817 3079 
Q 1281 3584 2069 3584 
Q 2775 3584 3186 3129 
Q 3597 2675 3597 1894 
z
M 3022 2063 
Q 3016 2534 2758 2815 
Q 2500 3097 2075 3097 
Q 1594 3097 1305 2825 
Q 1016 2553 972 2059 
L 3022 2063 
z
" transform="scale(0.015625)"/>
       <path id="DejaVuSans-73" d="M 2834 3397 
L 2834 2853 
Q 2591 2978 2328 3040 
Q 2066 3103 1784 3103 
Q 1356 3103 1142 2972 
Q 928 2841 928 2578 
Q 928 2378 1081 2264 
Q 1234 2150 1697 2047 
L 1894 2003 
Q 2506 1872 2764 1633 
Q 3022 1394 3022 966 
Q 3022 478 2636 193 
Q 2250 -91 1575 -91 
Q 1294 -91 989 -36 
Q 684 19 347 128 
L 347 722 
Q 666 556 975 473 
Q 1284 391 1588 391 
Q 1994 391 2212 530 
Q 2431 669 2431 922 
Q 2431 1156 2273 1281 
Q 2116 1406 1581 1522 
L 1381 1569 
Q 847 1681 609 1914 
Q 372 2147 372 2553 
Q 372 3047 722 3315 
Q 1072 3584 1716 3584 
Q 2034 3584 2315 3537 
Q 2597 3491 2834 3397 
z
" transform="scale(0.015625)"/>
      </defs>
      <use xlink:href="#DejaVuSans-4e"/>
      <use xlink:href="#DejaVuSans-6f" x="74.804688"/>
      <use xlink:href="#DejaVuSans-64" x="135.986328"/>
      <use xlink:href="#DejaVuSans-65" x="199.462891"/>
      <use xlink:href="#DejaVuSans-73" x="260.986328"/>
     </g>
    </g>
   </g>
   <g id="matplotlib.axis_2">
    <g id="ytick_1">
     <g id="line2d_1">
      <path d="M 54.18 186.66 
L 393.714545 186.66 
" clip-path="url(#paa22bbe887)" style="fill: none; stroke: #cccccc; stroke-linecap: round"/>
     </g>
     <g id="text_8">
      <!-- 0 -->
      <g style="fill: #262626" transform="translate(37.68125 190.839141) scale(0.11 -0.11)">
       <defs>
        <path id="DejaVuSans-30" d="M 2034 4250 
Q 1547 4250 1301 3770 
Q 1056 3291 1056 2328 
Q 1056 1369 1301 889 
Q 1547 409 2034 409 
Q 2525 409 2770 889 
Q 3016 1369 3016 2328 
Q 3016 3291 2770 3770 
Q 2525 4250 2034 4250 
z
M 2034 4750 
Q 2819 4750 3233 4129 
Q 3647 3509 3647 2328 
Q 3647 1150 3233 529 
Q 2819 -91 2034 -91 
Q 1250 -91 836 529 
Q 422 1150 422 2328 
Q 422 3509 836 4129 
Q 1250 4750 2034 4750 
z
" transform="scale(0.015625)"/>
       </defs>
       <use xlink:href="#DejaVuSans-30"/>
      </g>
     </g>
    </g>
    <g id="ytick_2">
     <g id="line2d_2">
      <path d="M 54.18 151.350993 
L 393.714545 151.350993 
" clip-path="url(#paa22bbe887)" style="fill: none; stroke: #cccccc; stroke-linecap: round"/>
     </g>
     <g id="text_9">
      <!-- 10 -->
      <g style="fill: #262626" transform="translate(30.6825 155.530133) scale(0.11 -0.11)">
       <use xlink:href="#DejaVuSans-31"/>
       <use xlink:href="#DejaVuSans-30" x="63.623047"/>
      </g>
     </g>
    </g>
    <g id="ytick_3">
     <g id="line2d_3">
      <path d="M 54.18 116.041985 
L 393.714545 116.041985 
" clip-path="url(#paa22bbe887)" style="fill: none; stroke: #cccccc; stroke-linecap: round"/>
     </g>
     <g id="text_10">
      <!-- 20 -->
      <g style="fill: #262626" transform="translate(30.6825 120.221126) scale(0.11 -0.11)">
       <use xlink:href="#DejaVuSans-32"/>
       <use xlink:href="#DejaVuSans-30" x="63.623047"/>
      </g>
     </g>
    </g>
    <g id="ytick_4">
     <g id="line2d_4">
      <path d="M 54.18 80.732978 
L 393.714545 80.732978 
" clip-path="url(#paa22bbe887)" style="fill: none; stroke: #cccccc; stroke-linecap: round"/>
     </g>
     <g id="text_11">
      <!-- 30 -->
      <g style="fill: #262626" transform="translate(30.6825 84.912119) scale(0.11 -0.11)">
       <use xlink:href="#DejaVuSans-33"/>
       <use xlink:href="#DejaVuSans-30" x="63.623047"/>
      </g>
     </g>
    </g>
    <g id="ytick_5">
     <g id="line2d_5">
      <path d="M 54.18 45.423971 
L 393.714545 45.423971 
" clip-path="url(#paa22bbe887)" style="fill: none; stroke: #cccccc; stroke-linecap: round"/>
     </g>
     <g id="text_12">
      <!-- 40 -->
      <g style="fill: #262626" transform="translate(30.6825 49.603111) scale(0.11 -0.11)">
       <use xlink:href="#DejaVuSans-34"/>
       <use xlink:href="#DejaVuSans-30" x="63.623047"/>
      </g>
     </g>
    </g>
    <g id="text_13">
     <!-- Seconds -->
     <g style="fill: #262626" transform="translate(23.770938 137.619844) rotate(-90) scale(0.14 -0.14)">
      <defs>
       <path id="DejaVuSans-53" d="M 3425 4513 
L 3425 3897 
Q 3066 4069 2747 4153 
Q 2428 4238 2131 4238 
Q 1616 4238 1336 4038 
Q 1056 3838 1056 3469 
Q 1056 3159 1242 3001 
Q 1428 2844 1947 2747 
L 2328 2669 
Q 3034 2534 3370 2195 
Q 3706 1856 3706 1288 
Q 3706 609 3251 259 
Q 2797 -91 1919 -91 
Q 1588 -91 1214 -16 
Q 841 59 441 206 
L 441 856 
Q 825 641 1194 531 
Q 1563 422 1919 422 
Q 2459 422 2753 634 
Q 3047 847 3047 1241 
Q 3047 1584 2836 1778 
Q 2625 1972 2144 2069 
L 1759 2144 
Q 1053 2284 737 2584 
Q 422 2884 422 3419 
Q 422 4038 858 4394 
Q 1294 4750 2059 4750 
Q 2388 4750 2728 4690 
Q 3069 4631 3425 4513 
z
" transform="scale(0.015625)"/>
       <path id="DejaVuSans-63" d="M 3122 3366 
L 3122 2828 
Q 2878 2963 2633 3030 
Q 2388 3097 2138 3097 
Q 1578 3097 1268 2742 
Q 959 2388 959 1747 
Q 959 1106 1268 751 
Q 1578 397 2138 397 
Q 2388 397 2633 464 
Q 2878 531 3122 666 
L 3122 134 
Q 2881 22 2623 -34 
Q 2366 -91 2075 -91 
Q 1284 -91 818 406 
Q 353 903 353 1747 
Q 353 2603 823 3093 
Q 1294 3584 2113 3584 
Q 2378 3584 2631 3529 
Q 2884 3475 3122 3366 
z
" transform="scale(0.015625)"/>
       <path id="DejaVuSans-6e" d="M 3513 2113 
L 3513 0 
L 2938 0 
L 2938 2094 
Q 2938 2591 2744 2837 
Q 2550 3084 2163 3084 
Q 1697 3084 1428 2787 
Q 1159 2491 1159 1978 
L 1159 0 
L 581 0 
L 581 3500 
L 1159 3500 
L 1159 2956 
Q 1366 3272 1645 3428 
Q 1925 3584 2291 3584 
Q 2894 3584 3203 3211 
Q 3513 2838 3513 2113 
z
" transform="scale(0.015625)"/>
      </defs>
      <use xlink:href="#DejaVuSans-53"/>
      <use xlink:href="#DejaVuSans-65" x="63.476562"/>
      <use xlink:href="#DejaVuSans-63" x="125"/>
      <use xlink:href="#DejaVuSans-6f" x="179.980469"/>
      <use xlink:href="#DejaVuSans-6e" x="241.162109"/>
      <use xlink:href="#DejaVuSans-64" x="304.541016"/>
      <use xlink:href="#DejaVuSans-73" x="368.017578"/>
     </g>
    </g>
   </g>
   <g id="patch_3">
    <path d="M 59.838909 186.66 
L 64.869051 186.66 
L 64.869051 174.962604 
L 59.838909 174.962604 
z
" clip-path="url(#paa22bbe887)" style="fill: #597dbf; stroke: #ffffff; stroke-linejoin: miter"/>
   </g>
   <g id="patch_4">
    <path d="M 116.428 186.66 
L 121.458141 186.66 
L 121.458141 174.40912 
L 116.428 174.40912 
z
" clip-path="url(#paa22bbe887)" style="fill: #597dbf; stroke: #ffffff; stroke-linejoin: miter"/>
   </g>
   <g id="patch_5">
    <path d="M 173.017091 186.66 
L 178.047232 186.66 
L 178.047232 170.920112 
L 173.017091 170.920112 
z
" clip-path="url(#paa22bbe887)" style="fill: #597dbf; stroke: #ffffff; stroke-linejoin: miter"/>
   </g>
   <g id="patch_6">
    <path d="M 229.606182 186.66 
L 234.636323 186.66 
L 234.636323 163.199072 
L 229.606182 163.199072 
z
" clip-path="url(#paa22bbe887)" style="fill: #597dbf; stroke: #ffffff; stroke-linejoin: miter"/>
   </g>
   <g id="patch_7">
    <path d="M 286.195273 186.66 
L 291.225414 186.66 
L 291.225414 142.797865 
L 286.195273 142.797865 
z
" clip-path="url(#paa22bbe887)" style="fill: #597dbf; stroke: #ffffff; stroke-linejoin: miter"/>
   </g>
   <g id="patch_8">
    <path d="M 342.784364 186.66 
L 347.814505 186.66 
L 347.814505 45.938218 
L 342.784364 45.938218 
z
" clip-path="url(#paa22bbe887)" style="fill: #597dbf; stroke: #ffffff; stroke-linejoin: miter"/>
   </g>
   <g id="patch_9">
    <path d="M 64.869051 186.66 
L 69.899192 186.66 
L 69.899192 170.900753 
L 64.869051 170.900753 
z
" clip-path="url(#paa22bbe887)" style="fill: #d98b5f; stroke: #ffffff; stroke-linejoin: miter"/>
   </g>
   <g id="patch_10">
    <path d="M 121.458141 186.66 
L 126.488283 186.66 
L 126.488283 170.489575 
L 121.458141 170.489575 
z
" clip-path="url(#paa22bbe887)" style="fill: #d98b5f; stroke: #ffffff; stroke-linejoin: miter"/>
   </g>
   <g id="patch_11">
    <path d="M 178.047232 186.66 
L 183.077374 186.66 
L 183.077374 167.911782 
L 178.047232 167.911782 
z
" clip-path="url(#paa22bbe887)" style="fill: #d98b5f; stroke: #ffffff; stroke-linejoin: miter"/>
   </g>
   <g id="patch_12">
    <path d="M 234.636323 186.66 
L 239.666465 186.66 
L 239.666465 161.136441 
L 234.636323 161.136441 
z
" clip-path="url(#paa22bbe887)" style="fill: #d98b5f; stroke: #ffffff; stroke-linejoin: miter"/>
   </g>
   <g id="patch_13">
    <path d="M 291.225414 186.66 
L 296.255556 186.66 
L 296.255556 141.094172 
L 291.225414 141.094172 
z
" clip-path="url(#paa22bbe887)" style="fill: #d98b5f; stroke: #ffffff; stroke-linejoin: miter"/>
   </g>
   <g id="patch_14">
    <path d="M 347.814505 186.66 
L 352.844646 186.66 
L 352.844646 45.260051 
L 347.814505 45.260051 
z
" clip-path="url(#paa22bbe887)" style="fill: #d98b5f; stroke: #ffffff; stroke-linejoin: miter"/>
   </g>
   <g id="patch_15">
    <path d="M 69.899192 186.66 
L 74.929333 186.66 
L 74.929333 178.007213 
L 69.899192 178.007213 
z
" clip-path="url(#paa22bbe887)" style="fill: #75bf71; stroke: #ffffff; stroke-linejoin: miter"/>
   </g>
   <g id="patch_16">
    <path d="M 126.488283 186.66 
L 131.518424 186.66 
L 131.518424 175.344011 
L 126.488283 175.344011 
z
" clip-path="url(#paa22bbe887)" style="fill: #75bf71; stroke: #ffffff; stroke-linejoin: miter"/>
   </g>
   <g id="patch_17">
    <path d="M 183.077374 186.66 
L 188.107515 186.66 
L 188.107515 172.794852 
L 183.077374 172.794852 
z
" clip-path="url(#paa22bbe887)" style="fill: #75bf71; stroke: #ffffff; stroke-linejoin: miter"/>
   </g>
   <g id="patch_18">
    <path d="M 239.666465 186.66 
L 244.696606 186.66 
L 244.696606 165.567911 
L 239.666465 165.567911 
z
" clip-path="url(#paa22bbe887)" style="fill: #75bf71; stroke: #ffffff; stroke-linejoin: miter"/>
   </g>
   <g id="patch_19">
    <path d="M 296.255556 186.66 
L 301.285697 186.66 
L 301.285697 142.230643 
L 296.255556 142.230643 
z
" clip-path="url(#paa22bbe887)" style="fill: #75bf71; stroke: #ffffff; stroke-linejoin: miter"/>
   </g>
   <g id="patch_20">
    <path d="M 352.844646 186.66 
L 357.874788 186.66 
L 357.874788 41.880268 
L 352.844646 41.880268 
z
" clip-path="url(#paa22bbe887)" style="fill: #75bf71; stroke: #ffffff; stroke-linejoin: miter"/>
   </g>
   <g id="patch_21">
    <path d="M 74.929333 186.66 
L 79.959475 186.66 
L 79.959475 174.605263 
L 74.929333 174.605263 
z
" clip-path="url(#paa22bbe887)" style="fill: #c76e6e; stroke: #ffffff; stroke-linejoin: miter"/>
   </g>
   <g id="patch_22">
    <path d="M 131.518424 186.66 
L 136.548566 186.66 
L 136.548566 173.80751 
L 131.518424 173.80751 
z
" clip-path="url(#paa22bbe887)" style="fill: #c76e6e; stroke: #ffffff; stroke-linejoin: miter"/>
   </g>
   <g id="patch_23">
    <path d="M 188.107515 186.66 
L 193.137657 186.66 
L 193.137657 170.346482 
L 188.107515 170.346482 
z
" clip-path="url(#paa22bbe887)" style="fill: #c76e6e; stroke: #ffffff; stroke-linejoin: miter"/>
   </g>
   <g id="patch_24">
    <path d="M 244.696606 186.66 
L 249.726747 186.66 
L 249.726747 164.284939 
L 244.696606 164.284939 
z
" clip-path="url(#paa22bbe887)" style="fill: #c76e6e; stroke: #ffffff; stroke-linejoin: miter"/>
   </g>
   <g id="patch_25">
    <path d="M 301.285697 186.66 
L 306.315838 186.66 
L 306.315838 145.634633 
L 301.285697 145.634633 
z
" clip-path="url(#paa22bbe887)" style="fill: #c76e6e; stroke: #ffffff; stroke-linejoin: miter"/>
   </g>
   <g id="patch_26">
    <path d="M 357.874788 186.66 
L 362.904929 186.66 
L 362.904929 46.919848 
L 357.874788 46.919848 
z
" clip-path="url(#paa22bbe887)" style="fill: #c76e6e; stroke: #ffffff; stroke-linejoin: miter"/>
   </g>
   <g id="patch_27">
    <path d="M 79.959475 186.66 
L 84.989616 186.66 
L 84.989616 170.889451 
L 79.959475 170.889451 
z
" clip-path="url(#paa22bbe887)" style="fill: #9475ab; stroke: #ffffff; stroke-linejoin: miter"/>
   </g>
   <g id="patch_28">
    <path d="M 136.548566 186.66 
L 141.578707 186.66 
L 141.578707 171.714962 
L 136.548566 171.714962 
z
" clip-path="url(#paa22bbe887)" style="fill: #9475ab; stroke: #ffffff; stroke-linejoin: miter"/>
   </g>
   <g id="patch_29">
    <path d="M 193.137657 186.66 
L 198.167798 186.66 
L 198.167798 167.689534 
L 193.137657 167.689534 
z
" clip-path="url(#paa22bbe887)" style="fill: #9475ab; stroke: #ffffff; stroke-linejoin: miter"/>
   </g>
   <g id="patch_30">
    <path d="M 249.726747 186.66 
L 254.756889 186.66 
L 254.756889 160.494261 
L 249.726747 160.494261 
z
" clip-path="url(#paa22bbe887)" style="fill: #9475ab; stroke: #ffffff; stroke-linejoin: miter"/>
   </g>
   <g id="patch_31">
    <path d="M 306.315838 186.66 
L 311.34598 186.66 
L 311.34598 138.797184 
L 306.315838 138.797184 
z
" clip-path="url(#paa22bbe887)" style="fill: #9475ab; stroke: #ffffff; stroke-linejoin: miter"/>
   </g>
   <g id="patch_32">
    <path d="M 362.904929 186.66 
L 367.935071 186.66 
L 367.935071 45.370457 
L 362.904929 45.370457 
z
" clip-path="url(#paa22bbe887)" style="fill: #9475ab; stroke: #ffffff; stroke-linejoin: miter"/>
   </g>
   <g id="patch_33">
    <path d="M 84.989616 186.66 
L 90.019758 186.66 
L 90.019758 177.782658 
L 84.989616 177.782658 
z
" clip-path="url(#paa22bbe887)" style="fill: #826246; stroke: #ffffff; stroke-linejoin: miter"/>
   </g>
   <g id="patch_34">
    <path d="M 141.578707 186.66 
L 146.608848 186.66 
L 146.608848 176.065849 
L 141.578707 176.065849 
z
" clip-path="url(#paa22bbe887)" style="fill: #826246; stroke: #ffffff; stroke-linejoin: miter"/>
   </g>
   <g id="patch_35">
    <path d="M 198.167798 186.66 
L 203.197939 186.66 
L 203.197939 172.287437 
L 198.167798 172.287437 
z
" clip-path="url(#paa22bbe887)" style="fill: #826246; stroke: #ffffff; stroke-linejoin: miter"/>
   </g>
   <g id="patch_36">
    <path d="M 254.756889 186.66 
L 259.78703 186.66 
L 259.78703 163.974732 
L 254.756889 163.974732 
z
" clip-path="url(#paa22bbe887)" style="fill: #826246; stroke: #ffffff; stroke-linejoin: miter"/>
   </g>
   <g id="patch_37">
    <path d="M 311.34598 186.66 
L 316.376121 186.66 
L 316.376121 143.827516 
L 311.34598 143.827516 
z
" clip-path="url(#paa22bbe887)" style="fill: #826246; stroke: #ffffff; stroke-linejoin: miter"/>
   </g>
   <g id="patch_38">
    <path d="M 367.935071 186.66 
L 372.965212 186.66 
L 372.965212 38.845792 
L 367.935071 38.845792 
z
" clip-path="url(#paa22bbe887)" style="fill: #826246; stroke: #ffffff; stroke-linejoin: miter"/>
   </g>
   <g id="patch_39">
    <path d="M 90.019758 186.66 
L 95.049899 186.66 
L 95.049899 177.649563 
L 90.019758 177.649563 
z
" clip-path="url(#paa22bbe887)" style="fill: #d08abb; stroke: #ffffff; stroke-linejoin: miter"/>
   </g>
   <g id="patch_40">
    <path d="M 146.608848 186.66 
L 151.63899 186.66 
L 151.63899 176.524439 
L 146.608848 176.524439 
z
" clip-path="url(#paa22bbe887)" style="fill: #d08abb; stroke: #ffffff; stroke-linejoin: miter"/>
   </g>
   <g id="patch_41">
    <path d="M 203.197939 186.66 
L 208.228081 186.66 
L 208.228081 174.409516 
L 203.197939 174.409516 
z
" clip-path="url(#paa22bbe887)" style="fill: #d08abb; stroke: #ffffff; stroke-linejoin: miter"/>
   </g>
   <g id="patch_42">
    <path d="M 259.78703 186.66 
L 264.817172 186.66 
L 264.817172 166.893608 
L 259.78703 166.893608 
z
" clip-path="url(#paa22bbe887)" style="fill: #d08abb; stroke: #ffffff; stroke-linejoin: miter"/>
   </g>
   <g id="patch_43">
    <path d="M 316.376121 186.66 
L 321.406263 186.66 
L 321.406263 145.262786 
L 316.376121 145.262786 
z
" clip-path="url(#paa22bbe887)" style="fill: #d08abb; stroke: #ffffff; stroke-linejoin: miter"/>
   </g>
   <g id="patch_44">
    <path d="M 372.965212 186.66 
L 377.995354 186.66 
L 377.995354 43.388708 
L 372.965212 43.388708 
z
" clip-path="url(#paa22bbe887)" style="fill: #d08abb; stroke: #ffffff; stroke-linejoin: miter"/>
   </g>
   <g id="patch_45">
    <path d="M 95.049899 186.66 
L 100.08004 186.66 
L 100.08004 173.290143 
L 95.049899 173.290143 
z
" clip-path="url(#paa22bbe887)" style="fill: #797979; stroke: #ffffff; stroke-linejoin: miter"/>
   </g>
   <g id="patch_46">
    <path d="M 151.63899 186.66 
L 156.669131 186.66 
L 156.669131 171.7652 
L 151.63899 171.7652 
z
" clip-path="url(#paa22bbe887)" style="fill: #797979; stroke: #ffffff; stroke-linejoin: miter"/>
   </g>
   <g id="patch_47">
    <path d="M 208.228081 186.66 
L 213.258222 186.66 
L 213.258222 169.349344 
L 208.228081 169.349344 
z
" clip-path="url(#paa22bbe887)" style="fill: #797979; stroke: #ffffff; stroke-linejoin: miter"/>
   </g>
   <g id="patch_48">
    <path d="M 264.817172 186.66 
L 269.847313 186.66 
L 269.847313 163.68661 
L 264.817172 163.68661 
z
" clip-path="url(#paa22bbe887)" style="fill: #797979; stroke: #ffffff; stroke-linejoin: miter"/>
   </g>
   <g id="patch_49">
    <path d="M 321.406263 186.66 
L 326.436404 186.66 
L 326.436404 143.598812 
L 321.406263 143.598812 
z
" clip-path="url(#paa22bbe887)" style="fill: #797979; stroke: #ffffff; stroke-linejoin: miter"/>
   </g>
   <g id="patch_50">
    <path d="M 377.995354 186.66 
L 383.025495 186.66 
L 383.025495 53.657735 
L 377.995354 53.657735 
z
" clip-path="url(#paa22bbe887)" style="fill: #797979; stroke: #ffffff; stroke-linejoin: miter"/>
   </g>
   <g id="patch_51">
    <path d="M 100.08004 186.66 
L 105.110182 186.66 
L 105.110182 176.552266 
L 100.08004 176.552266 
z
" clip-path="url(#paa22bbe887)" style="fill: #c7b475; stroke: #ffffff; stroke-linejoin: miter"/>
   </g>
   <g id="patch_52">
    <path d="M 156.669131 186.66 
L 161.699273 186.66 
L 161.699273 174.949385 
L 156.669131 174.949385 
z
" clip-path="url(#paa22bbe887)" style="fill: #c7b475; stroke: #ffffff; stroke-linejoin: miter"/>
   </g>
   <g id="patch_53">
    <path d="M 213.258222 186.66 
L 218.288364 186.66 
L 218.288364 174.103935 
L 213.258222 174.103935 
z
" clip-path="url(#paa22bbe887)" style="fill: #c7b475; stroke: #ffffff; stroke-linejoin: miter"/>
   </g>
   <g id="patch_54">
    <path d="M 269.847313 186.66 
L 274.877455 186.66 
L 274.877455 166.063656 
L 269.847313 166.063656 
z
" clip-path="url(#paa22bbe887)" style="fill: #c7b475; stroke: #ffffff; stroke-linejoin: miter"/>
   </g>
   <g id="patch_55">
    <path d="M 326.436404 186.66 
L 331.466545 186.66 
L 331.466545 147.196853 
L 326.436404 147.196853 
z
" clip-path="url(#paa22bbe887)" style="fill: #c7b475; stroke: #ffffff; stroke-linejoin: miter"/>
   </g>
   <g id="patch_56">
    <path d="M 383.025495 186.66 
L 388.055636 186.66 
L 388.055636 57.073349 
L 383.025495 57.073349 
z
" clip-path="url(#paa22bbe887)" style="fill: #c7b475; stroke: #ffffff; stroke-linejoin: miter"/>
   </g>
   <g id="patch_57">
    <path d="M 82.474545 186.66 
L 82.474545 186.66 
L 82.474545 186.66 
L 82.474545 186.66 
z
" clip-path="url(#paa22bbe887)" style="fill: #597dbf; stroke: #ffffff; stroke-linejoin: miter"/>
   </g>
   <g id="patch_58">
    <path d="M 82.474545 186.66 
L 82.474545 186.66 
L 82.474545 186.66 
L 82.474545 186.66 
z
" clip-path="url(#paa22bbe887)" style="fill: #d98b5f; stroke: #ffffff; stroke-linejoin: miter"/>
   </g>
   <g id="patch_59">
    <path d="M 82.474545 186.66 
L 82.474545 186.66 
L 82.474545 186.66 
L 82.474545 186.66 
z
" clip-path="url(#paa22bbe887)" style="fill: #75bf71; stroke: #ffffff; stroke-linejoin: miter"/>
   </g>
   <g id="patch_60">
    <path d="M 82.474545 186.66 
L 82.474545 186.66 
L 82.474545 186.66 
L 82.474545 186.66 
z
" clip-path="url(#paa22bbe887)" style="fill: #c76e6e; stroke: #ffffff; stroke-linejoin: miter"/>
   </g>
   <g id="patch_61">
    <path d="M 82.474545 186.66 
L 82.474545 186.66 
L 82.474545 186.66 
L 82.474545 186.66 
z
" clip-path="url(#paa22bbe887)" style="fill: #9475ab; stroke: #ffffff; stroke-linejoin: miter"/>
   </g>
   <g id="patch_62">
    <path d="M 82.474545 186.66 
L 82.474545 186.66 
L 82.474545 186.66 
L 82.474545 186.66 
z
" clip-path="url(#paa22bbe887)" style="fill: #826246; stroke: #ffffff; stroke-linejoin: miter"/>
   </g>
   <g id="patch_63">
    <path d="M 82.474545 186.66 
L 82.474545 186.66 
L 82.474545 186.66 
L 82.474545 186.66 
z
" clip-path="url(#paa22bbe887)" style="fill: #d08abb; stroke: #ffffff; stroke-linejoin: miter"/>
   </g>
   <g id="patch_64">
    <path d="M 82.474545 186.66 
L 82.474545 186.66 
L 82.474545 186.66 
L 82.474545 186.66 
z
" clip-path="url(#paa22bbe887)" style="fill: #797979; stroke: #ffffff; stroke-linejoin: miter"/>
   </g>
   <g id="patch_65">
    <path d="M 82.474545 186.66 
L 82.474545 186.66 
L 82.474545 186.66 
L 82.474545 186.66 
z
" clip-path="url(#paa22bbe887)" style="fill: #c7b475; stroke: #ffffff; stroke-linejoin: miter"/>
   </g>
   <g id="line2d_6">
    <path d="M 62.35398 176.064204 
L 62.35398 174.134076 
" clip-path="url(#paa22bbe887)" style="fill: none; stroke: #8b0000; stroke-width: 2.25; stroke-linecap: round"/>
   </g>
   <g id="line2d_7">
    <path d="M 118.943071 174.792656 
L 118.943071 174.184413 
" clip-path="url(#paa22bbe887)" style="fill: none; stroke: #8b0000; stroke-width: 2.25; stroke-linecap: round"/>
   </g>
   <g id="line2d_8">
    <path d="M 175.532162 171.951303 
L 175.532162 170.168184 
" clip-path="url(#paa22bbe887)" style="fill: none; stroke: #8b0000; stroke-width: 2.25; stroke-linecap: round"/>
   </g>
   <g id="line2d_9">
    <path d="M 232.121253 163.849079 
L 232.121253 162.748471 
" clip-path="url(#paa22bbe887)" style="fill: none; stroke: #8b0000; stroke-width: 2.25; stroke-linecap: round"/>
   </g>
   <g id="line2d_10">
    <path d="M 288.710343 144.657351 
L 288.710343 141.435189 
" clip-path="url(#paa22bbe887)" style="fill: none; stroke: #8b0000; stroke-width: 2.25; stroke-linecap: round"/>
   </g>
   <g id="line2d_11">
    <path d="M 345.299434 46.817463 
L 345.299434 44.413142 
" clip-path="url(#paa22bbe887)" style="fill: none; stroke: #8b0000; stroke-width: 2.25; stroke-linecap: round"/>
   </g>
   <g id="line2d_12">
    <path d="M 67.384121 171.317756 
L 67.384121 170.65105 
" clip-path="url(#paa22bbe887)" style="fill: none; stroke: #8b0000; stroke-width: 2.25; stroke-linecap: round"/>
   </g>
   <g id="line2d_13">
    <path d="M 123.973212 171.594143 
L 123.973212 169.101416 
" clip-path="url(#paa22bbe887)" style="fill: none; stroke: #8b0000; stroke-width: 2.25; stroke-linecap: round"/>
   </g>
   <g id="line2d_14">
    <path d="M 180.562303 169.191092 
L 180.562303 166.588556 
" clip-path="url(#paa22bbe887)" style="fill: none; stroke: #8b0000; stroke-width: 2.25; stroke-linecap: round"/>
   </g>
   <g id="line2d_15">
    <path d="M 237.151394 161.981713 
L 237.151394 160.408005 
" clip-path="url(#paa22bbe887)" style="fill: none; stroke: #8b0000; stroke-width: 2.25; stroke-linecap: round"/>
   </g>
   <g id="line2d_16">
    <path d="M 293.740485 142.727383 
L 293.740485 139.691801 
" clip-path="url(#paa22bbe887)" style="fill: none; stroke: #8b0000; stroke-width: 2.25; stroke-linecap: round"/>
   </g>
   <g id="line2d_17">
    <path d="M 350.329576 48.594768 
L 350.329576 40.250788 
" clip-path="url(#paa22bbe887)" style="fill: none; stroke: #8b0000; stroke-width: 2.25; stroke-linecap: round"/>
   </g>
   <g id="line2d_18">
    <path d="M 72.414263 178.376953 
L 72.414263 177.598465 
" clip-path="url(#paa22bbe887)" style="fill: none; stroke: #8b0000; stroke-width: 2.25; stroke-linecap: round"/>
   </g>
   <g id="line2d_19">
    <path d="M 129.003354 176.799185 
L 129.003354 174.195741 
" clip-path="url(#paa22bbe887)" style="fill: none; stroke: #8b0000; stroke-width: 2.25; stroke-linecap: round"/>
   </g>
   <g id="line2d_20">
    <path d="M 185.592444 173.83292 
L 185.592444 171.550942 
" clip-path="url(#paa22bbe887)" style="fill: none; stroke: #8b0000; stroke-width: 2.25; stroke-linecap: round"/>
   </g>
   <g id="line2d_21">
    <path d="M 242.181535 167.037311 
L 242.181535 163.405541 
" clip-path="url(#paa22bbe887)" style="fill: none; stroke: #8b0000; stroke-width: 2.25; stroke-linecap: round"/>
   </g>
   <g id="line2d_22">
    <path d="M 298.770626 143.805564 
L 298.770626 140.227372 
" clip-path="url(#paa22bbe887)" style="fill: none; stroke: #8b0000; stroke-width: 2.25; stroke-linecap: round"/>
   </g>
   <g id="line2d_23">
    <path d="M 355.359717 44.19317 
L 355.359717 38.737517 
" clip-path="url(#paa22bbe887)" style="fill: none; stroke: #8b0000; stroke-width: 2.25; stroke-linecap: round"/>
   </g>
   <g id="line2d_24">
    <path d="M 77.444404 175.441225 
L 77.444404 173.769301 
" clip-path="url(#paa22bbe887)" style="fill: none; stroke: #8b0000; stroke-width: 2.25; stroke-linecap: round"/>
   </g>
   <g id="line2d_25">
    <path d="M 134.033495 174.395056 
L 134.033495 173.219963 
" clip-path="url(#paa22bbe887)" style="fill: none; stroke: #8b0000; stroke-width: 2.25; stroke-linecap: round"/>
   </g>
   <g id="line2d_26">
    <path d="M 190.622586 170.61515 
L 190.622586 170.077814 
" clip-path="url(#paa22bbe887)" style="fill: none; stroke: #8b0000; stroke-width: 2.25; stroke-linecap: round"/>
   </g>
   <g id="line2d_27">
    <path d="M 247.211677 166.592927 
L 247.211677 161.976951 
" clip-path="url(#paa22bbe887)" style="fill: none; stroke: #8b0000; stroke-width: 2.25; stroke-linecap: round"/>
   </g>
   <g id="line2d_28">
    <path d="M 303.800768 145.92509 
L 303.800768 145.344176 
" clip-path="url(#paa22bbe887)" style="fill: none; stroke: #8b0000; stroke-width: 2.25; stroke-linecap: round"/>
   </g>
   <g id="line2d_29">
    <path d="M 360.389859 49.956588 
L 360.389859 44.930437 
" clip-path="url(#paa22bbe887)" style="fill: none; stroke: #8b0000; stroke-width: 2.25; stroke-linecap: round"/>
   </g>
   <g id="line2d_30">
    <path d="M 82.474545 171.195966 
L 82.474545 170.582936 
" clip-path="url(#paa22bbe887)" style="fill: none; stroke: #8b0000; stroke-width: 2.25; stroke-linecap: round"/>
   </g>
   <g id="line2d_31">
    <path d="M 139.063636 172.455207 
L 139.063636 170.974716 
" clip-path="url(#paa22bbe887)" style="fill: none; stroke: #8b0000; stroke-width: 2.25; stroke-linecap: round"/>
   </g>
   <g id="line2d_32">
    <path d="M 195.652727 168.183593 
L 195.652727 167.195474 
" clip-path="url(#paa22bbe887)" style="fill: none; stroke: #8b0000; stroke-width: 2.25; stroke-linecap: round"/>
   </g>
   <g id="line2d_33">
    <path d="M 252.241818 161.682042 
L 252.241818 159.306481 
" clip-path="url(#paa22bbe887)" style="fill: none; stroke: #8b0000; stroke-width: 2.25; stroke-linecap: round"/>
   </g>
   <g id="line2d_34">
    <path d="M 308.830909 139.835343 
L 308.830909 137.759024 
" clip-path="url(#paa22bbe887)" style="fill: none; stroke: #8b0000; stroke-width: 2.25; stroke-linecap: round"/>
   </g>
   <g id="line2d_35">
    <path d="M 365.42 47.074466 
L 365.42 43.541188 
" clip-path="url(#paa22bbe887)" style="fill: none; stroke: #8b0000; stroke-width: 2.25; stroke-linecap: round"/>
   </g>
   <g id="line2d_36">
    <path d="M 87.504687 178.855963 
L 87.504687 176.709354 
" clip-path="url(#paa22bbe887)" style="fill: none; stroke: #8b0000; stroke-width: 2.25; stroke-linecap: round"/>
   </g>
   <g id="line2d_37">
    <path d="M 144.093778 176.673483 
L 144.093778 175.458216 
" clip-path="url(#paa22bbe887)" style="fill: none; stroke: #8b0000; stroke-width: 2.25; stroke-linecap: round"/>
   </g>
   <g id="line2d_38">
    <path d="M 200.682869 172.864995 
L 200.682869 171.709879 
" clip-path="url(#paa22bbe887)" style="fill: none; stroke: #8b0000; stroke-width: 2.25; stroke-linecap: round"/>
   </g>
   <g id="line2d_39">
    <path d="M 257.27196 164.231558 
L 257.27196 163.717905 
" clip-path="url(#paa22bbe887)" style="fill: none; stroke: #8b0000; stroke-width: 2.25; stroke-linecap: round"/>
   </g>
   <g id="line2d_40">
    <path d="M 313.861051 144.563054 
L 313.861051 143.091979 
" clip-path="url(#paa22bbe887)" style="fill: none; stroke: #8b0000; stroke-width: 2.25; stroke-linecap: round"/>
   </g>
   <g id="line2d_41">
    <path d="M 370.450141 41.514251 
L 370.450141 37.231429 
" clip-path="url(#paa22bbe887)" style="fill: none; stroke: #8b0000; stroke-width: 2.25; stroke-linecap: round"/>
   </g>
   <g id="line2d_42">
    <path d="M 92.534828 178.760646 
L 92.534828 176.874836 
" clip-path="url(#paa22bbe887)" style="fill: none; stroke: #8b0000; stroke-width: 2.25; stroke-linecap: round"/>
   </g>
   <g id="line2d_43">
    <path d="M 149.123919 176.770513 
L 149.123919 176.295447 
" clip-path="url(#paa22bbe887)" style="fill: none; stroke: #8b0000; stroke-width: 2.25; stroke-linecap: round"/>
   </g>
   <g id="line2d_44">
    <path d="M 205.71301 174.833388 
L 205.71301 173.806722 
" clip-path="url(#paa22bbe887)" style="fill: none; stroke: #8b0000; stroke-width: 2.25; stroke-linecap: round"/>
   </g>
   <g id="line2d_45">
    <path d="M 262.302101 168.109232 
L 262.302101 166.072646 
" clip-path="url(#paa22bbe887)" style="fill: none; stroke: #8b0000; stroke-width: 2.25; stroke-linecap: round"/>
   </g>
   <g id="line2d_46">
    <path d="M 318.891192 146.604671 
L 318.891192 144.127852 
" clip-path="url(#paa22bbe887)" style="fill: none; stroke: #8b0000; stroke-width: 2.25; stroke-linecap: round"/>
   </g>
   <g id="line2d_47">
    <path d="M 375.480283 44.717525 
L 375.480283 41.81064 
" clip-path="url(#paa22bbe887)" style="fill: none; stroke: #8b0000; stroke-width: 2.25; stroke-linecap: round"/>
   </g>
   <g id="line2d_48">
    <path d="M 97.56497 174.039235 
L 97.56497 172.384118 
" clip-path="url(#paa22bbe887)" style="fill: none; stroke: #8b0000; stroke-width: 2.25; stroke-linecap: round"/>
   </g>
   <g id="line2d_49">
    <path d="M 154.154061 172.434073 
L 154.154061 170.949015 
" clip-path="url(#paa22bbe887)" style="fill: none; stroke: #8b0000; stroke-width: 2.25; stroke-linecap: round"/>
   </g>
   <g id="line2d_50">
    <path d="M 210.743152 170.54969 
L 210.743152 168.151073 
" clip-path="url(#paa22bbe887)" style="fill: none; stroke: #8b0000; stroke-width: 2.25; stroke-linecap: round"/>
   </g>
   <g id="line2d_51">
    <path d="M 267.332242 164.629883 
L 267.332242 162.747996 
" clip-path="url(#paa22bbe887)" style="fill: none; stroke: #8b0000; stroke-width: 2.25; stroke-linecap: round"/>
   </g>
   <g id="line2d_52">
    <path d="M 323.921333 144.185831 
L 323.921333 143.011794 
" clip-path="url(#paa22bbe887)" style="fill: none; stroke: #8b0000; stroke-width: 2.25; stroke-linecap: round"/>
   </g>
   <g id="line2d_53">
    <path d="M 380.510424 55.404372 
L 380.510424 51.769808 
" clip-path="url(#paa22bbe887)" style="fill: none; stroke: #8b0000; stroke-width: 2.25; stroke-linecap: round"/>
   </g>
   <g id="line2d_54">
    <path d="M 102.595111 177.432254 
L 102.595111 175.672279 
" clip-path="url(#paa22bbe887)" style="fill: none; stroke: #8b0000; stroke-width: 2.25; stroke-linecap: round"/>
   </g>
   <g id="line2d_55">
    <path d="M 159.184202 175.692521 
L 159.184202 174.206248 
" clip-path="url(#paa22bbe887)" style="fill: none; stroke: #8b0000; stroke-width: 2.25; stroke-linecap: round"/>
   </g>
   <g id="line2d_56">
    <path d="M 215.773293 174.446182 
L 215.773293 173.771917 
" clip-path="url(#paa22bbe887)" style="fill: none; stroke: #8b0000; stroke-width: 2.25; stroke-linecap: round"/>
   </g>
   <g id="line2d_57">
    <path d="M 272.362384 167.037959 
L 272.362384 164.847099 
" clip-path="url(#paa22bbe887)" style="fill: none; stroke: #8b0000; stroke-width: 2.25; stroke-linecap: round"/>
   </g>
   <g id="line2d_58">
    <path d="M 328.951475 148.763574 
L 328.951475 145.720394 
" clip-path="url(#paa22bbe887)" style="fill: none; stroke: #8b0000; stroke-width: 2.25; stroke-linecap: round"/>
   </g>
   <g id="line2d_59">
    <path d="M 385.540566 57.959598 
L 385.540566 56.187099 
" clip-path="url(#paa22bbe887)" style="fill: none; stroke: #8b0000; stroke-width: 2.25; stroke-linecap: round"/>
   </g>
   <g id="patch_66">
    <path d="M 54.18 186.66 
L 54.18 29.76 
" style="fill: none; stroke: #cccccc; stroke-width: 1.25; stroke-linejoin: miter; stroke-linecap: square"/>
   </g>
   <g id="patch_67">
    <path d="M 393.714545 186.66 
L 393.714545 29.76 
" style="fill: none; stroke: #cccccc; stroke-width: 1.25; stroke-linejoin: miter; stroke-linecap: square"/>
   </g>
   <g id="patch_68">
    <path d="M 54.18 186.66 
L 393.714545 186.66 
" style="fill: none; stroke: #cccccc; stroke-width: 1.25; stroke-linejoin: miter; stroke-linecap: square"/>
   </g>
   <g id="patch_69">
    <path d="M 54.18 29.76 
L 393.714545 29.76 
" style="fill: none; stroke: #cccccc; stroke-width: 1.25; stroke-linejoin: miter; stroke-linecap: square"/>
   </g>
   <g id="text_14">
    <!-- LAMMPS Hookup-time -->
    <g style="fill: #262626" transform="translate(147.24696 23.76) scale(0.14 -0.14)">
     <defs>
      <path id="DejaVuSans-4c" d="M 628 4666 
L 1259 4666 
L 1259 531 
L 3531 531 
L 3531 0 
L 628 0 
L 628 4666 
z
" transform="scale(0.015625)"/>
      <path id="DejaVuSans-41" d="M 2188 4044 
L 1331 1722 
L 3047 1722 
L 2188 4044 
z
M 1831 4666 
L 2547 4666 
L 4325 0 
L 3669 0 
L 3244 1197 
L 1141 1197 
L 716 0 
L 50 0 
L 1831 4666 
z
" transform="scale(0.015625)"/>
      <path id="DejaVuSans-4d" d="M 628 4666 
L 1569 4666 
L 2759 1491 
L 3956 4666 
L 4897 4666 
L 4897 0 
L 4281 0 
L 4281 4097 
L 3078 897 
L 2444 897 
L 1241 4097 
L 1241 0 
L 628 0 
L 628 4666 
z
" transform="scale(0.015625)"/>
      <path id="DejaVuSans-50" d="M 1259 4147 
L 1259 2394 
L 2053 2394 
Q 2494 2394 2734 2622 
Q 2975 2850 2975 3272 
Q 2975 3691 2734 3919 
Q 2494 4147 2053 4147 
L 1259 4147 
z
M 628 4666 
L 2053 4666 
Q 2838 4666 3239 4311 
Q 3641 3956 3641 3272 
Q 3641 2581 3239 2228 
Q 2838 1875 2053 1875 
L 1259 1875 
L 1259 0 
L 628 0 
L 628 4666 
z
" transform="scale(0.015625)"/>
      <path id="DejaVuSans-20" transform="scale(0.015625)"/>
      <path id="DejaVuSans-48" d="M 628 4666 
L 1259 4666 
L 1259 2753 
L 3553 2753 
L 3553 4666 
L 4184 4666 
L 4184 0 
L 3553 0 
L 3553 2222 
L 1259 2222 
L 1259 0 
L 628 0 
L 628 4666 
z
" transform="scale(0.015625)"/>
      <path id="DejaVuSans-6b" d="M 581 4863 
L 1159 4863 
L 1159 1991 
L 2875 3500 
L 3609 3500 
L 1753 1863 
L 3688 0 
L 2938 0 
L 1159 1709 
L 1159 0 
L 581 0 
L 581 4863 
z
" transform="scale(0.015625)"/>
      <path id="DejaVuSans-75" d="M 544 1381 
L 544 3500 
L 1119 3500 
L 1119 1403 
Q 1119 906 1312 657 
Q 1506 409 1894 409 
Q 2359 409 2629 706 
Q 2900 1003 2900 1516 
L 2900 3500 
L 3475 3500 
L 3475 0 
L 2900 0 
L 2900 538 
Q 2691 219 2414 64 
Q 2138 -91 1772 -91 
Q 1169 -91 856 284 
Q 544 659 544 1381 
z
M 1991 3584 
L 1991 3584 
z
" transform="scale(0.015625)"/>
      <path id="DejaVuSans-70" d="M 1159 525 
L 1159 -1331 
L 581 -1331 
L 581 3500 
L 1159 3500 
L 1159 2969 
Q 1341 3281 1617 3432 
Q 1894 3584 2278 3584 
Q 2916 3584 3314 3078 
Q 3713 2572 3713 1747 
Q 3713 922 3314 415 
Q 2916 -91 2278 -91 
Q 1894 -91 1617 61 
Q 1341 213 1159 525 
z
M 3116 1747 
Q 3116 2381 2855 2742 
Q 2594 3103 2138 3103 
Q 1681 3103 1420 2742 
Q 1159 2381 1159 1747 
Q 1159 1113 1420 752 
Q 1681 391 2138 391 
Q 2594 391 2855 752 
Q 3116 1113 3116 1747 
z
" transform="scale(0.015625)"/>
      <path id="DejaVuSans-2d" d="M 313 2009 
L 1997 2009 
L 1997 1497 
L 313 1497 
L 313 2009 
z
" transform="scale(0.015625)"/>
      <path id="DejaVuSans-74" d="M 1172 4494 
L 1172 3500 
L 2356 3500 
L 2356 3053 
L 1172 3053 
L 1172 1153 
Q 1172 725 1289 603 
Q 1406 481 1766 481 
L 2356 481 
L 2356 0 
L 1766 0 
Q 1100 0 847 248 
Q 594 497 594 1153 
L 594 3053 
L 172 3053 
L 172 3500 
L 594 3500 
L 594 4494 
L 1172 4494 
z
" transform="scale(0.015625)"/>
      <path id="DejaVuSans-69" d="M 603 3500 
L 1178 3500 
L 1178 0 
L 603 0 
L 603 3500 
z
M 603 4863 
L 1178 4863 
L 1178 4134 
L 603 4134 
L 603 4863 
z
" transform="scale(0.015625)"/>
      <path id="DejaVuSans-6d" d="M 3328 2828 
Q 3544 3216 3844 3400 
Q 4144 3584 4550 3584 
Q 5097 3584 5394 3201 
Q 5691 2819 5691 2113 
L 5691 0 
L 5113 0 
L 5113 2094 
Q 5113 2597 4934 2840 
Q 4756 3084 4391 3084 
Q 3944 3084 3684 2787 
Q 3425 2491 3425 1978 
L 3425 0 
L 2847 0 
L 2847 2094 
Q 2847 2600 2669 2842 
Q 2491 3084 2119 3084 
Q 1678 3084 1418 2786 
Q 1159 2488 1159 1978 
L 1159 0 
L 581 0 
L 581 3500 
L 1159 3500 
L 1159 2956 
Q 1356 3278 1631 3431 
Q 1906 3584 2284 3584 
Q 2666 3584 2933 3390 
Q 3200 3197 3328 2828 
z
" transform="scale(0.015625)"/>
     </defs>
     <use xlink:href="#DejaVuSans-4c"/>
     <use xlink:href="#DejaVuSans-41" x="57.962891"/>
     <use xlink:href="#DejaVuSans-4d" x="126.371094"/>
     <use xlink:href="#DejaVuSans-4d" x="212.650391"/>
     <use xlink:href="#DejaVuSans-50" x="298.929688"/>
     <use xlink:href="#DejaVuSans-53" x="359.232422"/>
     <use xlink:href="#DejaVuSans-20" x="422.708984"/>
     <use xlink:href="#DejaVuSans-48" x="454.496094"/>
     <use xlink:href="#DejaVuSans-6f" x="529.691406"/>
     <use xlink:href="#DejaVuSans-6f" x="590.873047"/>
     <use xlink:href="#DejaVuSans-6b" x="652.054688"/>
     <use xlink:href="#DejaVuSans-75" x="706.839844"/>
     <use xlink:href="#DejaVuSans-70" x="770.21875"/>
     <use xlink:href="#DejaVuSans-2d" x="833.695312"/>
     <use xlink:href="#DejaVuSans-74" x="869.779297"/>
     <use xlink:href="#DejaVuSans-69" x="908.988281"/>
     <use xlink:href="#DejaVuSans-6d" x="936.771484"/>
     <use xlink:href="#DejaVuSans-65" x="1034.183594"/>
    </g>
   </g>
  </g>
  <g id="axes_2">
   <g id="legend_1">
    <g id="patch_70">
     <path d="M 409.316 46.661563 
L 431.316 46.661563 
L 431.316 38.961562 
L 409.316 38.961562 
z
" style="fill: #597dbf; stroke: #ffffff; stroke-linejoin: miter"/>
    </g>
    <g id="text_15">
     <!-- Ubuntu Mpich eBPF Multiple -->
     <g style="fill: #262626" transform="translate(440.116 46.661563) scale(0.11 -0.11)">
      <defs>
       <path id="DejaVuSans-55" d="M 556 4666 
L 1191 4666 
L 1191 1831 
Q 1191 1081 1462 751 
Q 1734 422 2344 422 
Q 2950 422 3222 751 
Q 3494 1081 3494 1831 
L 3494 4666 
L 4128 4666 
L 4128 1753 
Q 4128 841 3676 375 
Q 3225 -91 2344 -91 
Q 1459 -91 1007 375 
Q 556 841 556 1753 
L 556 4666 
z
" transform="scale(0.015625)"/>
       <path id="DejaVuSans-62" d="M 3116 1747 
Q 3116 2381 2855 2742 
Q 2594 3103 2138 3103 
Q 1681 3103 1420 2742 
Q 1159 2381 1159 1747 
Q 1159 1113 1420 752 
Q 1681 391 2138 391 
Q 2594 391 2855 752 
Q 3116 1113 3116 1747 
z
M 1159 2969 
Q 1341 3281 1617 3432 
Q 1894 3584 2278 3584 
Q 2916 3584 3314 3078 
Q 3713 2572 3713 1747 
Q 3713 922 3314 415 
Q 2916 -91 2278 -91 
Q 1894 -91 1617 61 
Q 1341 213 1159 525 
L 1159 0 
L 581 0 
L 581 4863 
L 1159 4863 
L 1159 2969 
z
" transform="scale(0.015625)"/>
       <path id="DejaVuSans-68" d="M 3513 2113 
L 3513 0 
L 2938 0 
L 2938 2094 
Q 2938 2591 2744 2837 
Q 2550 3084 2163 3084 
Q 1697 3084 1428 2787 
Q 1159 2491 1159 1978 
L 1159 0 
L 581 0 
L 581 4863 
L 1159 4863 
L 1159 2956 
Q 1366 3272 1645 3428 
Q 1925 3584 2291 3584 
Q 2894 3584 3203 3211 
Q 3513 2838 3513 2113 
z
" transform="scale(0.015625)"/>
       <path id="DejaVuSans-42" d="M 1259 2228 
L 1259 519 
L 2272 519 
Q 2781 519 3026 730 
Q 3272 941 3272 1375 
Q 3272 1813 3026 2020 
Q 2781 2228 2272 2228 
L 1259 2228 
z
M 1259 4147 
L 1259 2741 
L 2194 2741 
Q 2656 2741 2882 2914 
Q 3109 3088 3109 3444 
Q 3109 3797 2882 3972 
Q 2656 4147 2194 4147 
L 1259 4147 
z
M 628 4666 
L 2241 4666 
Q 2963 4666 3353 4366 
Q 3744 4066 3744 3513 
Q 3744 3084 3544 2831 
Q 3344 2578 2956 2516 
Q 3422 2416 3680 2098 
Q 3938 1781 3938 1306 
Q 3938 681 3513 340 
Q 3088 0 2303 0 
L 628 0 
L 628 4666 
z
" transform="scale(0.015625)"/>
       <path id="DejaVuSans-46" d="M 628 4666 
L 3309 4666 
L 3309 4134 
L 1259 4134 
L 1259 2759 
L 3109 2759 
L 3109 2228 
L 1259 2228 
L 1259 0 
L 628 0 
L 628 4666 
z
" transform="scale(0.015625)"/>
       <path id="DejaVuSans-6c" d="M 603 4863 
L 1178 4863 
L 1178 0 
L 603 0 
L 603 4863 
z
" transform="scale(0.015625)"/>
      </defs>
      <use xlink:href="#DejaVuSans-55"/>
      <use xlink:href="#DejaVuSans-62" x="73.193359"/>
      <use xlink:href="#DejaVuSans-75" x="136.669922"/>
      <use xlink:href="#DejaVuSans-6e" x="200.048828"/>
      <use xlink:href="#DejaVuSans-74" x="263.427734"/>
      <use xlink:href="#DejaVuSans-75" x="302.636719"/>
      <use xlink:href="#DejaVuSans-20" x="366.015625"/>
      <use xlink:href="#DejaVuSans-4d" x="397.802734"/>
      <use xlink:href="#DejaVuSans-70" x="484.082031"/>
      <use xlink:href="#DejaVuSans-69" x="547.558594"/>
      <use xlink:href="#DejaVuSans-63" x="575.341797"/>
      <use xlink:href="#DejaVuSans-68" x="630.322266"/>
      <use xlink:href="#DejaVuSans-20" x="693.701172"/>
      <use xlink:href="#DejaVuSans-65" x="725.488281"/>
      <use xlink:href="#DejaVuSans-42" x="787.011719"/>
      <use xlink:href="#DejaVuSans-50" x="855.615234"/>
      <use xlink:href="#DejaVuSans-46" x="915.917969"/>
      <use xlink:href="#DejaVuSans-20" x="973.4375"/>
      <use xlink:href="#DejaVuSans-4d" x="1005.224609"/>
      <use xlink:href="#DejaVuSans-75" x="1091.503906"/>
      <use xlink:href="#DejaVuSans-6c" x="1154.882812"/>
      <use xlink:href="#DejaVuSans-74" x="1182.666016"/>
      <use xlink:href="#DejaVuSans-69" x="1221.875"/>
      <use xlink:href="#DejaVuSans-70" x="1249.658203"/>
      <use xlink:href="#DejaVuSans-6c" x="1313.134766"/>
      <use xlink:href="#DejaVuSans-65" x="1340.917969"/>
     </g>
    </g>
    <g id="patch_71">
     <path d="M 409.316 62.8075 
L 431.316 62.8075 
L 431.316 55.1075 
L 409.316 55.1075 
z
" style="fill: #d98b5f; stroke: #ffffff; stroke-linejoin: miter"/>
    </g>
    <g id="text_16">
     <!-- Ubuntu OpenMPI eBPF Multiple -->
     <g style="fill: #262626" transform="translate(440.116 62.8075) scale(0.11 -0.11)">
      <defs>
       <path id="DejaVuSans-4f" d="M 2522 4238 
Q 1834 4238 1429 3725 
Q 1025 3213 1025 2328 
Q 1025 1447 1429 934 
Q 1834 422 2522 422 
Q 3209 422 3611 934 
Q 4013 1447 4013 2328 
Q 4013 3213 3611 3725 
Q 3209 4238 2522 4238 
z
M 2522 4750 
Q 3503 4750 4090 4092 
Q 4678 3434 4678 2328 
Q 4678 1225 4090 567 
Q 3503 -91 2522 -91 
Q 1538 -91 948 565 
Q 359 1222 359 2328 
Q 359 3434 948 4092 
Q 1538 4750 2522 4750 
z
" transform="scale(0.015625)"/>
       <path id="DejaVuSans-49" d="M 628 4666 
L 1259 4666 
L 1259 0 
L 628 0 
L 628 4666 
z
" transform="scale(0.015625)"/>
      </defs>
      <use xlink:href="#DejaVuSans-55"/>
      <use xlink:href="#DejaVuSans-62" x="73.193359"/>
      <use xlink:href="#DejaVuSans-75" x="136.669922"/>
      <use xlink:href="#DejaVuSans-6e" x="200.048828"/>
      <use xlink:href="#DejaVuSans-74" x="263.427734"/>
      <use xlink:href="#DejaVuSans-75" x="302.636719"/>
      <use xlink:href="#DejaVuSans-20" x="366.015625"/>
      <use xlink:href="#DejaVuSans-4f" x="397.802734"/>
      <use xlink:href="#DejaVuSans-70" x="476.513672"/>
      <use xlink:href="#DejaVuSans-65" x="539.990234"/>
      <use xlink:href="#DejaVuSans-6e" x="601.513672"/>
      <use xlink:href="#DejaVuSans-4d" x="664.892578"/>
      <use xlink:href="#DejaVuSans-50" x="751.171875"/>
      <use xlink:href="#DejaVuSans-49" x="811.474609"/>
      <use xlink:href="#DejaVuSans-20" x="840.966797"/>
      <use xlink:href="#DejaVuSans-65" x="872.753906"/>
      <use xlink:href="#DejaVuSans-42" x="934.277344"/>
      <use xlink:href="#DejaVuSans-50" x="1002.880859"/>
      <use xlink:href="#DejaVuSans-46" x="1063.183594"/>
      <use xlink:href="#DejaVuSans-20" x="1120.703125"/>
      <use xlink:href="#DejaVuSans-4d" x="1152.490234"/>
      <use xlink:href="#DejaVuSans-75" x="1238.769531"/>
      <use xlink:href="#DejaVuSans-6c" x="1302.148438"/>
      <use xlink:href="#DejaVuSans-74" x="1329.931641"/>
      <use xlink:href="#DejaVuSans-69" x="1369.140625"/>
      <use xlink:href="#DejaVuSans-70" x="1396.923828"/>
      <use xlink:href="#DejaVuSans-6c" x="1460.400391"/>
      <use xlink:href="#DejaVuSans-65" x="1488.183594"/>
     </g>
    </g>
    <g id="patch_72">
     <path d="M 409.316 78.953438 
L 431.316 78.953438 
L 431.316 71.253438 
L 409.316 71.253438 
z
" style="fill: #75bf71; stroke: #ffffff; stroke-linejoin: miter"/>
    </g>
    <g id="text_17">
     <!-- Rocky OpenMPI eBPF Multiple -->
     <g style="fill: #262626" transform="translate(440.116 78.953438) scale(0.11 -0.11)">
      <defs>
       <path id="DejaVuSans-52" d="M 2841 2188 
Q 3044 2119 3236 1894 
Q 3428 1669 3622 1275 
L 4263 0 
L 3584 0 
L 2988 1197 
Q 2756 1666 2539 1819 
Q 2322 1972 1947 1972 
L 1259 1972 
L 1259 0 
L 628 0 
L 628 4666 
L 2053 4666 
Q 2853 4666 3247 4331 
Q 3641 3997 3641 3322 
Q 3641 2881 3436 2590 
Q 3231 2300 2841 2188 
z
M 1259 4147 
L 1259 2491 
L 2053 2491 
Q 2509 2491 2742 2702 
Q 2975 2913 2975 3322 
Q 2975 3731 2742 3939 
Q 2509 4147 2053 4147 
L 1259 4147 
z
" transform="scale(0.015625)"/>
       <path id="DejaVuSans-79" d="M 2059 -325 
Q 1816 -950 1584 -1140 
Q 1353 -1331 966 -1331 
L 506 -1331 
L 506 -850 
L 844 -850 
Q 1081 -850 1212 -737 
Q 1344 -625 1503 -206 
L 1606 56 
L 191 3500 
L 800 3500 
L 1894 763 
L 2988 3500 
L 3597 3500 
L 2059 -325 
z
" transform="scale(0.015625)"/>
      </defs>
      <use xlink:href="#DejaVuSans-52"/>
      <use xlink:href="#DejaVuSans-6f" x="64.982422"/>
      <use xlink:href="#DejaVuSans-63" x="126.164062"/>
      <use xlink:href="#DejaVuSans-6b" x="181.144531"/>
      <use xlink:href="#DejaVuSans-79" x="235.429688"/>
      <use xlink:href="#DejaVuSans-20" x="294.609375"/>
      <use xlink:href="#DejaVuSans-4f" x="326.396484"/>
      <use xlink:href="#DejaVuSans-70" x="405.107422"/>
      <use xlink:href="#DejaVuSans-65" x="468.583984"/>
      <use xlink:href="#DejaVuSans-6e" x="530.107422"/>
      <use xlink:href="#DejaVuSans-4d" x="593.486328"/>
      <use xlink:href="#DejaVuSans-50" x="679.765625"/>
      <use xlink:href="#DejaVuSans-49" x="740.068359"/>
      <use xlink:href="#DejaVuSans-20" x="769.560547"/>
      <use xlink:href="#DejaVuSans-65" x="801.347656"/>
      <use xlink:href="#DejaVuSans-42" x="862.871094"/>
      <use xlink:href="#DejaVuSans-50" x="931.474609"/>
      <use xlink:href="#DejaVuSans-46" x="991.777344"/>
      <use xlink:href="#DejaVuSans-20" x="1049.296875"/>
      <use xlink:href="#DejaVuSans-4d" x="1081.083984"/>
      <use xlink:href="#DejaVuSans-75" x="1167.363281"/>
      <use xlink:href="#DejaVuSans-6c" x="1230.742188"/>
      <use xlink:href="#DejaVuSans-74" x="1258.525391"/>
      <use xlink:href="#DejaVuSans-69" x="1297.734375"/>
      <use xlink:href="#DejaVuSans-70" x="1325.517578"/>
      <use xlink:href="#DejaVuSans-6c" x="1388.994141"/>
      <use xlink:href="#DejaVuSans-65" x="1416.777344"/>
     </g>
    </g>
    <g id="patch_73">
     <path d="M 409.316 95.099375 
L 431.316 95.099375 
L 431.316 87.399375 
L 409.316 87.399375 
z
" style="fill: #c76e6e; stroke: #ffffff; stroke-linejoin: miter"/>
    </g>
    <g id="text_18">
     <!-- Ubuntu Mpich eBPF Sample -->
     <g style="fill: #262626" transform="translate(440.116 95.099375) scale(0.11 -0.11)">
      <defs>
       <path id="DejaVuSans-61" d="M 2194 1759 
Q 1497 1759 1228 1600 
Q 959 1441 959 1056 
Q 959 750 1161 570 
Q 1363 391 1709 391 
Q 2188 391 2477 730 
Q 2766 1069 2766 1631 
L 2766 1759 
L 2194 1759 
z
M 3341 1997 
L 3341 0 
L 2766 0 
L 2766 531 
Q 2569 213 2275 61 
Q 1981 -91 1556 -91 
Q 1019 -91 701 211 
Q 384 513 384 1019 
Q 384 1609 779 1909 
Q 1175 2209 1959 2209 
L 2766 2209 
L 2766 2266 
Q 2766 2663 2505 2880 
Q 2244 3097 1772 3097 
Q 1472 3097 1187 3025 
Q 903 2953 641 2809 
L 641 3341 
Q 956 3463 1253 3523 
Q 1550 3584 1831 3584 
Q 2591 3584 2966 3190 
Q 3341 2797 3341 1997 
z
" transform="scale(0.015625)"/>
      </defs>
      <use xlink:href="#DejaVuSans-55"/>
      <use xlink:href="#DejaVuSans-62" x="73.193359"/>
      <use xlink:href="#DejaVuSans-75" x="136.669922"/>
      <use xlink:href="#DejaVuSans-6e" x="200.048828"/>
      <use xlink:href="#DejaVuSans-74" x="263.427734"/>
      <use xlink:href="#DejaVuSans-75" x="302.636719"/>
      <use xlink:href="#DejaVuSans-20" x="366.015625"/>
      <use xlink:href="#DejaVuSans-4d" x="397.802734"/>
      <use xlink:href="#DejaVuSans-70" x="484.082031"/>
      <use xlink:href="#DejaVuSans-69" x="547.558594"/>
      <use xlink:href="#DejaVuSans-63" x="575.341797"/>
      <use xlink:href="#DejaVuSans-68" x="630.322266"/>
      <use xlink:href="#DejaVuSans-20" x="693.701172"/>
      <use xlink:href="#DejaVuSans-65" x="725.488281"/>
      <use xlink:href="#DejaVuSans-42" x="787.011719"/>
      <use xlink:href="#DejaVuSans-50" x="855.615234"/>
      <use xlink:href="#DejaVuSans-46" x="915.917969"/>
      <use xlink:href="#DejaVuSans-20" x="973.4375"/>
      <use xlink:href="#DejaVuSans-53" x="1005.224609"/>
      <use xlink:href="#DejaVuSans-61" x="1068.701172"/>
      <use xlink:href="#DejaVuSans-6d" x="1129.980469"/>
      <use xlink:href="#DejaVuSans-70" x="1227.392578"/>
      <use xlink:href="#DejaVuSans-6c" x="1290.869141"/>
      <use xlink:href="#DejaVuSans-65" x="1318.652344"/>
     </g>
    </g>
    <g id="patch_74">
     <path d="M 409.316 111.245313 
L 431.316 111.245313 
L 431.316 103.545313 
L 409.316 103.545313 
z
" style="fill: #9475ab; stroke: #ffffff; stroke-linejoin: miter"/>
    </g>
    <g id="text_19">
     <!-- Ubuntu OpenMPI eBPF Sample -->
     <g style="fill: #262626" transform="translate(440.116 111.245313) scale(0.11 -0.11)">
      <use xlink:href="#DejaVuSans-55"/>
      <use xlink:href="#DejaVuSans-62" x="73.193359"/>
      <use xlink:href="#DejaVuSans-75" x="136.669922"/>
      <use xlink:href="#DejaVuSans-6e" x="200.048828"/>
      <use xlink:href="#DejaVuSans-74" x="263.427734"/>
      <use xlink:href="#DejaVuSans-75" x="302.636719"/>
      <use xlink:href="#DejaVuSans-20" x="366.015625"/>
      <use xlink:href="#DejaVuSans-4f" x="397.802734"/>
      <use xlink:href="#DejaVuSans-70" x="476.513672"/>
      <use xlink:href="#DejaVuSans-65" x="539.990234"/>
      <use xlink:href="#DejaVuSans-6e" x="601.513672"/>
      <use xlink:href="#DejaVuSans-4d" x="664.892578"/>
      <use xlink:href="#DejaVuSans-50" x="751.171875"/>
      <use xlink:href="#DejaVuSans-49" x="811.474609"/>
      <use xlink:href="#DejaVuSans-20" x="840.966797"/>
      <use xlink:href="#DejaVuSans-65" x="872.753906"/>
      <use xlink:href="#DejaVuSans-42" x="934.277344"/>
      <use xlink:href="#DejaVuSans-50" x="1002.880859"/>
      <use xlink:href="#DejaVuSans-46" x="1063.183594"/>
      <use xlink:href="#DejaVuSans-20" x="1120.703125"/>
      <use xlink:href="#DejaVuSans-53" x="1152.490234"/>
      <use xlink:href="#DejaVuSans-61" x="1215.966797"/>
      <use xlink:href="#DejaVuSans-6d" x="1277.246094"/>
      <use xlink:href="#DejaVuSans-70" x="1374.658203"/>
      <use xlink:href="#DejaVuSans-6c" x="1438.134766"/>
      <use xlink:href="#DejaVuSans-65" x="1465.917969"/>
     </g>
    </g>
    <g id="patch_75">
     <path d="M 409.316 127.39125 
L 431.316 127.39125 
L 431.316 119.69125 
L 409.316 119.69125 
z
" style="fill: #826246; stroke: #ffffff; stroke-linejoin: miter"/>
    </g>
    <g id="text_20">
     <!-- Rocky OpenMPI eBPF Sample -->
     <g style="fill: #262626" transform="translate(440.116 127.39125) scale(0.11 -0.11)">
      <use xlink:href="#DejaVuSans-52"/>
      <use xlink:href="#DejaVuSans-6f" x="64.982422"/>
      <use xlink:href="#DejaVuSans-63" x="126.164062"/>
      <use xlink:href="#DejaVuSans-6b" x="181.144531"/>
      <use xlink:href="#DejaVuSans-79" x="235.429688"/>
      <use xlink:href="#DejaVuSans-20" x="294.609375"/>
      <use xlink:href="#DejaVuSans-4f" x="326.396484"/>
      <use xlink:href="#DejaVuSans-70" x="405.107422"/>
      <use xlink:href="#DejaVuSans-65" x="468.583984"/>
      <use xlink:href="#DejaVuSans-6e" x="530.107422"/>
      <use xlink:href="#DejaVuSans-4d" x="593.486328"/>
      <use xlink:href="#DejaVuSans-50" x="679.765625"/>
      <use xlink:href="#DejaVuSans-49" x="740.068359"/>
      <use xlink:href="#DejaVuSans-20" x="769.560547"/>
      <use xlink:href="#DejaVuSans-65" x="801.347656"/>
      <use xlink:href="#DejaVuSans-42" x="862.871094"/>
      <use xlink:href="#DejaVuSans-50" x="931.474609"/>
      <use xlink:href="#DejaVuSans-46" x="991.777344"/>
      <use xlink:href="#DejaVuSans-20" x="1049.296875"/>
      <use xlink:href="#DejaVuSans-53" x="1081.083984"/>
      <use xlink:href="#DejaVuSans-61" x="1144.560547"/>
      <use xlink:href="#DejaVuSans-6d" x="1205.839844"/>
      <use xlink:href="#DejaVuSans-70" x="1303.251953"/>
      <use xlink:href="#DejaVuSans-6c" x="1366.728516"/>
      <use xlink:href="#DejaVuSans-65" x="1394.511719"/>
     </g>
    </g>
    <g id="patch_76">
     <path d="M 409.316 143.537188 
L 431.316 143.537188 
L 431.316 135.837188 
L 409.316 135.837188 
z
" style="fill: #d08abb; stroke: #ffffff; stroke-linejoin: miter"/>
    </g>
    <g id="text_21">
     <!-- Rocky OpenMPI -->
     <g style="fill: #262626" transform="translate(440.116 143.537188) scale(0.11 -0.11)">
      <use xlink:href="#DejaVuSans-52"/>
      <use xlink:href="#DejaVuSans-6f" x="64.982422"/>
      <use xlink:href="#DejaVuSans-63" x="126.164062"/>
      <use xlink:href="#DejaVuSans-6b" x="181.144531"/>
      <use xlink:href="#DejaVuSans-79" x="235.429688"/>
      <use xlink:href="#DejaVuSans-20" x="294.609375"/>
      <use xlink:href="#DejaVuSans-4f" x="326.396484"/>
      <use xlink:href="#DejaVuSans-70" x="405.107422"/>
      <use xlink:href="#DejaVuSans-65" x="468.583984"/>
      <use xlink:href="#DejaVuSans-6e" x="530.107422"/>
      <use xlink:href="#DejaVuSans-4d" x="593.486328"/>
      <use xlink:href="#DejaVuSans-50" x="679.765625"/>
      <use xlink:href="#DejaVuSans-49" x="740.068359"/>
     </g>
    </g>
    <g id="patch_77">
     <path d="M 409.316 159.683125 
L 431.316 159.683125 
L 431.316 151.983125 
L 409.316 151.983125 
z
" style="fill: #797979; stroke: #ffffff; stroke-linejoin: miter"/>
    </g>
    <g id="text_22">
     <!-- Ubuntu OpenMPI -->
     <g style="fill: #262626" transform="translate(440.116 159.683125) scale(0.11 -0.11)">
      <use xlink:href="#DejaVuSans-55"/>
      <use xlink:href="#DejaVuSans-62" x="73.193359"/>
      <use xlink:href="#DejaVuSans-75" x="136.669922"/>
      <use xlink:href="#DejaVuSans-6e" x="200.048828"/>
      <use xlink:href="#DejaVuSans-74" x="263.427734"/>
      <use xlink:href="#DejaVuSans-75" x="302.636719"/>
      <use xlink:href="#DejaVuSans-20" x="366.015625"/>
      <use xlink:href="#DejaVuSans-4f" x="397.802734"/>
      <use xlink:href="#DejaVuSans-70" x="476.513672"/>
      <use xlink:href="#DejaVuSans-65" x="539.990234"/>
      <use xlink:href="#DejaVuSans-6e" x="601.513672"/>
      <use xlink:href="#DejaVuSans-4d" x="664.892578"/>
      <use xlink:href="#DejaVuSans-50" x="751.171875"/>
      <use xlink:href="#DejaVuSans-49" x="811.474609"/>
     </g>
    </g>
    <g id="patch_78">
     <path d="M 409.316 175.829063 
L 431.316 175.829063 
L 431.316 168.129063 
L 409.316 168.129063 
z
" style="fill: #c7b475; stroke: #ffffff; stroke-linejoin: miter"/>
    </g>
    <g id="text_23">
     <!-- Ubuntu Mpich -->
     <g style="fill: #262626" transform="translate(440.116 175.829063) scale(0.11 -0.11)">
      <use xlink:href="#DejaVuSans-55"/>
      <use xlink:href="#DejaVuSans-62" x="73.193359"/>
      <use xlink:href="#DejaVuSans-75" x="136.669922"/>
      <use xlink:href="#DejaVuSans-6e" x="200.048828"/>
      <use xlink:href="#DejaVuSans-74" x="263.427734"/>
      <use xlink:href="#DejaVuSans-75" x="302.636719"/>
      <use xlink:href="#DejaVuSans-20" x="366.015625"/>
      <use xlink:href="#DejaVuSans-4d" x="397.802734"/>
      <use xlink:href="#DejaVuSans-70" x="484.082031"/>
      <use xlink:href="#DejaVuSans-69" x="547.558594"/>
      <use xlink:href="#DejaVuSans-63" x="575.341797"/>
      <use xlink:href="#DejaVuSans-68" x="630.322266"/>
     </g>
    </g>
   </g>
  </g>
 </g>
 <defs>
  <clipPath id="paa22bbe887">
   <rect x="54.18" y="29.76" width="339.534545" height="156.9"/>
  </clipPath>
 </defs>
</svg>
