<?xml version="1.0" encoding="utf-8" standalone="no"?>
<!DOCTYPE svg PUBLIC "-//W3C//DTD SVG 1.1//EN"
  "http://www.w3.org/Graphics/SVG/1.1/DTD/svg11.dtd">
<svg xmlns:xlink="http://www.w3.org/1999/xlink" width="720pt" height="237.6pt" viewBox="0 0 720 237.6" xmlns="http://www.w3.org/2000/svg" version="1.1">
 <metadata>
  <rdf:RDF xmlns:dc="http://purl.org/dc/elements/1.1/" xmlns:cc="http://creativecommons.org/ns#" xmlns:rdf="http://www.w3.org/1999/02/22-rdf-syntax-ns#">
   <cc:Work>
    <dc:type rdf:resource="http://purl.org/dc/dcmitype/StillImage"/>
    <dc:date>2025-05-18T22:05:46.937682</dc:date>
    <dc:format>image/svg+xml</dc:format>
    <dc:creator>
     <cc:Agent>
      <dc:title>Matplotlib v3.8.4, https://matplotlib.org/</dc:title>
     </cc:Agent>
    </dc:creator>
   </cc:Work>
  </rdf:RDF>
 </metadata>
 <defs>
  <style type="text/css">*{stroke-linejoin: round; stroke-linecap: butt}</style>
 </defs>
 <g id="figure_1">
  <g id="patch_1">
   <path d="M 0 237.6 
L 720 237.6 
L 720 0 
L 0 0 
z
" style="fill: #ffffff"/>
  </g>
  <g id="axes_1">
   <g id="patch_2">
    <path d="M 54.18 186.66 
L 452.987273 186.66 
L 452.987273 29.76 
L 54.18 29.76 
z
" style="fill: #ffffff"/>
   </g>
   <g id="matplotlib.axis_1">
    <g id="xtick_1">
     <g id="text_1">
      <!-- 4 -->
      <g style="fill: #262626" transform="translate(83.914564 204.518281) scale(0.11 -0.11)">
       <defs>
        <path id="DejaVuSans-34" d="M 2419 4116 
L 825 1625 
L 2419 1625 
L 2419 4116 
z
M 2253 4666 
L 3047 4666 
L 3047 1625 
L 3713 1625 
L 3713 1100 
L 3047 1100 
L 3047 0 
L 2419 0 
L 2419 1100 
L 313 1100 
L 313 1709 
L 2253 4666 
z
" transform="scale(0.015625)"/>
       </defs>
       <use xlink:href="#DejaVuSans-34"/>
      </g>
     </g>
    </g>
    <g id="xtick_2">
     <g id="text_2">
      <!-- 8 -->
      <g style="fill: #262626" transform="translate(150.382443 204.518281) scale(0.11 -0.11)">
       <defs>
        <path id="DejaVuSans-38" d="M 2034 2216 
Q 1584 2216 1326 1975 
Q 1069 1734 1069 1313 
Q 1069 891 1326 650 
Q 1584 409 2034 409 
Q 2484 409 2743 651 
Q 3003 894 3003 1313 
Q 3003 1734 2745 1975 
Q 2488 2216 2034 2216 
z
M 1403 2484 
Q 997 2584 770 2862 
Q 544 3141 544 3541 
Q 544 4100 942 4425 
Q 1341 4750 2034 4750 
Q 2731 4750 3128 4425 
Q 3525 4100 3525 3541 
Q 3525 3141 3298 2862 
Q 3072 2584 2669 2484 
Q 3125 2378 3379 2068 
Q 3634 1759 3634 1313 
Q 3634 634 3220 271 
Q 2806 -91 2034 -91 
Q 1263 -91 848 271 
Q 434 634 434 1313 
Q 434 1759 690 2068 
Q 947 2378 1403 2484 
z
M 1172 3481 
Q 1172 3119 1398 2916 
Q 1625 2713 2034 2713 
Q 2441 2713 2670 2916 
Q 2900 3119 2900 3481 
Q 2900 3844 2670 4047 
Q 2441 4250 2034 4250 
Q 1625 4250 1398 4047 
Q 1172 3844 1172 3481 
z
" transform="scale(0.015625)"/>
       </defs>
       <use xlink:href="#DejaVuSans-38"/>
      </g>
     </g>
    </g>
    <g id="xtick_3">
     <g id="text_3">
      <!-- 16 -->
      <g style="fill: #262626" transform="translate(213.350947 204.518281) scale(0.11 -0.11)">
       <defs>
        <path id="DejaVuSans-31" d="M 794 531 
L 1825 531 
L 1825 4091 
L 703 3866 
L 703 4441 
L 1819 4666 
L 2450 4666 
L 2450 531 
L 3481 531 
L 3481 0 
L 794 0 
L 794 531 
z
" transform="scale(0.015625)"/>
        <path id="DejaVuSans-36" d="M 2113 2584 
Q 1688 2584 1439 2293 
Q 1191 2003 1191 1497 
Q 1191 994 1439 701 
Q 1688 409 2113 409 
Q 2538 409 2786 701 
Q 3034 994 3034 1497 
Q 3034 2003 2786 2293 
Q 2538 2584 2113 2584 
z
M 3366 4563 
L 3366 3988 
Q 3128 4100 2886 4159 
Q 2644 4219 2406 4219 
Q 1781 4219 1451 3797 
Q 1122 3375 1075 2522 
Q 1259 2794 1537 2939 
Q 1816 3084 2150 3084 
Q 2853 3084 3261 2657 
Q 3669 2231 3669 1497 
Q 3669 778 3244 343 
Q 2819 -91 2113 -91 
Q 1303 -91 875 529 
Q 447 1150 447 2328 
Q 447 3434 972 4092 
Q 1497 4750 2381 4750 
Q 2619 4750 2861 4703 
Q 3103 4656 3366 4563 
z
" transform="scale(0.015625)"/>
       </defs>
       <use xlink:href="#DejaVuSans-31"/>
       <use xlink:href="#DejaVuSans-36" x="63.623047"/>
      </g>
     </g>
    </g>
    <g id="xtick_4">
     <g id="text_4">
      <!-- 32 -->
      <g style="fill: #262626" transform="translate(279.818826 204.518281) scale(0.11 -0.11)">
       <defs>
        <path id="DejaVuSans-33" d="M 2597 2516 
Q 3050 2419 3304 2112 
Q 3559 1806 3559 1356 
Q 3559 666 3084 287 
Q 2609 -91 1734 -91 
Q 1441 -91 1130 -33 
Q 819 25 488 141 
L 488 750 
Q 750 597 1062 519 
Q 1375 441 1716 441 
Q 2309 441 2620 675 
Q 2931 909 2931 1356 
Q 2931 1769 2642 2001 
Q 2353 2234 1838 2234 
L 1294 2234 
L 1294 2753 
L 1863 2753 
Q 2328 2753 2575 2939 
Q 2822 3125 2822 3475 
Q 2822 3834 2567 4026 
Q 2313 4219 1838 4219 
Q 1578 4219 1281 4162 
Q 984 4106 628 3988 
L 628 4550 
Q 988 4650 1302 4700 
Q 1616 4750 1894 4750 
Q 2613 4750 3031 4423 
Q 3450 4097 3450 3541 
Q 3450 3153 3228 2886 
Q 3006 2619 2597 2516 
z
" transform="scale(0.015625)"/>
        <path id="DejaVuSans-32" d="M 1228 531 
L 3431 531 
L 3431 0 
L 469 0 
L 469 531 
Q 828 903 1448 1529 
Q 2069 2156 2228 2338 
Q 2531 2678 2651 2914 
Q 2772 3150 2772 3378 
Q 2772 3750 2511 3984 
Q 2250 4219 1831 4219 
Q 1534 4219 1204 4116 
Q 875 4013 500 3803 
L 500 4441 
Q 881 4594 1212 4672 
Q 1544 4750 1819 4750 
Q 2544 4750 2975 4387 
Q 3406 4025 3406 3419 
Q 3406 3131 3298 2873 
Q 3191 2616 2906 2266 
Q 2828 2175 2409 1742 
Q 1991 1309 1228 531 
z
" transform="scale(0.015625)"/>
       </defs>
       <use xlink:href="#DejaVuSans-33"/>
       <use xlink:href="#DejaVuSans-32" x="63.623047"/>
      </g>
     </g>
    </g>
    <g id="xtick_5">
     <g id="text_5">
      <!-- 64 -->
      <g style="fill: #262626" transform="translate(346.286705 204.518281) scale(0.11 -0.11)">
       <use xlink:href="#DejaVuSans-36"/>
       <use xlink:href="#DejaVuSans-34" x="63.623047"/>
      </g>
     </g>
    </g>
    <g id="xtick_6">
     <g id="text_6">
      <!-- 128 -->
      <g style="fill: #262626" transform="translate(409.255208 204.518281) scale(0.11 -0.11)">
       <use xlink:href="#DejaVuSans-31"/>
       <use xlink:href="#DejaVuSans-32" x="63.623047"/>
       <use xlink:href="#DejaVuSans-38" x="127.246094"/>
      </g>
     </g>
    </g>
    <g id="text_7">
     <!-- Nodes -->
     <g style="fill: #262626" transform="translate(231.66598 221.44375) scale(0.14 -0.14)">
      <defs>
       <path id="DejaVuSans-4e" d="M 628 4666 
L 1478 4666 
L 3547 763 
L 3547 4666 
L 4159 4666 
L 4159 0 
L 3309 0 
L 1241 3903 
L 1241 0 
L 628 0 
L 628 4666 
z
" transform="scale(0.015625)"/>
       <path id="DejaVuSans-6f" d="M 1959 3097 
Q 1497 3097 1228 2736 
Q 959 2375 959 1747 
Q 959 1119 1226 758 
Q 1494 397 1959 397 
Q 2419 397 2687 759 
Q 2956 1122 2956 1747 
Q 2956 2369 2687 2733 
Q 2419 3097 1959 3097 
z
M 1959 3584 
Q 2709 3584 3137 3096 
Q 3566 2609 3566 1747 
Q 3566 888 3137 398 
Q 2709 -91 1959 -91 
Q 1206 -91 779 398 
Q 353 888 353 1747 
Q 353 2609 779 3096 
Q 1206 3584 1959 3584 
z
" transform="scale(0.015625)"/>
       <path id="DejaVuSans-64" d="M 2906 2969 
L 2906 4863 
L 3481 4863 
L 3481 0 
L 2906 0 
L 2906 525 
Q 2725 213 2448 61 
Q 2172 -91 1784 -91 
Q 1150 -91 751 415 
Q 353 922 353 1747 
Q 353 2572 751 3078 
Q 1150 3584 1784 3584 
Q 2172 3584 2448 3432 
Q 2725 3281 2906 2969 
z
M 947 1747 
Q 947 1113 1208 752 
Q 1469 391 1925 391 
Q 2381 391 2643 752 
Q 2906 1113 2906 1747 
Q 2906 2381 2643 2742 
Q 2381 3103 1925 3103 
Q 1469 3103 1208 2742 
Q 947 2381 947 1747 
z
" transform="scale(0.015625)"/>
       <path id="DejaVuSans-65" d="M 3597 1894 
L 3597 1613 
L 953 1613 
Q 991 1019 1311 708 
Q 1631 397 2203 397 
Q 2534 397 2845 478 
Q 3156 559 3463 722 
L 3463 178 
Q 3153 47 2828 -22 
Q 2503 -91 2169 -91 
Q 1331 -91 842 396 
Q 353 884 353 1716 
Q 353 2575 817 3079 
Q 1281 3584 2069 3584 
Q 2775 3584 3186 3129 
Q 3597 2675 3597 1894 
z
M 3022 2063 
Q 3016 2534 2758 2815 
Q 2500 3097 2075 3097 
Q 1594 3097 1305 2825 
Q 1016 2553 972 2059 
L 3022 2063 
z
" transform="scale(0.015625)"/>
       <path id="DejaVuSans-73" d="M 2834 3397 
L 2834 2853 
Q 2591 2978 2328 3040 
Q 2066 3103 1784 3103 
Q 1356 3103 1142 2972 
Q 928 2841 928 2578 
Q 928 2378 1081 2264 
Q 1234 2150 1697 2047 
L 1894 2003 
Q 2506 1872 2764 1633 
Q 3022 1394 3022 966 
Q 3022 478 2636 193 
Q 2250 -91 1575 -91 
Q 1294 -91 989 -36 
Q 684 19 347 128 
L 347 722 
Q 666 556 975 473 
Q 1284 391 1588 391 
Q 1994 391 2212 530 
Q 2431 669 2431 922 
Q 2431 1156 2273 1281 
Q 2116 1406 1581 1522 
L 1381 1569 
Q 847 1681 609 1914 
Q 372 2147 372 2553 
Q 372 3047 722 3315 
Q 1072 3584 1716 3584 
Q 2034 3584 2315 3537 
Q 2597 3491 2834 3397 
z
" transform="scale(0.015625)"/>
      </defs>
      <use xlink:href="#DejaVuSans-4e"/>
      <use xlink:href="#DejaVuSans-6f" x="74.804688"/>
      <use xlink:href="#DejaVuSans-64" x="135.986328"/>
      <use xlink:href="#DejaVuSans-65" x="199.462891"/>
      <use xlink:href="#DejaVuSans-73" x="260.986328"/>
     </g>
    </g>
   </g>
   <g id="matplotlib.axis_2">
    <g id="ytick_1">
     <g id="line2d_1">
      <path d="M 54.18 186.66 
L 452.987273 186.66 
" clip-path="url(#p3daa49e1be)" style="fill: none; stroke: #cccccc; stroke-linecap: round"/>
     </g>
     <g id="text_8">
      <!-- 0 -->
      <g style="fill: #262626" transform="translate(37.68125 190.839141) scale(0.11 -0.11)">
       <defs>
        <path id="DejaVuSans-30" d="M 2034 4250 
Q 1547 4250 1301 3770 
Q 1056 3291 1056 2328 
Q 1056 1369 1301 889 
Q 1547 409 2034 409 
Q 2525 409 2770 889 
Q 3016 1369 3016 2328 
Q 3016 3291 2770 3770 
Q 2525 4250 2034 4250 
z
M 2034 4750 
Q 2819 4750 3233 4129 
Q 3647 3509 3647 2328 
Q 3647 1150 3233 529 
Q 2819 -91 2034 -91 
Q 1250 -91 836 529 
Q 422 1150 422 2328 
Q 422 3509 836 4129 
Q 1250 4750 2034 4750 
z
" transform="scale(0.015625)"/>
       </defs>
       <use xlink:href="#DejaVuSans-30"/>
      </g>
     </g>
    </g>
    <g id="ytick_2">
     <g id="line2d_2">
      <path d="M 54.18 153.563971 
L 452.987273 153.563971 
" clip-path="url(#p3daa49e1be)" style="fill: none; stroke: #cccccc; stroke-linecap: round"/>
     </g>
     <g id="text_9">
      <!-- 20 -->
      <g style="fill: #262626" transform="translate(30.6825 157.743112) scale(0.11 -0.11)">
       <use xlink:href="#DejaVuSans-32"/>
       <use xlink:href="#DejaVuSans-30" x="63.623047"/>
      </g>
     </g>
    </g>
    <g id="ytick_3">
     <g id="line2d_3">
      <path d="M 54.18 120.467942 
L 452.987273 120.467942 
" clip-path="url(#p3daa49e1be)" style="fill: none; stroke: #cccccc; stroke-linecap: round"/>
     </g>
     <g id="text_10">
      <!-- 40 -->
      <g style="fill: #262626" transform="translate(30.6825 124.647082) scale(0.11 -0.11)">
       <use xlink:href="#DejaVuSans-34"/>
       <use xlink:href="#DejaVuSans-30" x="63.623047"/>
      </g>
     </g>
    </g>
    <g id="ytick_4">
     <g id="line2d_4">
      <path d="M 54.18 87.371913 
L 452.987273 87.371913 
" clip-path="url(#p3daa49e1be)" style="fill: none; stroke: #cccccc; stroke-linecap: round"/>
     </g>
     <g id="text_11">
      <!-- 60 -->
      <g style="fill: #262626" transform="translate(30.6825 91.551053) scale(0.11 -0.11)">
       <use xlink:href="#DejaVuSans-36"/>
       <use xlink:href="#DejaVuSans-30" x="63.623047"/>
      </g>
     </g>
    </g>
    <g id="ytick_5">
     <g id="line2d_5">
      <path d="M 54.18 54.275884 
L 452.987273 54.275884 
" clip-path="url(#p3daa49e1be)" style="fill: none; stroke: #cccccc; stroke-linecap: round"/>
     </g>
     <g id="text_12">
      <!-- 80 -->
      <g style="fill: #262626" transform="translate(30.6825 58.455024) scale(0.11 -0.11)">
       <use xlink:href="#DejaVuSans-38"/>
       <use xlink:href="#DejaVuSans-30" x="63.623047"/>
      </g>
     </g>
    </g>
    <g id="text_13">
     <!-- % CPU usage -->
     <g style="fill: #262626" transform="translate(23.770937 154.665938) rotate(-90) scale(0.14 -0.14)">
      <defs>
       <path id="DejaVuSans-25" d="M 4653 2053 
Q 4381 2053 4226 1822 
Q 4072 1591 4072 1178 
Q 4072 772 4226 539 
Q 4381 306 4653 306 
Q 4919 306 5073 539 
Q 5228 772 5228 1178 
Q 5228 1588 5073 1820 
Q 4919 2053 4653 2053 
z
M 4653 2450 
Q 5147 2450 5437 2106 
Q 5728 1763 5728 1178 
Q 5728 594 5436 251 
Q 5144 -91 4653 -91 
Q 4153 -91 3862 251 
Q 3572 594 3572 1178 
Q 3572 1766 3864 2108 
Q 4156 2450 4653 2450 
z
M 1428 4353 
Q 1159 4353 1004 4120 
Q 850 3888 850 3481 
Q 850 3069 1003 2837 
Q 1156 2606 1428 2606 
Q 1700 2606 1854 2837 
Q 2009 3069 2009 3481 
Q 2009 3884 1853 4118 
Q 1697 4353 1428 4353 
z
M 4250 4750 
L 4750 4750 
L 1831 -91 
L 1331 -91 
L 4250 4750 
z
M 1428 4750 
Q 1922 4750 2215 4408 
Q 2509 4066 2509 3481 
Q 2509 2891 2217 2550 
Q 1925 2209 1428 2209 
Q 931 2209 642 2551 
Q 353 2894 353 3481 
Q 353 4063 643 4406 
Q 934 4750 1428 4750 
z
" transform="scale(0.015625)"/>
       <path id="DejaVuSans-20" transform="scale(0.015625)"/>
       <path id="DejaVuSans-43" d="M 4122 4306 
L 4122 3641 
Q 3803 3938 3442 4084 
Q 3081 4231 2675 4231 
Q 1875 4231 1450 3742 
Q 1025 3253 1025 2328 
Q 1025 1406 1450 917 
Q 1875 428 2675 428 
Q 3081 428 3442 575 
Q 3803 722 4122 1019 
L 4122 359 
Q 3791 134 3420 21 
Q 3050 -91 2638 -91 
Q 1578 -91 968 557 
Q 359 1206 359 2328 
Q 359 3453 968 4101 
Q 1578 4750 2638 4750 
Q 3056 4750 3426 4639 
Q 3797 4528 4122 4306 
z
" transform="scale(0.015625)"/>
       <path id="DejaVuSans-50" d="M 1259 4147 
L 1259 2394 
L 2053 2394 
Q 2494 2394 2734 2622 
Q 2975 2850 2975 3272 
Q 2975 3691 2734 3919 
Q 2494 4147 2053 4147 
L 1259 4147 
z
M 628 4666 
L 2053 4666 
Q 2838 4666 3239 4311 
Q 3641 3956 3641 3272 
Q 3641 2581 3239 2228 
Q 2838 1875 2053 1875 
L 1259 1875 
L 1259 0 
L 628 0 
L 628 4666 
z
" transform="scale(0.015625)"/>
       <path id="DejaVuSans-55" d="M 556 4666 
L 1191 4666 
L 1191 1831 
Q 1191 1081 1462 751 
Q 1734 422 2344 422 
Q 2950 422 3222 751 
Q 3494 1081 3494 1831 
L 3494 4666 
L 4128 4666 
L 4128 1753 
Q 4128 841 3676 375 
Q 3225 -91 2344 -91 
Q 1459 -91 1007 375 
Q 556 841 556 1753 
L 556 4666 
z
" transform="scale(0.015625)"/>
       <path id="DejaVuSans-75" d="M 544 1381 
L 544 3500 
L 1119 3500 
L 1119 1403 
Q 1119 906 1312 657 
Q 1506 409 1894 409 
Q 2359 409 2629 706 
Q 2900 1003 2900 1516 
L 2900 3500 
L 3475 3500 
L 3475 0 
L 2900 0 
L 2900 538 
Q 2691 219 2414 64 
Q 2138 -91 1772 -91 
Q 1169 -91 856 284 
Q 544 659 544 1381 
z
M 1991 3584 
L 1991 3584 
z
" transform="scale(0.015625)"/>
       <path id="DejaVuSans-61" d="M 2194 1759 
Q 1497 1759 1228 1600 
Q 959 1441 959 1056 
Q 959 750 1161 570 
Q 1363 391 1709 391 
Q 2188 391 2477 730 
Q 2766 1069 2766 1631 
L 2766 1759 
L 2194 1759 
z
M 3341 1997 
L 3341 0 
L 2766 0 
L 2766 531 
Q 2569 213 2275 61 
Q 1981 -91 1556 -91 
Q 1019 -91 701 211 
Q 384 513 384 1019 
Q 384 1609 779 1909 
Q 1175 2209 1959 2209 
L 2766 2209 
L 2766 2266 
Q 2766 2663 2505 2880 
Q 2244 3097 1772 3097 
Q 1472 3097 1187 3025 
Q 903 2953 641 2809 
L 641 3341 
Q 956 3463 1253 3523 
Q 1550 3584 1831 3584 
Q 2591 3584 2966 3190 
Q 3341 2797 3341 1997 
z
" transform="scale(0.015625)"/>
       <path id="DejaVuSans-67" d="M 2906 1791 
Q 2906 2416 2648 2759 
Q 2391 3103 1925 3103 
Q 1463 3103 1205 2759 
Q 947 2416 947 1791 
Q 947 1169 1205 825 
Q 1463 481 1925 481 
Q 2391 481 2648 825 
Q 2906 1169 2906 1791 
z
M 3481 434 
Q 3481 -459 3084 -895 
Q 2688 -1331 1869 -1331 
Q 1566 -1331 1297 -1286 
Q 1028 -1241 775 -1147 
L 775 -588 
Q 1028 -725 1275 -790 
Q 1522 -856 1778 -856 
Q 2344 -856 2625 -561 
Q 2906 -266 2906 331 
L 2906 616 
Q 2728 306 2450 153 
Q 2172 0 1784 0 
Q 1141 0 747 490 
Q 353 981 353 1791 
Q 353 2603 747 3093 
Q 1141 3584 1784 3584 
Q 2172 3584 2450 3431 
Q 2728 3278 2906 2969 
L 2906 3500 
L 3481 3500 
L 3481 434 
z
" transform="scale(0.015625)"/>
      </defs>
      <use xlink:href="#DejaVuSans-25"/>
      <use xlink:href="#DejaVuSans-20" x="95.019531"/>
      <use xlink:href="#DejaVuSans-43" x="126.806641"/>
      <use xlink:href="#DejaVuSans-50" x="196.630859"/>
      <use xlink:href="#DejaVuSans-55" x="256.933594"/>
      <use xlink:href="#DejaVuSans-20" x="330.126953"/>
      <use xlink:href="#DejaVuSans-75" x="361.914062"/>
      <use xlink:href="#DejaVuSans-73" x="425.292969"/>
      <use xlink:href="#DejaVuSans-61" x="477.392578"/>
      <use xlink:href="#DejaVuSans-67" x="538.671875"/>
      <use xlink:href="#DejaVuSans-65" x="602.148438"/>
     </g>
    </g>
   </g>
   <g id="patch_3">
    <path d="M 60.826788 186.66 
L 66.144218 186.66 
L 66.144218 43.354194 
L 60.826788 43.354194 
z
" clip-path="url(#p3daa49e1be)" style="fill: #759adc; stroke: #ffffff; stroke-linejoin: miter"/>
   </g>
   <g id="patch_4">
    <path d="M 127.294667 186.66 
L 132.612097 186.66 
L 132.612097 70.823898 
L 127.294667 70.823898 
z
" clip-path="url(#p3daa49e1be)" style="fill: #759adc; stroke: #ffffff; stroke-linejoin: miter"/>
   </g>
   <g id="patch_5">
    <path d="M 193.762545 186.66 
L 199.079976 186.66 
L 199.079976 95.2598 
L 193.762545 95.2598 
z
" clip-path="url(#p3daa49e1be)" style="fill: #759adc; stroke: #ffffff; stroke-linejoin: miter"/>
   </g>
   <g id="patch_6">
    <path d="M 260.230424 186.66 
L 265.547855 186.66 
L 265.547855 110.980413 
L 260.230424 110.980413 
z
" clip-path="url(#p3daa49e1be)" style="fill: #759adc; stroke: #ffffff; stroke-linejoin: miter"/>
   </g>
   <g id="patch_7">
    <path d="M 326.698303 186.66 
L 332.015733 186.66 
L 332.015733 130.01063 
L 326.698303 130.01063 
z
" clip-path="url(#p3daa49e1be)" style="fill: #759adc; stroke: #ffffff; stroke-linejoin: miter"/>
   </g>
   <g id="patch_8">
    <path d="M 393.166182 186.66 
L 398.483612 186.66 
L 398.483612 143.138722 
L 393.166182 143.138722 
z
" clip-path="url(#p3daa49e1be)" style="fill: #759adc; stroke: #ffffff; stroke-linejoin: miter"/>
   </g>
   <g id="patch_9">
    <path d="M 66.144218 186.66 
L 71.461648 186.66 
L 71.461648 41.533912 
L 66.144218 41.533912 
z
" clip-path="url(#p3daa49e1be)" style="fill: #7c8fa2; stroke: #ffffff; stroke-linejoin: miter"/>
   </g>
   <g id="patch_10">
    <path d="M 132.612097 186.66 
L 137.929527 186.66 
L 137.929527 50.46984 
L 132.612097 50.46984 
z
" clip-path="url(#p3daa49e1be)" style="fill: #7c8fa2; stroke: #ffffff; stroke-linejoin: miter"/>
   </g>
   <g id="patch_11">
    <path d="M 199.079976 186.66 
L 204.397406 186.66 
L 204.397406 73.968021 
L 199.079976 73.968021 
z
" clip-path="url(#p3daa49e1be)" style="fill: #7c8fa2; stroke: #ffffff; stroke-linejoin: miter"/>
   </g>
   <g id="patch_12">
    <path d="M 265.547855 186.66 
L 270.865285 186.66 
L 270.865285 107.725971 
L 265.547855 107.725971 
z
" clip-path="url(#p3daa49e1be)" style="fill: #7c8fa2; stroke: #ffffff; stroke-linejoin: miter"/>
   </g>
   <g id="patch_13">
    <path d="M 332.015733 186.66 
L 337.333164 186.66 
L 337.333164 136.850476 
L 332.015733 136.850476 
z
" clip-path="url(#p3daa49e1be)" style="fill: #7c8fa2; stroke: #ffffff; stroke-linejoin: miter"/>
   </g>
   <g id="patch_14">
    <path d="M 398.483612 186.66 
L 403.801042 186.66 
L 403.801042 147.606686 
L 398.483612 147.606686 
z
" clip-path="url(#p3daa49e1be)" style="fill: #7c8fa2; stroke: #ffffff; stroke-linejoin: miter"/>
   </g>
   <g id="patch_15">
    <path d="M 71.461648 186.66 
L 76.779079 186.66 
L 76.779079 48.649559 
L 71.461648 48.649559 
z
" clip-path="url(#p3daa49e1be)" style="fill: #154b96; stroke: #ffffff; stroke-linejoin: miter"/>
   </g>
   <g id="patch_16">
    <path d="M 137.929527 186.66 
L 143.246958 186.66 
L 143.246958 78.435985 
L 137.929527 78.435985 
z
" clip-path="url(#p3daa49e1be)" style="fill: #154b96; stroke: #ffffff; stroke-linejoin: miter"/>
   </g>
   <g id="patch_17">
    <path d="M 204.397406 186.66 
L 209.714836 186.66 
L 209.714836 106.73309 
L 204.397406 106.73309 
z
" clip-path="url(#p3daa49e1be)" style="fill: #154b96; stroke: #ffffff; stroke-linejoin: miter"/>
   </g>
   <g id="patch_18">
    <path d="M 270.865285 186.66 
L 276.182715 186.66 
L 276.182715 126.921667 
L 270.865285 126.921667 
z
" clip-path="url(#p3daa49e1be)" style="fill: #154b96; stroke: #ffffff; stroke-linejoin: miter"/>
   </g>
   <g id="patch_19">
    <path d="M 337.333164 186.66 
L 342.650594 186.66 
L 342.650594 143.138722 
L 337.333164 143.138722 
z
" clip-path="url(#p3daa49e1be)" style="fill: #154b96; stroke: #ffffff; stroke-linejoin: miter"/>
   </g>
   <g id="patch_20">
    <path d="M 403.801042 186.66 
L 409.118473 186.66 
L 409.118473 148.268606 
L 403.801042 148.268606 
z
" clip-path="url(#p3daa49e1be)" style="fill: #154b96; stroke: #ffffff; stroke-linejoin: miter"/>
   </g>
   <g id="patch_21">
    <path d="M 76.779079 186.66 
L 82.096509 186.66 
L 82.096509 39.10687 
L 76.779079 39.10687 
z
" clip-path="url(#p3daa49e1be)" style="fill: #e0a7f2; stroke: #ffffff; stroke-linejoin: miter"/>
   </g>
   <g id="patch_22">
    <path d="M 143.246958 186.66 
L 148.564388 186.66 
L 148.564388 60.398649 
L 143.246958 60.398649 
z
" clip-path="url(#p3daa49e1be)" style="fill: #e0a7f2; stroke: #ffffff; stroke-linejoin: miter"/>
   </g>
   <g id="patch_23">
    <path d="M 209.714836 186.66 
L 215.032267 186.66 
L 215.032267 79.814986 
L 209.714836 79.814986 
z
" clip-path="url(#p3daa49e1be)" style="fill: #e0a7f2; stroke: #ffffff; stroke-linejoin: miter"/>
   </g>
   <g id="patch_24">
    <path d="M 276.182715 186.66 
L 281.500145 186.66 
L 281.500145 105.850529 
L 276.182715 105.850529 
z
" clip-path="url(#p3daa49e1be)" style="fill: #e0a7f2; stroke: #ffffff; stroke-linejoin: miter"/>
   </g>
   <g id="patch_25">
    <path d="M 342.650594 186.66 
L 347.968024 186.66 
L 347.968024 130.838031 
L 342.650594 130.838031 
z
" clip-path="url(#p3daa49e1be)" style="fill: #e0a7f2; stroke: #ffffff; stroke-linejoin: miter"/>
   </g>
   <g id="patch_26">
    <path d="M 409.118473 186.66 
L 414.435903 186.66 
L 414.435903 140.491039 
L 409.118473 140.491039 
z
" clip-path="url(#p3daa49e1be)" style="fill: #e0a7f2; stroke: #ffffff; stroke-linejoin: miter"/>
   </g>
   <g id="patch_27">
    <path d="M 82.096509 186.66 
L 87.413939 186.66 
L 87.413939 48.980519 
L 82.096509 48.980519 
z
" clip-path="url(#p3daa49e1be)" style="fill: #a859c1; stroke: #ffffff; stroke-linejoin: miter"/>
   </g>
   <g id="patch_28">
    <path d="M 148.564388 186.66 
L 153.881818 186.66 
L 153.881818 54.772324 
L 148.564388 54.772324 
z
" clip-path="url(#p3daa49e1be)" style="fill: #a859c1; stroke: #ffffff; stroke-linejoin: miter"/>
   </g>
   <g id="patch_29">
    <path d="M 215.032267 186.66 
L 220.349697 186.66 
L 220.349697 85.055191 
L 215.032267 85.055191 
z
" clip-path="url(#p3daa49e1be)" style="fill: #a859c1; stroke: #ffffff; stroke-linejoin: miter"/>
   </g>
   <g id="patch_30">
    <path d="M 281.500145 186.66 
L 286.817576 186.66 
L 286.817576 113.186815 
L 281.500145 113.186815 
z
" clip-path="url(#p3daa49e1be)" style="fill: #a859c1; stroke: #ffffff; stroke-linejoin: miter"/>
   </g>
   <g id="patch_31">
    <path d="M 347.968024 186.66 
L 353.285455 186.66 
L 353.285455 137.015956 
L 347.968024 137.015956 
z
" clip-path="url(#p3daa49e1be)" style="fill: #a859c1; stroke: #ffffff; stroke-linejoin: miter"/>
   </g>
   <g id="patch_32">
    <path d="M 414.435903 186.66 
L 419.753333 186.66 
L 419.753333 146.117364 
L 414.435903 146.117364 
z
" clip-path="url(#p3daa49e1be)" style="fill: #a859c1; stroke: #ffffff; stroke-linejoin: miter"/>
   </g>
   <g id="patch_33">
    <path d="M 87.413939 186.66 
L 92.73137 186.66 
L 92.73137 50.800801 
L 87.413939 50.800801 
z
" clip-path="url(#p3daa49e1be)" style="fill: #622576; stroke: #ffffff; stroke-linejoin: miter"/>
   </g>
   <g id="patch_34">
    <path d="M 153.881818 186.66 
L 159.199248 186.66 
L 159.199248 73.14062 
L 153.881818 73.14062 
z
" clip-path="url(#p3daa49e1be)" style="fill: #622576; stroke: #ffffff; stroke-linejoin: miter"/>
   </g>
   <g id="patch_35">
    <path d="M 220.349697 186.66 
L 225.667127 186.66 
L 225.667127 100.113884 
L 220.349697 100.113884 
z
" clip-path="url(#p3daa49e1be)" style="fill: #622576; stroke: #ffffff; stroke-linejoin: miter"/>
   </g>
   <g id="patch_36">
    <path d="M 286.817576 186.66 
L 292.135006 186.66 
L 292.135006 124.439465 
L 286.817576 124.439465 
z
" clip-path="url(#p3daa49e1be)" style="fill: #622576; stroke: #ffffff; stroke-linejoin: miter"/>
   </g>
   <g id="patch_37">
    <path d="M 353.285455 186.66 
L 358.602885 186.66 
L 358.602885 141.814881 
L 353.285455 141.814881 
z
" clip-path="url(#p3daa49e1be)" style="fill: #622576; stroke: #ffffff; stroke-linejoin: miter"/>
   </g>
   <g id="patch_38">
    <path d="M 419.753333 186.66 
L 425.070764 186.66 
L 425.070764 147.937646 
L 419.753333 147.937646 
z
" clip-path="url(#p3daa49e1be)" style="fill: #622576; stroke: #ffffff; stroke-linejoin: miter"/>
   </g>
   <g id="patch_39">
    <path d="M 92.73137 186.66 
L 98.0488 186.66 
L 98.0488 41.368432 
L 92.73137 41.368432 
z
" clip-path="url(#p3daa49e1be)" style="fill: #c4d495; stroke: #ffffff; stroke-linejoin: miter"/>
   </g>
   <g id="patch_40">
    <path d="M 159.199248 186.66 
L 164.516679 186.66 
L 164.516679 56.427125 
L 159.199248 56.427125 
z
" clip-path="url(#p3daa49e1be)" style="fill: #c4d495; stroke: #ffffff; stroke-linejoin: miter"/>
   </g>
   <g id="patch_41">
    <path d="M 225.667127 186.66 
L 230.984558 186.66 
L 230.984558 76.008943 
L 225.667127 76.008943 
z
" clip-path="url(#p3daa49e1be)" style="fill: #c4d495; stroke: #ffffff; stroke-linejoin: miter"/>
   </g>
   <g id="patch_42">
    <path d="M 292.135006 186.66 
L 297.452436 186.66 
L 297.452436 101.161925 
L 292.135006 101.161925 
z
" clip-path="url(#p3daa49e1be)" style="fill: #c4d495; stroke: #ffffff; stroke-linejoin: miter"/>
   </g>
   <g id="patch_43">
    <path d="M 358.602885 186.66 
L 363.920315 186.66 
L 363.920315 127.473268 
L 358.602885 127.473268 
z
" clip-path="url(#p3daa49e1be)" style="fill: #c4d495; stroke: #ffffff; stroke-linejoin: miter"/>
   </g>
   <g id="patch_44">
    <path d="M 425.070764 186.66 
L 430.388194 186.66 
L 430.388194 138.008837 
L 425.070764 138.008837 
z
" clip-path="url(#p3daa49e1be)" style="fill: #c4d495; stroke: #ffffff; stroke-linejoin: miter"/>
   </g>
   <g id="patch_45">
    <path d="M 98.0488 186.66 
L 103.36623 186.66 
L 103.36623 41.699393 
L 98.0488 41.699393 
z
" clip-path="url(#p3daa49e1be)" style="fill: #7aa163; stroke: #ffffff; stroke-linejoin: miter"/>
   </g>
   <g id="patch_46">
    <path d="M 164.516679 186.66 
L 169.834109 186.66 
L 169.834109 58.909328 
L 164.516679 58.909328 
z
" clip-path="url(#p3daa49e1be)" style="fill: #7aa163; stroke: #ffffff; stroke-linejoin: miter"/>
   </g>
   <g id="patch_47">
    <path d="M 230.984558 186.66 
L 236.301988 186.66 
L 236.301988 73.802541 
L 230.984558 73.802541 
z
" clip-path="url(#p3daa49e1be)" style="fill: #7aa163; stroke: #ffffff; stroke-linejoin: miter"/>
   </g>
   <g id="patch_48">
    <path d="M 297.452436 186.66 
L 302.769867 186.66 
L 302.769867 103.092526 
L 297.452436 103.092526 
z
" clip-path="url(#p3daa49e1be)" style="fill: #7aa163; stroke: #ffffff; stroke-linejoin: miter"/>
   </g>
   <g id="patch_49">
    <path d="M 363.920315 186.66 
L 369.237745 186.66 
L 369.237745 130.562231 
L 363.920315 130.562231 
z
" clip-path="url(#p3daa49e1be)" style="fill: #7aa163; stroke: #ffffff; stroke-linejoin: miter"/>
   </g>
   <g id="patch_50">
    <path d="M 430.388194 186.66 
L 435.705624 186.66 
L 435.705624 142.807761 
L 430.388194 142.807761 
z
" clip-path="url(#p3daa49e1be)" style="fill: #7aa163; stroke: #ffffff; stroke-linejoin: miter"/>
   </g>
   <g id="patch_51">
    <path d="M 103.36623 186.66 
L 108.683661 186.66 
L 108.683661 46.001876 
L 103.36623 46.001876 
z
" clip-path="url(#p3daa49e1be)" style="fill: #3e7637; stroke: #ffffff; stroke-linejoin: miter"/>
   </g>
   <g id="patch_52">
    <path d="M 169.834109 186.66 
L 175.151539 186.66 
L 175.151539 63.708252 
L 169.834109 63.708252 
z
" clip-path="url(#p3daa49e1be)" style="fill: #3e7637; stroke: #ffffff; stroke-linejoin: miter"/>
   </g>
   <g id="patch_53">
    <path d="M 236.301988 186.66 
L 241.619418 186.66 
L 241.619418 86.048072 
L 236.301988 86.048072 
z
" clip-path="url(#p3daa49e1be)" style="fill: #3e7637; stroke: #ffffff; stroke-linejoin: miter"/>
   </g>
   <g id="patch_54">
    <path d="M 302.769867 186.66 
L 308.087297 186.66 
L 308.087297 115.338057 
L 302.769867 115.338057 
z
" clip-path="url(#p3daa49e1be)" style="fill: #3e7637; stroke: #ffffff; stroke-linejoin: miter"/>
   </g>
   <g id="patch_55">
    <path d="M 369.237745 186.66 
L 374.555176 186.66 
L 374.555176 136.684996 
L 369.237745 136.684996 
z
" clip-path="url(#p3daa49e1be)" style="fill: #3e7637; stroke: #ffffff; stroke-linejoin: miter"/>
   </g>
   <g id="patch_56">
    <path d="M 435.705624 186.66 
L 441.023055 186.66 
L 441.023055 144.131603 
L 435.705624 144.131603 
z
" clip-path="url(#p3daa49e1be)" style="fill: #3e7637; stroke: #ffffff; stroke-linejoin: miter"/>
   </g>
   <g id="patch_57">
    <path d="M 108.683661 186.66 
L 114.001091 186.66 
L 114.001091 37.231429 
L 108.683661 37.231429 
z
" clip-path="url(#p3daa49e1be)" style="fill: #8a404f; stroke: #ffffff; stroke-linejoin: miter"/>
   </g>
   <g id="patch_58">
    <path d="M 175.151539 186.66 
L 180.46897 186.66 
L 180.46897 55.434245 
L 175.151539 55.434245 
z
" clip-path="url(#p3daa49e1be)" style="fill: #8a404f; stroke: #ffffff; stroke-linejoin: miter"/>
   </g>
   <g id="patch_59">
    <path d="M 241.619418 186.66 
L 246.936848 186.66 
L 246.936848 74.133501 
L 241.619418 74.133501 
z
" clip-path="url(#p3daa49e1be)" style="fill: #8a404f; stroke: #ffffff; stroke-linejoin: miter"/>
   </g>
   <g id="patch_60">
    <path d="M 308.087297 186.66 
L 313.404727 186.66 
L 313.404727 85.386151 
L 308.087297 85.386151 
z
" clip-path="url(#p3daa49e1be)" style="fill: #8a404f; stroke: #ffffff; stroke-linejoin: miter"/>
   </g>
   <g id="patch_61">
    <path d="M 374.555176 186.66 
L 379.872606 186.66 
L 379.872606 98.459082 
L 374.555176 98.459082 
z
" clip-path="url(#p3daa49e1be)" style="fill: #8a404f; stroke: #ffffff; stroke-linejoin: miter"/>
   </g>
   <g id="patch_62">
    <path d="M 441.023055 186.66 
L 446.340485 186.66 
L 446.340485 115.999978 
L 441.023055 115.999978 
z
" clip-path="url(#p3daa49e1be)" style="fill: #8a404f; stroke: #ffffff; stroke-linejoin: miter"/>
   </g>
   <g id="patch_63">
    <path d="M 87.413939 186.66 
L 87.413939 186.66 
L 87.413939 186.66 
L 87.413939 186.66 
z
" clip-path="url(#p3daa49e1be)" style="fill: #759adc; stroke: #ffffff; stroke-linejoin: miter"/>
   </g>
   <g id="patch_64">
    <path d="M 87.413939 186.66 
L 87.413939 186.66 
L 87.413939 186.66 
L 87.413939 186.66 
z
" clip-path="url(#p3daa49e1be)" style="fill: #7c8fa2; stroke: #ffffff; stroke-linejoin: miter"/>
   </g>
   <g id="patch_65">
    <path d="M 87.413939 186.66 
L 87.413939 186.66 
L 87.413939 186.66 
L 87.413939 186.66 
z
" clip-path="url(#p3daa49e1be)" style="fill: #154b96; stroke: #ffffff; stroke-linejoin: miter"/>
   </g>
   <g id="patch_66">
    <path d="M 87.413939 186.66 
L 87.413939 186.66 
L 87.413939 186.66 
L 87.413939 186.66 
z
" clip-path="url(#p3daa49e1be)" style="fill: #e0a7f2; stroke: #ffffff; stroke-linejoin: miter"/>
   </g>
   <g id="patch_67">
    <path d="M 87.413939 186.66 
L 87.413939 186.66 
L 87.413939 186.66 
L 87.413939 186.66 
z
" clip-path="url(#p3daa49e1be)" style="fill: #a859c1; stroke: #ffffff; stroke-linejoin: miter"/>
   </g>
   <g id="patch_68">
    <path d="M 87.413939 186.66 
L 87.413939 186.66 
L 87.413939 186.66 
L 87.413939 186.66 
z
" clip-path="url(#p3daa49e1be)" style="fill: #622576; stroke: #ffffff; stroke-linejoin: miter"/>
   </g>
   <g id="patch_69">
    <path d="M 87.413939 186.66 
L 87.413939 186.66 
L 87.413939 186.66 
L 87.413939 186.66 
z
" clip-path="url(#p3daa49e1be)" style="fill: #c4d495; stroke: #ffffff; stroke-linejoin: miter"/>
   </g>
   <g id="patch_70">
    <path d="M 87.413939 186.66 
L 87.413939 186.66 
L 87.413939 186.66 
L 87.413939 186.66 
z
" clip-path="url(#p3daa49e1be)" style="fill: #7aa163; stroke: #ffffff; stroke-linejoin: miter"/>
   </g>
   <g id="patch_71">
    <path d="M 87.413939 186.66 
L 87.413939 186.66 
L 87.413939 186.66 
L 87.413939 186.66 
z
" clip-path="url(#p3daa49e1be)" style="fill: #3e7637; stroke: #ffffff; stroke-linejoin: miter"/>
   </g>
   <g id="patch_72">
    <path d="M 87.413939 186.66 
L 87.413939 186.66 
L 87.413939 186.66 
L 87.413939 186.66 
z
" clip-path="url(#p3daa49e1be)" style="fill: #8a404f; stroke: #ffffff; stroke-linejoin: miter"/>
   </g>
   <g id="line2d_6">
    <path d="M 63.485503 43.519674 
L 63.485503 43.023234 
" clip-path="url(#p3daa49e1be)" style="fill: none; stroke: #8b0000; stroke-width: 2.25; stroke-linecap: round"/>
   </g>
   <g id="line2d_7">
    <path d="M 129.953382 85.386151 
L 129.953382 63.542772 
" clip-path="url(#p3daa49e1be)" style="fill: none; stroke: #8b0000; stroke-width: 2.25; stroke-linecap: round"/>
   </g>
   <g id="line2d_8">
    <path d="M 196.421261 101.106765 
L 196.421261 92.336317 
" clip-path="url(#p3daa49e1be)" style="fill: none; stroke: #8b0000; stroke-width: 2.25; stroke-linecap: round"/>
   </g>
   <g id="line2d_9">
    <path d="M 262.889139 114.179696 
L 262.889139 109.380772 
" clip-path="url(#p3daa49e1be)" style="fill: none; stroke: #8b0000; stroke-width: 2.25; stroke-linecap: round"/>
   </g>
   <g id="line2d_10">
    <path d="M 329.357018 131.610272 
L 329.357018 128.410989 
" clip-path="url(#p3daa49e1be)" style="fill: none; stroke: #8b0000; stroke-width: 2.25; stroke-linecap: round"/>
   </g>
   <g id="line2d_11">
    <path d="M 395.824897 143.138722 
L 395.824897 143.138722 
" clip-path="url(#p3daa49e1be)" style="fill: none; stroke: #8b0000; stroke-width: 2.25; stroke-linecap: round"/>
   </g>
   <g id="line2d_12">
    <path d="M 68.802933 41.533912 
L 68.802933 41.533912 
" clip-path="url(#p3daa49e1be)" style="fill: none; stroke: #8b0000; stroke-width: 2.25; stroke-linecap: round"/>
   </g>
   <g id="line2d_13">
    <path d="M 135.270812 50.46984 
L 135.270812 50.46984 
" clip-path="url(#p3daa49e1be)" style="fill: none; stroke: #8b0000; stroke-width: 2.25; stroke-linecap: round"/>
   </g>
   <g id="line2d_14">
    <path d="M 201.738691 73.968021 
L 201.738691 73.968021 
" clip-path="url(#p3daa49e1be)" style="fill: none; stroke: #8b0000; stroke-width: 2.25; stroke-linecap: round"/>
   </g>
   <g id="line2d_15">
    <path d="M 268.20657 107.725971 
L 268.20657 107.725971 
" clip-path="url(#p3daa49e1be)" style="fill: none; stroke: #8b0000; stroke-width: 2.25; stroke-linecap: round"/>
   </g>
   <g id="line2d_16">
    <path d="M 334.674448 136.850476 
L 334.674448 136.850476 
" clip-path="url(#p3daa49e1be)" style="fill: none; stroke: #8b0000; stroke-width: 2.25; stroke-linecap: round"/>
   </g>
   <g id="line2d_17">
    <path d="M 401.142327 147.606686 
L 401.142327 147.606686 
" clip-path="url(#p3daa49e1be)" style="fill: none; stroke: #8b0000; stroke-width: 2.25; stroke-linecap: round"/>
   </g>
   <g id="line2d_18">
    <path d="M 74.120364 48.649559 
L 74.120364 48.649559 
" clip-path="url(#p3daa49e1be)" style="fill: none; stroke: #8b0000; stroke-width: 2.25; stroke-linecap: round"/>
   </g>
   <g id="line2d_19">
    <path d="M 140.588242 78.435985 
L 140.588242 78.435985 
" clip-path="url(#p3daa49e1be)" style="fill: none; stroke: #8b0000; stroke-width: 2.25; stroke-linecap: round"/>
   </g>
   <g id="line2d_20">
    <path d="M 207.056121 106.73309 
L 207.056121 106.73309 
" clip-path="url(#p3daa49e1be)" style="fill: none; stroke: #8b0000; stroke-width: 2.25; stroke-linecap: round"/>
   </g>
   <g id="line2d_21">
    <path d="M 273.524 126.921667 
L 273.524 126.921667 
" clip-path="url(#p3daa49e1be)" style="fill: none; stroke: #8b0000; stroke-width: 2.25; stroke-linecap: round"/>
   </g>
   <g id="line2d_22">
    <path d="M 339.991879 143.138722 
L 339.991879 143.138722 
" clip-path="url(#p3daa49e1be)" style="fill: none; stroke: #8b0000; stroke-width: 2.25; stroke-linecap: round"/>
   </g>
   <g id="line2d_23">
    <path d="M 406.459758 148.268606 
L 406.459758 148.268606 
" clip-path="url(#p3daa49e1be)" style="fill: none; stroke: #8b0000; stroke-width: 2.25; stroke-linecap: round"/>
   </g>
   <g id="line2d_24">
    <path d="M 79.437794 39.38267 
L 79.437794 38.55527 
" clip-path="url(#p3daa49e1be)" style="fill: none; stroke: #8b0000; stroke-width: 2.25; stroke-linecap: round"/>
   </g>
   <g id="line2d_25">
    <path d="M 145.905673 76.946664 
L 145.905673 52.124642 
" clip-path="url(#p3daa49e1be)" style="fill: none; stroke: #8b0000; stroke-width: 2.25; stroke-linecap: round"/>
   </g>
   <g id="line2d_26">
    <path d="M 212.373552 86.875472 
L 212.373552 76.284743 
" clip-path="url(#p3daa49e1be)" style="fill: none; stroke: #8b0000; stroke-width: 2.25; stroke-linecap: round"/>
   </g>
   <g id="line2d_27">
    <path d="M 278.84143 113.021335 
L 278.84143 102.265126 
" clip-path="url(#p3daa49e1be)" style="fill: none; stroke: #8b0000; stroke-width: 2.25; stroke-linecap: round"/>
   </g>
   <g id="line2d_28">
    <path d="M 345.309309 131.224151 
L 345.309309 130.06579 
" clip-path="url(#p3daa49e1be)" style="fill: none; stroke: #8b0000; stroke-width: 2.25; stroke-linecap: round"/>
   </g>
   <g id="line2d_29">
    <path d="M 411.777188 140.491039 
L 411.777188 140.491039 
" clip-path="url(#p3daa49e1be)" style="fill: none; stroke: #8b0000; stroke-width: 2.25; stroke-linecap: round"/>
   </g>
   <g id="line2d_30">
    <path d="M 84.755224 48.980519 
L 84.755224 48.980519 
" clip-path="url(#p3daa49e1be)" style="fill: none; stroke: #8b0000; stroke-width: 2.25; stroke-linecap: round"/>
   </g>
   <g id="line2d_31">
    <path d="M 151.223103 54.772324 
L 151.223103 54.772324 
" clip-path="url(#p3daa49e1be)" style="fill: none; stroke: #8b0000; stroke-width: 2.25; stroke-linecap: round"/>
   </g>
   <g id="line2d_32">
    <path d="M 217.690982 85.055191 
L 217.690982 85.055191 
" clip-path="url(#p3daa49e1be)" style="fill: none; stroke: #8b0000; stroke-width: 2.25; stroke-linecap: round"/>
   </g>
   <g id="line2d_33">
    <path d="M 284.158861 113.186815 
L 284.158861 113.186815 
" clip-path="url(#p3daa49e1be)" style="fill: none; stroke: #8b0000; stroke-width: 2.25; stroke-linecap: round"/>
   </g>
   <g id="line2d_34">
    <path d="M 350.626739 137.015956 
L 350.626739 137.015956 
" clip-path="url(#p3daa49e1be)" style="fill: none; stroke: #8b0000; stroke-width: 2.25; stroke-linecap: round"/>
   </g>
   <g id="line2d_35">
    <path d="M 417.094618 146.117364 
L 417.094618 146.117364 
" clip-path="url(#p3daa49e1be)" style="fill: none; stroke: #8b0000; stroke-width: 2.25; stroke-linecap: round"/>
   </g>
   <g id="line2d_36">
    <path d="M 90.072655 50.800801 
L 90.072655 50.800801 
" clip-path="url(#p3daa49e1be)" style="fill: none; stroke: #8b0000; stroke-width: 2.25; stroke-linecap: round"/>
   </g>
   <g id="line2d_37">
    <path d="M 156.540533 73.14062 
L 156.540533 73.14062 
" clip-path="url(#p3daa49e1be)" style="fill: none; stroke: #8b0000; stroke-width: 2.25; stroke-linecap: round"/>
   </g>
   <g id="line2d_38">
    <path d="M 223.008412 100.113884 
L 223.008412 100.113884 
" clip-path="url(#p3daa49e1be)" style="fill: none; stroke: #8b0000; stroke-width: 2.25; stroke-linecap: round"/>
   </g>
   <g id="line2d_39">
    <path d="M 289.476291 124.439465 
L 289.476291 124.439465 
" clip-path="url(#p3daa49e1be)" style="fill: none; stroke: #8b0000; stroke-width: 2.25; stroke-linecap: round"/>
   </g>
   <g id="line2d_40">
    <path d="M 355.94417 141.814881 
L 355.94417 141.814881 
" clip-path="url(#p3daa49e1be)" style="fill: none; stroke: #8b0000; stroke-width: 2.25; stroke-linecap: round"/>
   </g>
   <g id="line2d_41">
    <path d="M 422.412048 147.937646 
L 422.412048 147.937646 
" clip-path="url(#p3daa49e1be)" style="fill: none; stroke: #8b0000; stroke-width: 2.25; stroke-linecap: round"/>
   </g>
   <g id="line2d_42">
    <path d="M 95.390085 42.030353 
L 95.390085 40.044591 
" clip-path="url(#p3daa49e1be)" style="fill: none; stroke: #8b0000; stroke-width: 2.25; stroke-linecap: round"/>
   </g>
   <g id="line2d_43">
    <path d="M 161.857964 59.074808 
L 161.857964 55.103284 
" clip-path="url(#p3daa49e1be)" style="fill: none; stroke: #8b0000; stroke-width: 2.25; stroke-linecap: round"/>
   </g>
   <g id="line2d_44">
    <path d="M 228.325842 77.112144 
L 228.325842 75.457342 
" clip-path="url(#p3daa49e1be)" style="fill: none; stroke: #8b0000; stroke-width: 2.25; stroke-linecap: round"/>
   </g>
   <g id="line2d_45">
    <path d="M 294.793721 105.409249 
L 294.793721 92.667277 
" clip-path="url(#p3daa49e1be)" style="fill: none; stroke: #8b0000; stroke-width: 2.25; stroke-linecap: round"/>
   </g>
   <g id="line2d_46">
    <path d="M 361.2616 127.914548 
L 361.2616 126.590707 
" clip-path="url(#p3daa49e1be)" style="fill: none; stroke: #8b0000; stroke-width: 2.25; stroke-linecap: round"/>
   </g>
   <g id="line2d_47">
    <path d="M 427.729479 138.008837 
L 427.729479 138.008837 
" clip-path="url(#p3daa49e1be)" style="fill: none; stroke: #8b0000; stroke-width: 2.25; stroke-linecap: round"/>
   </g>
   <g id="line2d_48">
    <path d="M 100.707515 41.699393 
L 100.707515 41.699393 
" clip-path="url(#p3daa49e1be)" style="fill: none; stroke: #8b0000; stroke-width: 2.25; stroke-linecap: round"/>
   </g>
   <g id="line2d_49">
    <path d="M 167.175394 58.909328 
L 167.175394 58.909328 
" clip-path="url(#p3daa49e1be)" style="fill: none; stroke: #8b0000; stroke-width: 2.25; stroke-linecap: round"/>
   </g>
   <g id="line2d_50">
    <path d="M 233.643273 73.802541 
L 233.643273 73.802541 
" clip-path="url(#p3daa49e1be)" style="fill: none; stroke: #8b0000; stroke-width: 2.25; stroke-linecap: round"/>
   </g>
   <g id="line2d_51">
    <path d="M 300.111152 103.092526 
L 300.111152 103.092526 
" clip-path="url(#p3daa49e1be)" style="fill: none; stroke: #8b0000; stroke-width: 2.25; stroke-linecap: round"/>
   </g>
   <g id="line2d_52">
    <path d="M 366.57903 130.562231 
L 366.57903 130.562231 
" clip-path="url(#p3daa49e1be)" style="fill: none; stroke: #8b0000; stroke-width: 2.25; stroke-linecap: round"/>
   </g>
   <g id="line2d_53">
    <path d="M 433.046909 142.807761 
L 433.046909 142.807761 
" clip-path="url(#p3daa49e1be)" style="fill: none; stroke: #8b0000; stroke-width: 2.25; stroke-linecap: round"/>
   </g>
   <g id="line2d_54">
    <path d="M 106.024945 46.001876 
L 106.024945 46.001876 
" clip-path="url(#p3daa49e1be)" style="fill: none; stroke: #8b0000; stroke-width: 2.25; stroke-linecap: round"/>
   </g>
   <g id="line2d_55">
    <path d="M 172.492824 63.708252 
L 172.492824 63.708252 
" clip-path="url(#p3daa49e1be)" style="fill: none; stroke: #8b0000; stroke-width: 2.25; stroke-linecap: round"/>
   </g>
   <g id="line2d_56">
    <path d="M 238.960703 86.048072 
L 238.960703 86.048072 
" clip-path="url(#p3daa49e1be)" style="fill: none; stroke: #8b0000; stroke-width: 2.25; stroke-linecap: round"/>
   </g>
   <g id="line2d_57">
    <path d="M 305.428582 115.338057 
L 305.428582 115.338057 
" clip-path="url(#p3daa49e1be)" style="fill: none; stroke: #8b0000; stroke-width: 2.25; stroke-linecap: round"/>
   </g>
   <g id="line2d_58">
    <path d="M 371.896461 136.684996 
L 371.896461 136.684996 
" clip-path="url(#p3daa49e1be)" style="fill: none; stroke: #8b0000; stroke-width: 2.25; stroke-linecap: round"/>
   </g>
   <g id="line2d_59">
    <path d="M 438.364339 144.131603 
L 438.364339 144.131603 
" clip-path="url(#p3daa49e1be)" style="fill: none; stroke: #8b0000; stroke-width: 2.25; stroke-linecap: round"/>
   </g>
   <g id="line2d_60">
    <path d="M 111.342376 37.231429 
L 111.342376 37.231429 
" clip-path="url(#p3daa49e1be)" style="fill: none; stroke: #8b0000; stroke-width: 2.25; stroke-linecap: round"/>
   </g>
   <g id="line2d_61">
    <path d="M 177.810255 55.434245 
L 177.810255 55.434245 
" clip-path="url(#p3daa49e1be)" style="fill: none; stroke: #8b0000; stroke-width: 2.25; stroke-linecap: round"/>
   </g>
   <g id="line2d_62">
    <path d="M 244.278133 74.133501 
L 244.278133 74.133501 
" clip-path="url(#p3daa49e1be)" style="fill: none; stroke: #8b0000; stroke-width: 2.25; stroke-linecap: round"/>
   </g>
   <g id="line2d_63">
    <path d="M 310.746012 85.386151 
L 310.746012 85.386151 
" clip-path="url(#p3daa49e1be)" style="fill: none; stroke: #8b0000; stroke-width: 2.25; stroke-linecap: round"/>
   </g>
   <g id="line2d_64">
    <path d="M 377.213891 98.459082 
L 377.213891 98.459082 
" clip-path="url(#p3daa49e1be)" style="fill: none; stroke: #8b0000; stroke-width: 2.25; stroke-linecap: round"/>
   </g>
   <g id="line2d_65">
    <path d="M 443.68177 115.999978 
L 443.68177 115.999978 
" clip-path="url(#p3daa49e1be)" style="fill: none; stroke: #8b0000; stroke-width: 2.25; stroke-linecap: round"/>
   </g>
   <g id="patch_73">
    <path d="M 54.18 186.66 
L 54.18 29.76 
" style="fill: none; stroke: #cccccc; stroke-width: 1.25; stroke-linejoin: miter; stroke-linecap: square"/>
   </g>
   <g id="patch_74">
    <path d="M 452.987273 186.66 
L 452.987273 29.76 
" style="fill: none; stroke: #cccccc; stroke-width: 1.25; stroke-linejoin: miter; stroke-linecap: square"/>
   </g>
   <g id="patch_75">
    <path d="M 54.18 186.66 
L 452.987273 186.66 
" style="fill: none; stroke: #cccccc; stroke-width: 1.25; stroke-linejoin: miter; stroke-linecap: square"/>
   </g>
   <g id="patch_76">
    <path d="M 54.18 29.76 
L 452.987273 29.76 
" style="fill: none; stroke: #cccccc; stroke-width: 1.25; stroke-linejoin: miter; stroke-linecap: square"/>
   </g>
   <g id="text_14">
    <!-- LAMMPS CPU Usage -->
    <g style="fill: #262626" transform="translate(183.501605 23.76) scale(0.14 -0.14)">
     <defs>
      <path id="DejaVuSans-4c" d="M 628 4666 
L 1259 4666 
L 1259 531 
L 3531 531 
L 3531 0 
L 628 0 
L 628 4666 
z
" transform="scale(0.015625)"/>
      <path id="DejaVuSans-41" d="M 2188 4044 
L 1331 1722 
L 3047 1722 
L 2188 4044 
z
M 1831 4666 
L 2547 4666 
L 4325 0 
L 3669 0 
L 3244 1197 
L 1141 1197 
L 716 0 
L 50 0 
L 1831 4666 
z
" transform="scale(0.015625)"/>
      <path id="DejaVuSans-4d" d="M 628 4666 
L 1569 4666 
L 2759 1491 
L 3956 4666 
L 4897 4666 
L 4897 0 
L 4281 0 
L 4281 4097 
L 3078 897 
L 2444 897 
L 1241 4097 
L 1241 0 
L 628 0 
L 628 4666 
z
" transform="scale(0.015625)"/>
      <path id="DejaVuSans-53" d="M 3425 4513 
L 3425 3897 
Q 3066 4069 2747 4153 
Q 2428 4238 2131 4238 
Q 1616 4238 1336 4038 
Q 1056 3838 1056 3469 
Q 1056 3159 1242 3001 
Q 1428 2844 1947 2747 
L 2328 2669 
Q 3034 2534 3370 2195 
Q 3706 1856 3706 1288 
Q 3706 609 3251 259 
Q 2797 -91 1919 -91 
Q 1588 -91 1214 -16 
Q 841 59 441 206 
L 441 856 
Q 825 641 1194 531 
Q 1563 422 1919 422 
Q 2459 422 2753 634 
Q 3047 847 3047 1241 
Q 3047 1584 2836 1778 
Q 2625 1972 2144 2069 
L 1759 2144 
Q 1053 2284 737 2584 
Q 422 2884 422 3419 
Q 422 4038 858 4394 
Q 1294 4750 2059 4750 
Q 2388 4750 2728 4690 
Q 3069 4631 3425 4513 
z
" transform="scale(0.015625)"/>
     </defs>
     <use xlink:href="#DejaVuSans-4c"/>
     <use xlink:href="#DejaVuSans-41" x="57.962891"/>
     <use xlink:href="#DejaVuSans-4d" x="126.371094"/>
     <use xlink:href="#DejaVuSans-4d" x="212.650391"/>
     <use xlink:href="#DejaVuSans-50" x="298.929688"/>
     <use xlink:href="#DejaVuSans-53" x="359.232422"/>
     <use xlink:href="#DejaVuSans-20" x="422.708984"/>
     <use xlink:href="#DejaVuSans-43" x="454.496094"/>
     <use xlink:href="#DejaVuSans-50" x="524.320312"/>
     <use xlink:href="#DejaVuSans-55" x="584.623047"/>
     <use xlink:href="#DejaVuSans-20" x="657.816406"/>
     <use xlink:href="#DejaVuSans-55" x="689.603516"/>
     <use xlink:href="#DejaVuSans-73" x="762.796875"/>
     <use xlink:href="#DejaVuSans-61" x="814.896484"/>
     <use xlink:href="#DejaVuSans-67" x="876.175781"/>
     <use xlink:href="#DejaVuSans-65" x="939.652344"/>
    </g>
   </g>
  </g>
  <g id="axes_2">
   <g id="legend_1">
    <g id="patch_77">
     <path d="M 467.316 38.588594 
L 489.316 38.588594 
L 489.316 30.888594 
L 467.316 30.888594 
z
" style="fill: #759adc; stroke: #ffffff; stroke-linejoin: miter"/>
    </g>
    <g id="text_15">
     <!-- Ubuntu Mpich eBPF Sample -->
     <g style="fill: #262626" transform="translate(498.116 38.588594) scale(0.11 -0.11)">
      <defs>
       <path id="DejaVuSans-62" d="M 3116 1747 
Q 3116 2381 2855 2742 
Q 2594 3103 2138 3103 
Q 1681 3103 1420 2742 
Q 1159 2381 1159 1747 
Q 1159 1113 1420 752 
Q 1681 391 2138 391 
Q 2594 391 2855 752 
Q 3116 1113 3116 1747 
z
M 1159 2969 
Q 1341 3281 1617 3432 
Q 1894 3584 2278 3584 
Q 2916 3584 3314 3078 
Q 3713 2572 3713 1747 
Q 3713 922 3314 415 
Q 2916 -91 2278 -91 
Q 1894 -91 1617 61 
Q 1341 213 1159 525 
L 1159 0 
L 581 0 
L 581 4863 
L 1159 4863 
L 1159 2969 
z
" transform="scale(0.015625)"/>
       <path id="DejaVuSans-6e" d="M 3513 2113 
L 3513 0 
L 2938 0 
L 2938 2094 
Q 2938 2591 2744 2837 
Q 2550 3084 2163 3084 
Q 1697 3084 1428 2787 
Q 1159 2491 1159 1978 
L 1159 0 
L 581 0 
L 581 3500 
L 1159 3500 
L 1159 2956 
Q 1366 3272 1645 3428 
Q 1925 3584 2291 3584 
Q 2894 3584 3203 3211 
Q 3513 2838 3513 2113 
z
" transform="scale(0.015625)"/>
       <path id="DejaVuSans-74" d="M 1172 4494 
L 1172 3500 
L 2356 3500 
L 2356 3053 
L 1172 3053 
L 1172 1153 
Q 1172 725 1289 603 
Q 1406 481 1766 481 
L 2356 481 
L 2356 0 
L 1766 0 
Q 1100 0 847 248 
Q 594 497 594 1153 
L 594 3053 
L 172 3053 
L 172 3500 
L 594 3500 
L 594 4494 
L 1172 4494 
z
" transform="scale(0.015625)"/>
       <path id="DejaVuSans-70" d="M 1159 525 
L 1159 -1331 
L 581 -1331 
L 581 3500 
L 1159 3500 
L 1159 2969 
Q 1341 3281 1617 3432 
Q 1894 3584 2278 3584 
Q 2916 3584 3314 3078 
Q 3713 2572 3713 1747 
Q 3713 922 3314 415 
Q 2916 -91 2278 -91 
Q 1894 -91 1617 61 
Q 1341 213 1159 525 
z
M 3116 1747 
Q 3116 2381 2855 2742 
Q 2594 3103 2138 3103 
Q 1681 3103 1420 2742 
Q 1159 2381 1159 1747 
Q 1159 1113 1420 752 
Q 1681 391 2138 391 
Q 2594 391 2855 752 
Q 3116 1113 3116 1747 
z
" transform="scale(0.015625)"/>
       <path id="DejaVuSans-69" d="M 603 3500 
L 1178 3500 
L 1178 0 
L 603 0 
L 603 3500 
z
M 603 4863 
L 1178 4863 
L 1178 4134 
L 603 4134 
L 603 4863 
z
" transform="scale(0.015625)"/>
       <path id="DejaVuSans-63" d="M 3122 3366 
L 3122 2828 
Q 2878 2963 2633 3030 
Q 2388 3097 2138 3097 
Q 1578 3097 1268 2742 
Q 959 2388 959 1747 
Q 959 1106 1268 751 
Q 1578 397 2138 397 
Q 2388 397 2633 464 
Q 2878 531 3122 666 
L 3122 134 
Q 2881 22 2623 -34 
Q 2366 -91 2075 -91 
Q 1284 -91 818 406 
Q 353 903 353 1747 
Q 353 2603 823 3093 
Q 1294 3584 2113 3584 
Q 2378 3584 2631 3529 
Q 2884 3475 3122 3366 
z
" transform="scale(0.015625)"/>
       <path id="DejaVuSans-68" d="M 3513 2113 
L 3513 0 
L 2938 0 
L 2938 2094 
Q 2938 2591 2744 2837 
Q 2550 3084 2163 3084 
Q 1697 3084 1428 2787 
Q 1159 2491 1159 1978 
L 1159 0 
L 581 0 
L 581 4863 
L 1159 4863 
L 1159 2956 
Q 1366 3272 1645 3428 
Q 1925 3584 2291 3584 
Q 2894 3584 3203 3211 
Q 3513 2838 3513 2113 
z
" transform="scale(0.015625)"/>
       <path id="DejaVuSans-42" d="M 1259 2228 
L 1259 519 
L 2272 519 
Q 2781 519 3026 730 
Q 3272 941 3272 1375 
Q 3272 1813 3026 2020 
Q 2781 2228 2272 2228 
L 1259 2228 
z
M 1259 4147 
L 1259 2741 
L 2194 2741 
Q 2656 2741 2882 2914 
Q 3109 3088 3109 3444 
Q 3109 3797 2882 3972 
Q 2656 4147 2194 4147 
L 1259 4147 
z
M 628 4666 
L 2241 4666 
Q 2963 4666 3353 4366 
Q 3744 4066 3744 3513 
Q 3744 3084 3544 2831 
Q 3344 2578 2956 2516 
Q 3422 2416 3680 2098 
Q 3938 1781 3938 1306 
Q 3938 681 3513 340 
Q 3088 0 2303 0 
L 628 0 
L 628 4666 
z
" transform="scale(0.015625)"/>
       <path id="DejaVuSans-46" d="M 628 4666 
L 3309 4666 
L 3309 4134 
L 1259 4134 
L 1259 2759 
L 3109 2759 
L 3109 2228 
L 1259 2228 
L 1259 0 
L 628 0 
L 628 4666 
z
" transform="scale(0.015625)"/>
       <path id="DejaVuSans-6d" d="M 3328 2828 
Q 3544 3216 3844 3400 
Q 4144 3584 4550 3584 
Q 5097 3584 5394 3201 
Q 5691 2819 5691 2113 
L 5691 0 
L 5113 0 
L 5113 2094 
Q 5113 2597 4934 2840 
Q 4756 3084 4391 3084 
Q 3944 3084 3684 2787 
Q 3425 2491 3425 1978 
L 3425 0 
L 2847 0 
L 2847 2094 
Q 2847 2600 2669 2842 
Q 2491 3084 2119 3084 
Q 1678 3084 1418 2786 
Q 1159 2488 1159 1978 
L 1159 0 
L 581 0 
L 581 3500 
L 1159 3500 
L 1159 2956 
Q 1356 3278 1631 3431 
Q 1906 3584 2284 3584 
Q 2666 3584 2933 3390 
Q 3200 3197 3328 2828 
z
" transform="scale(0.015625)"/>
       <path id="DejaVuSans-6c" d="M 603 4863 
L 1178 4863 
L 1178 0 
L 603 0 
L 603 4863 
z
" transform="scale(0.015625)"/>
      </defs>
      <use xlink:href="#DejaVuSans-55"/>
      <use xlink:href="#DejaVuSans-62" x="73.193359"/>
      <use xlink:href="#DejaVuSans-75" x="136.669922"/>
      <use xlink:href="#DejaVuSans-6e" x="200.048828"/>
      <use xlink:href="#DejaVuSans-74" x="263.427734"/>
      <use xlink:href="#DejaVuSans-75" x="302.636719"/>
      <use xlink:href="#DejaVuSans-20" x="366.015625"/>
      <use xlink:href="#DejaVuSans-4d" x="397.802734"/>
      <use xlink:href="#DejaVuSans-70" x="484.082031"/>
      <use xlink:href="#DejaVuSans-69" x="547.558594"/>
      <use xlink:href="#DejaVuSans-63" x="575.341797"/>
      <use xlink:href="#DejaVuSans-68" x="630.322266"/>
      <use xlink:href="#DejaVuSans-20" x="693.701172"/>
      <use xlink:href="#DejaVuSans-65" x="725.488281"/>
      <use xlink:href="#DejaVuSans-42" x="787.011719"/>
      <use xlink:href="#DejaVuSans-50" x="855.615234"/>
      <use xlink:href="#DejaVuSans-46" x="915.917969"/>
      <use xlink:href="#DejaVuSans-20" x="973.4375"/>
      <use xlink:href="#DejaVuSans-53" x="1005.224609"/>
      <use xlink:href="#DejaVuSans-61" x="1068.701172"/>
      <use xlink:href="#DejaVuSans-6d" x="1129.980469"/>
      <use xlink:href="#DejaVuSans-70" x="1227.392578"/>
      <use xlink:href="#DejaVuSans-6c" x="1290.869141"/>
      <use xlink:href="#DejaVuSans-65" x="1318.652344"/>
     </g>
    </g>
    <g id="patch_78">
     <path d="M 467.316 54.734531 
L 489.316 54.734531 
L 489.316 47.034531 
L 467.316 47.034531 
z
" style="fill: #7c8fa2; stroke: #ffffff; stroke-linejoin: miter"/>
    </g>
    <g id="text_16">
     <!-- Ubuntu Mpich -->
     <g style="fill: #262626" transform="translate(498.116 54.734531) scale(0.11 -0.11)">
      <use xlink:href="#DejaVuSans-55"/>
      <use xlink:href="#DejaVuSans-62" x="73.193359"/>
      <use xlink:href="#DejaVuSans-75" x="136.669922"/>
      <use xlink:href="#DejaVuSans-6e" x="200.048828"/>
      <use xlink:href="#DejaVuSans-74" x="263.427734"/>
      <use xlink:href="#DejaVuSans-75" x="302.636719"/>
      <use xlink:href="#DejaVuSans-20" x="366.015625"/>
      <use xlink:href="#DejaVuSans-4d" x="397.802734"/>
      <use xlink:href="#DejaVuSans-70" x="484.082031"/>
      <use xlink:href="#DejaVuSans-69" x="547.558594"/>
      <use xlink:href="#DejaVuSans-63" x="575.341797"/>
      <use xlink:href="#DejaVuSans-68" x="630.322266"/>
     </g>
    </g>
    <g id="patch_79">
     <path d="M 467.316 70.880469 
L 489.316 70.880469 
L 489.316 63.180469 
L 467.316 63.180469 
z
" style="fill: #154b96; stroke: #ffffff; stroke-linejoin: miter"/>
    </g>
    <g id="text_17">
     <!-- Ubuntu Mpich eBPF Multiple -->
     <g style="fill: #262626" transform="translate(498.116 70.880469) scale(0.11 -0.11)">
      <use xlink:href="#DejaVuSans-55"/>
      <use xlink:href="#DejaVuSans-62" x="73.193359"/>
      <use xlink:href="#DejaVuSans-75" x="136.669922"/>
      <use xlink:href="#DejaVuSans-6e" x="200.048828"/>
      <use xlink:href="#DejaVuSans-74" x="263.427734"/>
      <use xlink:href="#DejaVuSans-75" x="302.636719"/>
      <use xlink:href="#DejaVuSans-20" x="366.015625"/>
      <use xlink:href="#DejaVuSans-4d" x="397.802734"/>
      <use xlink:href="#DejaVuSans-70" x="484.082031"/>
      <use xlink:href="#DejaVuSans-69" x="547.558594"/>
      <use xlink:href="#DejaVuSans-63" x="575.341797"/>
      <use xlink:href="#DejaVuSans-68" x="630.322266"/>
      <use xlink:href="#DejaVuSans-20" x="693.701172"/>
      <use xlink:href="#DejaVuSans-65" x="725.488281"/>
      <use xlink:href="#DejaVuSans-42" x="787.011719"/>
      <use xlink:href="#DejaVuSans-50" x="855.615234"/>
      <use xlink:href="#DejaVuSans-46" x="915.917969"/>
      <use xlink:href="#DejaVuSans-20" x="973.4375"/>
      <use xlink:href="#DejaVuSans-4d" x="1005.224609"/>
      <use xlink:href="#DejaVuSans-75" x="1091.503906"/>
      <use xlink:href="#DejaVuSans-6c" x="1154.882812"/>
      <use xlink:href="#DejaVuSans-74" x="1182.666016"/>
      <use xlink:href="#DejaVuSans-69" x="1221.875"/>
      <use xlink:href="#DejaVuSans-70" x="1249.658203"/>
      <use xlink:href="#DejaVuSans-6c" x="1313.134766"/>
      <use xlink:href="#DejaVuSans-65" x="1340.917969"/>
     </g>
    </g>
    <g id="patch_80">
     <path d="M 467.316 87.026406 
L 489.316 87.026406 
L 489.316 79.326406 
L 467.316 79.326406 
z
" style="fill: #e0a7f2; stroke: #ffffff; stroke-linejoin: miter"/>
    </g>
    <g id="text_18">
     <!-- Ubuntu OpenMPI eBPF Sample -->
     <g style="fill: #262626" transform="translate(498.116 87.026406) scale(0.11 -0.11)">
      <defs>
       <path id="DejaVuSans-4f" d="M 2522 4238 
Q 1834 4238 1429 3725 
Q 1025 3213 1025 2328 
Q 1025 1447 1429 934 
Q 1834 422 2522 422 
Q 3209 422 3611 934 
Q 4013 1447 4013 2328 
Q 4013 3213 3611 3725 
Q 3209 4238 2522 4238 
z
M 2522 4750 
Q 3503 4750 4090 4092 
Q 4678 3434 4678 2328 
Q 4678 1225 4090 567 
Q 3503 -91 2522 -91 
Q 1538 -91 948 565 
Q 359 1222 359 2328 
Q 359 3434 948 4092 
Q 1538 4750 2522 4750 
z
" transform="scale(0.015625)"/>
       <path id="DejaVuSans-49" d="M 628 4666 
L 1259 4666 
L 1259 0 
L 628 0 
L 628 4666 
z
" transform="scale(0.015625)"/>
      </defs>
      <use xlink:href="#DejaVuSans-55"/>
      <use xlink:href="#DejaVuSans-62" x="73.193359"/>
      <use xlink:href="#DejaVuSans-75" x="136.669922"/>
      <use xlink:href="#DejaVuSans-6e" x="200.048828"/>
      <use xlink:href="#DejaVuSans-74" x="263.427734"/>
      <use xlink:href="#DejaVuSans-75" x="302.636719"/>
      <use xlink:href="#DejaVuSans-20" x="366.015625"/>
      <use xlink:href="#DejaVuSans-4f" x="397.802734"/>
      <use xlink:href="#DejaVuSans-70" x="476.513672"/>
      <use xlink:href="#DejaVuSans-65" x="539.990234"/>
      <use xlink:href="#DejaVuSans-6e" x="601.513672"/>
      <use xlink:href="#DejaVuSans-4d" x="664.892578"/>
      <use xlink:href="#DejaVuSans-50" x="751.171875"/>
      <use xlink:href="#DejaVuSans-49" x="811.474609"/>
      <use xlink:href="#DejaVuSans-20" x="840.966797"/>
      <use xlink:href="#DejaVuSans-65" x="872.753906"/>
      <use xlink:href="#DejaVuSans-42" x="934.277344"/>
      <use xlink:href="#DejaVuSans-50" x="1002.880859"/>
      <use xlink:href="#DejaVuSans-46" x="1063.183594"/>
      <use xlink:href="#DejaVuSans-20" x="1120.703125"/>
      <use xlink:href="#DejaVuSans-53" x="1152.490234"/>
      <use xlink:href="#DejaVuSans-61" x="1215.966797"/>
      <use xlink:href="#DejaVuSans-6d" x="1277.246094"/>
      <use xlink:href="#DejaVuSans-70" x="1374.658203"/>
      <use xlink:href="#DejaVuSans-6c" x="1438.134766"/>
      <use xlink:href="#DejaVuSans-65" x="1465.917969"/>
     </g>
    </g>
    <g id="patch_81">
     <path d="M 467.316 103.172344 
L 489.316 103.172344 
L 489.316 95.472344 
L 467.316 95.472344 
z
" style="fill: #a859c1; stroke: #ffffff; stroke-linejoin: miter"/>
    </g>
    <g id="text_19">
     <!-- Ubuntu OpenMPI -->
     <g style="fill: #262626" transform="translate(498.116 103.172344) scale(0.11 -0.11)">
      <use xlink:href="#DejaVuSans-55"/>
      <use xlink:href="#DejaVuSans-62" x="73.193359"/>
      <use xlink:href="#DejaVuSans-75" x="136.669922"/>
      <use xlink:href="#DejaVuSans-6e" x="200.048828"/>
      <use xlink:href="#DejaVuSans-74" x="263.427734"/>
      <use xlink:href="#DejaVuSans-75" x="302.636719"/>
      <use xlink:href="#DejaVuSans-20" x="366.015625"/>
      <use xlink:href="#DejaVuSans-4f" x="397.802734"/>
      <use xlink:href="#DejaVuSans-70" x="476.513672"/>
      <use xlink:href="#DejaVuSans-65" x="539.990234"/>
      <use xlink:href="#DejaVuSans-6e" x="601.513672"/>
      <use xlink:href="#DejaVuSans-4d" x="664.892578"/>
      <use xlink:href="#DejaVuSans-50" x="751.171875"/>
      <use xlink:href="#DejaVuSans-49" x="811.474609"/>
     </g>
    </g>
    <g id="patch_82">
     <path d="M 467.316 119.318281 
L 489.316 119.318281 
L 489.316 111.618281 
L 467.316 111.618281 
z
" style="fill: #622576; stroke: #ffffff; stroke-linejoin: miter"/>
    </g>
    <g id="text_20">
     <!-- Ubuntu OpenMPI eBPF Multiple -->
     <g style="fill: #262626" transform="translate(498.116 119.318281) scale(0.11 -0.11)">
      <use xlink:href="#DejaVuSans-55"/>
      <use xlink:href="#DejaVuSans-62" x="73.193359"/>
      <use xlink:href="#DejaVuSans-75" x="136.669922"/>
      <use xlink:href="#DejaVuSans-6e" x="200.048828"/>
      <use xlink:href="#DejaVuSans-74" x="263.427734"/>
      <use xlink:href="#DejaVuSans-75" x="302.636719"/>
      <use xlink:href="#DejaVuSans-20" x="366.015625"/>
      <use xlink:href="#DejaVuSans-4f" x="397.802734"/>
      <use xlink:href="#DejaVuSans-70" x="476.513672"/>
      <use xlink:href="#DejaVuSans-65" x="539.990234"/>
      <use xlink:href="#DejaVuSans-6e" x="601.513672"/>
      <use xlink:href="#DejaVuSans-4d" x="664.892578"/>
      <use xlink:href="#DejaVuSans-50" x="751.171875"/>
      <use xlink:href="#DejaVuSans-49" x="811.474609"/>
      <use xlink:href="#DejaVuSans-20" x="840.966797"/>
      <use xlink:href="#DejaVuSans-65" x="872.753906"/>
      <use xlink:href="#DejaVuSans-42" x="934.277344"/>
      <use xlink:href="#DejaVuSans-50" x="1002.880859"/>
      <use xlink:href="#DejaVuSans-46" x="1063.183594"/>
      <use xlink:href="#DejaVuSans-20" x="1120.703125"/>
      <use xlink:href="#DejaVuSans-4d" x="1152.490234"/>
      <use xlink:href="#DejaVuSans-75" x="1238.769531"/>
      <use xlink:href="#DejaVuSans-6c" x="1302.148438"/>
      <use xlink:href="#DejaVuSans-74" x="1329.931641"/>
      <use xlink:href="#DejaVuSans-69" x="1369.140625"/>
      <use xlink:href="#DejaVuSans-70" x="1396.923828"/>
      <use xlink:href="#DejaVuSans-6c" x="1460.400391"/>
      <use xlink:href="#DejaVuSans-65" x="1488.183594"/>
     </g>
    </g>
    <g id="patch_83">
     <path d="M 467.316 135.464219 
L 489.316 135.464219 
L 489.316 127.764219 
L 467.316 127.764219 
z
" style="fill: #c4d495; stroke: #ffffff; stroke-linejoin: miter"/>
    </g>
    <g id="text_21">
     <!-- Rocky OpenMPI eBPF Sample -->
     <g style="fill: #262626" transform="translate(498.116 135.464219) scale(0.11 -0.11)">
      <defs>
       <path id="DejaVuSans-52" d="M 2841 2188 
Q 3044 2119 3236 1894 
Q 3428 1669 3622 1275 
L 4263 0 
L 3584 0 
L 2988 1197 
Q 2756 1666 2539 1819 
Q 2322 1972 1947 1972 
L 1259 1972 
L 1259 0 
L 628 0 
L 628 4666 
L 2053 4666 
Q 2853 4666 3247 4331 
Q 3641 3997 3641 3322 
Q 3641 2881 3436 2590 
Q 3231 2300 2841 2188 
z
M 1259 4147 
L 1259 2491 
L 2053 2491 
Q 2509 2491 2742 2702 
Q 2975 2913 2975 3322 
Q 2975 3731 2742 3939 
Q 2509 4147 2053 4147 
L 1259 4147 
z
" transform="scale(0.015625)"/>
       <path id="DejaVuSans-6b" d="M 581 4863 
L 1159 4863 
L 1159 1991 
L 2875 3500 
L 3609 3500 
L 1753 1863 
L 3688 0 
L 2938 0 
L 1159 1709 
L 1159 0 
L 581 0 
L 581 4863 
z
" transform="scale(0.015625)"/>
       <path id="DejaVuSans-79" d="M 2059 -325 
Q 1816 -950 1584 -1140 
Q 1353 -1331 966 -1331 
L 506 -1331 
L 506 -850 
L 844 -850 
Q 1081 -850 1212 -737 
Q 1344 -625 1503 -206 
L 1606 56 
L 191 3500 
L 800 3500 
L 1894 763 
L 2988 3500 
L 3597 3500 
L 2059 -325 
z
" transform="scale(0.015625)"/>
      </defs>
      <use xlink:href="#DejaVuSans-52"/>
      <use xlink:href="#DejaVuSans-6f" x="64.982422"/>
      <use xlink:href="#DejaVuSans-63" x="126.164062"/>
      <use xlink:href="#DejaVuSans-6b" x="181.144531"/>
      <use xlink:href="#DejaVuSans-79" x="235.429688"/>
      <use xlink:href="#DejaVuSans-20" x="294.609375"/>
      <use xlink:href="#DejaVuSans-4f" x="326.396484"/>
      <use xlink:href="#DejaVuSans-70" x="405.107422"/>
      <use xlink:href="#DejaVuSans-65" x="468.583984"/>
      <use xlink:href="#DejaVuSans-6e" x="530.107422"/>
      <use xlink:href="#DejaVuSans-4d" x="593.486328"/>
      <use xlink:href="#DejaVuSans-50" x="679.765625"/>
      <use xlink:href="#DejaVuSans-49" x="740.068359"/>
      <use xlink:href="#DejaVuSans-20" x="769.560547"/>
      <use xlink:href="#DejaVuSans-65" x="801.347656"/>
      <use xlink:href="#DejaVuSans-42" x="862.871094"/>
      <use xlink:href="#DejaVuSans-50" x="931.474609"/>
      <use xlink:href="#DejaVuSans-46" x="991.777344"/>
      <use xlink:href="#DejaVuSans-20" x="1049.296875"/>
      <use xlink:href="#DejaVuSans-53" x="1081.083984"/>
      <use xlink:href="#DejaVuSans-61" x="1144.560547"/>
      <use xlink:href="#DejaVuSans-6d" x="1205.839844"/>
      <use xlink:href="#DejaVuSans-70" x="1303.251953"/>
      <use xlink:href="#DejaVuSans-6c" x="1366.728516"/>
      <use xlink:href="#DejaVuSans-65" x="1394.511719"/>
     </g>
    </g>
    <g id="patch_84">
     <path d="M 467.316 151.610156 
L 489.316 151.610156 
L 489.316 143.910156 
L 467.316 143.910156 
z
" style="fill: #7aa163; stroke: #ffffff; stroke-linejoin: miter"/>
    </g>
    <g id="text_22">
     <!-- Rocky OpenMPI -->
     <g style="fill: #262626" transform="translate(498.116 151.610156) scale(0.11 -0.11)">
      <use xlink:href="#DejaVuSans-52"/>
      <use xlink:href="#DejaVuSans-6f" x="64.982422"/>
      <use xlink:href="#DejaVuSans-63" x="126.164062"/>
      <use xlink:href="#DejaVuSans-6b" x="181.144531"/>
      <use xlink:href="#DejaVuSans-79" x="235.429688"/>
      <use xlink:href="#DejaVuSans-20" x="294.609375"/>
      <use xlink:href="#DejaVuSans-4f" x="326.396484"/>
      <use xlink:href="#DejaVuSans-70" x="405.107422"/>
      <use xlink:href="#DejaVuSans-65" x="468.583984"/>
      <use xlink:href="#DejaVuSans-6e" x="530.107422"/>
      <use xlink:href="#DejaVuSans-4d" x="593.486328"/>
      <use xlink:href="#DejaVuSans-50" x="679.765625"/>
      <use xlink:href="#DejaVuSans-49" x="740.068359"/>
     </g>
    </g>
    <g id="patch_85">
     <path d="M 467.316 167.756094 
L 489.316 167.756094 
L 489.316 160.056094 
L 467.316 160.056094 
z
" style="fill: #3e7637; stroke: #ffffff; stroke-linejoin: miter"/>
    </g>
    <g id="text_23">
     <!-- Rocky OpenMPI eBPF Multiple -->
     <g style="fill: #262626" transform="translate(498.116 167.756094) scale(0.11 -0.11)">
      <use xlink:href="#DejaVuSans-52"/>
      <use xlink:href="#DejaVuSans-6f" x="64.982422"/>
      <use xlink:href="#DejaVuSans-63" x="126.164062"/>
      <use xlink:href="#DejaVuSans-6b" x="181.144531"/>
      <use xlink:href="#DejaVuSans-79" x="235.429688"/>
      <use xlink:href="#DejaVuSans-20" x="294.609375"/>
      <use xlink:href="#DejaVuSans-4f" x="326.396484"/>
      <use xlink:href="#DejaVuSans-70" x="405.107422"/>
      <use xlink:href="#DejaVuSans-65" x="468.583984"/>
      <use xlink:href="#DejaVuSans-6e" x="530.107422"/>
      <use xlink:href="#DejaVuSans-4d" x="593.486328"/>
      <use xlink:href="#DejaVuSans-50" x="679.765625"/>
      <use xlink:href="#DejaVuSans-49" x="740.068359"/>
      <use xlink:href="#DejaVuSans-20" x="769.560547"/>
      <use xlink:href="#DejaVuSans-65" x="801.347656"/>
      <use xlink:href="#DejaVuSans-42" x="862.871094"/>
      <use xlink:href="#DejaVuSans-50" x="931.474609"/>
      <use xlink:href="#DejaVuSans-46" x="991.777344"/>
      <use xlink:href="#DejaVuSans-20" x="1049.296875"/>
      <use xlink:href="#DejaVuSans-4d" x="1081.083984"/>
      <use xlink:href="#DejaVuSans-75" x="1167.363281"/>
      <use xlink:href="#DejaVuSans-6c" x="1230.742188"/>
      <use xlink:href="#DejaVuSans-74" x="1258.525391"/>
      <use xlink:href="#DejaVuSans-69" x="1297.734375"/>
      <use xlink:href="#DejaVuSans-70" x="1325.517578"/>
      <use xlink:href="#DejaVuSans-6c" x="1388.994141"/>
      <use xlink:href="#DejaVuSans-65" x="1416.777344"/>
     </g>
    </g>
    <g id="patch_86">
     <path d="M 467.316 183.902031 
L 489.316 183.902031 
L 489.316 176.202031 
L 467.316 176.202031 
z
" style="fill: #8a404f; stroke: #ffffff; stroke-linejoin: miter"/>
    </g>
    <g id="text_24">
     <!-- Ubuntu OpenMPI GPU -->
     <g style="fill: #262626" transform="translate(498.116 183.902031) scale(0.11 -0.11)">
      <defs>
       <path id="DejaVuSans-47" d="M 3809 666 
L 3809 1919 
L 2778 1919 
L 2778 2438 
L 4434 2438 
L 4434 434 
Q 4069 175 3628 42 
Q 3188 -91 2688 -91 
Q 1594 -91 976 548 
Q 359 1188 359 2328 
Q 359 3472 976 4111 
Q 1594 4750 2688 4750 
Q 3144 4750 3555 4637 
Q 3966 4525 4313 4306 
L 4313 3634 
Q 3963 3931 3569 4081 
Q 3175 4231 2741 4231 
Q 1884 4231 1454 3753 
Q 1025 3275 1025 2328 
Q 1025 1384 1454 906 
Q 1884 428 2741 428 
Q 3075 428 3337 486 
Q 3600 544 3809 666 
z
" transform="scale(0.015625)"/>
      </defs>
      <use xlink:href="#DejaVuSans-55"/>
      <use xlink:href="#DejaVuSans-62" x="73.193359"/>
      <use xlink:href="#DejaVuSans-75" x="136.669922"/>
      <use xlink:href="#DejaVuSans-6e" x="200.048828"/>
      <use xlink:href="#DejaVuSans-74" x="263.427734"/>
      <use xlink:href="#DejaVuSans-75" x="302.636719"/>
      <use xlink:href="#DejaVuSans-20" x="366.015625"/>
      <use xlink:href="#DejaVuSans-4f" x="397.802734"/>
      <use xlink:href="#DejaVuSans-70" x="476.513672"/>
      <use xlink:href="#DejaVuSans-65" x="539.990234"/>
      <use xlink:href="#DejaVuSans-6e" x="601.513672"/>
      <use xlink:href="#DejaVuSans-4d" x="664.892578"/>
      <use xlink:href="#DejaVuSans-50" x="751.171875"/>
      <use xlink:href="#DejaVuSans-49" x="811.474609"/>
      <use xlink:href="#DejaVuSans-20" x="840.966797"/>
      <use xlink:href="#DejaVuSans-47" x="872.753906"/>
      <use xlink:href="#DejaVuSans-50" x="950.244141"/>
      <use xlink:href="#DejaVuSans-55" x="1010.546875"/>
     </g>
    </g>
   </g>
  </g>
 </g>
 <defs>
  <clipPath id="p3daa49e1be">
   <rect x="54.18" y="29.76" width="398.807273" height="156.9"/>
  </clipPath>
 </defs>
</svg>
