<?xml version="1.0" encoding="utf-8" standalone="no"?>
<!DOCTYPE svg PUBLIC "-//W3C//DTD SVG 1.1//EN"
  "http://www.w3.org/Graphics/SVG/1.1/DTD/svg11.dtd">
<svg xmlns:xlink="http://www.w3.org/1999/xlink" width="720pt" height="237.6pt" viewBox="0 0 720 237.6" xmlns="http://www.w3.org/2000/svg" version="1.1">
 <metadata>
  <rdf:RDF xmlns:dc="http://purl.org/dc/elements/1.1/" xmlns:cc="http://creativecommons.org/ns#" xmlns:rdf="http://www.w3.org/1999/02/22-rdf-syntax-ns#">
   <cc:Work>
    <dc:type rdf:resource="http://purl.org/dc/dcmitype/StillImage"/>
    <dc:date>2025-05-19T23:44:39.011188</dc:date>
    <dc:format>image/svg+xml</dc:format>
    <dc:creator>
     <cc:Agent>
      <dc:title>Matplotlib v3.8.4, https://matplotlib.org/</dc:title>
     </cc:Agent>
    </dc:creator>
   </cc:Work>
  </rdf:RDF>
 </metadata>
 <defs>
  <style type="text/css">*{stroke-linejoin: round; stroke-linecap: butt}</style>
 </defs>
 <g id="figure_1">
  <g id="patch_1">
   <path d="M 0 237.6 
L 720 237.6 
L 720 0 
L 0 0 
z
" style="fill: #ffffff"/>
  </g>
  <g id="axes_1">
   <g id="patch_2">
    <path d="M 54.18 186.66 
L 452.987273 186.66 
L 452.987273 29.76 
L 54.18 29.76 
z
" style="fill: #ffffff"/>
   </g>
   <g id="matplotlib.axis_1">
    <g id="xtick_1">
     <g id="text_1">
      <!-- 4 -->
      <g style="fill: #262626" transform="translate(83.914564 204.518281) scale(0.11 -0.11)">
       <defs>
        <path id="DejaVuSans-34" d="M 2419 4116 
L 825 1625 
L 2419 1625 
L 2419 4116 
z
M 2253 4666 
L 3047 4666 
L 3047 1625 
L 3713 1625 
L 3713 1100 
L 3047 1100 
L 3047 0 
L 2419 0 
L 2419 1100 
L 313 1100 
L 313 1709 
L 2253 4666 
z
" transform="scale(0.015625)"/>
       </defs>
       <use xlink:href="#DejaVuSans-34"/>
      </g>
     </g>
    </g>
    <g id="xtick_2">
     <g id="text_2">
      <!-- 8 -->
      <g style="fill: #262626" transform="translate(150.382443 204.518281) scale(0.11 -0.11)">
       <defs>
        <path id="DejaVuSans-38" d="M 2034 2216 
Q 1584 2216 1326 1975 
Q 1069 1734 1069 1313 
Q 1069 891 1326 650 
Q 1584 409 2034 409 
Q 2484 409 2743 651 
Q 3003 894 3003 1313 
Q 3003 1734 2745 1975 
Q 2488 2216 2034 2216 
z
M 1403 2484 
Q 997 2584 770 2862 
Q 544 3141 544 3541 
Q 544 4100 942 4425 
Q 1341 4750 2034 4750 
Q 2731 4750 3128 4425 
Q 3525 4100 3525 3541 
Q 3525 3141 3298 2862 
Q 3072 2584 2669 2484 
Q 3125 2378 3379 2068 
Q 3634 1759 3634 1313 
Q 3634 634 3220 271 
Q 2806 -91 2034 -91 
Q 1263 -91 848 271 
Q 434 634 434 1313 
Q 434 1759 690 2068 
Q 947 2378 1403 2484 
z
M 1172 3481 
Q 1172 3119 1398 2916 
Q 1625 2713 2034 2713 
Q 2441 2713 2670 2916 
Q 2900 3119 2900 3481 
Q 2900 3844 2670 4047 
Q 2441 4250 2034 4250 
Q 1625 4250 1398 4047 
Q 1172 3844 1172 3481 
z
" transform="scale(0.015625)"/>
       </defs>
       <use xlink:href="#DejaVuSans-38"/>
      </g>
     </g>
    </g>
    <g id="xtick_3">
     <g id="text_3">
      <!-- 16 -->
      <g style="fill: #262626" transform="translate(213.350947 204.518281) scale(0.11 -0.11)">
       <defs>
        <path id="DejaVuSans-31" d="M 794 531 
L 1825 531 
L 1825 4091 
L 703 3866 
L 703 4441 
L 1819 4666 
L 2450 4666 
L 2450 531 
L 3481 531 
L 3481 0 
L 794 0 
L 794 531 
z
" transform="scale(0.015625)"/>
        <path id="DejaVuSans-36" d="M 2113 2584 
Q 1688 2584 1439 2293 
Q 1191 2003 1191 1497 
Q 1191 994 1439 701 
Q 1688 409 2113 409 
Q 2538 409 2786 701 
Q 3034 994 3034 1497 
Q 3034 2003 2786 2293 
Q 2538 2584 2113 2584 
z
M 3366 4563 
L 3366 3988 
Q 3128 4100 2886 4159 
Q 2644 4219 2406 4219 
Q 1781 4219 1451 3797 
Q 1122 3375 1075 2522 
Q 1259 2794 1537 2939 
Q 1816 3084 2150 3084 
Q 2853 3084 3261 2657 
Q 3669 2231 3669 1497 
Q 3669 778 3244 343 
Q 2819 -91 2113 -91 
Q 1303 -91 875 529 
Q 447 1150 447 2328 
Q 447 3434 972 4092 
Q 1497 4750 2381 4750 
Q 2619 4750 2861 4703 
Q 3103 4656 3366 4563 
z
" transform="scale(0.015625)"/>
       </defs>
       <use xlink:href="#DejaVuSans-31"/>
       <use xlink:href="#DejaVuSans-36" x="63.623047"/>
      </g>
     </g>
    </g>
    <g id="xtick_4">
     <g id="text_4">
      <!-- 32 -->
      <g style="fill: #262626" transform="translate(279.818826 204.518281) scale(0.11 -0.11)">
       <defs>
        <path id="DejaVuSans-33" d="M 2597 2516 
Q 3050 2419 3304 2112 
Q 3559 1806 3559 1356 
Q 3559 666 3084 287 
Q 2609 -91 1734 -91 
Q 1441 -91 1130 -33 
Q 819 25 488 141 
L 488 750 
Q 750 597 1062 519 
Q 1375 441 1716 441 
Q 2309 441 2620 675 
Q 2931 909 2931 1356 
Q 2931 1769 2642 2001 
Q 2353 2234 1838 2234 
L 1294 2234 
L 1294 2753 
L 1863 2753 
Q 2328 2753 2575 2939 
Q 2822 3125 2822 3475 
Q 2822 3834 2567 4026 
Q 2313 4219 1838 4219 
Q 1578 4219 1281 4162 
Q 984 4106 628 3988 
L 628 4550 
Q 988 4650 1302 4700 
Q 1616 4750 1894 4750 
Q 2613 4750 3031 4423 
Q 3450 4097 3450 3541 
Q 3450 3153 3228 2886 
Q 3006 2619 2597 2516 
z
" transform="scale(0.015625)"/>
        <path id="DejaVuSans-32" d="M 1228 531 
L 3431 531 
L 3431 0 
L 469 0 
L 469 531 
Q 828 903 1448 1529 
Q 2069 2156 2228 2338 
Q 2531 2678 2651 2914 
Q 2772 3150 2772 3378 
Q 2772 3750 2511 3984 
Q 2250 4219 1831 4219 
Q 1534 4219 1204 4116 
Q 875 4013 500 3803 
L 500 4441 
Q 881 4594 1212 4672 
Q 1544 4750 1819 4750 
Q 2544 4750 2975 4387 
Q 3406 4025 3406 3419 
Q 3406 3131 3298 2873 
Q 3191 2616 2906 2266 
Q 2828 2175 2409 1742 
Q 1991 1309 1228 531 
z
" transform="scale(0.015625)"/>
       </defs>
       <use xlink:href="#DejaVuSans-33"/>
       <use xlink:href="#DejaVuSans-32" x="63.623047"/>
      </g>
     </g>
    </g>
    <g id="xtick_5">
     <g id="text_5">
      <!-- 64 -->
      <g style="fill: #262626" transform="translate(346.286705 204.518281) scale(0.11 -0.11)">
       <use xlink:href="#DejaVuSans-36"/>
       <use xlink:href="#DejaVuSans-34" x="63.623047"/>
      </g>
     </g>
    </g>
    <g id="xtick_6">
     <g id="text_6">
      <!-- 128 -->
      <g style="fill: #262626" transform="translate(409.255208 204.518281) scale(0.11 -0.11)">
       <use xlink:href="#DejaVuSans-31"/>
       <use xlink:href="#DejaVuSans-32" x="63.623047"/>
       <use xlink:href="#DejaVuSans-38" x="127.246094"/>
      </g>
     </g>
    </g>
    <g id="text_7">
     <!-- Nodes -->
     <g style="fill: #262626" transform="translate(231.66598 221.44375) scale(0.14 -0.14)">
      <defs>
       <path id="DejaVuSans-4e" d="M 628 4666 
L 1478 4666 
L 3547 763 
L 3547 4666 
L 4159 4666 
L 4159 0 
L 3309 0 
L 1241 3903 
L 1241 0 
L 628 0 
L 628 4666 
z
" transform="scale(0.015625)"/>
       <path id="DejaVuSans-6f" d="M 1959 3097 
Q 1497 3097 1228 2736 
Q 959 2375 959 1747 
Q 959 1119 1226 758 
Q 1494 397 1959 397 
Q 2419 397 2687 759 
Q 2956 1122 2956 1747 
Q 2956 2369 2687 2733 
Q 2419 3097 1959 3097 
z
M 1959 3584 
Q 2709 3584 3137 3096 
Q 3566 2609 3566 1747 
Q 3566 888 3137 398 
Q 2709 -91 1959 -91 
Q 1206 -91 779 398 
Q 353 888 353 1747 
Q 353 2609 779 3096 
Q 1206 3584 1959 3584 
z
" transform="scale(0.015625)"/>
       <path id="DejaVuSans-64" d="M 2906 2969 
L 2906 4863 
L 3481 4863 
L 3481 0 
L 2906 0 
L 2906 525 
Q 2725 213 2448 61 
Q 2172 -91 1784 -91 
Q 1150 -91 751 415 
Q 353 922 353 1747 
Q 353 2572 751 3078 
Q 1150 3584 1784 3584 
Q 2172 3584 2448 3432 
Q 2725 3281 2906 2969 
z
M 947 1747 
Q 947 1113 1208 752 
Q 1469 391 1925 391 
Q 2381 391 2643 752 
Q 2906 1113 2906 1747 
Q 2906 2381 2643 2742 
Q 2381 3103 1925 3103 
Q 1469 3103 1208 2742 
Q 947 2381 947 1747 
z
" transform="scale(0.015625)"/>
       <path id="DejaVuSans-65" d="M 3597 1894 
L 3597 1613 
L 953 1613 
Q 991 1019 1311 708 
Q 1631 397 2203 397 
Q 2534 397 2845 478 
Q 3156 559 3463 722 
L 3463 178 
Q 3153 47 2828 -22 
Q 2503 -91 2169 -91 
Q 1331 -91 842 396 
Q 353 884 353 1716 
Q 353 2575 817 3079 
Q 1281 3584 2069 3584 
Q 2775 3584 3186 3129 
Q 3597 2675 3597 1894 
z
M 3022 2063 
Q 3016 2534 2758 2815 
Q 2500 3097 2075 3097 
Q 1594 3097 1305 2825 
Q 1016 2553 972 2059 
L 3022 2063 
z
" transform="scale(0.015625)"/>
       <path id="DejaVuSans-73" d="M 2834 3397 
L 2834 2853 
Q 2591 2978 2328 3040 
Q 2066 3103 1784 3103 
Q 1356 3103 1142 2972 
Q 928 2841 928 2578 
Q 928 2378 1081 2264 
Q 1234 2150 1697 2047 
L 1894 2003 
Q 2506 1872 2764 1633 
Q 3022 1394 3022 966 
Q 3022 478 2636 193 
Q 2250 -91 1575 -91 
Q 1294 -91 989 -36 
Q 684 19 347 128 
L 347 722 
Q 666 556 975 473 
Q 1284 391 1588 391 
Q 1994 391 2212 530 
Q 2431 669 2431 922 
Q 2431 1156 2273 1281 
Q 2116 1406 1581 1522 
L 1381 1569 
Q 847 1681 609 1914 
Q 372 2147 372 2553 
Q 372 3047 722 3315 
Q 1072 3584 1716 3584 
Q 2034 3584 2315 3537 
Q 2597 3491 2834 3397 
z
" transform="scale(0.015625)"/>
      </defs>
      <use xlink:href="#DejaVuSans-4e"/>
      <use xlink:href="#DejaVuSans-6f" x="74.804688"/>
      <use xlink:href="#DejaVuSans-64" x="135.986328"/>
      <use xlink:href="#DejaVuSans-65" x="199.462891"/>
      <use xlink:href="#DejaVuSans-73" x="260.986328"/>
     </g>
    </g>
   </g>
   <g id="matplotlib.axis_2">
    <g id="ytick_1">
     <g id="line2d_1">
      <path d="M 54.18 186.66 
L 452.987273 186.66 
" clip-path="url(#p5b78845f12)" style="fill: none; stroke: #cccccc; stroke-linecap: round"/>
     </g>
     <g id="text_8">
      <!-- 0 -->
      <g style="fill: #262626" transform="translate(37.68125 190.839141) scale(0.11 -0.11)">
       <defs>
        <path id="DejaVuSans-30" d="M 2034 4250 
Q 1547 4250 1301 3770 
Q 1056 3291 1056 2328 
Q 1056 1369 1301 889 
Q 1547 409 2034 409 
Q 2525 409 2770 889 
Q 3016 1369 3016 2328 
Q 3016 3291 2770 3770 
Q 2525 4250 2034 4250 
z
M 2034 4750 
Q 2819 4750 3233 4129 
Q 3647 3509 3647 2328 
Q 3647 1150 3233 529 
Q 2819 -91 2034 -91 
Q 1250 -91 836 529 
Q 422 1150 422 2328 
Q 422 3509 836 4129 
Q 1250 4750 2034 4750 
z
" transform="scale(0.015625)"/>
       </defs>
       <use xlink:href="#DejaVuSans-30"/>
      </g>
     </g>
    </g>
    <g id="ytick_2">
     <g id="line2d_2">
      <path d="M 54.18 151.350993 
L 452.987273 151.350993 
" clip-path="url(#p5b78845f12)" style="fill: none; stroke: #cccccc; stroke-linecap: round"/>
     </g>
     <g id="text_9">
      <!-- 10 -->
      <g style="fill: #262626" transform="translate(30.6825 155.530133) scale(0.11 -0.11)">
       <use xlink:href="#DejaVuSans-31"/>
       <use xlink:href="#DejaVuSans-30" x="63.623047"/>
      </g>
     </g>
    </g>
    <g id="ytick_3">
     <g id="line2d_3">
      <path d="M 54.18 116.041985 
L 452.987273 116.041985 
" clip-path="url(#p5b78845f12)" style="fill: none; stroke: #cccccc; stroke-linecap: round"/>
     </g>
     <g id="text_10">
      <!-- 20 -->
      <g style="fill: #262626" transform="translate(30.6825 120.221126) scale(0.11 -0.11)">
       <use xlink:href="#DejaVuSans-32"/>
       <use xlink:href="#DejaVuSans-30" x="63.623047"/>
      </g>
     </g>
    </g>
    <g id="ytick_4">
     <g id="line2d_4">
      <path d="M 54.18 80.732978 
L 452.987273 80.732978 
" clip-path="url(#p5b78845f12)" style="fill: none; stroke: #cccccc; stroke-linecap: round"/>
     </g>
     <g id="text_11">
      <!-- 30 -->
      <g style="fill: #262626" transform="translate(30.6825 84.912119) scale(0.11 -0.11)">
       <use xlink:href="#DejaVuSans-33"/>
       <use xlink:href="#DejaVuSans-30" x="63.623047"/>
      </g>
     </g>
    </g>
    <g id="ytick_5">
     <g id="line2d_5">
      <path d="M 54.18 45.423971 
L 452.987273 45.423971 
" clip-path="url(#p5b78845f12)" style="fill: none; stroke: #cccccc; stroke-linecap: round"/>
     </g>
     <g id="text_12">
      <!-- 40 -->
      <g style="fill: #262626" transform="translate(30.6825 49.603111) scale(0.11 -0.11)">
       <use xlink:href="#DejaVuSans-34"/>
       <use xlink:href="#DejaVuSans-30" x="63.623047"/>
      </g>
     </g>
    </g>
    <g id="text_13">
     <!-- Seconds -->
     <g style="fill: #262626" transform="translate(23.770937 137.619844) rotate(-90) scale(0.14 -0.14)">
      <defs>
       <path id="DejaVuSans-53" d="M 3425 4513 
L 3425 3897 
Q 3066 4069 2747 4153 
Q 2428 4238 2131 4238 
Q 1616 4238 1336 4038 
Q 1056 3838 1056 3469 
Q 1056 3159 1242 3001 
Q 1428 2844 1947 2747 
L 2328 2669 
Q 3034 2534 3370 2195 
Q 3706 1856 3706 1288 
Q 3706 609 3251 259 
Q 2797 -91 1919 -91 
Q 1588 -91 1214 -16 
Q 841 59 441 206 
L 441 856 
Q 825 641 1194 531 
Q 1563 422 1919 422 
Q 2459 422 2753 634 
Q 3047 847 3047 1241 
Q 3047 1584 2836 1778 
Q 2625 1972 2144 2069 
L 1759 2144 
Q 1053 2284 737 2584 
Q 422 2884 422 3419 
Q 422 4038 858 4394 
Q 1294 4750 2059 4750 
Q 2388 4750 2728 4690 
Q 3069 4631 3425 4513 
z
" transform="scale(0.015625)"/>
       <path id="DejaVuSans-63" d="M 3122 3366 
L 3122 2828 
Q 2878 2963 2633 3030 
Q 2388 3097 2138 3097 
Q 1578 3097 1268 2742 
Q 959 2388 959 1747 
Q 959 1106 1268 751 
Q 1578 397 2138 397 
Q 2388 397 2633 464 
Q 2878 531 3122 666 
L 3122 134 
Q 2881 22 2623 -34 
Q 2366 -91 2075 -91 
Q 1284 -91 818 406 
Q 353 903 353 1747 
Q 353 2603 823 3093 
Q 1294 3584 2113 3584 
Q 2378 3584 2631 3529 
Q 2884 3475 3122 3366 
z
" transform="scale(0.015625)"/>
       <path id="DejaVuSans-6e" d="M 3513 2113 
L 3513 0 
L 2938 0 
L 2938 2094 
Q 2938 2591 2744 2837 
Q 2550 3084 2163 3084 
Q 1697 3084 1428 2787 
Q 1159 2491 1159 1978 
L 1159 0 
L 581 0 
L 581 3500 
L 1159 3500 
L 1159 2956 
Q 1366 3272 1645 3428 
Q 1925 3584 2291 3584 
Q 2894 3584 3203 3211 
Q 3513 2838 3513 2113 
z
" transform="scale(0.015625)"/>
      </defs>
      <use xlink:href="#DejaVuSans-53"/>
      <use xlink:href="#DejaVuSans-65" x="63.476562"/>
      <use xlink:href="#DejaVuSans-63" x="125"/>
      <use xlink:href="#DejaVuSans-6f" x="179.980469"/>
      <use xlink:href="#DejaVuSans-6e" x="241.162109"/>
      <use xlink:href="#DejaVuSans-64" x="304.541016"/>
      <use xlink:href="#DejaVuSans-73" x="368.017578"/>
     </g>
    </g>
   </g>
   <g id="patch_3">
    <path d="M 60.826788 186.66 
L 65.660815 186.66 
L 65.660815 174.223674 
L 60.826788 174.223674 
z
" clip-path="url(#p5b78845f12)" style="fill: #759adc; stroke: #ffffff; stroke-linejoin: miter"/>
   </g>
   <g id="patch_4">
    <path d="M 127.294667 186.66 
L 132.128694 186.66 
L 132.128694 173.808326 
L 127.294667 173.808326 
z
" clip-path="url(#p5b78845f12)" style="fill: #759adc; stroke: #ffffff; stroke-linejoin: miter"/>
   </g>
   <g id="patch_5">
    <path d="M 193.762545 186.66 
L 198.596573 186.66 
L 198.596573 171.098202 
L 193.762545 171.098202 
z
" clip-path="url(#p5b78845f12)" style="fill: #759adc; stroke: #ffffff; stroke-linejoin: miter"/>
   </g>
   <g id="patch_6">
    <path d="M 260.230424 186.66 
L 265.064452 186.66 
L 265.064452 164.292967 
L 260.230424 164.292967 
z
" clip-path="url(#p5b78845f12)" style="fill: #759adc; stroke: #ffffff; stroke-linejoin: miter"/>
   </g>
   <g id="patch_7">
    <path d="M 326.698303 186.66 
L 331.532331 186.66 
L 331.532331 144.70053 
L 326.698303 144.70053 
z
" clip-path="url(#p5b78845f12)" style="fill: #759adc; stroke: #ffffff; stroke-linejoin: miter"/>
   </g>
   <g id="patch_8">
    <path d="M 393.166182 186.66 
L 398.000209 186.66 
L 398.000209 46.919848 
L 393.166182 46.919848 
z
" clip-path="url(#p5b78845f12)" style="fill: #759adc; stroke: #ffffff; stroke-linejoin: miter"/>
   </g>
   <g id="patch_9">
    <path d="M 65.660815 186.66 
L 70.494843 186.66 
L 70.494843 176.552266 
L 65.660815 176.552266 
z
" clip-path="url(#p5b78845f12)" style="fill: #7c8fa2; stroke: #ffffff; stroke-linejoin: miter"/>
   </g>
   <g id="patch_10">
    <path d="M 132.128694 186.66 
L 136.962722 186.66 
L 136.962722 174.949385 
L 132.128694 174.949385 
z
" clip-path="url(#p5b78845f12)" style="fill: #7c8fa2; stroke: #ffffff; stroke-linejoin: miter"/>
   </g>
   <g id="patch_11">
    <path d="M 198.596573 186.66 
L 203.430601 186.66 
L 203.430601 174.103935 
L 198.596573 174.103935 
z
" clip-path="url(#p5b78845f12)" style="fill: #7c8fa2; stroke: #ffffff; stroke-linejoin: miter"/>
   </g>
   <g id="patch_12">
    <path d="M 265.064452 186.66 
L 269.898479 186.66 
L 269.898479 166.063656 
L 265.064452 166.063656 
z
" clip-path="url(#p5b78845f12)" style="fill: #7c8fa2; stroke: #ffffff; stroke-linejoin: miter"/>
   </g>
   <g id="patch_13">
    <path d="M 331.532331 186.66 
L 336.366358 186.66 
L 336.366358 147.196853 
L 331.532331 147.196853 
z
" clip-path="url(#p5b78845f12)" style="fill: #7c8fa2; stroke: #ffffff; stroke-linejoin: miter"/>
   </g>
   <g id="patch_14">
    <path d="M 398.000209 186.66 
L 402.834237 186.66 
L 402.834237 57.073349 
L 398.000209 57.073349 
z
" clip-path="url(#p5b78845f12)" style="fill: #7c8fa2; stroke: #ffffff; stroke-linejoin: miter"/>
   </g>
   <g id="patch_15">
    <path d="M 70.494843 186.66 
L 75.328871 186.66 
L 75.328871 174.962604 
L 70.494843 174.962604 
z
" clip-path="url(#p5b78845f12)" style="fill: #154b96; stroke: #ffffff; stroke-linejoin: miter"/>
   </g>
   <g id="patch_16">
    <path d="M 136.962722 186.66 
L 141.796749 186.66 
L 141.796749 174.40912 
L 136.962722 174.40912 
z
" clip-path="url(#p5b78845f12)" style="fill: #154b96; stroke: #ffffff; stroke-linejoin: miter"/>
   </g>
   <g id="patch_17">
    <path d="M 203.430601 186.66 
L 208.264628 186.66 
L 208.264628 170.920112 
L 203.430601 170.920112 
z
" clip-path="url(#p5b78845f12)" style="fill: #154b96; stroke: #ffffff; stroke-linejoin: miter"/>
   </g>
   <g id="patch_18">
    <path d="M 269.898479 186.66 
L 274.732507 186.66 
L 274.732507 163.199072 
L 269.898479 163.199072 
z
" clip-path="url(#p5b78845f12)" style="fill: #154b96; stroke: #ffffff; stroke-linejoin: miter"/>
   </g>
   <g id="patch_19">
    <path d="M 336.366358 186.66 
L 341.200386 186.66 
L 341.200386 142.797865 
L 336.366358 142.797865 
z
" clip-path="url(#p5b78845f12)" style="fill: #154b96; stroke: #ffffff; stroke-linejoin: miter"/>
   </g>
   <g id="patch_20">
    <path d="M 402.834237 186.66 
L 407.668264 186.66 
L 407.668264 45.938218 
L 402.834237 45.938218 
z
" clip-path="url(#p5b78845f12)" style="fill: #154b96; stroke: #ffffff; stroke-linejoin: miter"/>
   </g>
   <g id="patch_21">
    <path d="M 75.328871 186.66 
L 80.162898 186.66 
L 80.162898 170.640561 
L 75.328871 170.640561 
z
" clip-path="url(#p5b78845f12)" style="fill: #e0a7f2; stroke: #ffffff; stroke-linejoin: miter"/>
   </g>
   <g id="patch_22">
    <path d="M 141.796749 186.66 
L 146.630777 186.66 
L 146.630777 170.906552 
L 141.796749 170.906552 
z
" clip-path="url(#p5b78845f12)" style="fill: #e0a7f2; stroke: #ffffff; stroke-linejoin: miter"/>
   </g>
   <g id="patch_23">
    <path d="M 208.264628 186.66 
L 213.098656 186.66 
L 213.098656 167.409805 
L 208.264628 167.409805 
z
" clip-path="url(#p5b78845f12)" style="fill: #e0a7f2; stroke: #ffffff; stroke-linejoin: miter"/>
   </g>
   <g id="patch_24">
    <path d="M 274.732507 186.66 
L 279.566534 186.66 
L 279.566534 160.98942 
L 274.732507 160.98942 
z
" clip-path="url(#p5b78845f12)" style="fill: #e0a7f2; stroke: #ffffff; stroke-linejoin: miter"/>
   </g>
   <g id="patch_25">
    <path d="M 341.200386 186.66 
L 346.034413 186.66 
L 346.034413 139.994701 
L 341.200386 139.994701 
z
" clip-path="url(#p5b78845f12)" style="fill: #e0a7f2; stroke: #ffffff; stroke-linejoin: miter"/>
   </g>
   <g id="patch_26">
    <path d="M 407.668264 186.66 
L 412.502292 186.66 
L 412.502292 45.370457 
L 407.668264 45.370457 
z
" clip-path="url(#p5b78845f12)" style="fill: #e0a7f2; stroke: #ffffff; stroke-linejoin: miter"/>
   </g>
   <g id="patch_27">
    <path d="M 80.162898 186.66 
L 84.996926 186.66 
L 84.996926 173.290143 
L 80.162898 173.290143 
z
" clip-path="url(#p5b78845f12)" style="fill: #a859c1; stroke: #ffffff; stroke-linejoin: miter"/>
   </g>
   <g id="patch_28">
    <path d="M 146.630777 186.66 
L 151.464804 186.66 
L 151.464804 171.7652 
L 146.630777 171.7652 
z
" clip-path="url(#p5b78845f12)" style="fill: #a859c1; stroke: #ffffff; stroke-linejoin: miter"/>
   </g>
   <g id="patch_29">
    <path d="M 213.098656 186.66 
L 217.932683 186.66 
L 217.932683 169.349344 
L 213.098656 169.349344 
z
" clip-path="url(#p5b78845f12)" style="fill: #a859c1; stroke: #ffffff; stroke-linejoin: miter"/>
   </g>
   <g id="patch_30">
    <path d="M 279.566534 186.66 
L 284.400562 186.66 
L 284.400562 163.68661 
L 279.566534 163.68661 
z
" clip-path="url(#p5b78845f12)" style="fill: #a859c1; stroke: #ffffff; stroke-linejoin: miter"/>
   </g>
   <g id="patch_31">
    <path d="M 346.034413 186.66 
L 350.868441 186.66 
L 350.868441 143.598812 
L 346.034413 143.598812 
z
" clip-path="url(#p5b78845f12)" style="fill: #a859c1; stroke: #ffffff; stroke-linejoin: miter"/>
   </g>
   <g id="patch_32">
    <path d="M 412.502292 186.66 
L 417.33632 186.66 
L 417.33632 53.657735 
L 412.502292 53.657735 
z
" clip-path="url(#p5b78845f12)" style="fill: #a859c1; stroke: #ffffff; stroke-linejoin: miter"/>
   </g>
   <g id="patch_33">
    <path d="M 84.996926 186.66 
L 89.830953 186.66 
L 89.830953 170.900753 
L 84.996926 170.900753 
z
" clip-path="url(#p5b78845f12)" style="fill: #622576; stroke: #ffffff; stroke-linejoin: miter"/>
   </g>
   <g id="patch_34">
    <path d="M 151.464804 186.66 
L 156.298832 186.66 
L 156.298832 170.489575 
L 151.464804 170.489575 
z
" clip-path="url(#p5b78845f12)" style="fill: #622576; stroke: #ffffff; stroke-linejoin: miter"/>
   </g>
   <g id="patch_35">
    <path d="M 217.932683 186.66 
L 222.766711 186.66 
L 222.766711 167.911782 
L 217.932683 167.911782 
z
" clip-path="url(#p5b78845f12)" style="fill: #622576; stroke: #ffffff; stroke-linejoin: miter"/>
   </g>
   <g id="patch_36">
    <path d="M 284.400562 186.66 
L 289.23459 186.66 
L 289.23459 161.136441 
L 284.400562 161.136441 
z
" clip-path="url(#p5b78845f12)" style="fill: #622576; stroke: #ffffff; stroke-linejoin: miter"/>
   </g>
   <g id="patch_37">
    <path d="M 350.868441 186.66 
L 355.702468 186.66 
L 355.702468 141.094172 
L 350.868441 141.094172 
z
" clip-path="url(#p5b78845f12)" style="fill: #622576; stroke: #ffffff; stroke-linejoin: miter"/>
   </g>
   <g id="patch_38">
    <path d="M 417.33632 186.66 
L 422.170347 186.66 
L 422.170347 45.260051 
L 417.33632 45.260051 
z
" clip-path="url(#p5b78845f12)" style="fill: #622576; stroke: #ffffff; stroke-linejoin: miter"/>
   </g>
   <g id="patch_39">
    <path d="M 89.830953 186.66 
L 94.664981 186.66 
L 94.664981 176.927421 
L 89.830953 176.927421 
z
" clip-path="url(#p5b78845f12)" style="fill: #c4d495; stroke: #ffffff; stroke-linejoin: miter"/>
   </g>
   <g id="patch_40">
    <path d="M 156.298832 186.66 
L 161.13286 186.66 
L 161.13286 175.755063 
L 156.298832 175.755063 
z
" clip-path="url(#p5b78845f12)" style="fill: #c4d495; stroke: #ffffff; stroke-linejoin: miter"/>
   </g>
   <g id="patch_41">
    <path d="M 222.766711 186.66 
L 227.600738 186.66 
L 227.600738 172.34297 
L 222.766711 172.34297 
z
" clip-path="url(#p5b78845f12)" style="fill: #c4d495; stroke: #ffffff; stroke-linejoin: miter"/>
   </g>
   <g id="patch_42">
    <path d="M 289.23459 186.66 
L 294.068617 186.66 
L 294.068617 164.287582 
L 289.23459 164.287582 
z
" clip-path="url(#p5b78845f12)" style="fill: #c4d495; stroke: #ffffff; stroke-linejoin: miter"/>
   </g>
   <g id="patch_43">
    <path d="M 355.702468 186.66 
L 360.536496 186.66 
L 360.536496 143.141507 
L 355.702468 143.141507 
z
" clip-path="url(#p5b78845f12)" style="fill: #c4d495; stroke: #ffffff; stroke-linejoin: miter"/>
   </g>
   <g id="patch_44">
    <path d="M 422.170347 186.66 
L 427.004375 186.66 
L 427.004375 38.845792 
L 422.170347 38.845792 
z
" clip-path="url(#p5b78845f12)" style="fill: #c4d495; stroke: #ffffff; stroke-linejoin: miter"/>
   </g>
   <g id="patch_45">
    <path d="M 94.664981 186.66 
L 99.499008 186.66 
L 99.499008 177.649563 
L 94.664981 177.649563 
z
" clip-path="url(#p5b78845f12)" style="fill: #7aa163; stroke: #ffffff; stroke-linejoin: miter"/>
   </g>
   <g id="patch_46">
    <path d="M 161.13286 186.66 
L 165.966887 186.66 
L 165.966887 176.524439 
L 161.13286 176.524439 
z
" clip-path="url(#p5b78845f12)" style="fill: #7aa163; stroke: #ffffff; stroke-linejoin: miter"/>
   </g>
   <g id="patch_47">
    <path d="M 227.600738 186.66 
L 232.434766 186.66 
L 232.434766 174.409516 
L 227.600738 174.409516 
z
" clip-path="url(#p5b78845f12)" style="fill: #7aa163; stroke: #ffffff; stroke-linejoin: miter"/>
   </g>
   <g id="patch_48">
    <path d="M 294.068617 186.66 
L 298.902645 186.66 
L 298.902645 166.893608 
L 294.068617 166.893608 
z
" clip-path="url(#p5b78845f12)" style="fill: #7aa163; stroke: #ffffff; stroke-linejoin: miter"/>
   </g>
   <g id="patch_49">
    <path d="M 360.536496 186.66 
L 365.370523 186.66 
L 365.370523 145.262786 
L 360.536496 145.262786 
z
" clip-path="url(#p5b78845f12)" style="fill: #7aa163; stroke: #ffffff; stroke-linejoin: miter"/>
   </g>
   <g id="patch_50">
    <path d="M 427.004375 186.66 
L 431.838402 186.66 
L 431.838402 43.388708 
L 427.004375 43.388708 
z
" clip-path="url(#p5b78845f12)" style="fill: #7aa163; stroke: #ffffff; stroke-linejoin: miter"/>
   </g>
   <g id="patch_51">
    <path d="M 99.499008 186.66 
L 104.333036 186.66 
L 104.333036 178.007213 
L 99.499008 178.007213 
z
" clip-path="url(#p5b78845f12)" style="fill: #3e7637; stroke: #ffffff; stroke-linejoin: miter"/>
   </g>
   <g id="patch_52">
    <path d="M 165.966887 186.66 
L 170.800915 186.66 
L 170.800915 175.344011 
L 165.966887 175.344011 
z
" clip-path="url(#p5b78845f12)" style="fill: #3e7637; stroke: #ffffff; stroke-linejoin: miter"/>
   </g>
   <g id="patch_53">
    <path d="M 232.434766 186.66 
L 237.268793 186.66 
L 237.268793 172.794852 
L 232.434766 172.794852 
z
" clip-path="url(#p5b78845f12)" style="fill: #3e7637; stroke: #ffffff; stroke-linejoin: miter"/>
   </g>
   <g id="patch_54">
    <path d="M 298.902645 186.66 
L 303.736672 186.66 
L 303.736672 165.567911 
L 298.902645 165.567911 
z
" clip-path="url(#p5b78845f12)" style="fill: #3e7637; stroke: #ffffff; stroke-linejoin: miter"/>
   </g>
   <g id="patch_55">
    <path d="M 365.370523 186.66 
L 370.204551 186.66 
L 370.204551 142.230643 
L 365.370523 142.230643 
z
" clip-path="url(#p5b78845f12)" style="fill: #3e7637; stroke: #ffffff; stroke-linejoin: miter"/>
   </g>
   <g id="patch_56">
    <path d="M 431.838402 186.66 
L 436.67243 186.66 
L 436.67243 41.880268 
L 431.838402 41.880268 
z
" clip-path="url(#p5b78845f12)" style="fill: #3e7637; stroke: #ffffff; stroke-linejoin: miter"/>
   </g>
   <g id="patch_57">
    <path d="M 104.333036 186.66 
L 109.167063 186.66 
L 109.167063 180.808944 
L 104.333036 180.808944 
z
" clip-path="url(#p5b78845f12)" style="fill: #eb7074; stroke: #ffffff; stroke-linejoin: miter"/>
   </g>
   <g id="patch_58">
    <path d="M 170.800915 186.66 
L 175.634942 186.66 
L 175.634942 180.462092 
L 170.800915 180.462092 
z
" clip-path="url(#p5b78845f12)" style="fill: #eb7074; stroke: #ffffff; stroke-linejoin: miter"/>
   </g>
   <g id="patch_59">
    <path d="M 237.268793 186.66 
L 242.102821 186.66 
L 242.102821 180.296455 
L 237.268793 180.296455 
z
" clip-path="url(#p5b78845f12)" style="fill: #eb7074; stroke: #ffffff; stroke-linejoin: miter"/>
   </g>
   <g id="patch_60">
    <path d="M 303.736672 186.66 
L 308.5707 186.66 
L 308.5707 179.902167 
L 303.736672 179.902167 
z
" clip-path="url(#p5b78845f12)" style="fill: #eb7074; stroke: #ffffff; stroke-linejoin: miter"/>
   </g>
   <g id="patch_61">
    <path d="M 370.204551 186.66 
L 375.038579 186.66 
L 375.038579 179.820518 
L 370.204551 179.820518 
z
" clip-path="url(#p5b78845f12)" style="fill: #eb7074; stroke: #ffffff; stroke-linejoin: miter"/>
   </g>
   <g id="patch_62">
    <path d="M 109.167063 186.66 
L 114.001091 186.66 
L 114.001091 180.42933 
L 109.167063 180.42933 
z
" clip-path="url(#p5b78845f12)" style="fill: #8a404f; stroke: #ffffff; stroke-linejoin: miter"/>
   </g>
   <g id="patch_63">
    <path d="M 175.634942 186.66 
L 180.46897 186.66 
L 180.46897 180.600785 
L 175.634942 180.600785 
z
" clip-path="url(#p5b78845f12)" style="fill: #8a404f; stroke: #ffffff; stroke-linejoin: miter"/>
   </g>
   <g id="patch_64">
    <path d="M 242.102821 186.66 
L 246.936848 186.66 
L 246.936848 180.395732 
L 242.102821 180.395732 
z
" clip-path="url(#p5b78845f12)" style="fill: #8a404f; stroke: #ffffff; stroke-linejoin: miter"/>
   </g>
   <g id="patch_65">
    <path d="M 308.5707 186.66 
L 313.404727 186.66 
L 313.404727 180.270571 
L 308.5707 180.270571 
z
" clip-path="url(#p5b78845f12)" style="fill: #8a404f; stroke: #ffffff; stroke-linejoin: miter"/>
   </g>
   <g id="patch_66">
    <path d="M 375.038579 186.66 
L 379.872606 186.66 
L 379.872606 180.046089 
L 375.038579 180.046089 
z
" clip-path="url(#p5b78845f12)" style="fill: #8a404f; stroke: #ffffff; stroke-linejoin: miter"/>
   </g>
   <g id="patch_67">
    <path d="M 441.506457 186.66 
L 446.340485 186.66 
L 446.340485 179.315088 
L 441.506457 179.315088 
z
" clip-path="url(#p5b78845f12)" style="fill: #8a404f; stroke: #ffffff; stroke-linejoin: miter"/>
   </g>
   <g id="patch_68">
    <path d="M 87.413939 186.66 
L 87.413939 186.66 
L 87.413939 186.66 
L 87.413939 186.66 
z
" clip-path="url(#p5b78845f12)" style="fill: #759adc; stroke: #ffffff; stroke-linejoin: miter"/>
   </g>
   <g id="patch_69">
    <path d="M 87.413939 186.66 
L 87.413939 186.66 
L 87.413939 186.66 
L 87.413939 186.66 
z
" clip-path="url(#p5b78845f12)" style="fill: #7c8fa2; stroke: #ffffff; stroke-linejoin: miter"/>
   </g>
   <g id="patch_70">
    <path d="M 87.413939 186.66 
L 87.413939 186.66 
L 87.413939 186.66 
L 87.413939 186.66 
z
" clip-path="url(#p5b78845f12)" style="fill: #154b96; stroke: #ffffff; stroke-linejoin: miter"/>
   </g>
   <g id="patch_71">
    <path d="M 87.413939 186.66 
L 87.413939 186.66 
L 87.413939 186.66 
L 87.413939 186.66 
z
" clip-path="url(#p5b78845f12)" style="fill: #e0a7f2; stroke: #ffffff; stroke-linejoin: miter"/>
   </g>
   <g id="patch_72">
    <path d="M 87.413939 186.66 
L 87.413939 186.66 
L 87.413939 186.66 
L 87.413939 186.66 
z
" clip-path="url(#p5b78845f12)" style="fill: #a859c1; stroke: #ffffff; stroke-linejoin: miter"/>
   </g>
   <g id="patch_73">
    <path d="M 87.413939 186.66 
L 87.413939 186.66 
L 87.413939 186.66 
L 87.413939 186.66 
z
" clip-path="url(#p5b78845f12)" style="fill: #622576; stroke: #ffffff; stroke-linejoin: miter"/>
   </g>
   <g id="patch_74">
    <path d="M 87.413939 186.66 
L 87.413939 186.66 
L 87.413939 186.66 
L 87.413939 186.66 
z
" clip-path="url(#p5b78845f12)" style="fill: #c4d495; stroke: #ffffff; stroke-linejoin: miter"/>
   </g>
   <g id="patch_75">
    <path d="M 87.413939 186.66 
L 87.413939 186.66 
L 87.413939 186.66 
L 87.413939 186.66 
z
" clip-path="url(#p5b78845f12)" style="fill: #7aa163; stroke: #ffffff; stroke-linejoin: miter"/>
   </g>
   <g id="patch_76">
    <path d="M 87.413939 186.66 
L 87.413939 186.66 
L 87.413939 186.66 
L 87.413939 186.66 
z
" clip-path="url(#p5b78845f12)" style="fill: #3e7637; stroke: #ffffff; stroke-linejoin: miter"/>
   </g>
   <g id="patch_77">
    <path d="M 87.413939 186.66 
L 87.413939 186.66 
L 87.413939 186.66 
L 87.413939 186.66 
z
" clip-path="url(#p5b78845f12)" style="fill: #eb7074; stroke: #ffffff; stroke-linejoin: miter"/>
   </g>
   <g id="patch_78">
    <path d="M 87.413939 186.66 
L 87.413939 186.66 
L 87.413939 186.66 
L 87.413939 186.66 
z
" clip-path="url(#p5b78845f12)" style="fill: #8a404f; stroke: #ffffff; stroke-linejoin: miter"/>
   </g>
   <g id="line2d_6">
    <path d="M 63.243802 175.441225 
L 63.243802 173.460495 
" clip-path="url(#p5b78845f12)" style="fill: none; stroke: #8b0000; stroke-width: 2.25; stroke-linecap: round"/>
   </g>
   <g id="line2d_7">
    <path d="M 129.71168 174.395056 
L 129.71168 173.219963 
" clip-path="url(#p5b78845f12)" style="fill: none; stroke: #8b0000; stroke-width: 2.25; stroke-linecap: round"/>
   </g>
   <g id="line2d_8">
    <path d="M 196.179559 172.601642 
L 196.179559 170.077814 
" clip-path="url(#p5b78845f12)" style="fill: none; stroke: #8b0000; stroke-width: 2.25; stroke-linecap: round"/>
   </g>
   <g id="line2d_9">
    <path d="M 262.647438 166.592927 
L 262.647438 161.976951 
" clip-path="url(#p5b78845f12)" style="fill: none; stroke: #8b0000; stroke-width: 2.25; stroke-linecap: round"/>
   </g>
   <g id="line2d_10">
    <path d="M 329.115317 145.92509 
L 329.115317 142.832323 
" clip-path="url(#p5b78845f12)" style="fill: none; stroke: #8b0000; stroke-width: 2.25; stroke-linecap: round"/>
   </g>
   <g id="line2d_11">
    <path d="M 395.583196 49.956588 
L 395.583196 44.930437 
" clip-path="url(#p5b78845f12)" style="fill: none; stroke: #8b0000; stroke-width: 2.25; stroke-linecap: round"/>
   </g>
   <g id="line2d_12">
    <path d="M 68.077829 177.432254 
L 68.077829 175.753728 
" clip-path="url(#p5b78845f12)" style="fill: none; stroke: #8b0000; stroke-width: 2.25; stroke-linecap: round"/>
   </g>
   <g id="line2d_13">
    <path d="M 134.545708 175.655716 
L 134.545708 174.206248 
" clip-path="url(#p5b78845f12)" style="fill: none; stroke: #8b0000; stroke-width: 2.25; stroke-linecap: round"/>
   </g>
   <g id="line2d_14">
    <path d="M 201.013587 174.466861 
L 201.013587 173.766257 
" clip-path="url(#p5b78845f12)" style="fill: none; stroke: #8b0000; stroke-width: 2.25; stroke-linecap: round"/>
   </g>
   <g id="line2d_15">
    <path d="M 267.481466 167.005885 
L 267.481466 164.876481 
" clip-path="url(#p5b78845f12)" style="fill: none; stroke: #8b0000; stroke-width: 2.25; stroke-linecap: round"/>
   </g>
   <g id="line2d_16">
    <path d="M 333.949344 148.581496 
L 333.949344 145.731602 
" clip-path="url(#p5b78845f12)" style="fill: none; stroke: #8b0000; stroke-width: 2.25; stroke-linecap: round"/>
   </g>
   <g id="line2d_17">
    <path d="M 400.417223 57.959598 
L 400.417223 56.056045 
" clip-path="url(#p5b78845f12)" style="fill: none; stroke: #8b0000; stroke-width: 2.25; stroke-linecap: round"/>
   </g>
   <g id="line2d_18">
    <path d="M 72.911857 176.064204 
L 72.911857 174.134076 
" clip-path="url(#p5b78845f12)" style="fill: none; stroke: #8b0000; stroke-width: 2.25; stroke-linecap: round"/>
   </g>
   <g id="line2d_19">
    <path d="M 139.379736 174.792656 
L 139.379736 174.206372 
" clip-path="url(#p5b78845f12)" style="fill: none; stroke: #8b0000; stroke-width: 2.25; stroke-linecap: round"/>
   </g>
   <g id="line2d_20">
    <path d="M 205.847614 171.951303 
L 205.847614 170.168184 
" clip-path="url(#p5b78845f12)" style="fill: none; stroke: #8b0000; stroke-width: 2.25; stroke-linecap: round"/>
   </g>
   <g id="line2d_21">
    <path d="M 272.315493 163.849079 
L 272.315493 162.748471 
" clip-path="url(#p5b78845f12)" style="fill: none; stroke: #8b0000; stroke-width: 2.25; stroke-linecap: round"/>
   </g>
   <g id="line2d_22">
    <path d="M 338.783372 144.657351 
L 338.783372 141.435189 
" clip-path="url(#p5b78845f12)" style="fill: none; stroke: #8b0000; stroke-width: 2.25; stroke-linecap: round"/>
   </g>
   <g id="line2d_23">
    <path d="M 405.251251 46.817463 
L 405.251251 44.413142 
" clip-path="url(#p5b78845f12)" style="fill: none; stroke: #8b0000; stroke-width: 2.25; stroke-linecap: round"/>
   </g>
   <g id="line2d_24">
    <path d="M 77.745884 171.195966 
L 77.745884 170.142782 
" clip-path="url(#p5b78845f12)" style="fill: none; stroke: #8b0000; stroke-width: 2.25; stroke-linecap: round"/>
   </g>
   <g id="line2d_25">
    <path d="M 144.213763 172.455207 
L 144.213763 169.289733 
" clip-path="url(#p5b78845f12)" style="fill: none; stroke: #8b0000; stroke-width: 2.25; stroke-linecap: round"/>
   </g>
   <g id="line2d_26">
    <path d="M 210.681642 167.85422 
L 210.681642 166.850347 
" clip-path="url(#p5b78845f12)" style="fill: none; stroke: #8b0000; stroke-width: 2.25; stroke-linecap: round"/>
   </g>
   <g id="line2d_27">
    <path d="M 277.149521 161.979738 
L 277.149521 159.306481 
" clip-path="url(#p5b78845f12)" style="fill: none; stroke: #8b0000; stroke-width: 2.25; stroke-linecap: round"/>
   </g>
   <g id="line2d_28">
    <path d="M 343.617399 142.389735 
L 343.617399 137.759024 
" clip-path="url(#p5b78845f12)" style="fill: none; stroke: #8b0000; stroke-width: 2.25; stroke-linecap: round"/>
   </g>
   <g id="line2d_29">
    <path d="M 410.085278 47.074466 
L 410.085278 43.541188 
" clip-path="url(#p5b78845f12)" style="fill: none; stroke: #8b0000; stroke-width: 2.25; stroke-linecap: round"/>
   </g>
   <g id="line2d_30">
    <path d="M 82.579912 174.039235 
L 82.579912 172.344034 
" clip-path="url(#p5b78845f12)" style="fill: none; stroke: #8b0000; stroke-width: 2.25; stroke-linecap: round"/>
   </g>
   <g id="line2d_31">
    <path d="M 149.047791 172.390987 
L 149.047791 171.016784 
" clip-path="url(#p5b78845f12)" style="fill: none; stroke: #8b0000; stroke-width: 2.25; stroke-linecap: round"/>
   </g>
   <g id="line2d_32">
    <path d="M 215.515669 170.54969 
L 215.515669 168.148999 
" clip-path="url(#p5b78845f12)" style="fill: none; stroke: #8b0000; stroke-width: 2.25; stroke-linecap: round"/>
   </g>
   <g id="line2d_33">
    <path d="M 281.983548 164.629883 
L 281.983548 162.743337 
" clip-path="url(#p5b78845f12)" style="fill: none; stroke: #8b0000; stroke-width: 2.25; stroke-linecap: round"/>
   </g>
   <g id="line2d_34">
    <path d="M 348.451427 144.139317 
L 348.451427 143.011794 
" clip-path="url(#p5b78845f12)" style="fill: none; stroke: #8b0000; stroke-width: 2.25; stroke-linecap: round"/>
   </g>
   <g id="line2d_35">
    <path d="M 414.919306 55.294107 
L 414.919306 51.76861 
" clip-path="url(#p5b78845f12)" style="fill: none; stroke: #8b0000; stroke-width: 2.25; stroke-linecap: round"/>
   </g>
   <g id="line2d_36">
    <path d="M 87.413939 171.317756 
L 87.413939 170.65105 
" clip-path="url(#p5b78845f12)" style="fill: none; stroke: #8b0000; stroke-width: 2.25; stroke-linecap: round"/>
   </g>
   <g id="line2d_37">
    <path d="M 153.881818 171.594143 
L 153.881818 169.101416 
" clip-path="url(#p5b78845f12)" style="fill: none; stroke: #8b0000; stroke-width: 2.25; stroke-linecap: round"/>
   </g>
   <g id="line2d_38">
    <path d="M 220.349697 169.191092 
L 220.349697 166.588556 
" clip-path="url(#p5b78845f12)" style="fill: none; stroke: #8b0000; stroke-width: 2.25; stroke-linecap: round"/>
   </g>
   <g id="line2d_39">
    <path d="M 286.817576 161.981713 
L 286.817576 160.408005 
" clip-path="url(#p5b78845f12)" style="fill: none; stroke: #8b0000; stroke-width: 2.25; stroke-linecap: round"/>
   </g>
   <g id="line2d_40">
    <path d="M 353.285455 142.727383 
L 353.285455 139.691801 
" clip-path="url(#p5b78845f12)" style="fill: none; stroke: #8b0000; stroke-width: 2.25; stroke-linecap: round"/>
   </g>
   <g id="line2d_41">
    <path d="M 419.753333 48.594768 
L 419.753333 40.250788 
" clip-path="url(#p5b78845f12)" style="fill: none; stroke: #8b0000; stroke-width: 2.25; stroke-linecap: round"/>
   </g>
   <g id="line2d_42">
    <path d="M 92.247967 178.855963 
L 92.247967 175.216948 
" clip-path="url(#p5b78845f12)" style="fill: none; stroke: #8b0000; stroke-width: 2.25; stroke-linecap: round"/>
   </g>
   <g id="line2d_43">
    <path d="M 158.715846 176.673483 
L 158.715846 175.133491 
" clip-path="url(#p5b78845f12)" style="fill: none; stroke: #8b0000; stroke-width: 2.25; stroke-linecap: round"/>
   </g>
   <g id="line2d_44">
    <path d="M 225.183725 172.864995 
L 225.183725 171.709879 
" clip-path="url(#p5b78845f12)" style="fill: none; stroke: #8b0000; stroke-width: 2.25; stroke-linecap: round"/>
   </g>
   <g id="line2d_45">
    <path d="M 291.651603 164.913284 
L 291.651603 163.884842 
" clip-path="url(#p5b78845f12)" style="fill: none; stroke: #8b0000; stroke-width: 2.25; stroke-linecap: round"/>
   </g>
   <g id="line2d_46">
    <path d="M 358.119482 144.563054 
L 358.119482 141.769489 
" clip-path="url(#p5b78845f12)" style="fill: none; stroke: #8b0000; stroke-width: 2.25; stroke-linecap: round"/>
   </g>
   <g id="line2d_47">
    <path d="M 424.587361 41.514251 
L 424.587361 37.231429 
" clip-path="url(#p5b78845f12)" style="fill: none; stroke: #8b0000; stroke-width: 2.25; stroke-linecap: round"/>
   </g>
   <g id="line2d_48">
    <path d="M 97.081994 178.748127 
L 97.081994 176.866686 
" clip-path="url(#p5b78845f12)" style="fill: none; stroke: #8b0000; stroke-width: 2.25; stroke-linecap: round"/>
   </g>
   <g id="line2d_49">
    <path d="M 163.549873 176.785728 
L 163.549873 176.29294 
" clip-path="url(#p5b78845f12)" style="fill: none; stroke: #8b0000; stroke-width: 2.25; stroke-linecap: round"/>
   </g>
   <g id="line2d_50">
    <path d="M 230.017752 174.844382 
L 230.017752 173.795391 
" clip-path="url(#p5b78845f12)" style="fill: none; stroke: #8b0000; stroke-width: 2.25; stroke-linecap: round"/>
   </g>
   <g id="line2d_51">
    <path d="M 296.485631 168.109232 
L 296.485631 166.075315 
" clip-path="url(#p5b78845f12)" style="fill: none; stroke: #8b0000; stroke-width: 2.25; stroke-linecap: round"/>
   </g>
   <g id="line2d_52">
    <path d="M 362.95351 146.709025 
L 362.95351 144.127852 
" clip-path="url(#p5b78845f12)" style="fill: none; stroke: #8b0000; stroke-width: 2.25; stroke-linecap: round"/>
   </g>
   <g id="line2d_53">
    <path d="M 429.421388 44.968302 
L 429.421388 42.098886 
" clip-path="url(#p5b78845f12)" style="fill: none; stroke: #8b0000; stroke-width: 2.25; stroke-linecap: round"/>
   </g>
   <g id="line2d_54">
    <path d="M 101.916022 178.376953 
L 101.916022 177.598465 
" clip-path="url(#p5b78845f12)" style="fill: none; stroke: #8b0000; stroke-width: 2.25; stroke-linecap: round"/>
   </g>
   <g id="line2d_55">
    <path d="M 168.383901 176.799185 
L 168.383901 174.195741 
" clip-path="url(#p5b78845f12)" style="fill: none; stroke: #8b0000; stroke-width: 2.25; stroke-linecap: round"/>
   </g>
   <g id="line2d_56">
    <path d="M 234.85178 173.83292 
L 234.85178 171.550942 
" clip-path="url(#p5b78845f12)" style="fill: none; stroke: #8b0000; stroke-width: 2.25; stroke-linecap: round"/>
   </g>
   <g id="line2d_57">
    <path d="M 301.319658 167.037311 
L 301.319658 164.357321 
" clip-path="url(#p5b78845f12)" style="fill: none; stroke: #8b0000; stroke-width: 2.25; stroke-linecap: round"/>
   </g>
   <g id="line2d_58">
    <path d="M 367.787537 143.805564 
L 367.787537 140.227372 
" clip-path="url(#p5b78845f12)" style="fill: none; stroke: #8b0000; stroke-width: 2.25; stroke-linecap: round"/>
   </g>
   <g id="line2d_59">
    <path d="M 434.255416 44.19317 
L 434.255416 38.737517 
" clip-path="url(#p5b78845f12)" style="fill: none; stroke: #8b0000; stroke-width: 2.25; stroke-linecap: round"/>
   </g>
   <g id="line2d_60">
    <path d="M 106.75005 181.115451 
L 106.75005 180.341647 
" clip-path="url(#p5b78845f12)" style="fill: none; stroke: #8b0000; stroke-width: 2.25; stroke-linecap: round"/>
   </g>
   <g id="line2d_61">
    <path d="M 173.217928 181.70074 
L 173.217928 179.345037 
" clip-path="url(#p5b78845f12)" style="fill: none; stroke: #8b0000; stroke-width: 2.25; stroke-linecap: round"/>
   </g>
   <g id="line2d_62">
    <path d="M 239.685807 180.582273 
L 239.685807 180.145039 
" clip-path="url(#p5b78845f12)" style="fill: none; stroke: #8b0000; stroke-width: 2.25; stroke-linecap: round"/>
   </g>
   <g id="line2d_63">
    <path d="M 306.153686 180.390166 
L 306.153686 178.968484 
" clip-path="url(#p5b78845f12)" style="fill: none; stroke: #8b0000; stroke-width: 2.25; stroke-linecap: round"/>
   </g>
   <g id="line2d_64">
    <path d="M 372.621565 180.617714 
L 372.621565 179.183295 
" clip-path="url(#p5b78845f12)" style="fill: none; stroke: #8b0000; stroke-width: 2.25; stroke-linecap: round"/>
   </g>
   <g id="line2d_65">
    <path d="M 111.584077 181.087759 
L 111.584077 179.784437 
" clip-path="url(#p5b78845f12)" style="fill: none; stroke: #8b0000; stroke-width: 2.25; stroke-linecap: round"/>
   </g>
   <g id="line2d_66">
    <path d="M 178.051956 181.183112 
L 178.051956 179.934227 
" clip-path="url(#p5b78845f12)" style="fill: none; stroke: #8b0000; stroke-width: 2.25; stroke-linecap: round"/>
   </g>
   <g id="line2d_67">
    <path d="M 244.519835 181.032847 
L 244.519835 179.757546 
" clip-path="url(#p5b78845f12)" style="fill: none; stroke: #8b0000; stroke-width: 2.25; stroke-linecap: round"/>
   </g>
   <g id="line2d_68">
    <path d="M 310.987713 180.751043 
L 310.987713 179.811967 
" clip-path="url(#p5b78845f12)" style="fill: none; stroke: #8b0000; stroke-width: 2.25; stroke-linecap: round"/>
   </g>
   <g id="line2d_69">
    <path d="M 377.455592 180.474082 
L 377.455592 179.7451 
" clip-path="url(#p5b78845f12)" style="fill: none; stroke: #8b0000; stroke-width: 2.25; stroke-linecap: round"/>
   </g>
   <g id="line2d_70">
    <path d="M 443.923471 180.187301 
L 443.923471 178.444074 
" clip-path="url(#p5b78845f12)" style="fill: none; stroke: #8b0000; stroke-width: 2.25; stroke-linecap: round"/>
   </g>
   <g id="patch_79">
    <path d="M 54.18 186.66 
L 54.18 29.76 
" style="fill: none; stroke: #cccccc; stroke-width: 1.25; stroke-linejoin: miter; stroke-linecap: square"/>
   </g>
   <g id="patch_80">
    <path d="M 452.987273 186.66 
L 452.987273 29.76 
" style="fill: none; stroke: #cccccc; stroke-width: 1.25; stroke-linejoin: miter; stroke-linecap: square"/>
   </g>
   <g id="patch_81">
    <path d="M 54.18 186.66 
L 452.987273 186.66 
" style="fill: none; stroke: #cccccc; stroke-width: 1.25; stroke-linejoin: miter; stroke-linecap: square"/>
   </g>
   <g id="patch_82">
    <path d="M 54.18 29.76 
L 452.987273 29.76 
" style="fill: none; stroke: #cccccc; stroke-width: 1.25; stroke-linejoin: miter; stroke-linecap: square"/>
   </g>
   <g id="text_14">
    <!-- LAMMPS Hookup-time -->
    <g style="fill: #262626" transform="translate(176.883324 23.76) scale(0.14 -0.14)">
     <defs>
      <path id="DejaVuSans-4c" d="M 628 4666 
L 1259 4666 
L 1259 531 
L 3531 531 
L 3531 0 
L 628 0 
L 628 4666 
z
" transform="scale(0.015625)"/>
      <path id="DejaVuSans-41" d="M 2188 4044 
L 1331 1722 
L 3047 1722 
L 2188 4044 
z
M 1831 4666 
L 2547 4666 
L 4325 0 
L 3669 0 
L 3244 1197 
L 1141 1197 
L 716 0 
L 50 0 
L 1831 4666 
z
" transform="scale(0.015625)"/>
      <path id="DejaVuSans-4d" d="M 628 4666 
L 1569 4666 
L 2759 1491 
L 3956 4666 
L 4897 4666 
L 4897 0 
L 4281 0 
L 4281 4097 
L 3078 897 
L 2444 897 
L 1241 4097 
L 1241 0 
L 628 0 
L 628 4666 
z
" transform="scale(0.015625)"/>
      <path id="DejaVuSans-50" d="M 1259 4147 
L 1259 2394 
L 2053 2394 
Q 2494 2394 2734 2622 
Q 2975 2850 2975 3272 
Q 2975 3691 2734 3919 
Q 2494 4147 2053 4147 
L 1259 4147 
z
M 628 4666 
L 2053 4666 
Q 2838 4666 3239 4311 
Q 3641 3956 3641 3272 
Q 3641 2581 3239 2228 
Q 2838 1875 2053 1875 
L 1259 1875 
L 1259 0 
L 628 0 
L 628 4666 
z
" transform="scale(0.015625)"/>
      <path id="DejaVuSans-20" transform="scale(0.015625)"/>
      <path id="DejaVuSans-48" d="M 628 4666 
L 1259 4666 
L 1259 2753 
L 3553 2753 
L 3553 4666 
L 4184 4666 
L 4184 0 
L 3553 0 
L 3553 2222 
L 1259 2222 
L 1259 0 
L 628 0 
L 628 4666 
z
" transform="scale(0.015625)"/>
      <path id="DejaVuSans-6b" d="M 581 4863 
L 1159 4863 
L 1159 1991 
L 2875 3500 
L 3609 3500 
L 1753 1863 
L 3688 0 
L 2938 0 
L 1159 1709 
L 1159 0 
L 581 0 
L 581 4863 
z
" transform="scale(0.015625)"/>
      <path id="DejaVuSans-75" d="M 544 1381 
L 544 3500 
L 1119 3500 
L 1119 1403 
Q 1119 906 1312 657 
Q 1506 409 1894 409 
Q 2359 409 2629 706 
Q 2900 1003 2900 1516 
L 2900 3500 
L 3475 3500 
L 3475 0 
L 2900 0 
L 2900 538 
Q 2691 219 2414 64 
Q 2138 -91 1772 -91 
Q 1169 -91 856 284 
Q 544 659 544 1381 
z
M 1991 3584 
L 1991 3584 
z
" transform="scale(0.015625)"/>
      <path id="DejaVuSans-70" d="M 1159 525 
L 1159 -1331 
L 581 -1331 
L 581 3500 
L 1159 3500 
L 1159 2969 
Q 1341 3281 1617 3432 
Q 1894 3584 2278 3584 
Q 2916 3584 3314 3078 
Q 3713 2572 3713 1747 
Q 3713 922 3314 415 
Q 2916 -91 2278 -91 
Q 1894 -91 1617 61 
Q 1341 213 1159 525 
z
M 3116 1747 
Q 3116 2381 2855 2742 
Q 2594 3103 2138 3103 
Q 1681 3103 1420 2742 
Q 1159 2381 1159 1747 
Q 1159 1113 1420 752 
Q 1681 391 2138 391 
Q 2594 391 2855 752 
Q 3116 1113 3116 1747 
z
" transform="scale(0.015625)"/>
      <path id="DejaVuSans-2d" d="M 313 2009 
L 1997 2009 
L 1997 1497 
L 313 1497 
L 313 2009 
z
" transform="scale(0.015625)"/>
      <path id="DejaVuSans-74" d="M 1172 4494 
L 1172 3500 
L 2356 3500 
L 2356 3053 
L 1172 3053 
L 1172 1153 
Q 1172 725 1289 603 
Q 1406 481 1766 481 
L 2356 481 
L 2356 0 
L 1766 0 
Q 1100 0 847 248 
Q 594 497 594 1153 
L 594 3053 
L 172 3053 
L 172 3500 
L 594 3500 
L 594 4494 
L 1172 4494 
z
" transform="scale(0.015625)"/>
      <path id="DejaVuSans-69" d="M 603 3500 
L 1178 3500 
L 1178 0 
L 603 0 
L 603 3500 
z
M 603 4863 
L 1178 4863 
L 1178 4134 
L 603 4134 
L 603 4863 
z
" transform="scale(0.015625)"/>
      <path id="DejaVuSans-6d" d="M 3328 2828 
Q 3544 3216 3844 3400 
Q 4144 3584 4550 3584 
Q 5097 3584 5394 3201 
Q 5691 2819 5691 2113 
L 5691 0 
L 5113 0 
L 5113 2094 
Q 5113 2597 4934 2840 
Q 4756 3084 4391 3084 
Q 3944 3084 3684 2787 
Q 3425 2491 3425 1978 
L 3425 0 
L 2847 0 
L 2847 2094 
Q 2847 2600 2669 2842 
Q 2491 3084 2119 3084 
Q 1678 3084 1418 2786 
Q 1159 2488 1159 1978 
L 1159 0 
L 581 0 
L 581 3500 
L 1159 3500 
L 1159 2956 
Q 1356 3278 1631 3431 
Q 1906 3584 2284 3584 
Q 2666 3584 2933 3390 
Q 3200 3197 3328 2828 
z
" transform="scale(0.015625)"/>
     </defs>
     <use xlink:href="#DejaVuSans-4c"/>
     <use xlink:href="#DejaVuSans-41" x="57.962891"/>
     <use xlink:href="#DejaVuSans-4d" x="126.371094"/>
     <use xlink:href="#DejaVuSans-4d" x="212.650391"/>
     <use xlink:href="#DejaVuSans-50" x="298.929688"/>
     <use xlink:href="#DejaVuSans-53" x="359.232422"/>
     <use xlink:href="#DejaVuSans-20" x="422.708984"/>
     <use xlink:href="#DejaVuSans-48" x="454.496094"/>
     <use xlink:href="#DejaVuSans-6f" x="529.691406"/>
     <use xlink:href="#DejaVuSans-6f" x="590.873047"/>
     <use xlink:href="#DejaVuSans-6b" x="652.054688"/>
     <use xlink:href="#DejaVuSans-75" x="706.839844"/>
     <use xlink:href="#DejaVuSans-70" x="770.21875"/>
     <use xlink:href="#DejaVuSans-2d" x="833.695312"/>
     <use xlink:href="#DejaVuSans-74" x="869.779297"/>
     <use xlink:href="#DejaVuSans-69" x="908.988281"/>
     <use xlink:href="#DejaVuSans-6d" x="936.771484"/>
     <use xlink:href="#DejaVuSans-65" x="1034.183594"/>
    </g>
   </g>
  </g>
  <g id="axes_2">
   <g id="legend_1">
    <g id="patch_83">
     <path d="M 467.316 30.515625 
L 489.316 30.515625 
L 489.316 22.815625 
L 467.316 22.815625 
z
" style="fill: #759adc; stroke: #ffffff; stroke-linejoin: miter"/>
    </g>
    <g id="text_15">
     <!-- Ubuntu Mpich eBPF Sample -->
     <g style="fill: #262626" transform="translate(498.116 30.515625) scale(0.11 -0.11)">
      <defs>
       <path id="DejaVuSans-55" d="M 556 4666 
L 1191 4666 
L 1191 1831 
Q 1191 1081 1462 751 
Q 1734 422 2344 422 
Q 2950 422 3222 751 
Q 3494 1081 3494 1831 
L 3494 4666 
L 4128 4666 
L 4128 1753 
Q 4128 841 3676 375 
Q 3225 -91 2344 -91 
Q 1459 -91 1007 375 
Q 556 841 556 1753 
L 556 4666 
z
" transform="scale(0.015625)"/>
       <path id="DejaVuSans-62" d="M 3116 1747 
Q 3116 2381 2855 2742 
Q 2594 3103 2138 3103 
Q 1681 3103 1420 2742 
Q 1159 2381 1159 1747 
Q 1159 1113 1420 752 
Q 1681 391 2138 391 
Q 2594 391 2855 752 
Q 3116 1113 3116 1747 
z
M 1159 2969 
Q 1341 3281 1617 3432 
Q 1894 3584 2278 3584 
Q 2916 3584 3314 3078 
Q 3713 2572 3713 1747 
Q 3713 922 3314 415 
Q 2916 -91 2278 -91 
Q 1894 -91 1617 61 
Q 1341 213 1159 525 
L 1159 0 
L 581 0 
L 581 4863 
L 1159 4863 
L 1159 2969 
z
" transform="scale(0.015625)"/>
       <path id="DejaVuSans-68" d="M 3513 2113 
L 3513 0 
L 2938 0 
L 2938 2094 
Q 2938 2591 2744 2837 
Q 2550 3084 2163 3084 
Q 1697 3084 1428 2787 
Q 1159 2491 1159 1978 
L 1159 0 
L 581 0 
L 581 4863 
L 1159 4863 
L 1159 2956 
Q 1366 3272 1645 3428 
Q 1925 3584 2291 3584 
Q 2894 3584 3203 3211 
Q 3513 2838 3513 2113 
z
" transform="scale(0.015625)"/>
       <path id="DejaVuSans-42" d="M 1259 2228 
L 1259 519 
L 2272 519 
Q 2781 519 3026 730 
Q 3272 941 3272 1375 
Q 3272 1813 3026 2020 
Q 2781 2228 2272 2228 
L 1259 2228 
z
M 1259 4147 
L 1259 2741 
L 2194 2741 
Q 2656 2741 2882 2914 
Q 3109 3088 3109 3444 
Q 3109 3797 2882 3972 
Q 2656 4147 2194 4147 
L 1259 4147 
z
M 628 4666 
L 2241 4666 
Q 2963 4666 3353 4366 
Q 3744 4066 3744 3513 
Q 3744 3084 3544 2831 
Q 3344 2578 2956 2516 
Q 3422 2416 3680 2098 
Q 3938 1781 3938 1306 
Q 3938 681 3513 340 
Q 3088 0 2303 0 
L 628 0 
L 628 4666 
z
" transform="scale(0.015625)"/>
       <path id="DejaVuSans-46" d="M 628 4666 
L 3309 4666 
L 3309 4134 
L 1259 4134 
L 1259 2759 
L 3109 2759 
L 3109 2228 
L 1259 2228 
L 1259 0 
L 628 0 
L 628 4666 
z
" transform="scale(0.015625)"/>
       <path id="DejaVuSans-61" d="M 2194 1759 
Q 1497 1759 1228 1600 
Q 959 1441 959 1056 
Q 959 750 1161 570 
Q 1363 391 1709 391 
Q 2188 391 2477 730 
Q 2766 1069 2766 1631 
L 2766 1759 
L 2194 1759 
z
M 3341 1997 
L 3341 0 
L 2766 0 
L 2766 531 
Q 2569 213 2275 61 
Q 1981 -91 1556 -91 
Q 1019 -91 701 211 
Q 384 513 384 1019 
Q 384 1609 779 1909 
Q 1175 2209 1959 2209 
L 2766 2209 
L 2766 2266 
Q 2766 2663 2505 2880 
Q 2244 3097 1772 3097 
Q 1472 3097 1187 3025 
Q 903 2953 641 2809 
L 641 3341 
Q 956 3463 1253 3523 
Q 1550 3584 1831 3584 
Q 2591 3584 2966 3190 
Q 3341 2797 3341 1997 
z
" transform="scale(0.015625)"/>
       <path id="DejaVuSans-6c" d="M 603 4863 
L 1178 4863 
L 1178 0 
L 603 0 
L 603 4863 
z
" transform="scale(0.015625)"/>
      </defs>
      <use xlink:href="#DejaVuSans-55"/>
      <use xlink:href="#DejaVuSans-62" x="73.193359"/>
      <use xlink:href="#DejaVuSans-75" x="136.669922"/>
      <use xlink:href="#DejaVuSans-6e" x="200.048828"/>
      <use xlink:href="#DejaVuSans-74" x="263.427734"/>
      <use xlink:href="#DejaVuSans-75" x="302.636719"/>
      <use xlink:href="#DejaVuSans-20" x="366.015625"/>
      <use xlink:href="#DejaVuSans-4d" x="397.802734"/>
      <use xlink:href="#DejaVuSans-70" x="484.082031"/>
      <use xlink:href="#DejaVuSans-69" x="547.558594"/>
      <use xlink:href="#DejaVuSans-63" x="575.341797"/>
      <use xlink:href="#DejaVuSans-68" x="630.322266"/>
      <use xlink:href="#DejaVuSans-20" x="693.701172"/>
      <use xlink:href="#DejaVuSans-65" x="725.488281"/>
      <use xlink:href="#DejaVuSans-42" x="787.011719"/>
      <use xlink:href="#DejaVuSans-50" x="855.615234"/>
      <use xlink:href="#DejaVuSans-46" x="915.917969"/>
      <use xlink:href="#DejaVuSans-20" x="973.4375"/>
      <use xlink:href="#DejaVuSans-53" x="1005.224609"/>
      <use xlink:href="#DejaVuSans-61" x="1068.701172"/>
      <use xlink:href="#DejaVuSans-6d" x="1129.980469"/>
      <use xlink:href="#DejaVuSans-70" x="1227.392578"/>
      <use xlink:href="#DejaVuSans-6c" x="1290.869141"/>
      <use xlink:href="#DejaVuSans-65" x="1318.652344"/>
     </g>
    </g>
    <g id="patch_84">
     <path d="M 467.316 46.661563 
L 489.316 46.661563 
L 489.316 38.961562 
L 467.316 38.961562 
z
" style="fill: #7c8fa2; stroke: #ffffff; stroke-linejoin: miter"/>
    </g>
    <g id="text_16">
     <!-- Ubuntu Mpich -->
     <g style="fill: #262626" transform="translate(498.116 46.661563) scale(0.11 -0.11)">
      <use xlink:href="#DejaVuSans-55"/>
      <use xlink:href="#DejaVuSans-62" x="73.193359"/>
      <use xlink:href="#DejaVuSans-75" x="136.669922"/>
      <use xlink:href="#DejaVuSans-6e" x="200.048828"/>
      <use xlink:href="#DejaVuSans-74" x="263.427734"/>
      <use xlink:href="#DejaVuSans-75" x="302.636719"/>
      <use xlink:href="#DejaVuSans-20" x="366.015625"/>
      <use xlink:href="#DejaVuSans-4d" x="397.802734"/>
      <use xlink:href="#DejaVuSans-70" x="484.082031"/>
      <use xlink:href="#DejaVuSans-69" x="547.558594"/>
      <use xlink:href="#DejaVuSans-63" x="575.341797"/>
      <use xlink:href="#DejaVuSans-68" x="630.322266"/>
     </g>
    </g>
    <g id="patch_85">
     <path d="M 467.316 62.8075 
L 489.316 62.8075 
L 489.316 55.1075 
L 467.316 55.1075 
z
" style="fill: #154b96; stroke: #ffffff; stroke-linejoin: miter"/>
    </g>
    <g id="text_17">
     <!-- Ubuntu Mpich eBPF Multiple -->
     <g style="fill: #262626" transform="translate(498.116 62.8075) scale(0.11 -0.11)">
      <use xlink:href="#DejaVuSans-55"/>
      <use xlink:href="#DejaVuSans-62" x="73.193359"/>
      <use xlink:href="#DejaVuSans-75" x="136.669922"/>
      <use xlink:href="#DejaVuSans-6e" x="200.048828"/>
      <use xlink:href="#DejaVuSans-74" x="263.427734"/>
      <use xlink:href="#DejaVuSans-75" x="302.636719"/>
      <use xlink:href="#DejaVuSans-20" x="366.015625"/>
      <use xlink:href="#DejaVuSans-4d" x="397.802734"/>
      <use xlink:href="#DejaVuSans-70" x="484.082031"/>
      <use xlink:href="#DejaVuSans-69" x="547.558594"/>
      <use xlink:href="#DejaVuSans-63" x="575.341797"/>
      <use xlink:href="#DejaVuSans-68" x="630.322266"/>
      <use xlink:href="#DejaVuSans-20" x="693.701172"/>
      <use xlink:href="#DejaVuSans-65" x="725.488281"/>
      <use xlink:href="#DejaVuSans-42" x="787.011719"/>
      <use xlink:href="#DejaVuSans-50" x="855.615234"/>
      <use xlink:href="#DejaVuSans-46" x="915.917969"/>
      <use xlink:href="#DejaVuSans-20" x="973.4375"/>
      <use xlink:href="#DejaVuSans-4d" x="1005.224609"/>
      <use xlink:href="#DejaVuSans-75" x="1091.503906"/>
      <use xlink:href="#DejaVuSans-6c" x="1154.882812"/>
      <use xlink:href="#DejaVuSans-74" x="1182.666016"/>
      <use xlink:href="#DejaVuSans-69" x="1221.875"/>
      <use xlink:href="#DejaVuSans-70" x="1249.658203"/>
      <use xlink:href="#DejaVuSans-6c" x="1313.134766"/>
      <use xlink:href="#DejaVuSans-65" x="1340.917969"/>
     </g>
    </g>
    <g id="patch_86">
     <path d="M 467.316 78.953438 
L 489.316 78.953438 
L 489.316 71.253438 
L 467.316 71.253438 
z
" style="fill: #e0a7f2; stroke: #ffffff; stroke-linejoin: miter"/>
    </g>
    <g id="text_18">
     <!-- Ubuntu OpenMPI eBPF Sample -->
     <g style="fill: #262626" transform="translate(498.116 78.953438) scale(0.11 -0.11)">
      <defs>
       <path id="DejaVuSans-4f" d="M 2522 4238 
Q 1834 4238 1429 3725 
Q 1025 3213 1025 2328 
Q 1025 1447 1429 934 
Q 1834 422 2522 422 
Q 3209 422 3611 934 
Q 4013 1447 4013 2328 
Q 4013 3213 3611 3725 
Q 3209 4238 2522 4238 
z
M 2522 4750 
Q 3503 4750 4090 4092 
Q 4678 3434 4678 2328 
Q 4678 1225 4090 567 
Q 3503 -91 2522 -91 
Q 1538 -91 948 565 
Q 359 1222 359 2328 
Q 359 3434 948 4092 
Q 1538 4750 2522 4750 
z
" transform="scale(0.015625)"/>
       <path id="DejaVuSans-49" d="M 628 4666 
L 1259 4666 
L 1259 0 
L 628 0 
L 628 4666 
z
" transform="scale(0.015625)"/>
      </defs>
      <use xlink:href="#DejaVuSans-55"/>
      <use xlink:href="#DejaVuSans-62" x="73.193359"/>
      <use xlink:href="#DejaVuSans-75" x="136.669922"/>
      <use xlink:href="#DejaVuSans-6e" x="200.048828"/>
      <use xlink:href="#DejaVuSans-74" x="263.427734"/>
      <use xlink:href="#DejaVuSans-75" x="302.636719"/>
      <use xlink:href="#DejaVuSans-20" x="366.015625"/>
      <use xlink:href="#DejaVuSans-4f" x="397.802734"/>
      <use xlink:href="#DejaVuSans-70" x="476.513672"/>
      <use xlink:href="#DejaVuSans-65" x="539.990234"/>
      <use xlink:href="#DejaVuSans-6e" x="601.513672"/>
      <use xlink:href="#DejaVuSans-4d" x="664.892578"/>
      <use xlink:href="#DejaVuSans-50" x="751.171875"/>
      <use xlink:href="#DejaVuSans-49" x="811.474609"/>
      <use xlink:href="#DejaVuSans-20" x="840.966797"/>
      <use xlink:href="#DejaVuSans-65" x="872.753906"/>
      <use xlink:href="#DejaVuSans-42" x="934.277344"/>
      <use xlink:href="#DejaVuSans-50" x="1002.880859"/>
      <use xlink:href="#DejaVuSans-46" x="1063.183594"/>
      <use xlink:href="#DejaVuSans-20" x="1120.703125"/>
      <use xlink:href="#DejaVuSans-53" x="1152.490234"/>
      <use xlink:href="#DejaVuSans-61" x="1215.966797"/>
      <use xlink:href="#DejaVuSans-6d" x="1277.246094"/>
      <use xlink:href="#DejaVuSans-70" x="1374.658203"/>
      <use xlink:href="#DejaVuSans-6c" x="1438.134766"/>
      <use xlink:href="#DejaVuSans-65" x="1465.917969"/>
     </g>
    </g>
    <g id="patch_87">
     <path d="M 467.316 95.099375 
L 489.316 95.099375 
L 489.316 87.399375 
L 467.316 87.399375 
z
" style="fill: #a859c1; stroke: #ffffff; stroke-linejoin: miter"/>
    </g>
    <g id="text_19">
     <!-- Ubuntu OpenMPI -->
     <g style="fill: #262626" transform="translate(498.116 95.099375) scale(0.11 -0.11)">
      <use xlink:href="#DejaVuSans-55"/>
      <use xlink:href="#DejaVuSans-62" x="73.193359"/>
      <use xlink:href="#DejaVuSans-75" x="136.669922"/>
      <use xlink:href="#DejaVuSans-6e" x="200.048828"/>
      <use xlink:href="#DejaVuSans-74" x="263.427734"/>
      <use xlink:href="#DejaVuSans-75" x="302.636719"/>
      <use xlink:href="#DejaVuSans-20" x="366.015625"/>
      <use xlink:href="#DejaVuSans-4f" x="397.802734"/>
      <use xlink:href="#DejaVuSans-70" x="476.513672"/>
      <use xlink:href="#DejaVuSans-65" x="539.990234"/>
      <use xlink:href="#DejaVuSans-6e" x="601.513672"/>
      <use xlink:href="#DejaVuSans-4d" x="664.892578"/>
      <use xlink:href="#DejaVuSans-50" x="751.171875"/>
      <use xlink:href="#DejaVuSans-49" x="811.474609"/>
     </g>
    </g>
    <g id="patch_88">
     <path d="M 467.316 111.245313 
L 489.316 111.245313 
L 489.316 103.545313 
L 467.316 103.545313 
z
" style="fill: #622576; stroke: #ffffff; stroke-linejoin: miter"/>
    </g>
    <g id="text_20">
     <!-- Ubuntu OpenMPI eBPF Multiple -->
     <g style="fill: #262626" transform="translate(498.116 111.245313) scale(0.11 -0.11)">
      <use xlink:href="#DejaVuSans-55"/>
      <use xlink:href="#DejaVuSans-62" x="73.193359"/>
      <use xlink:href="#DejaVuSans-75" x="136.669922"/>
      <use xlink:href="#DejaVuSans-6e" x="200.048828"/>
      <use xlink:href="#DejaVuSans-74" x="263.427734"/>
      <use xlink:href="#DejaVuSans-75" x="302.636719"/>
      <use xlink:href="#DejaVuSans-20" x="366.015625"/>
      <use xlink:href="#DejaVuSans-4f" x="397.802734"/>
      <use xlink:href="#DejaVuSans-70" x="476.513672"/>
      <use xlink:href="#DejaVuSans-65" x="539.990234"/>
      <use xlink:href="#DejaVuSans-6e" x="601.513672"/>
      <use xlink:href="#DejaVuSans-4d" x="664.892578"/>
      <use xlink:href="#DejaVuSans-50" x="751.171875"/>
      <use xlink:href="#DejaVuSans-49" x="811.474609"/>
      <use xlink:href="#DejaVuSans-20" x="840.966797"/>
      <use xlink:href="#DejaVuSans-65" x="872.753906"/>
      <use xlink:href="#DejaVuSans-42" x="934.277344"/>
      <use xlink:href="#DejaVuSans-50" x="1002.880859"/>
      <use xlink:href="#DejaVuSans-46" x="1063.183594"/>
      <use xlink:href="#DejaVuSans-20" x="1120.703125"/>
      <use xlink:href="#DejaVuSans-4d" x="1152.490234"/>
      <use xlink:href="#DejaVuSans-75" x="1238.769531"/>
      <use xlink:href="#DejaVuSans-6c" x="1302.148438"/>
      <use xlink:href="#DejaVuSans-74" x="1329.931641"/>
      <use xlink:href="#DejaVuSans-69" x="1369.140625"/>
      <use xlink:href="#DejaVuSans-70" x="1396.923828"/>
      <use xlink:href="#DejaVuSans-6c" x="1460.400391"/>
      <use xlink:href="#DejaVuSans-65" x="1488.183594"/>
     </g>
    </g>
    <g id="patch_89">
     <path d="M 467.316 127.39125 
L 489.316 127.39125 
L 489.316 119.69125 
L 467.316 119.69125 
z
" style="fill: #c4d495; stroke: #ffffff; stroke-linejoin: miter"/>
    </g>
    <g id="text_21">
     <!-- Rocky OpenMPI eBPF Sample -->
     <g style="fill: #262626" transform="translate(498.116 127.39125) scale(0.11 -0.11)">
      <defs>
       <path id="DejaVuSans-52" d="M 2841 2188 
Q 3044 2119 3236 1894 
Q 3428 1669 3622 1275 
L 4263 0 
L 3584 0 
L 2988 1197 
Q 2756 1666 2539 1819 
Q 2322 1972 1947 1972 
L 1259 1972 
L 1259 0 
L 628 0 
L 628 4666 
L 2053 4666 
Q 2853 4666 3247 4331 
Q 3641 3997 3641 3322 
Q 3641 2881 3436 2590 
Q 3231 2300 2841 2188 
z
M 1259 4147 
L 1259 2491 
L 2053 2491 
Q 2509 2491 2742 2702 
Q 2975 2913 2975 3322 
Q 2975 3731 2742 3939 
Q 2509 4147 2053 4147 
L 1259 4147 
z
" transform="scale(0.015625)"/>
       <path id="DejaVuSans-79" d="M 2059 -325 
Q 1816 -950 1584 -1140 
Q 1353 -1331 966 -1331 
L 506 -1331 
L 506 -850 
L 844 -850 
Q 1081 -850 1212 -737 
Q 1344 -625 1503 -206 
L 1606 56 
L 191 3500 
L 800 3500 
L 1894 763 
L 2988 3500 
L 3597 3500 
L 2059 -325 
z
" transform="scale(0.015625)"/>
      </defs>
      <use xlink:href="#DejaVuSans-52"/>
      <use xlink:href="#DejaVuSans-6f" x="64.982422"/>
      <use xlink:href="#DejaVuSans-63" x="126.164062"/>
      <use xlink:href="#DejaVuSans-6b" x="181.144531"/>
      <use xlink:href="#DejaVuSans-79" x="235.429688"/>
      <use xlink:href="#DejaVuSans-20" x="294.609375"/>
      <use xlink:href="#DejaVuSans-4f" x="326.396484"/>
      <use xlink:href="#DejaVuSans-70" x="405.107422"/>
      <use xlink:href="#DejaVuSans-65" x="468.583984"/>
      <use xlink:href="#DejaVuSans-6e" x="530.107422"/>
      <use xlink:href="#DejaVuSans-4d" x="593.486328"/>
      <use xlink:href="#DejaVuSans-50" x="679.765625"/>
      <use xlink:href="#DejaVuSans-49" x="740.068359"/>
      <use xlink:href="#DejaVuSans-20" x="769.560547"/>
      <use xlink:href="#DejaVuSans-65" x="801.347656"/>
      <use xlink:href="#DejaVuSans-42" x="862.871094"/>
      <use xlink:href="#DejaVuSans-50" x="931.474609"/>
      <use xlink:href="#DejaVuSans-46" x="991.777344"/>
      <use xlink:href="#DejaVuSans-20" x="1049.296875"/>
      <use xlink:href="#DejaVuSans-53" x="1081.083984"/>
      <use xlink:href="#DejaVuSans-61" x="1144.560547"/>
      <use xlink:href="#DejaVuSans-6d" x="1205.839844"/>
      <use xlink:href="#DejaVuSans-70" x="1303.251953"/>
      <use xlink:href="#DejaVuSans-6c" x="1366.728516"/>
      <use xlink:href="#DejaVuSans-65" x="1394.511719"/>
     </g>
    </g>
    <g id="patch_90">
     <path d="M 467.316 143.537188 
L 489.316 143.537188 
L 489.316 135.837188 
L 467.316 135.837188 
z
" style="fill: #7aa163; stroke: #ffffff; stroke-linejoin: miter"/>
    </g>
    <g id="text_22">
     <!-- Rocky OpenMPI -->
     <g style="fill: #262626" transform="translate(498.116 143.537188) scale(0.11 -0.11)">
      <use xlink:href="#DejaVuSans-52"/>
      <use xlink:href="#DejaVuSans-6f" x="64.982422"/>
      <use xlink:href="#DejaVuSans-63" x="126.164062"/>
      <use xlink:href="#DejaVuSans-6b" x="181.144531"/>
      <use xlink:href="#DejaVuSans-79" x="235.429688"/>
      <use xlink:href="#DejaVuSans-20" x="294.609375"/>
      <use xlink:href="#DejaVuSans-4f" x="326.396484"/>
      <use xlink:href="#DejaVuSans-70" x="405.107422"/>
      <use xlink:href="#DejaVuSans-65" x="468.583984"/>
      <use xlink:href="#DejaVuSans-6e" x="530.107422"/>
      <use xlink:href="#DejaVuSans-4d" x="593.486328"/>
      <use xlink:href="#DejaVuSans-50" x="679.765625"/>
      <use xlink:href="#DejaVuSans-49" x="740.068359"/>
     </g>
    </g>
    <g id="patch_91">
     <path d="M 467.316 159.683125 
L 489.316 159.683125 
L 489.316 151.983125 
L 467.316 151.983125 
z
" style="fill: #3e7637; stroke: #ffffff; stroke-linejoin: miter"/>
    </g>
    <g id="text_23">
     <!-- Rocky OpenMPI eBPF Multiple -->
     <g style="fill: #262626" transform="translate(498.116 159.683125) scale(0.11 -0.11)">
      <use xlink:href="#DejaVuSans-52"/>
      <use xlink:href="#DejaVuSans-6f" x="64.982422"/>
      <use xlink:href="#DejaVuSans-63" x="126.164062"/>
      <use xlink:href="#DejaVuSans-6b" x="181.144531"/>
      <use xlink:href="#DejaVuSans-79" x="235.429688"/>
      <use xlink:href="#DejaVuSans-20" x="294.609375"/>
      <use xlink:href="#DejaVuSans-4f" x="326.396484"/>
      <use xlink:href="#DejaVuSans-70" x="405.107422"/>
      <use xlink:href="#DejaVuSans-65" x="468.583984"/>
      <use xlink:href="#DejaVuSans-6e" x="530.107422"/>
      <use xlink:href="#DejaVuSans-4d" x="593.486328"/>
      <use xlink:href="#DejaVuSans-50" x="679.765625"/>
      <use xlink:href="#DejaVuSans-49" x="740.068359"/>
      <use xlink:href="#DejaVuSans-20" x="769.560547"/>
      <use xlink:href="#DejaVuSans-65" x="801.347656"/>
      <use xlink:href="#DejaVuSans-42" x="862.871094"/>
      <use xlink:href="#DejaVuSans-50" x="931.474609"/>
      <use xlink:href="#DejaVuSans-46" x="991.777344"/>
      <use xlink:href="#DejaVuSans-20" x="1049.296875"/>
      <use xlink:href="#DejaVuSans-4d" x="1081.083984"/>
      <use xlink:href="#DejaVuSans-75" x="1167.363281"/>
      <use xlink:href="#DejaVuSans-6c" x="1230.742188"/>
      <use xlink:href="#DejaVuSans-74" x="1258.525391"/>
      <use xlink:href="#DejaVuSans-69" x="1297.734375"/>
      <use xlink:href="#DejaVuSans-70" x="1325.517578"/>
      <use xlink:href="#DejaVuSans-6c" x="1388.994141"/>
      <use xlink:href="#DejaVuSans-65" x="1416.777344"/>
     </g>
    </g>
    <g id="patch_92">
     <path d="M 467.316 175.829063 
L 489.316 175.829063 
L 489.316 168.129063 
L 467.316 168.129063 
z
" style="fill: #eb7074; stroke: #ffffff; stroke-linejoin: miter"/>
    </g>
    <g id="text_24">
     <!-- Ubuntu OpenMPI eBPF GPU -->
     <g style="fill: #262626" transform="translate(498.116 175.829063) scale(0.11 -0.11)">
      <defs>
       <path id="DejaVuSans-47" d="M 3809 666 
L 3809 1919 
L 2778 1919 
L 2778 2438 
L 4434 2438 
L 4434 434 
Q 4069 175 3628 42 
Q 3188 -91 2688 -91 
Q 1594 -91 976 548 
Q 359 1188 359 2328 
Q 359 3472 976 4111 
Q 1594 4750 2688 4750 
Q 3144 4750 3555 4637 
Q 3966 4525 4313 4306 
L 4313 3634 
Q 3963 3931 3569 4081 
Q 3175 4231 2741 4231 
Q 1884 4231 1454 3753 
Q 1025 3275 1025 2328 
Q 1025 1384 1454 906 
Q 1884 428 2741 428 
Q 3075 428 3337 486 
Q 3600 544 3809 666 
z
" transform="scale(0.015625)"/>
      </defs>
      <use xlink:href="#DejaVuSans-55"/>
      <use xlink:href="#DejaVuSans-62" x="73.193359"/>
      <use xlink:href="#DejaVuSans-75" x="136.669922"/>
      <use xlink:href="#DejaVuSans-6e" x="200.048828"/>
      <use xlink:href="#DejaVuSans-74" x="263.427734"/>
      <use xlink:href="#DejaVuSans-75" x="302.636719"/>
      <use xlink:href="#DejaVuSans-20" x="366.015625"/>
      <use xlink:href="#DejaVuSans-4f" x="397.802734"/>
      <use xlink:href="#DejaVuSans-70" x="476.513672"/>
      <use xlink:href="#DejaVuSans-65" x="539.990234"/>
      <use xlink:href="#DejaVuSans-6e" x="601.513672"/>
      <use xlink:href="#DejaVuSans-4d" x="664.892578"/>
      <use xlink:href="#DejaVuSans-50" x="751.171875"/>
      <use xlink:href="#DejaVuSans-49" x="811.474609"/>
      <use xlink:href="#DejaVuSans-20" x="840.966797"/>
      <use xlink:href="#DejaVuSans-65" x="872.753906"/>
      <use xlink:href="#DejaVuSans-42" x="934.277344"/>
      <use xlink:href="#DejaVuSans-50" x="1002.880859"/>
      <use xlink:href="#DejaVuSans-46" x="1063.183594"/>
      <use xlink:href="#DejaVuSans-20" x="1120.703125"/>
      <use xlink:href="#DejaVuSans-47" x="1152.490234"/>
      <use xlink:href="#DejaVuSans-50" x="1229.980469"/>
      <use xlink:href="#DejaVuSans-55" x="1290.283203"/>
     </g>
    </g>
    <g id="patch_93">
     <path d="M 467.316 191.975 
L 489.316 191.975 
L 489.316 184.275 
L 467.316 184.275 
z
" style="fill: #8a404f; stroke: #ffffff; stroke-linejoin: miter"/>
    </g>
    <g id="text_25">
     <!-- Ubuntu OpenMPI GPU -->
     <g style="fill: #262626" transform="translate(498.116 191.975) scale(0.11 -0.11)">
      <use xlink:href="#DejaVuSans-55"/>
      <use xlink:href="#DejaVuSans-62" x="73.193359"/>
      <use xlink:href="#DejaVuSans-75" x="136.669922"/>
      <use xlink:href="#DejaVuSans-6e" x="200.048828"/>
      <use xlink:href="#DejaVuSans-74" x="263.427734"/>
      <use xlink:href="#DejaVuSans-75" x="302.636719"/>
      <use xlink:href="#DejaVuSans-20" x="366.015625"/>
      <use xlink:href="#DejaVuSans-4f" x="397.802734"/>
      <use xlink:href="#DejaVuSans-70" x="476.513672"/>
      <use xlink:href="#DejaVuSans-65" x="539.990234"/>
      <use xlink:href="#DejaVuSans-6e" x="601.513672"/>
      <use xlink:href="#DejaVuSans-4d" x="664.892578"/>
      <use xlink:href="#DejaVuSans-50" x="751.171875"/>
      <use xlink:href="#DejaVuSans-49" x="811.474609"/>
      <use xlink:href="#DejaVuSans-20" x="840.966797"/>
      <use xlink:href="#DejaVuSans-47" x="872.753906"/>
      <use xlink:href="#DejaVuSans-50" x="950.244141"/>
      <use xlink:href="#DejaVuSans-55" x="1010.546875"/>
     </g>
    </g>
   </g>
  </g>
 </g>
 <defs>
  <clipPath id="p5b78845f12">
   <rect x="54.18" y="29.76" width="398.807273" height="156.9"/>
  </clipPath>
 </defs>
</svg>
