<?xml version="1.0" standalone="no"?>
<!DOCTYPE svg PUBLIC "-//W3C//DTD SVG 1.1//EN" "http://www.w3.org/Graphics/SVG/1.1/DTD/svg11.dtd">
<svg version="1.1" width="1200" height="358" onload="init(evt)" viewBox="0 0 1200 358" xmlns="http://www.w3.org/2000/svg" xmlns:xlink="http://www.w3.org/1999/xlink">
<!-- Flame graph stack visualization. See https://github.com/brendangregg/FlameGraph for latest version, and http://www.brendangregg.com/flamegraphs.html for examples. -->
<!-- NOTES:  -->
<defs>
	<linearGradient id="background" y1="0" y2="1" x1="0" x2="0" >
		<stop stop-color="#eeeeee" offset="5%" />
		<stop stop-color="#eeeeb0" offset="95%" />
	</linearGradient>
</defs>
<style type="text/css">
	text { font-family:Verdana; font-size:12px; fill:rgb(0,0,0); }
	#search, #ignorecase { opacity:0.1; cursor:pointer; }
	#search:hover, #search.show, #ignorecase:hover, #ignorecase.show { opacity:1; }
	#subtitle { text-anchor:middle; font-color:rgb(160,160,160); }
	#title { text-anchor:middle; font-size:17px}
	#unzoom { cursor:pointer; }
	#frames > *:hover { stroke:black; stroke-width:0.5; cursor:pointer; }
	.hide { display:none; }
	.parent { opacity:0.5; }
</style>
<script type="text/ecmascript">
<![CDATA[
	"use strict";
	var details, searchbtn, unzoombtn, matchedtxt, svg, searching, currentSearchTerm, ignorecase, ignorecaseBtn;
	function init(evt) {
		details = document.getElementById("details").firstChild;
		searchbtn = document.getElementById("search");
		ignorecaseBtn = document.getElementById("ignorecase");
		unzoombtn = document.getElementById("unzoom");
		matchedtxt = document.getElementById("matched");
		svg = document.getElementsByTagName("svg")[0];
		searching = 0;
		currentSearchTerm = null;

		// use GET parameters to restore a flamegraphs state.
		var params = get_params();
		if (params.x && params.y)
			zoom(find_group(document.querySelector('[x="' + params.x + '"][y="' + params.y + '"]')));
                if (params.s) search(params.s);
	}

	// event listeners
	window.addEventListener("click", function(e) {
		var target = find_group(e.target);
		if (target) {
			if (target.nodeName == "a") {
				if (e.ctrlKey === false) return;
				e.preventDefault();
			}
			if (target.classList.contains("parent")) unzoom(true);
			zoom(target);
			if (!document.querySelector('.parent')) {
				// we have basically done a clearzoom so clear the url
				var params = get_params();
				if (params.x) delete params.x;
				if (params.y) delete params.y;
				history.replaceState(null, null, parse_params(params));
				unzoombtn.classList.add("hide");
				return;
			}

			// set parameters for zoom state
			var el = target.querySelector("rect");
			if (el && el.attributes && el.attributes.y && el.attributes._orig_x) {
				var params = get_params()
				params.x = el.attributes._orig_x.value;
				params.y = el.attributes.y.value;
				history.replaceState(null, null, parse_params(params));
			}
		}
		else if (e.target.id == "unzoom") clearzoom();
		else if (e.target.id == "search") search_prompt();
		else if (e.target.id == "ignorecase") toggle_ignorecase();
	}, false)

	// mouse-over for info
	// show
	window.addEventListener("mouseover", function(e) {
		var target = find_group(e.target);
		if (target) details.nodeValue = "Function: " + g_to_text(target);
	}, false)

	// clear
	window.addEventListener("mouseout", function(e) {
		var target = find_group(e.target);
		if (target) details.nodeValue = ' ';
	}, false)

	// ctrl-F for search
	// ctrl-I to toggle case-sensitive search
	window.addEventListener("keydown",function (e) {
		if (e.keyCode === 114 || (e.ctrlKey && e.keyCode === 70)) {
			e.preventDefault();
			search_prompt();
		}
		else if (e.ctrlKey && e.keyCode === 73) {
			e.preventDefault();
			toggle_ignorecase();
		}
	}, false)

	// functions
	function get_params() {
		var params = {};
		var paramsarr = window.location.search.substr(1).split('&');
		for (var i = 0; i < paramsarr.length; ++i) {
			var tmp = paramsarr[i].split("=");
			if (!tmp[0] || !tmp[1]) continue;
			params[tmp[0]]  = decodeURIComponent(tmp[1]);
		}
		return params;
	}
	function parse_params(params) {
		var uri = "?";
		for (var key in params) {
			uri += key + '=' + encodeURIComponent(params[key]) + '&';
		}
		if (uri.slice(-1) == "&")
			uri = uri.substring(0, uri.length - 1);
		if (uri == '?')
			uri = window.location.href.split('?')[0];
		return uri;
	}
	function find_child(node, selector) {
		var children = node.querySelectorAll(selector);
		if (children.length) return children[0];
	}
	function find_group(node) {
		var parent = node.parentElement;
		if (!parent) return;
		if (parent.id == "frames") return node;
		return find_group(parent);
	}
	function orig_save(e, attr, val) {
		if (e.attributes["_orig_" + attr] != undefined) return;
		if (e.attributes[attr] == undefined) return;
		if (val == undefined) val = e.attributes[attr].value;
		e.setAttribute("_orig_" + attr, val);
	}
	function orig_load(e, attr) {
		if (e.attributes["_orig_"+attr] == undefined) return;
		e.attributes[attr].value = e.attributes["_orig_" + attr].value;
		e.removeAttribute("_orig_"+attr);
	}
	function g_to_text(e) {
		var text = find_child(e, "title").firstChild.nodeValue;
		return (text)
	}
	function g_to_func(e) {
		var func = g_to_text(e);
		// if there's any manipulation we want to do to the function
		// name before it's searched, do it here before returning.
		return (func);
	}
	function update_text(e) {
		var r = find_child(e, "rect");
		var t = find_child(e, "text");
		var w = parseFloat(r.attributes.width.value) -3;
		var txt = find_child(e, "title").textContent.replace(/\([^(]*\)$/,"");
		t.attributes.x.value = parseFloat(r.attributes.x.value) + 3;

		// Smaller than this size won't fit anything
		if (w < 2 * 12 * 0.59) {
			t.textContent = "";
			return;
		}

		t.textContent = txt;
		var sl = t.getSubStringLength(0, txt.length);
		// check if only whitespace or if we can fit the entire string into width w
		if (/^ *$/.test(txt) || sl < w)
			return;

		// this isn't perfect, but gives a good starting point
		// and avoids calling getSubStringLength too often
		var start = Math.floor((w/sl) * txt.length);
		for (var x = start; x > 0; x = x-2) {
			if (t.getSubStringLength(0, x + 2) <= w) {
				t.textContent = txt.substring(0, x) + "..";
				return;
			}
		}
		t.textContent = "";
	}

	// zoom
	function zoom_reset(e) {
		if (e.attributes != undefined) {
			orig_load(e, "x");
			orig_load(e, "width");
		}
		if (e.childNodes == undefined) return;
		for (var i = 0, c = e.childNodes; i < c.length; i++) {
			zoom_reset(c[i]);
		}
	}
	function zoom_child(e, x, ratio) {
		if (e.attributes != undefined) {
			if (e.attributes.x != undefined) {
				orig_save(e, "x");
				e.attributes.x.value = (parseFloat(e.attributes.x.value) - x - 10) * ratio + 10;
				if (e.tagName == "text")
					e.attributes.x.value = find_child(e.parentNode, "rect[x]").attributes.x.value + 3;
			}
			if (e.attributes.width != undefined) {
				orig_save(e, "width");
				e.attributes.width.value = parseFloat(e.attributes.width.value) * ratio;
			}
		}

		if (e.childNodes == undefined) return;
		for (var i = 0, c = e.childNodes; i < c.length; i++) {
			zoom_child(c[i], x - 10, ratio);
		}
	}
	function zoom_parent(e) {
		if (e.attributes) {
			if (e.attributes.x != undefined) {
				orig_save(e, "x");
				e.attributes.x.value = 10;
			}
			if (e.attributes.width != undefined) {
				orig_save(e, "width");
				e.attributes.width.value = parseInt(svg.width.baseVal.value) - (10 * 2);
			}
		}
		if (e.childNodes == undefined) return;
		for (var i = 0, c = e.childNodes; i < c.length; i++) {
			zoom_parent(c[i]);
		}
	}
	function zoom(node) {
		var attr = find_child(node, "rect").attributes;
		var width = parseFloat(attr.width.value);
		var xmin = parseFloat(attr.x.value);
		var xmax = parseFloat(xmin + width);
		var ymin = parseFloat(attr.y.value);
		var ratio = (svg.width.baseVal.value - 2 * 10) / width;

		// XXX: Workaround for JavaScript float issues (fix me)
		var fudge = 0.0001;

		unzoombtn.classList.remove("hide");

		var el = document.getElementById("frames").children;
		for (var i = 0; i < el.length; i++) {
			var e = el[i];
			var a = find_child(e, "rect").attributes;
			var ex = parseFloat(a.x.value);
			var ew = parseFloat(a.width.value);
			var upstack;
			// Is it an ancestor
			if (0 == 0) {
				upstack = parseFloat(a.y.value) > ymin;
			} else {
				upstack = parseFloat(a.y.value) < ymin;
			}
			if (upstack) {
				// Direct ancestor
				if (ex <= xmin && (ex+ew+fudge) >= xmax) {
					e.classList.add("parent");
					zoom_parent(e);
					update_text(e);
				}
				// not in current path
				else
					e.classList.add("hide");
			}
			// Children maybe
			else {
				// no common path
				if (ex < xmin || ex + fudge >= xmax) {
					e.classList.add("hide");
				}
				else {
					zoom_child(e, xmin, ratio);
					update_text(e);
				}
			}
		}
		search();
	}
	function unzoom(dont_update_text) {
		unzoombtn.classList.add("hide");
		var el = document.getElementById("frames").children;
		for(var i = 0; i < el.length; i++) {
			el[i].classList.remove("parent");
			el[i].classList.remove("hide");
			zoom_reset(el[i]);
			if(!dont_update_text) update_text(el[i]);
		}
		search();
	}
	function clearzoom() {
		unzoom();

		// remove zoom state
		var params = get_params();
		if (params.x) delete params.x;
		if (params.y) delete params.y;
		history.replaceState(null, null, parse_params(params));
	}

	// search
	function toggle_ignorecase() {
		ignorecase = !ignorecase;
		if (ignorecase) {
			ignorecaseBtn.classList.add("show");
		} else {
			ignorecaseBtn.classList.remove("show");
		}
		reset_search();
		search();
	}
	function reset_search() {
		var el = document.querySelectorAll("#frames rect");
		for (var i = 0; i < el.length; i++) {
			orig_load(el[i], "fill")
		}
		var params = get_params();
		delete params.s;
		history.replaceState(null, null, parse_params(params));
	}
	function search_prompt() {
		if (!searching) {
			var term = prompt("Enter a search term (regexp " +
			    "allowed, eg: ^ext4_)"
			    + (ignorecase ? ", ignoring case" : "")
			    + "\nPress Ctrl-i to toggle case sensitivity", "");
			if (term != null) search(term);
		} else {
			reset_search();
			searching = 0;
			currentSearchTerm = null;
			searchbtn.classList.remove("show");
			searchbtn.firstChild.nodeValue = "Search"
			matchedtxt.classList.add("hide");
			matchedtxt.firstChild.nodeValue = ""
		}
	}
	function search(term) {
		if (term) currentSearchTerm = term;
		if (currentSearchTerm === null) return;

		var re = new RegExp(currentSearchTerm, ignorecase ? 'i' : '');
		var el = document.getElementById("frames").children;
		var matches = new Object();
		var maxwidth = 0;
		for (var i = 0; i < el.length; i++) {
			var e = el[i];
			var func = g_to_func(e);
			var rect = find_child(e, "rect");
			if (func == null || rect == null)
				continue;

			// Save max width. Only works as we have a root frame
			var w = parseFloat(rect.attributes.width.value);
			if (w > maxwidth)
				maxwidth = w;

			if (func.match(re)) {
				// highlight
				var x = parseFloat(rect.attributes.x.value);
				orig_save(rect, "fill");
				rect.attributes.fill.value = "rgb(230,0,230)";

				// remember matches
				if (matches[x] == undefined) {
					matches[x] = w;
				} else {
					if (w > matches[x]) {
						// overwrite with parent
						matches[x] = w;
					}
				}
				searching = 1;
			}
		}
		if (!searching)
			return;
		var params = get_params();
		params.s = currentSearchTerm;
		history.replaceState(null, null, parse_params(params));

		searchbtn.classList.add("show");
		searchbtn.firstChild.nodeValue = "Reset Search";

		// calculate percent matched, excluding vertical overlap
		var count = 0;
		var lastx = -1;
		var lastw = 0;
		var keys = Array();
		for (k in matches) {
			if (matches.hasOwnProperty(k))
				keys.push(k);
		}
		// sort the matched frames by their x location
		// ascending, then width descending
		keys.sort(function(a, b){
			return a - b;
		});
		// Step through frames saving only the biggest bottom-up frames
		// thanks to the sort order. This relies on the tree property
		// where children are always smaller than their parents.
		var fudge = 0.0001;	// JavaScript floating point
		for (var k in keys) {
			var x = parseFloat(keys[k]);
			var w = matches[keys[k]];
			if (x >= lastx + lastw - fudge) {
				count += w;
				lastx = x;
				lastw = w;
			}
		}
		// display matched percent
		matchedtxt.classList.remove("hide");
		var pct = 100 * count / maxwidth;
		if (pct != 100) pct = pct.toFixed(1)
		matchedtxt.firstChild.nodeValue = "Matched: " + pct + "%";
	}
]]>
</script>
<rect x="0.0" y="0" width="1200.0" height="358.0" fill="url(#background)"  />
<text id="title" x="600.00" y="24" >Flame Graph</text>
<text id="details" x="10.00" y="341" > </text>
<text id="unzoom" x="10.00" y="24" class="hide">Reset Zoom</text>
<text id="search" x="1090.00" y="24" >Search</text>
<text id="ignorecase" x="1174.00" y="24" >ic</text>
<text id="matched" x="1090.00" y="341" > </text>
<g id="frames">
<g >
<title>__pv_queued_spin_lock_slowpath+0x2b9 (12 samples, 5.33%)</title><rect x="880.6" y="37" width="62.9" height="15.0" fill="rgb(217,57,13)" rx="2" ry="2" />
<text  x="883.58" y="47.5" >__pv_q..</text>
</g>
<g >
<title>[unknown] (82 samples, 36.44%)</title><rect x="529.2" y="261" width="430.0" height="15.0" fill="rgb(210,24,5)" rx="2" ry="2" />
<text  x="532.20" y="271.5" >[unknown]</text>
</g>
<g >
<title>entry_SYSCALL_64_after_hwframe+0x78 (11 samples, 4.89%)</title><rect x="959.2" y="261" width="57.7" height="15.0" fill="rgb(238,155,37)" rx="2" ry="2" />
<text  x="962.24" y="271.5" >entry_..</text>
</g>
<g >
<title>x64_sys_call+0x1eb1 (65 samples, 28.89%)</title><rect x="618.4" y="213" width="340.8" height="15.0" fill="rgb(215,49,11)" rx="2" ry="2" />
<text  x="621.36" y="223.5" >x64_sys_call+0x1eb1</text>
</g>
<g >
<title>link_path_walk.part.0.constprop.0+0x130 (1 samples, 0.44%)</title><rect x="1111.3" y="165" width="5.3" height="15.0" fill="rgb(229,111,26)" rx="2" ry="2" />
<text  x="1114.33" y="175.5" ></text>
</g>
<g >
<title>asm_exc_page_fault+0x27 (1 samples, 0.44%)</title><rect x="613.1" y="245" width="5.3" height="15.0" fill="rgb(234,133,32)" rx="2" ry="2" />
<text  x="616.11" y="255.5" ></text>
</g>
<g >
<title>path_lookupat+0x3e (3 samples, 1.33%)</title><rect x="959.2" y="149" width="15.8" height="15.0" fill="rgb(205,1,0)" rx="2" ry="2" />
<text  x="962.24" y="159.5" ></text>
</g>
<g >
<title>pci_user_read_config_dword+0x7e (17 samples, 7.56%)</title><rect x="1016.9" y="117" width="89.2" height="15.0" fill="rgb(213,40,9)" rx="2" ry="2" />
<text  x="1019.93" y="127.5" >pci_user_r..</text>
</g>
<g >
<title>walk_component+0x51 (2 samples, 0.89%)</title><rect x="964.5" y="117" width="10.5" height="15.0" fill="rgb(219,66,15)" rx="2" ry="2" />
<text  x="967.49" y="127.5" ></text>
</g>
<g >
<title>dput+0x136 (1 samples, 0.44%)</title><rect x="990.7" y="101" width="5.3" height="15.0" fill="rgb(231,119,28)" rx="2" ry="2" />
<text  x="993.71" y="111.5" ></text>
</g>
<g >
<title>kernfs_iop_permission+0x40 (1 samples, 0.44%)</title><rect x="618.4" y="101" width="5.2" height="15.0" fill="rgb(229,111,26)" rx="2" ry="2" />
<text  x="621.36" y="111.5" ></text>
</g>
<g >
<title>__pv_queued_spin_lock_slowpath+0x165 (1 samples, 0.44%)</title><rect x="975.0" y="69" width="5.2" height="15.0" fill="rgb(234,133,31)" rx="2" ry="2" />
<text  x="977.98" y="79.5" ></text>
</g>
<g >
<title>dget_parent+0x27 (3 samples, 1.33%)</title><rect x="996.0" y="101" width="15.7" height="15.0" fill="rgb(246,190,45)" rx="2" ry="2" />
<text  x="998.96" y="111.5" ></text>
</g>
<g >
<title>dput+0x136 (2 samples, 0.89%)</title><rect x="1142.8" y="117" width="10.5" height="15.0" fill="rgb(231,119,28)" rx="2" ry="2" />
<text  x="1145.80" y="127.5" ></text>
</g>
<g >
<title>_raw_spin_lock+0x38 (1 samples, 0.44%)</title><rect x="990.7" y="85" width="5.3" height="15.0" fill="rgb(235,141,33)" rx="2" ry="2" />
<text  x="993.71" y="95.5" ></text>
</g>
<g >
<title>dput+0x136 (5 samples, 2.22%)</title><rect x="1163.8" y="101" width="26.2" height="15.0" fill="rgb(231,119,28)" rx="2" ry="2" />
<text  x="1166.78" y="111.5" >d..</text>
</g>
<g >
<title>dput+0x136 (1 samples, 0.44%)</title><rect x="607.9" y="85" width="5.2" height="15.0" fill="rgb(231,119,28)" rx="2" ry="2" />
<text  x="610.87" y="95.5" ></text>
</g>
<g >
<title>x64_sys_call+0x2505 (1 samples, 0.44%)</title><rect x="607.9" y="181" width="5.2" height="15.0" fill="rgb(216,52,12)" rx="2" ry="2" />
<text  x="610.87" y="191.5" ></text>
</g>
<g >
<title>inode_permission+0xfc (1 samples, 0.44%)</title><rect x="1111.3" y="149" width="5.3" height="15.0" fill="rgb(247,195,46)" rx="2" ry="2" />
<text  x="1114.33" y="159.5" ></text>
</g>
<g >
<title>_raw_spin_lock+0x38 (1 samples, 0.44%)</title><rect x="607.9" y="69" width="5.2" height="15.0" fill="rgb(235,141,33)" rx="2" ry="2" />
<text  x="610.87" y="79.5" ></text>
</g>
<g >
<title>_raw_spin_lock+0x38 (3 samples, 1.33%)</title><rect x="996.0" y="69" width="15.7" height="15.0" fill="rgb(235,141,33)" rx="2" ry="2" />
<text  x="998.96" y="79.5" ></text>
</g>
<g >
<title>__pv_queued_spin_lock_slowpath+0x2b9 (2 samples, 0.89%)</title><rect x="980.2" y="69" width="10.5" height="15.0" fill="rgb(217,57,13)" rx="2" ry="2" />
<text  x="983.22" y="79.5" ></text>
</g>
<g >
<title>__pv_queued_spin_lock_slowpath+0x2b9 (14 samples, 6.22%)</title><rect x="739.0" y="53" width="73.4" height="15.0" fill="rgb(217,57,13)" rx="2" ry="2" />
<text  x="741.98" y="63.5" >__pv_que..</text>
</g>
<g >
<title>link_path_walk.part.0.constprop.0+0x2a9 (8 samples, 3.56%)</title><rect x="975.0" y="149" width="41.9" height="15.0" fill="rgb(217,57,13)" rx="2" ry="2" />
<text  x="977.98" y="159.5" >lin..</text>
</g>
<g >
<title>_raw_spin_lock+0x38 (5 samples, 2.22%)</title><rect x="1163.8" y="85" width="26.2" height="15.0" fill="rgb(235,141,33)" rx="2" ry="2" />
<text  x="1166.78" y="95.5" >_..</text>
</g>
<g >
<title>dput+0x136 (17 samples, 7.56%)</title><rect x="733.7" y="85" width="89.2" height="15.0" fill="rgb(231,119,28)" rx="2" ry="2" />
<text  x="736.73" y="95.5" >dput+0x136</text>
</g>
<g >
<title>[unknown] (6 samples, 2.67%)</title><rect x="581.6" y="245" width="31.5" height="15.0" fill="rgb(210,24,5)" rx="2" ry="2" />
<text  x="584.64" y="255.5" >[u..</text>
</g>
<g >
<title>pci_read_config+0x108 (1 samples, 0.44%)</title><rect x="1106.1" y="133" width="5.2" height="15.0" fill="rgb(212,33,7)" rx="2" ry="2" />
<text  x="1109.09" y="143.5" ></text>
</g>
<g >
<title>lockref_put_return+0x3 (1 samples, 0.44%)</title><rect x="649.8" y="101" width="5.3" height="15.0" fill="rgb(230,118,28)" rx="2" ry="2" />
<text  x="652.82" y="111.5" ></text>
</g>
<g >
<title>_raw_spin_lock+0x38 (2 samples, 0.89%)</title><rect x="1153.3" y="85" width="10.5" height="15.0" fill="rgb(235,141,33)" rx="2" ry="2" />
<text  x="1156.29" y="95.5" ></text>
</g>
<g >
<title>__pv_queued_spin_lock_slowpath+0x89 (1 samples, 0.44%)</title><rect x="1184.8" y="69" width="5.2" height="15.0" fill="rgb(211,31,7)" rx="2" ry="2" />
<text  x="1187.76" y="79.5" ></text>
</g>
<g >
<title>__d_lookup+0x6b (3 samples, 1.33%)</title><rect x="975.0" y="101" width="15.7" height="15.0" fill="rgb(229,111,26)" rx="2" ry="2" />
<text  x="977.98" y="111.5" ></text>
</g>
<g >
<title>__pv_queued_spin_lock_slowpath+0x2b9 (3 samples, 1.33%)</title><rect x="1121.8" y="85" width="15.8" height="15.0" fill="rgb(217,57,13)" rx="2" ry="2" />
<text  x="1124.82" y="95.5" ></text>
</g>
<g >
<title>kernfs_iop_permission+0x40 (1 samples, 0.44%)</title><rect x="1111.3" y="133" width="5.3" height="15.0" fill="rgb(229,111,26)" rx="2" ry="2" />
<text  x="1114.33" y="143.5" ></text>
</g>
<g >
<title>__pv_queued_spin_lock_slowpath+0x2be (2 samples, 0.89%)</title><rect x="712.8" y="53" width="10.4" height="15.0" fill="rgb(233,130,31)" rx="2" ry="2" />
<text  x="715.76" y="63.5" ></text>
</g>
<g >
<title>__pv_queued_spin_lock_slowpath+0x2b9 (11 samples, 4.89%)</title><rect x="655.1" y="53" width="57.7" height="15.0" fill="rgb(217,57,13)" rx="2" ry="2" />
<text  x="658.07" y="63.5" >__pv_q..</text>
</g>
<g >
<title>x64_sys_call+0x1eb1 (8 samples, 3.56%)</title><rect x="975.0" y="229" width="41.9" height="15.0" fill="rgb(215,49,11)" rx="2" ry="2" />
<text  x="977.98" y="239.5" >x64..</text>
</g>
<g >
<title>step_into+0x2a9 (1 samples, 0.44%)</title><rect x="1011.7" y="101" width="5.2" height="15.0" fill="rgb(245,186,44)" rx="2" ry="2" />
<text  x="1014.69" y="111.5" ></text>
</g>
<g >
<title>_raw_spin_lock+0x38 (3 samples, 1.33%)</title><rect x="975.0" y="85" width="15.7" height="15.0" fill="rgb(235,141,33)" rx="2" ry="2" />
<text  x="977.98" y="95.5" ></text>
</g>
<g >
<title>lookup_fast+0x65 (1 samples, 0.44%)</title><rect x="959.2" y="101" width="5.3" height="15.0" fill="rgb(215,48,11)" rx="2" ry="2" />
<text  x="962.24" y="111.5" ></text>
</g>
<g >
<title>__raw_spin_unlock_irq.constprop.0+0x17 (17 samples, 7.56%)</title><rect x="1016.9" y="101" width="89.2" height="15.0" fill="rgb(252,218,52)" rx="2" ry="2" />
<text  x="1019.93" y="111.5" >__raw_spin..</text>
</g>
<g >
<title>__pv_queued_spin_lock_slowpath+0x2b9 (3 samples, 1.33%)</title><rect x="1163.8" y="69" width="15.7" height="15.0" fill="rgb(217,57,13)" rx="2" ry="2" />
<text  x="1166.78" y="79.5" ></text>
</g>
<g >
<title>[unknown] (6 samples, 2.67%)</title><rect x="581.6" y="229" width="31.5" height="15.0" fill="rgb(210,24,5)" rx="2" ry="2" />
<text  x="584.64" y="239.5" >[u..</text>
</g>
<g >
<title>handle_dots+0x12e (11 samples, 4.89%)</title><rect x="822.9" y="101" width="57.7" height="15.0" fill="rgb(234,135,32)" rx="2" ry="2" />
<text  x="825.89" y="111.5" >handle..</text>
</g>
<g >
<title>path_put+0x16 (1 samples, 0.44%)</title><rect x="607.9" y="101" width="5.2" height="15.0" fill="rgb(221,75,18)" rx="2" ry="2" />
<text  x="610.87" y="111.5" ></text>
</g>
<g >
<title>__x64_sys_openat+0x55 (15 samples, 6.67%)</title><rect x="1111.3" y="229" width="78.7" height="15.0" fill="rgb(254,225,54)" rx="2" ry="2" />
<text  x="1114.33" y="239.5" >__x64_sys..</text>
</g>
<g >
<title>inode_permission+0xfc (6 samples, 2.67%)</title><rect x="618.4" y="117" width="31.4" height="15.0" fill="rgb(247,195,46)" rx="2" ry="2" />
<text  x="621.36" y="127.5" >in..</text>
</g>
<g >
<title>handle_pte_fault+0x1ba (1 samples, 0.44%)</title><rect x="613.1" y="165" width="5.3" height="15.0" fill="rgb(228,106,25)" rx="2" ry="2" />
<text  x="616.11" y="175.5" ></text>
</g>
<g >
<title>do_syscall_64+0x7f (65 samples, 28.89%)</title><rect x="618.4" y="229" width="340.8" height="15.0" fill="rgb(232,125,29)" rx="2" ry="2" />
<text  x="621.36" y="239.5" >do_syscall_64+0x7f</text>
</g>
<g >
<title>__pv_queued_spin_lock_slowpath+0xc7 (1 samples, 0.44%)</title><rect x="1137.6" y="85" width="5.2" height="15.0" fill="rgb(246,193,46)" rx="2" ry="2" />
<text  x="1140.56" y="95.5" ></text>
</g>
<g >
<title>folio_batch_move_lru+0xd7 (1 samples, 0.44%)</title><rect x="613.1" y="117" width="5.3" height="15.0" fill="rgb(243,174,41)" rx="2" ry="2" />
<text  x="616.11" y="127.5" ></text>
</g>
<g >
<title>_raw_spin_lock+0x38 (10 samples, 4.44%)</title><rect x="822.9" y="53" width="52.4" height="15.0" fill="rgb(235,141,33)" rx="2" ry="2" />
<text  x="825.89" y="63.5" >_raw_..</text>
</g>
<g >
<title>step_into+0x2a9 (15 samples, 6.67%)</title><rect x="880.6" y="85" width="78.6" height="15.0" fill="rgb(245,186,44)" rx="2" ry="2" />
<text  x="883.58" y="95.5" >step_into..</text>
</g>
<g >
<title>walk_component+0xb0 (1 samples, 0.44%)</title><rect x="649.8" y="117" width="5.3" height="15.0" fill="rgb(235,139,33)" rx="2" ry="2" />
<text  x="652.82" y="127.5" ></text>
</g>
<g >
<title>walk_component+0xd4 (7 samples, 3.11%)</title><rect x="1153.3" y="149" width="36.7" height="15.0" fill="rgb(246,190,45)" rx="2" ry="2" />
<text  x="1156.29" y="159.5" >wal..</text>
</g>
<g >
<title>__pv_queued_spin_lock_slowpath+0x2be (1 samples, 0.44%)</title><rect x="812.4" y="53" width="5.2" height="15.0" fill="rgb(233,130,31)" rx="2" ry="2" />
<text  x="815.40" y="63.5" ></text>
</g>
<g >
<title>all (225 samples, 100%)</title><rect x="10.0" y="309" width="1180.0" height="15.0" fill="rgb(213,39,9)" rx="2" ry="2" />
<text  x="13.00" y="319.5" ></text>
</g>
<g >
<title>_raw_spin_lock+0x38 (2 samples, 0.89%)</title><rect x="1142.8" y="101" width="10.5" height="15.0" fill="rgb(235,141,33)" rx="2" ry="2" />
<text  x="1145.80" y="111.5" ></text>
</g>
<g >
<title>__x64_sys_read+0x19 (18 samples, 8.00%)</title><rect x="1016.9" y="229" width="94.4" height="15.0" fill="rgb(222,79,18)" rx="2" ry="2" />
<text  x="1019.93" y="239.5" >__x64_sys_r..</text>
</g>
<g >
<title>dget_parent+0x27 (2 samples, 0.89%)</title><rect x="1153.3" y="117" width="10.5" height="15.0" fill="rgb(246,190,45)" rx="2" ry="2" />
<text  x="1156.29" y="127.5" ></text>
</g>
<g >
<title>_raw_spin_unlock_irqrestore+0x21 (1 samples, 0.44%)</title><rect x="613.1" y="101" width="5.3" height="15.0" fill="rgb(225,94,22)" rx="2" ry="2" />
<text  x="616.11" y="111.5" ></text>
</g>
<g >
<title>walk_component+0x51 (2 samples, 0.89%)</title><rect x="1142.8" y="149" width="10.5" height="15.0" fill="rgb(219,66,15)" rx="2" ry="2" />
<text  x="1145.80" y="159.5" ></text>
</g>
<g >
<title>exc_page_fault+0x83 (1 samples, 0.44%)</title><rect x="613.1" y="229" width="5.3" height="15.0" fill="rgb(208,16,3)" rx="2" ry="2" />
<text  x="616.11" y="239.5" ></text>
</g>
<g >
<title>handle_mm_fault+0x12a (1 samples, 0.44%)</title><rect x="613.1" y="197" width="5.3" height="15.0" fill="rgb(205,1,0)" rx="2" ry="2" />
<text  x="616.11" y="207.5" ></text>
</g>
<g >
<title>path_openat+0x87 (65 samples, 28.89%)</title><rect x="618.4" y="149" width="340.8" height="15.0" fill="rgb(218,64,15)" rx="2" ry="2" />
<text  x="621.36" y="159.5" >path_openat+0x87</text>
</g>
<g >
<title>walk_component+0xd4 (4 samples, 1.78%)</title><rect x="996.0" y="133" width="20.9" height="15.0" fill="rgb(246,190,45)" rx="2" ry="2" />
<text  x="998.96" y="143.5" ></text>
</g>
<g >
<title>do_sys_openat2+0xb3 (65 samples, 28.89%)</title><rect x="618.4" y="181" width="340.8" height="15.0" fill="rgb(227,104,24)" rx="2" ry="2" />
<text  x="621.36" y="191.5" >do_sys_openat2+0xb3</text>
</g>
<g >
<title>x64_sys_call+0x1bf0 (18 samples, 8.00%)</title><rect x="1016.9" y="245" width="94.4" height="15.0" fill="rgb(215,49,11)" rx="2" ry="2" />
<text  x="1019.93" y="255.5" >x64_sys_cal..</text>
</g>
<g >
<title>_raw_spin_lock+0x38 (1 samples, 0.44%)</title><rect x="959.2" y="69" width="5.3" height="15.0" fill="rgb(235,141,33)" rx="2" ry="2" />
<text  x="962.24" y="79.5" ></text>
</g>
<g >
<title>entry_SYSCALL_64_after_hwframe+0x78 (65 samples, 28.89%)</title><rect x="618.4" y="245" width="340.8" height="15.0" fill="rgb(238,155,37)" rx="2" ry="2" />
<text  x="621.36" y="255.5" >entry_SYSCALL_64_after_hwframe+0x78</text>
</g>
<g >
<title>__pv_queued_spin_lock_slowpath+0x2b9 (1 samples, 0.44%)</title><rect x="607.9" y="53" width="5.2" height="15.0" fill="rgb(217,57,13)" rx="2" ry="2" />
<text  x="610.87" y="63.5" ></text>
</g>
<g >
<title>__d_lookup+0x6b (15 samples, 6.67%)</title><rect x="655.1" y="85" width="78.6" height="15.0" fill="rgb(229,111,26)" rx="2" ry="2" />
<text  x="658.07" y="95.5" >__d_looku..</text>
</g>
<g >
<title>__do_sys_newfstatat+0x44 (1 samples, 0.44%)</title><rect x="607.9" y="149" width="5.2" height="15.0" fill="rgb(208,16,4)" rx="2" ry="2" />
<text  x="610.87" y="159.5" ></text>
</g>
<g >
<title>do_sys_openat2+0xb3 (15 samples, 6.67%)</title><rect x="1111.3" y="213" width="78.7" height="15.0" fill="rgb(227,104,24)" rx="2" ry="2" />
<text  x="1114.33" y="223.5" >do_sys_op..</text>
</g>
<g >
<title>down_read+0x1c (1 samples, 0.44%)</title><rect x="618.4" y="85" width="5.2" height="15.0" fill="rgb(226,100,24)" rx="2" ry="2" />
<text  x="621.36" y="95.5" ></text>
</g>
<g >
<title>__handle_mm_fault+0x653 (1 samples, 0.44%)</title><rect x="613.1" y="181" width="5.3" height="15.0" fill="rgb(223,84,20)" rx="2" ry="2" />
<text  x="616.11" y="191.5" ></text>
</g>
<g >
<title>__x64_sys_openat+0x55 (8 samples, 3.56%)</title><rect x="975.0" y="213" width="41.9" height="15.0" fill="rgb(254,225,54)" rx="2" ry="2" />
<text  x="977.98" y="223.5" >__x..</text>
</g>
<g >
<title>__pv_queued_spin_lock_slowpath+0x9d (1 samples, 0.44%)</title><rect x="870.1" y="37" width="5.2" height="15.0" fill="rgb(227,103,24)" rx="2" ry="2" />
<text  x="873.09" y="47.5" ></text>
</g>
<g >
<title>entry_SYSCALL_64_after_hwframe+0x78 (33 samples, 14.67%)</title><rect x="1016.9" y="277" width="173.1" height="15.0" fill="rgb(238,155,37)" rx="2" ry="2" />
<text  x="1019.93" y="287.5" >entry_SYSCALL_64_after..</text>
</g>
<g >
<title>link_path_walk.part.0.constprop.0+0x2a9 (58 samples, 25.78%)</title><rect x="655.1" y="133" width="304.1" height="15.0" fill="rgb(217,57,13)" rx="2" ry="2" />
<text  x="658.07" y="143.5" >link_path_walk.part.0.constprop.0+0x2a9</text>
</g>
<g >
<title>user_path_at_empty+0x3e (3 samples, 1.33%)</title><rect x="959.2" y="181" width="15.8" height="15.0" fill="rgb(231,122,29)" rx="2" ry="2" />
<text  x="962.24" y="191.5" ></text>
</g>
<g >
<title>__pv_queued_spin_lock_slowpath+0x2b9 (2 samples, 0.89%)</title><rect x="964.5" y="53" width="10.5" height="15.0" fill="rgb(217,57,13)" rx="2" ry="2" />
<text  x="967.49" y="63.5" ></text>
</g>
<g >
<title>lookup_fast+0x65 (15 samples, 6.67%)</title><rect x="655.1" y="101" width="78.6" height="15.0" fill="rgb(215,48,11)" rx="2" ry="2" />
<text  x="658.07" y="111.5" >lookup_fa..</text>
</g>
<g >
<title>__d_lookup+0x6b (5 samples, 2.22%)</title><rect x="1116.6" y="117" width="26.2" height="15.0" fill="rgb(229,111,26)" rx="2" ry="2" />
<text  x="1119.58" y="127.5" >_..</text>
</g>
<g >
<title>lookup_fast+0x65 (5 samples, 2.22%)</title><rect x="1116.6" y="133" width="26.2" height="15.0" fill="rgb(215,48,11)" rx="2" ry="2" />
<text  x="1119.58" y="143.5" >l..</text>
</g>
<g >
<title>sysfs_kf_bin_read+0x63 (18 samples, 8.00%)</title><rect x="1016.9" y="149" width="94.4" height="15.0" fill="rgb(228,107,25)" rx="2" ry="2" />
<text  x="1019.93" y="159.5" >sysfs_kf_bi..</text>
</g>
<g >
<title>[unknown] (5 samples, 2.22%)</title><rect x="581.6" y="213" width="26.3" height="15.0" fill="rgb(210,24,5)" rx="2" ry="2" />
<text  x="584.64" y="223.5" >[..</text>
</g>
<g >
<title>kernfs_fop_read_iter+0x25 (18 samples, 8.00%)</title><rect x="1016.9" y="181" width="94.4" height="15.0" fill="rgb(224,88,21)" rx="2" ry="2" />
<text  x="1019.93" y="191.5" >kernfs_fop_..</text>
</g>
<g >
<title>link_path_walk.part.0.constprop.0+0x2a9 (3 samples, 1.33%)</title><rect x="959.2" y="133" width="15.8" height="15.0" fill="rgb(217,57,13)" rx="2" ry="2" />
<text  x="962.24" y="143.5" ></text>
</g>
<g >
<title>x64_sys_call+0x1611 (3 samples, 1.33%)</title><rect x="959.2" y="229" width="15.8" height="15.0" fill="rgb(235,141,33)" rx="2" ry="2" />
<text  x="962.24" y="239.5" ></text>
</g>
<g >
<title>lockref_get_not_zero+0x6a (3 samples, 1.33%)</title><rect x="996.0" y="85" width="15.7" height="15.0" fill="rgb(252,218,52)" rx="2" ry="2" />
<text  x="998.96" y="95.5" ></text>
</g>
<g >
<title>_raw_spin_lock+0x38 (15 samples, 6.67%)</title><rect x="655.1" y="69" width="78.6" height="15.0" fill="rgb(235,141,33)" rx="2" ry="2" />
<text  x="658.07" y="79.5" >_raw_spin..</text>
</g>
<g >
<title>_raw_spin_lock+0x38 (15 samples, 6.67%)</title><rect x="880.6" y="53" width="78.6" height="15.0" fill="rgb(235,141,33)" rx="2" ry="2" />
<text  x="883.58" y="63.5" >_raw_spin..</text>
</g>
<g >
<title>__pv_queued_spin_lock_slowpath+0x9d (1 samples, 0.44%)</title><rect x="728.5" y="53" width="5.2" height="15.0" fill="rgb(227,103,24)" rx="2" ry="2" />
<text  x="731.49" y="63.5" ></text>
</g>
<g >
<title>__pv_queued_spin_lock_slowpath+0x2aa (1 samples, 0.44%)</title><rect x="1116.6" y="85" width="5.2" height="15.0" fill="rgb(215,48,11)" rx="2" ry="2" />
<text  x="1119.58" y="95.5" ></text>
</g>
<g >
<title>_raw_spin_lock+0x38 (17 samples, 7.56%)</title><rect x="733.7" y="69" width="89.2" height="15.0" fill="rgb(235,141,33)" rx="2" ry="2" />
<text  x="736.73" y="79.5" >_raw_spin_..</text>
</g>
<g >
<title>__pv_queued_spin_lock_slowpath+0x2b9 (2 samples, 0.89%)</title><rect x="1142.8" y="85" width="10.5" height="15.0" fill="rgb(217,57,13)" rx="2" ry="2" />
<text  x="1145.80" y="95.5" ></text>
</g>
<g >
<title>__pv_queued_spin_lock_slowpath+0x2b9 (1 samples, 0.44%)</title><rect x="1011.7" y="53" width="5.2" height="15.0" fill="rgb(217,57,13)" rx="2" ry="2" />
<text  x="1014.69" y="63.5" ></text>
</g>
<g >
<title>filename_lookup+0xe4 (3 samples, 1.33%)</title><rect x="959.2" y="165" width="15.8" height="15.0" fill="rgb(215,46,11)" rx="2" ry="2" />
<text  x="962.24" y="175.5" ></text>
</g>
<g >
<title>kernfs_file_read_iter+0xa1 (18 samples, 8.00%)</title><rect x="1016.9" y="165" width="94.4" height="15.0" fill="rgb(208,16,3)" rx="2" ry="2" />
<text  x="1019.93" y="175.5" >kernfs_file..</text>
</g>
<g >
<title>__pv_queued_spin_lock_slowpath+0x2b9 (1 samples, 0.44%)</title><rect x="959.2" y="53" width="5.3" height="15.0" fill="rgb(217,57,13)" rx="2" ry="2" />
<text  x="962.24" y="63.5" ></text>
</g>
<g >
<title>__pv_queued_spin_lock_slowpath+0x2b9 (2 samples, 0.89%)</title><rect x="1153.3" y="69" width="10.5" height="15.0" fill="rgb(217,57,13)" rx="2" ry="2" />
<text  x="1156.29" y="79.5" ></text>
</g>
<g >
<title>__pv_queued_spin_lock_slowpath+0x2be (3 samples, 1.33%)</title><rect x="943.5" y="37" width="15.7" height="15.0" fill="rgb(233,130,31)" rx="2" ry="2" />
<text  x="946.51" y="47.5" ></text>
</g>
<g >
<title>step_into+0x2a9 (5 samples, 2.22%)</title><rect x="1163.8" y="117" width="26.2" height="15.0" fill="rgb(245,186,44)" rx="2" ry="2" />
<text  x="1166.78" y="127.5" >s..</text>
</g>
<g >
<title>__x64_sys_openat+0x55 (65 samples, 28.89%)</title><rect x="618.4" y="197" width="340.8" height="15.0" fill="rgb(254,225,54)" rx="2" ry="2" />
<text  x="621.36" y="207.5" >__x64_sys_openat+0x55</text>
</g>
<g >
<title>folio_add_lru_vma+0x75 (1 samples, 0.44%)</title><rect x="613.1" y="133" width="5.3" height="15.0" fill="rgb(241,167,39)" rx="2" ry="2" />
<text  x="616.11" y="143.5" ></text>
</g>
<g >
<title>do_filp_open+0xaf (65 samples, 28.89%)</title><rect x="618.4" y="165" width="340.8" height="15.0" fill="rgb(212,35,8)" rx="2" ry="2" />
<text  x="621.36" y="175.5" >do_filp_open+0xaf</text>
</g>
<g >
<title>kernfs_iop_permission+0x5d (1 samples, 0.44%)</title><rect x="623.6" y="101" width="5.2" height="15.0" fill="rgb(236,147,35)" rx="2" ry="2" />
<text  x="626.60" y="111.5" ></text>
</g>
<g >
<title>link_path_walk.part.0.constprop.0+0x2a9 (14 samples, 6.22%)</title><rect x="1116.6" y="165" width="73.4" height="15.0" fill="rgb(217,57,13)" rx="2" ry="2" />
<text  x="1119.58" y="175.5" >link_pat..</text>
</g>
<g >
<title>walk_component+0x2c (1 samples, 0.44%)</title><rect x="959.2" y="117" width="5.3" height="15.0" fill="rgb(215,49,11)" rx="2" ry="2" />
<text  x="962.24" y="127.5" ></text>
</g>
<g >
<title>__pv_queued_spin_lock_slowpath+0x89 (1 samples, 0.44%)</title><rect x="723.2" y="53" width="5.3" height="15.0" fill="rgb(211,31,7)" rx="2" ry="2" />
<text  x="726.24" y="63.5" ></text>
</g>
<g >
<title>__pv_queued_spin_lock_slowpath+0x2be (3 samples, 1.33%)</title><rect x="854.4" y="37" width="15.7" height="15.0" fill="rgb(233,130,31)" rx="2" ry="2" />
<text  x="857.36" y="47.5" ></text>
</g>
<g >
<title>__x64_sys_faccessat2+0x1b (3 samples, 1.33%)</title><rect x="959.2" y="213" width="15.8" height="15.0" fill="rgb(217,55,13)" rx="2" ry="2" />
<text  x="962.24" y="223.5" ></text>
</g>
<g >
<title>up_read+0x11 (4 samples, 1.78%)</title><rect x="628.8" y="101" width="21.0" height="15.0" fill="rgb(212,36,8)" rx="2" ry="2" />
<text  x="631.84" y="111.5" ></text>
</g>
<g >
<title>handle_dots+0x12e (2 samples, 0.89%)</title><rect x="1153.3" y="133" width="10.5" height="15.0" fill="rgb(234,135,32)" rx="2" ry="2" />
<text  x="1156.29" y="143.5" ></text>
</g>
<g >
<title>path_openat+0x87 (8 samples, 3.56%)</title><rect x="975.0" y="165" width="41.9" height="15.0" fill="rgb(218,64,15)" rx="2" ry="2" />
<text  x="977.98" y="175.5" >pat..</text>
</g>
<g >
<title>do_filp_open+0xaf (8 samples, 3.56%)</title><rect x="975.0" y="181" width="41.9" height="15.0" fill="rgb(212,35,8)" rx="2" ry="2" />
<text  x="977.98" y="191.5" >do_..</text>
</g>
<g >
<title>ksys_read+0x73 (18 samples, 8.00%)</title><rect x="1016.9" y="213" width="94.4" height="15.0" fill="rgb(231,124,29)" rx="2" ry="2" />
<text  x="1019.93" y="223.5" >ksys_read+0..</text>
</g>
<g >
<title>generic_permission+0x23 (1 samples, 0.44%)</title><rect x="623.6" y="85" width="5.2" height="15.0" fill="rgb(212,35,8)" rx="2" ry="2" />
<text  x="626.60" y="95.5" ></text>
</g>
<g >
<title>walk_component+0x2c (3 samples, 1.33%)</title><rect x="975.0" y="133" width="15.7" height="15.0" fill="rgb(215,49,11)" rx="2" ry="2" />
<text  x="977.98" y="143.5" ></text>
</g>
<g >
<title>entry_SYSCALL_64_after_hwframe+0x78 (1 samples, 0.44%)</title><rect x="607.9" y="213" width="5.2" height="15.0" fill="rgb(238,155,37)" rx="2" ry="2" />
<text  x="610.87" y="223.5" ></text>
</g>
<g >
<title>handle_dots+0x12e (3 samples, 1.33%)</title><rect x="996.0" y="117" width="15.7" height="15.0" fill="rgb(234,135,32)" rx="2" ry="2" />
<text  x="998.96" y="127.5" ></text>
</g>
<g >
<title>do_sys_openat2+0xb3 (8 samples, 3.56%)</title><rect x="975.0" y="197" width="41.9" height="15.0" fill="rgb(227,104,24)" rx="2" ry="2" />
<text  x="977.98" y="207.5" >do_..</text>
</g>
<g >
<title>do_syscall_64+0x7f (1 samples, 0.44%)</title><rect x="607.9" y="197" width="5.2" height="15.0" fill="rgb(232,125,29)" rx="2" ry="2" />
<text  x="610.87" y="207.5" ></text>
</g>
<g >
<title>walk_component+0x2c (5 samples, 2.22%)</title><rect x="1116.6" y="149" width="26.2" height="15.0" fill="rgb(215,49,11)" rx="2" ry="2" />
<text  x="1119.58" y="159.5" >w..</text>
</g>
<g >
<title>step_into+0x2a9 (2 samples, 0.89%)</title><rect x="964.5" y="101" width="10.5" height="15.0" fill="rgb(245,186,44)" rx="2" ry="2" />
<text  x="967.49" y="111.5" ></text>
</g>
<g >
<title>__x64_sys_newfstatat+0x1c (1 samples, 0.44%)</title><rect x="607.9" y="165" width="5.2" height="15.0" fill="rgb(227,103,24)" rx="2" ry="2" />
<text  x="610.87" y="175.5" ></text>
</g>
<g >
<title>do_syscall_64+0x7f (11 samples, 4.89%)</title><rect x="959.2" y="245" width="57.7" height="15.0" fill="rgb(232,125,29)" rx="2" ry="2" />
<text  x="962.24" y="255.5" >do_sys..</text>
</g>
<g >
<title>__d_lookup+0x6b (1 samples, 0.44%)</title><rect x="959.2" y="85" width="5.3" height="15.0" fill="rgb(229,111,26)" rx="2" ry="2" />
<text  x="962.24" y="95.5" ></text>
</g>
<g >
<title>walk_component+0x51 (1 samples, 0.44%)</title><rect x="990.7" y="133" width="5.3" height="15.0" fill="rgb(219,66,15)" rx="2" ry="2" />
<text  x="993.71" y="143.5" ></text>
</g>
<g >
<title>__pv_queued_spin_lock_slowpath+0x2c3 (1 samples, 0.44%)</title><rect x="1179.5" y="69" width="5.3" height="15.0" fill="rgb(249,206,49)" rx="2" ry="2" />
<text  x="1182.51" y="79.5" ></text>
</g>
<g >
<title>dput+0x136 (15 samples, 6.67%)</title><rect x="880.6" y="69" width="78.6" height="15.0" fill="rgb(231,119,28)" rx="2" ry="2" />
<text  x="883.58" y="79.5" >dput+0x136</text>
</g>
<g >
<title>lockref_get_not_zero+0x6a (2 samples, 0.89%)</title><rect x="1153.3" y="101" width="10.5" height="15.0" fill="rgb(252,218,52)" rx="2" ry="2" />
<text  x="1156.29" y="111.5" ></text>
</g>
<g >
<title>down_read+0x1c (1 samples, 0.44%)</title><rect x="1111.3" y="117" width="5.3" height="15.0" fill="rgb(226,100,24)" rx="2" ry="2" />
<text  x="1114.33" y="127.5" ></text>
</g>
<g >
<title>step_into+0x2a9 (17 samples, 7.56%)</title><rect x="733.7" y="101" width="89.2" height="15.0" fill="rgb(245,186,44)" rx="2" ry="2" />
<text  x="736.73" y="111.5" >step_into+..</text>
</g>
<g >
<title>do_user_addr_fault+0x157 (1 samples, 0.44%)</title><rect x="613.1" y="213" width="5.3" height="15.0" fill="rgb(251,212,50)" rx="2" ry="2" />
<text  x="616.11" y="223.5" ></text>
</g>
<g >
<title>dput+0x136 (2 samples, 0.89%)</title><rect x="964.5" y="85" width="10.5" height="15.0" fill="rgb(231,119,28)" rx="2" ry="2" />
<text  x="967.49" y="95.5" ></text>
</g>
<g >
<title>dget_parent+0x27 (11 samples, 4.89%)</title><rect x="822.9" y="85" width="57.7" height="15.0" fill="rgb(246,190,45)" rx="2" ry="2" />
<text  x="825.89" y="95.5" >dget_p..</text>
</g>
<g >
<title>lockref_get_not_zero+0x6a (10 samples, 4.44%)</title><rect x="822.9" y="69" width="52.4" height="15.0" fill="rgb(252,218,52)" rx="2" ry="2" />
<text  x="825.89" y="79.5" >lockr..</text>
</g>
<g >
<title>dput+0x136 (1 samples, 0.44%)</title><rect x="1011.7" y="85" width="5.2" height="15.0" fill="rgb(231,119,28)" rx="2" ry="2" />
<text  x="1014.69" y="95.5" ></text>
</g>
<g >
<title>_raw_spin_lock+0x38 (1 samples, 0.44%)</title><rect x="1011.7" y="69" width="5.2" height="15.0" fill="rgb(235,141,33)" rx="2" ry="2" />
<text  x="1014.69" y="79.5" ></text>
</g>
<g >
<title>walk_component+0xd4 (26 samples, 11.56%)</title><rect x="822.9" y="117" width="136.3" height="15.0" fill="rgb(246,190,45)" rx="2" ry="2" />
<text  x="825.89" y="127.5" >walk_component+0xd4</text>
</g>
<g >
<title>walk_component+0x2c (15 samples, 6.67%)</title><rect x="655.1" y="117" width="78.6" height="15.0" fill="rgb(215,49,11)" rx="2" ry="2" />
<text  x="658.07" y="127.5" >walk_comp..</text>
</g>
<g >
<title>vfs_fstatat+0xaa (1 samples, 0.44%)</title><rect x="607.9" y="133" width="5.2" height="15.0" fill="rgb(216,52,12)" rx="2" ry="2" />
<text  x="610.87" y="143.5" ></text>
</g>
<g >
<title>walk_component+0x51 (17 samples, 7.56%)</title><rect x="733.7" y="117" width="89.2" height="15.0" fill="rgb(219,66,15)" rx="2" ry="2" />
<text  x="736.73" y="127.5" >walk_compo..</text>
</g>
<g >
<title>do_syscall_64+0x7f (33 samples, 14.67%)</title><rect x="1016.9" y="261" width="173.1" height="15.0" fill="rgb(232,125,29)" rx="2" ry="2" />
<text  x="1019.93" y="271.5" >do_syscall_64+0x7f</text>
</g>
<g >
<title>do_faccessat+0x10a (3 samples, 1.33%)</title><rect x="959.2" y="197" width="15.8" height="15.0" fill="rgb(241,169,40)" rx="2" ry="2" />
<text  x="962.24" y="207.5" ></text>
</g>
<g >
<title>pci_read_config+0x105 (17 samples, 7.56%)</title><rect x="1016.9" y="133" width="89.2" height="15.0" fill="rgb(231,122,29)" rx="2" ry="2" />
<text  x="1019.93" y="143.5" >pci_read_c..</text>
</g>
<g >
<title>__pv_queued_spin_lock_slowpath+0x2b9 (3 samples, 1.33%)</title><rect x="996.0" y="53" width="15.7" height="15.0" fill="rgb(217,57,13)" rx="2" ry="2" />
<text  x="998.96" y="63.5" ></text>
</g>
<g >
<title>x64_sys_call+0x1eb1 (15 samples, 6.67%)</title><rect x="1111.3" y="245" width="78.7" height="15.0" fill="rgb(215,49,11)" rx="2" ry="2" />
<text  x="1114.33" y="255.5" >x64_sys_c..</text>
</g>
<g >
<title>path_openat+0x87 (15 samples, 6.67%)</title><rect x="1111.3" y="181" width="78.7" height="15.0" fill="rgb(218,64,15)" rx="2" ry="2" />
<text  x="1114.33" y="191.5" >path_open..</text>
</g>
<g >
<title>link_path_walk.part.0.constprop.0+0x23f (1 samples, 0.44%)</title><rect x="649.8" y="133" width="5.3" height="15.0" fill="rgb(223,87,20)" rx="2" ry="2" />
<text  x="652.82" y="143.5" ></text>
</g>
<g >
<title>handle_dots+0xcb (5 samples, 2.22%)</title><rect x="1163.8" y="133" width="26.2" height="15.0" fill="rgb(253,224,53)" rx="2" ry="2" />
<text  x="1166.78" y="143.5" >h..</text>
</g>
<g >
<title>lockref_get_not_zero+0x8 (1 samples, 0.44%)</title><rect x="875.3" y="69" width="5.3" height="15.0" fill="rgb(216,51,12)" rx="2" ry="2" />
<text  x="878.33" y="79.5" ></text>
</g>
<g >
<title>step_into+0x2a9 (2 samples, 0.89%)</title><rect x="1142.8" y="133" width="10.5" height="15.0" fill="rgb(245,186,44)" rx="2" ry="2" />
<text  x="1145.80" y="143.5" ></text>
</g>
<g >
<title>__pv_queued_spin_lock_slowpath+0x129 (1 samples, 0.44%)</title><rect x="733.7" y="53" width="5.3" height="15.0" fill="rgb(234,133,31)" rx="2" ry="2" />
<text  x="736.73" y="63.5" ></text>
</g>
<g >
<title>step_into+0x2a9 (1 samples, 0.44%)</title><rect x="990.7" y="117" width="5.3" height="15.0" fill="rgb(245,186,44)" rx="2" ry="2" />
<text  x="993.71" y="127.5" ></text>
</g>
<g >
<title>handle_dots+0xcb (15 samples, 6.67%)</title><rect x="880.6" y="101" width="78.6" height="15.0" fill="rgb(253,224,53)" rx="2" ry="2" />
<text  x="883.58" y="111.5" >handle_do..</text>
</g>
<g >
<title>do_filp_open+0xaf (15 samples, 6.67%)</title><rect x="1111.3" y="197" width="78.7" height="15.0" fill="rgb(212,35,8)" rx="2" ry="2" />
<text  x="1114.33" y="207.5" >do_filp_o..</text>
</g>
<g >
<title>_raw_spin_lock+0x38 (5 samples, 2.22%)</title><rect x="1116.6" y="101" width="26.2" height="15.0" fill="rgb(235,141,33)" rx="2" ry="2" />
<text  x="1119.58" y="111.5" >_..</text>
</g>
<g >
<title>do_anonymous_page+0x36c (1 samples, 0.44%)</title><rect x="613.1" y="149" width="5.3" height="15.0" fill="rgb(207,13,3)" rx="2" ry="2" />
<text  x="616.11" y="159.5" ></text>
</g>
<g >
<title>__pv_queued_spin_lock_slowpath+0x2b9 (1 samples, 0.44%)</title><rect x="990.7" y="69" width="5.3" height="15.0" fill="rgb(217,57,13)" rx="2" ry="2" />
<text  x="993.71" y="79.5" ></text>
</g>
<g >
<title>__pv_queued_spin_lock_slowpath+0x2b9 (6 samples, 2.67%)</title><rect x="822.9" y="37" width="31.5" height="15.0" fill="rgb(217,57,13)" rx="2" ry="2" />
<text  x="825.89" y="47.5" >__..</text>
</g>
<g >
<title>vfs_statx+0x115 (1 samples, 0.44%)</title><rect x="607.9" y="117" width="5.2" height="15.0" fill="rgb(253,225,53)" rx="2" ry="2" />
<text  x="610.87" y="127.5" ></text>
</g>
<g >
<title>lookup_fast+0x65 (3 samples, 1.33%)</title><rect x="975.0" y="117" width="15.7" height="15.0" fill="rgb(215,48,11)" rx="2" ry="2" />
<text  x="977.98" y="127.5" ></text>
</g>
<g >
<title>link_path_walk.part.0.constprop.0+0x130 (6 samples, 2.67%)</title><rect x="618.4" y="133" width="31.4" height="15.0" fill="rgb(229,111,26)" rx="2" ry="2" />
<text  x="621.36" y="143.5" >li..</text>
</g>
<g >
<title>vfs_read+0x25c (18 samples, 8.00%)</title><rect x="1016.9" y="197" width="94.4" height="15.0" fill="rgb(206,6,1)" rx="2" ry="2" />
<text  x="1019.93" y="207.5" >vfs_read+0x..</text>
</g>
<g >
<title>_raw_spin_lock+0x38 (2 samples, 0.89%)</title><rect x="964.5" y="69" width="10.5" height="15.0" fill="rgb(235,141,33)" rx="2" ry="2" />
<text  x="967.49" y="79.5" ></text>
</g>
<g >
<title>[unknown] (192 samples, 85.33%)</title><rect x="10.0" y="277" width="1006.9" height="15.0" fill="rgb(210,24,5)" rx="2" ry="2" />
<text  x="13.00" y="287.5" >[unknown]</text>
</g>
<g >
<title>__pv_queued_spin_lock_slowpath+0x2c3 (1 samples, 0.44%)</title><rect x="817.6" y="53" width="5.3" height="15.0" fill="rgb(249,206,49)" rx="2" ry="2" />
<text  x="820.64" y="63.5" ></text>
</g>
<g >
<title>handle_dots+0xcb (1 samples, 0.44%)</title><rect x="1011.7" y="117" width="5.2" height="15.0" fill="rgb(253,224,53)" rx="2" ry="2" />
<text  x="1014.69" y="127.5" ></text>
</g>
<g >
<title>lmp-73432 (225 samples, 100.00%)</title><rect x="10.0" y="293" width="1180.0" height="15.0" fill="rgb(224,89,21)" rx="2" ry="2" />
<text  x="13.00" y="303.5" >lmp-73432</text>
</g>
</g>
</svg>
